<mxfile host="app.diagrams.net" modified="2022-07-31T05:37:03.552Z" agent="5.0 (Windows NT 10.0; Win64; x64) AppleWebKit/537.36 (KHTML, like Gecko) Chrome/103.0.0.0 Safari/537.36" etag="HuT8ncaXfUuBE7mb3i3g" version="20.2.2" type="github">
  <diagram id="CCG2Id95Mdhstx-RCtd1" name="Page-1">
    <mxGraphModel dx="3020" dy="1205" grid="1" gridSize="10" guides="1" tooltips="1" connect="1" arrows="1" fold="1" page="1" pageScale="1" pageWidth="850" pageHeight="1100" math="0" shadow="0">
      <root>
        <mxCell id="0" />
        <mxCell id="1" parent="0" />
        <mxCell id="Z_0YeXmDCLqOWmuJR8lk-5" style="edgeStyle=orthogonalEdgeStyle;rounded=0;orthogonalLoop=1;jettySize=auto;html=1;strokeWidth=2;strokeColor=#2a2a2a;endArrow=baseDash;endFill=0;" edge="1" parent="1">
          <mxGeometry relative="1" as="geometry">
            <mxPoint x="1170" y="103.51428571428568" as="sourcePoint" />
            <mxPoint x="-333.5" y="374" as="targetPoint" />
            <Array as="points">
              <mxPoint x="1204" y="104" />
              <mxPoint x="1204" y="239" />
              <mxPoint x="-359" y="239" />
              <mxPoint x="-359" y="374" />
            </Array>
          </mxGeometry>
        </mxCell>
        <mxCell id="Z_0YeXmDCLqOWmuJR8lk-1" value="" style="shape=image;verticalLabelPosition=bottom;labelBackgroundColor=default;verticalAlign=top;aspect=fixed;imageAspect=0;image=data:image/png,iVBORw0KGgoAAAANSUhEUgAABaYAAAC7CAYAAACel0lwAAAAAXNSR0IArs4c6QAAAARnQU1BAACxjwv8YQUAAAAJcEhZcwAADsMAAA7DAcdvqGQAAAAhdEVYdENyZWF0aW9uIFRpbWUAMjAyMjowNzozMSAxMToxMDowML5RJhsAAICfSURBVHhe7d0HfBPlGwfwp4suRtmj7L23LBEFFAX/skRARBAVZQmCKAiiOFiCLFmCoCBbBEFEBEFAZE/Zq+xddmlZhX9+b+8t1zRt052kvy+ffNpeLsklJJe73z33vG6PLISIiIiIiIiIiIiIKIW4Gz+JiIiIiIiIiIiIiFIEg2kiIiIiIiIiIiIiSlEMpomIiIiIiIiIiIgoRTGYJiIiIiIiIiIiIqIUxWCaiIiIiIiIiIiIiFIUg2kiIiIiIiIiIiIiSlFujyyM34mIiIiIiCiRgoKC1OXYsWPGFCKKiZ+fnxQvXlwKFiwoOXPmNKYSEVFawGCaiIiIiIgokbZt2yYTJkxQgXRISIgxlYjiI0eOHFKqVCnp1KmTFCtWzJhKRESuisE0ERERERFRIixYsECGDh1q/GXh4SaSzlMeeXsYE4goJm5IJO4+iLgY6YSPj490795dWrZsGTGBiIhcEoNpIiIiIiKiBHrjjTdk7969EX8E+IikTyeSjoE0UYLceSBy7Y5I2H31Z4MGDWTw4MHqdyIicj0c/JCIiIiIiCgBmjRpEhFKu7uJBGYUyeLLUJooMXw8RXKnF8mQTv25YsUKmTZtmvqdiIhcD4NpIiIiIiKieEIV59mzZ0U8LbtUBQNE2LaDKOlk948IqC3Qu3337t3qdyIici0MpomIiIiIiOJh9erVsnDhwog/cmeI+ElEScvXK+IsBAscCLp+/br6nYiIXAeDaSIiIiIioniYNWtWxC9ZfUW8uEtFlGzQt93XS44dOyYzZswwJhIRkavgVhQREREREVE8BAUFiUc6L5FMPsYUIko2/pbPmsXRo0fVTyIich0MpomIiIiIiOx08uRJuXXrloS7PzKmEFGy8vZUP1A1TUREroXBNBERERERkZ2OHz8e8QsGPSSi5IeBRd3d5OLFi3Lt2jVjIhERuQJuTREREREREdnp0KFD6ucjBtNEKSedh/qBNjpEROQ6uDVFRERERERERERERCmKwTQRERERERERERERpSgG00RERERERERERESUohhMExEREREREREREVGKYjBNRERERERERERERCmKwTQREREREREpAzr1km3zV6qfFH/zR34v66YvlkZ1njWmEBERUUwYTBMREREREaWACQO+VqGv+bJ13gr5c/I86dW+k/j5+hlzOheEsXguq6ctlAZP1jWmRoewFqEt5k9LxvYbLFvm/ikjPhxoTEkdjrIcREREGoNpIiIiIiKiFHTxymU5cjJIXa7dvCFZMmWWVxs1ly+6fWTM4Zwyps8grV5o4rQBOxEREaUsBtNEREREREQpaNPubfLqh++qS4OOr8gPv86V+w/uS+VS5eXZmnWMueKvXZNWsnTCLFUZm9Lu3b8nN2+HSOkiJaRD09bGVILug/tJtdbPS+/hyV+pHNt7ICWXg4iIyB4MpomIiIiIiFLRj7/OlXOXLoqvj68UzV/ImBp/BXIHSq5sOcTTw9OYkpLc5NDxo+Lh7q5adjxRtqIxnVJS6r4HiIiI4ofBNBERERERUSoKDQuVh48eyoPwB3L1xnVjqnNxc3OTfUcPytHTJyRHlmzS/Ln/GdcQERER2eb2yML4nYiIiIiIiGLx3XffyZQpU+RRgI+4ZfE1ptoHgx9WK1dJFq/+Q76cNNKYKvJC7Xry0VvvScjtEOk/ZrDsOXLAuEak7UstpPEzz0veXIGSzstLsPsWfP2qzF22SKYvnqfm6dSqvbRv0lq8PKNXyVo/VvsmreTl5/4nObNmFw8PD3n48KG6v2kLZ8uCFb/JgE69pEm9hup2QWdOSauGTSWXZV4Ez7csy7d07UoZOX2icW8RMJhhPsvyTV88V4KvXZVubd5S08fNnqruU0MldV/L87xw5bK07PW2MTUC+lJ3atlOGtSqK1kyBYi7u7uEh4erfty/rFwa+Vw183JintaNmksGP39ZtGqZrNywRj7v1kfNN2r6JGn5QhMpU7SE5fXxivIccPv2TVpK3px5Yn1+NStUldcbv2K5j5Li5+Or5g29Eybrt2+S0TOnyCXL42t4LfB6DZ36rSxb95eaZl5W/F/o1yGmXtz4P16zdYN8OCKi5UZSvQesl8PM1vsCB0lWbPhbJs2foQ6eaPqxdh7YI0vX/KnahxQKzK/+z26F3pa/Nq6V0T9NjnKbRDt3S+TOA/X5q1KlijGRiIicHSumiYiIiIiIUgGCydYNm0nnVm+It5eX/PHPqiihNALMd1q8Lvly55Vzly7I+h2b5cS505IlY4C888rr8obRyxlh8NFTx1VACxhQUQ+uqKfhscb1H6pC4+xZssnpC+fU/R0+eUxdjwEYzQrnKyhdWr8hDx+Gy5Y9O+XspfOSwT+9tGjwP8tjtzPmig5B9Mbd28Tf8nioms5vWfa4FM5bQCYOGKYGgEzv5y+HThyTdds2yrnLF1Vbiq6vvimfd7U9MGTWgCwqlM5oWTYExmglonl6eKgQFaH5f4f3R3kOA7t+KD1ef0f8fPxkx4H/5MzF8+qxbT2/nu07yRNlK8ntsFDZunen/HdoH9Jjea7WM9L37e7GXPa7GXJLjp05Gfl/pC+Xrgar649brps49wf1e1K+B2zB+2J036/Ua4z3xcnzZ+TvLf+qx8iUIaP6PxnR+zObIXrmjJmk95vdJCBDJsvrskvdxt/HV5rWaxh5cIKIiCg2DKaJiIiIiIhSEKpWt81fKeumL5beHbpIxvQZVOXrxHk/GnNEQNXq/qDD0mvYAGnR8015f+gn8krPt2T1lvWSziudVCtXWc2HMPj1vl3UoIqAMFIPrjj555/UNASFqNa+fDVY+o76MvL+2vbpIo06vWqZb4aaTytTpIT8tXGdNH2vvXQb1FfafNRZtu3brR63RvmIx43J7KW/yPnLF6VovoLSulEzY2rM3nr5NTVoIoLNHkP7q+fS6+tPpVn39jJuzjRVnVy3em155fnGxi0eK1GoqARfuyLvDfpYqrZ8LkolMML2e/fvS5cvP5JOn3+onstfm9apyulGdZ6Ti8GXIq/DY63a/I+6zvr54f5R/Y3XqcuXfeTNAe/LhLk/yp17d6Wk5fHj208b4XKH/t0j/49w+dZy/wi7UbU9b/liCTpzUs2blO8BW95q3kZqVKgiV25cky8njlCV7KjUxk/8jcrsyqXLq/msFclfSLZb3hPN3++g3iNYrhUb1qCvi1S3vNfsOShBRERpG4NpIiIiIiKiFIQKVl3NijYQaA/RscXr8sOgsap6WFu+frUKTVGBbHYg6Ijcu39PsmXOYkyJHQJCtKNAD+ufV/wma7duMK6J2Ymzp2TYtHHGXxF9sLEcd+/dlcyZMscaOqLqGy0x8HjP1qgjdas9aVwTXblipaR88dIq5P1lxVIVdJrNWDxPdh3cq14jPAdrHu4eqrrY+jUCvEYISnXICxt3bZOwu3fU80DbD/N1ka9rlmwqKNcQRlu3EkEFNqqS0/v6qUrjxEA1cqeW7S3/n1nl7y3rVesSLaneA7bgcWuUj2iLseLfv2XZP6vU7xr+RuW6u+U1rm7jYASCffz/mFt2rN22QbWkyeCfQQrmYTBNRESxYzBNRERERESUglDVqqtZG3VuI29/2lOOnT4hZYuWlG6vRe29nCNrdtWO4vsvRsnCMT/I2umLpdurb4p3Om9jjriVLVZSsmYKkODr12TzfzuMqbG7dPVKtB7BqBxG32fvdOkkZ9bYw9iZSxfI7kP7Vb/oli80tdkKAvLlDpRM6TOoVhQbdm01pkZ1+MQxuf/ggeTJkcuY8ljQmROq9YQtd+7eldMXzhp/RUBYjsrk26GhcvLcGWNqBP380ALE3zdq//Bm9RvJyI++kHnfTJG/pi5Q/x95suc0rk2cPm92U5XX2/f/JyN+jNrfGpLiPWBLmSLFJbPl/+dmSEi0AwLavqOHLK/jHdU6pFKpcsbUCDdCbkZpPQM3bt1UBxl8LO+R9P7pjalERES2cfBDIiIii5MnT8qhQ4fk+PHjxhQi54U+q0WLFpUSJUpIYGCgMZWIkkJyDH4ILz3TQHp36Cq3Q29L/7FD1MByGIwOvX/R6gMtKUJCQ1SAe/3WDalYsqzqi2weRFAPboee0GhRoXVs0VY6NGtjmf9ctEEHrcU2QJ4etC8kLFQ+GzdM9RUG8+CHk+ZNV9MAldIfd3xf0vv5yY+/zlOPbz34oR5IDwFyTMtmax69nKiI7jd6kJqmobWGHvzQvJwQ03MAW9ehgv2rHv2kWP5CatBB9Jm+fO2KCrELWa5DT2XzQIf2DH5ohv9jtFkJuxMmX00eLRt2bjGuiZBU7wGwXo7YXgvN1jz6/wPvUevH0K89KsnNr0GicfBDIiKXxGCaiIjSrE2bNsnUqVPl4MGDEhYWZkwlci0ZM2aUUqVKSdeuXaV06dLGVCJKqOQKpq3D1ItXgmVUny8kT47c8tvfy2X0zCmRFcyN676gelNfCL5kVyip579y/Zr0GNJfTp2PWilsFluIGt9gGj6yzN/iuf+pAHXW0gXSo23HKMG0Pcumg9Bjp4+rntgQ23ImZTA9qEc/aVDrGdlzeL+MmvFdZIUwKsBnDB4nObJkTXAwjTYmuH+040Bwb93nG+1Skuo9ANbLUb18FTWopLu7u3w16RtZt32TMedj+jW5HnJL+o78UvYfO8RgmoiIkgxbeRARUZo0duxY6datm+zcuTMilPb0s+xl5hHJXFoeBfDCi3NfJKCk5f2cS8TDR27evCmbN2+Wdu3ayQ8//GB8AojI0aD6NoN/enkQHi63Ld9LaL+RPXNWuXbzuqzcuDZKWw1U8Xp7pTP+ihsGsEM7hqwBmW32Ck5Oc5ctkqOnT0jeXHmkbrXaxtTHzl++ICGht2NdtpKFiqn2GtatN1JCsQKF1f/Jlr07o7StqFq6vKpiTigE251bvyG5sueUtds2RgulISnfA7bg+dwMuWl5HumlQsmyxtSoKpQoIz4+vqqfNEJpIiKipMRgmoiI0pQ9e/ZI27ZtZcYMYwcwc2mRAi+J5H9RJNeTlr/LiFsWXnhx7otkKWd5Pz8V8d4u8D+RjEXV2338+PHSpUsXOXMm5cMdIooZKmebP/ui+KTzlqOnjqsA8OHDh/Lw0SPx8faRrAGPB7irVamaNKj1tHh4eBhTHrt7/766DYJGM7SH2Hv0kPha7qvlC02kSpkKxjXJDxXQC1cuVaEqHhfPxwxVyQePH41x2Vo3bKbC0Vu3Q1SAm9Lw/4DXOnPGAGNKRKjculEzy7RMxpT469C0tVQqVV6OWf6/p/z8kzE1qqR8D9iC/5Nt+/8Tdzd3VRnd6Kn6xjURnn6iljxVubrcv39P/rVqMUJERJQUGEwTEVGaMnjwYNW6Q9JZdjBzP6OCaFSVErksD1+RbJUiDrx4+suWLVtk2LBhxpVElBpqVKgqc4Z/py7LJs5Wg9oVzV9Ijp89JT8snK3mQVuFU+fPSkb/9NKvYw+ZPPAbmTFknAx5v79cvXldQu9Eb0F1/MxJVRldLH9hdd+zv56kWmnAuFnfq9C7UGB+GdN3kLp+eO+BMmvYRPlz8jx555V2ar7ksGDFb7Jx9zZV9Yy2EdZsLdvovl/JorHTpVf7TpLOy0t+/nOJrPj3b+MWKWfHgT1qsMSm9Rqq5Zr02XBZOPoHKZAnn5y/fNGYK34aPFlX9Y5GsOzr46PaeeC+zZd3Xnk9yd8DtoybPVW27dsl2QKyyIDOvWXBqGnqtUdLkqE9B6hAHNXaP/4617gFERFR0mEwTUREacbIkSPlyJEjIt6ZRfI+J+Kb3biGKA1Aqxq87z19ZePGjY/PGiCiFJcza3bVIgKX7Fmyye07YbLsn1XSbdDHke0iUM06fNo41cfX09NTKpcuL4XzFlR/L/prmQpLrSG8/XXVH+r+cN8FA/OpalcIOnNSegz9RD3OPcs0BOEYnBAtRK7euK4CzeQ0e+kvMQa5tpatduXqltcpmxw8fkQGTR4tE+f9aMydshDc/ro64jXFclUuVV5uhNyU8Zbpd+7dNeaKn7b/e1m1AXF3c5O8OfNEvhfMF7xHkvo9YAseo/eIz2XOsoVy49ZNyZ87UL32BXLnldPnz8i3s7+XgeOHG3MTERElLQ5+SEREacK///4rPXr0iPgjsJ6Id9aI34nSmttnRS5uUL/OmjVLSpQooX4nIvskZvBDIkogDn5IROSSWDFNRERpwsSJEyN+QesOhtKUlvkHimQson7FDj4REREREVFqYDBNREQuD4MHHT58OOKPAFaHEkmmYurHoUPG54KIiIiIiCiFMZgmIiKXd+jQIRVOS7qMIm7RR7AnSnO8Mlg+C55y8eIFuXr1qjGRiIiIiIgo5TCYJiIil6cGPIR0ARE/iShiEFCLyLMJiIiIiIiIUhAHPyQiIpc3cuRImT17tkiW8mzlQaQF7xS5eVR69eolbdq0MSY6l5MnT6ozIo4fP25MIUfn5uYmRYsWVYNuBgYGGlOdCwc/JEoFHPyQiMglMZgmIiKXFxlMZ60Y2VuXKM27skvkxhGnC6Y3bdokU6dOlYMHD0pYWJgxlZxRxowZpVSpUtK1a1cpXbq0MdXxMZgmSgUMpomIXBKDaSIicnkMpolscMJgeuzYsTJjxgzjL5F79+5JaGioCqi5Sesc3N3dxc/PT3x9fcXLy8uYKiqc7tChg/GXY2MwTZQKGEwTEbkkBtNEROTyGEwT2eBEwfSePXtk2LBhqkoazp8/L5cuXZIHDx6ov8k5pUuXTnLmzCk5cuRQf1erVk369esnefPmVX87KgbTRKmAwTQRkUvi4IdERERE5NAGDx6sQmlUR6On9Llz5xhKuwBUvJ8+fVqOHTsmd+/elS1btqgDEERERESUNjCYJiIiIiKHhTMejhw5Irdv35YDBw5ISEiIcQ25iuvXr6v/WwTVGzdujNKuhYiIiIhcF4NpIiIiInJI//77b0QbHoszZ86on+SawsPDI/+P0UsclfFERERE5NrYY5qIiFxeUvWYrlutuLzyfCUpXSS3+Pt6i5sbwpSHcvHKLfll5S6ZvniTMafjad+khrz8XEXJmTWDeHi4Ry73vOXbZdbSrcZcETq1esoyf3Xx8vQwpkR4+PCR3A67J8fPBMtva/bIolW7jWvIKTlBj+m2bduqFh5o3YG+0uT68ufPL9mzZ5c6deqodbcjiuwx7W1ZR/o+HsCRiJKPW8g9kQcP2WOaiMjFMJgmIiKXl9hg2s83nXzaqaEKphHq3rl7Xy5dvSX3H4RL9swZJIO/j4TduSdDp66QZev2GbdyHB1bPCkdmtW0/PZILgTflLv3wsXf8pxyZ89keQ4PZObSrTJhzrqImS10MH3v/gM5d+mmMdXy8gX4SXo/H0nn5SHYeth39Jx88+Mq2XPknDEHORUHD6YfPnwoNWrUUD937typfpLr8/HxkTJlyqhBEX///XdjqmOJDKYtK0I3HKEkohTDYJqIyLUwmCYiIpeXmGAaofTXvZpK9fKF5EZImMxZtk1dQsPuGXNEVFK3alhFfl21W5av329MdRyolq5QMlB+WLgxSoj8edcXpeFTZeTc5RvSb/QS2X8soiJVB9OnL1yTlr2mqmlajqwZ5LUXn5CX6paTjP4+cuTkZek/ZokEnQk25iCn4eDBNHoOv/7663Lnzh3Zt8/xDvhQ8qlYsaJ4eHjIihUrJEuWLMZUx6GD6cqVK0vVqlWNqQljvSuWVEF3TLt49t5/Ym9vS3LcpzX9GLHdZ0zLQY5t6dKl6swZBtNERK6FwTQREbm8xATTPdvVU6Hz1eu35avJy2XDziDjGueHliRDezWRgPS+Uaq9YwumtaefKCYfv91AsmTylwUrd8rXU1ca15DTcPBgesmSJfLFF1/I1atX5fjx48ZUSgtKlCgh6dOnl3HjxqmqeUejg+mOHTvKu+++a0wlouSEz9r27dsZTBMRuRgOfkhERBSDcsXyqGpoHMNdsmaPS4XSgApptCVJiLVbj8jqLYfV79XLFZT8uR2vqpGc29GjR9XP0NBQ9ZPSDv1/HhTkWutcIiIiIoqKwTQREVEMKpXOJ1kD/OXcpRsJ6h2NFhpLxnWSzXM+lG3z+8iWuR/J8u+6Sq/29VSLEDNUKW+c3VsmDGgtjZ4qI3NHvKlut3VeH1n9Qw/p987zkbfp0KyGbJj1gfw2vrMKz61hgMZ1M3rGeL32RNkCkt7PWx6EP5R798ONqfbbtOu4XL8VJpkz+knxgjmMqUREicMTOomIiIjSBgbTREREMSiQO4t4p/OUQycuyqnzV42pcUOAPLpvC+n6ah3JniW9nLTc9u8th+XEuSuSKYOvvNroCRnRu1m0cBoQ8vZ+81kJsMy3de9JdRt/n3TStF4F6dbmaTXPqk2H5eKVW2owwqpl86tpZpVK5RNf73Ty3+EzsQ5MWKVMfvV45y/fkA274l+ZuG77Ubl+K1R8vL2kUGBWYyoRERERERFR3BhMExERxSB39kzqZ9id+LW7eKt5TalRoZBcuXFbvpz4h+rT/OGIReon/g6+HiKVS+dX81krkj+bbN93Spq/P0W6DZovr/T8XlZsOCji9rhlBkJytOHw8vSUJ8oWNG4ZARXS5YoFSuidu7Jp9wljanToEd34mXKqMnHttqNRBnOML4wx5eHBTQoiIiIiIiKyH/ciiYiIkhCqoGuUL6R+X/HvAVn2T9QWIPh73bYj4u7uJtWN+cwuBt+SGYs3RwmK11rmD7l9VzL4+0jBPBG9nP/Zfkxuhd6RgoFZVEsODRXUqKQ+c+G6rNp8yJgaVYsGlaT/Oy+oNiUIvSf/vN64hoiIiIiIiChlMJgmIiKKgR4YMD7VwGWK5JbMmfzkZsgdVflsy76jF9R9Z8noJ5VK5TWmRrgREhat/caNW2Fy59598UnnKen9vdU0tNE4f+mGZMnkLzUqPK6aRgW1u7u7bPrvuM0q6A87PCs929VT9zV98WYZOP5345r4Q/W2l6eH3H8QrvpwExEREREREdmLwTQREVEMLly5KQ8fPZKi+bMbU+KGntLpfTGgYLiEGcG2NVwnGNvLTcTTwyNiogGBtj0QOiN8hvLFI8LtWpUKW5Y1m1y+GiJrthxR07QcWTPI2I9fkVeeryyXrt6SAeOWyoS564xrE6ZCiUDJkslPDYB49NRlYyoRERERERFR3BhMExERxeC/Q2clJPSuBOYIkGb1KxhTY3fl+m0JvXNPBc6+3l7GVNsehD+U24no7Ywe0ldv3JYCebJInSpFpVrZApIxvW+0QQ/RXmRgl0ZSo2Ih2W15Th98vVDWbo0aXCdE3erFxc/HW4JOB6ue10SOat26daqf+sGDB6V48eLG1OTx5ptvSnBwsFy6dElat25tTE0df/zxhzx48EAWLVpkTCEiIiIichwMpomIiGKwfP1+ORh0UTL4e0vLF6pI4bzZjGtihkAYVc8Z0/tIhZKBxtSoUGns4+Ol+kknJtDduvekHD5xSTJZHqty6XxStWwBuXf/gew6eMaYIwIGWcRgi2gt0mPozxJ0Jti4JuG6vFpHapQvKLdu34nWR5vIkTRs2FCF0WfPnpW8efNKgwYNjGuIiIiIiCg1MZgmIiKKxcylW+TSlVuqncfIPi9Lk3rljWsea1SnjEwe2EZeqF1atdjYtv+UuLu5WaaXlUZPlTHmivD0E8XkqcpF5f79cPl35zFjasJt2BUk9x6ES52qxSRP9kxy+vw1+X1d1KAYgyyiD/TfWw7b7DsdH1XK5JfRfVtI+8bV1d8LVu5UgzwSOaoXX3xRMmbMKGvWrFF/v/DCC+pnYiDoXrlypQq7X3/9dWNqhGnTpkm2bNkkR44cMnfuXGNq8vnoo4/k5MmTqjraGkJ5T09PadasmTGFiIiIiMhxMJgmIiKKxYadQTJu9lq5fPWW5M0ZIJ+821BWT+sh8755U+aPfEvWTn9fPu/6PyleMIdxC1Hzb9t3UrIFpJcBnRvKglFvqzAX8w/t2USyBvjLyo0H5cdfNxm3SDi080BwjmXz9fGKNughBlfEIIsYpLDl85VlzvA3bV6G944eXOXMmiHyeiz73z+8LxMHtJbalYvIrdC7Mn7OOplguRA5qgwZMkitWrXk6tWrMm/ePDl//ryULVtWatSoYcyRMKi8LlWqlLr/1IaQPH/+/OLlFXvrICIiIiIiR8NgmoiIKA5oVfHGJz/Jr6t2y4Xgm+Lvm06K5MsuhQIjWnvsOXxWvp62UrX+AATDvUcskjnLtsqNW2GSP3cWFeYWsPxERfO3s9fKwPG/q3kT69T5qyoEx0CKwdduRxv0UA2uqAZZdJeCgVmlWIHsNi/oU23N39c78nq0MfFO5ykXr9xSr0Obj36QWUu3GnMSOaaXX35ZihQponpL//bbb7J9+3bJkyePNG3a1JiDiBzZrFmzpGLFinLo0CFjStK6cuWKOoviyy+/NKYQERFRSnJ7hJFgEuH06dNy+PBhOXr0qDElbciXL5+UKFFC7ewQUXTnzp2TI0eOqPXDw4cPjankjNzc3KRo0aJqnRcYaLtnsqMbOXKkzJ49WyRrRZFMxYypRGnclV0iN45Ir169pE2bNsZEx6E/t2fOnJGLFy8aU+MHt0c4PWrUKOnbt69069ZNhg4dKjt27JA6deoYc0XXp08feffdd9X2HlphhIeHy4ULF2TQoEHqPkqXLm3M+RjaerRr1079PmPGDPUTf1evXl0+/fRT9RwwGOKmTVHPlOjSpYsMGzZMBWT6+g8++EA6dOig1r3e3t5q4EZUe48dO1bNC1988YVaznTp0qm/zaZOnSpvv/22fP/99/LWW29F/m1m6zliwEa0H/nss8/k1q1bxpyPH+uff/6RH3/8UbUPQcW4h4eHXL9+XX7++Wfp3bt3lNskBirSc+bM6bDvze+++06mTJkiHTt2VK8hJQ98Jl577TV58sknZcCAAcbUpIfwe/jw4eqsCmzrkGPCZw0HF/H5q1KlijHVeWB/CAdYsG+E7xOipOYK+2z2QPsyfJaOHz9uTKHkhm1FnKGH91dySFAwjY15fCFgpZpUG6DOCjsD+OBjo+nZZ581phKlTVgnjBs3Tvbv3692VMn1oE8rwoiuXbvaDGYcFYNpIhtcPJjGBvTvv/+u2m0g5EUPZj0tS5Ys0qlTJxWommHeBQsWyHPPPSf379+XoKAgOXbsmOTOnVsFpQh6y5cvr+6ncOHCKtDF9ffu3VOhbr9+/dR9mINpLD8eE2ErAt4hQ4ao6zQEwS1btlQ/8f+AntXjx49XgbR+fDxWsWLF1DLhPhCud+7cWYXO6GWNHYbLly+r8BoWLlwon3/+uc1gGss3Z84cVSWKMBrFJdjBw/YsdjjQEmTVqlXSvHnzyO18HUyj8hyPdefOHdmzZ4/6HcuFneFJkyap0D4pMJgmiCkwxvu1VatWsnv3bmOKyMyZM9X+mDVUQuPAkGZrvrCwMOnZs6cKcpIzAKfEcdZgGt8pixYtUvtJiawJJLKb3mfDwe8yZaKOd+OMcNAe2zLYDsE6m1IHthHxfYxts6QcTDzewbTeENMwuAuqhnFB1URagaMz2FlAVaiGDXhUuGBHgiitwYb+6NGjjb9ErQ9w4AYX7LCSc0PocvfuXRViaAinEfY4AwbTRDa4eDD98ccfq0Bq69atUaqjFy9eLP/73/9k8uTJKtw1w8FVBNYIeBGyYl5b6tWrp8Jn7PhhXfjTTz8Z1zy+DhBMr169Wj0PVEPjd3MhA3pdI5DOnDmz9OjRQ1Uj4/8CITIqo//8809jTlHh3CuvvBLtPnT4jDDZukjCVjCNUBv/5wiyETbj+1tr27atetzs2bOr1x9V5qCDaQTxeE3at28fGVrj9q+++qo6S6px48YqfEksBtMUW7U03oMlS5aMDKv//fdfqV27drTQWbfn0LePaT7Adfgss2racTlbMI2qaKxHsc6OhBNcLJdHngyo7YX9SERW+qd5mvXvWlzXmyX2ei0pH8fWvDFdr3/HT8Gku5YLhpp5vMvmVPtstuBsMb1dBe7u3uLh6W/ZJklvee7GREpWD8NDJTz8tuXy+KAA2uJhO83Pz8+YknB2B9Oophg8eLD8999/6m9UduDUSFScpGXYKMdOA74gARvSH374odqIIkoLUCH21VdfyYYNG9Tf2EkPCAhQO6/kehBMX7t2TW7evKn+rlatmqoQxLrPkTGYJrLBxYPppUuXyvPPPy9jxoxRbSY0tKEYOHCgKjCoWbNmZMCqq6ljqmw2i28wjdcXoXdoaGjkNNDh+YEDB+Tpp5+OXBZb9HKjOMJc/RSfYBrV0mvXrlUDQH777beqoMLaxIkT5Z133pFdu3ZFhj86mEZgb92OBGE5qqUfPHigHgO9vBOLwTTFt70GQmi000HbHl9fXzUNYbP1Ppmt+YBV047PmYLpJUuWyIgRI9Q6X43qhSFJ/C0X1upQSkEwfc1yidhlkyeeeEL69+/v8PtsZnv37lUH01ElDb5++cXbJ7e4u0dvYUYp49GjB3L3zkUJvR2k/sa4LdjGjq09nj3sHvxQh9IY9Rsb6tgQS+uhNGADv0WLFmqDvEKFCmrnCRvvbGNAaQUqqxBKI4jGTiTOomAo7bpQCY//41y5cqn/5y1btkT2OyUichQNGzaUqlWrytWrV1UQa/b333+roLtAgQKqbYaGXtD4HkOV219//WVMTRoIa0+cOKHabphPfaxfv75ar65YsSJKKK3DcfR0RtuCGzduqG1xc5CWENgxxTLgAOOaNWuMqVGhwhxhCuZ76qmnjKkRUMVq3SMb0xDqYdlwYJoosfB+wnsfRVD2Vi+j3Y01W4VCmA+fRRUYmuD9i/UBDhQh0CZKKBxoxPpbvccQRiMHTG+5MJSmlIRmBjggkstyseya47sdIa8zwXYPQmkPz/SSMVN58fUrwFA6lbm5eYqPb6BkylxFvNIFqA4SWN8FBwcbcySMXcE0jkrqUBrVAdjQp6jQygRHRXFKJjbQv/nmG+MaItc1f/58tcOPnWpUmPj7Y+uL0gKcsoPgBOH0xo0bo5xeRUSU2lB9jAIKhKuoXMMJgvqCA2oFCxaU9OnTR6nwKFSokGo/hTABO3BJCaEzwmeoVauW+onwHJXL2Kj/9ddf1TRAKxH0zkXVJoLkTJkyqepuBOro7ZwY+K5GlTd6Vd++fduYGhWuw+uE04LRS9AMgTYlDkJX/B/j9cUFvb7RmkL/jUphwP4ErtPT9UW3p9Awv74OgSqu13/j9rgfHNyoWLFi5HT9GGB+HCwXKuVtzWvrfjXr+9cX8+PEB8YzwgEQnKFrL3xG8P5OzMGbypUrq6pcnAHBHqaUUDjbR8loueS0XFivQ6kJXRZwcMTyPsR61Vn22XBWC1qDIZTOFFBJPL0yGdeQI/Dw8JMMGctZtpuzqqLcyPVeAsUZTGPDQPeURuN0d3e7i6zTJGzQYSMeA+wkxamMRI4KpxLjYAxg5z8t9ZinCPg+yJo1q/odvb+wY0pE5AgweCG+lzBwIIorrC+owEEAi4ICXABnvWEawmm09UhqCKbR/goVoC+99JKqlsb3J8460lXIeNz3339fheYoDEGvZ5yhUqlSJTVgIdplJAaqwUNCQtS2alwHk/FaxNZahOIPYW6zZs0iWwACWgKiT6M1VB/h/8saKnqtw2kN/ZPNA/3hvtEKxXqgQLTIsPWdjeXCe816XrTEsb7fCRMmGH9FLKv5Nhp6lsc3nEYgjGA4PtXSeAyE8thXjY2uxEYltd5+MdNV03gdsA9MFF8Yu2Dnzp0iOKYX/S1GlDoQ4RnvR+yz6dYYjgrbRfq7wz99EfWTHJOvf2Fxc4s48w+DvCZUnCmz3nDCEWtnGv02teBIvd4owojqRK4KB6wePnyo2tngQmkTgg1U34F5R5uIKLUgiEP1M8Iy9IxFqzXrC/o8o88sWnfUrVtX3Q79k1FFjCDYuldzUkBfaVSjIoxGRTceF4PKrl+/3pgjop0I+vVhYML58+dHCYZLly4tPj4+xl8JgwAc7U0w2GJM46Ggohvr9tOnTyd55Xhat3z58sgBLXHqKyrTUaFvq081Qlm8X8zV/rgNIIQ1VyxruB/cH0IHvM8BO4sY/wa31wNdIkTetm2b+t0a3o/mx8K8qH7G5wkXhNRgXga8l8zLaX5OCILjU31sb7W0uYIb1dJ4bW2FzWYoqEAbj9gCbDwXPHdWTVN8YfwVBNMKWiiwdQc5EhyLjthle/w+dVAY6wLQusPT01hockgeHj7i5x9x8CAx+WecwbQeWRtHrck+GOkdp11i4y0hg/UQOQOMvg86lKS0C+s7YMU0ETkCVCKj1zEG7o7p7DUErqicRtCLlhqAs93Q5gOhbLdu3eSZZ55R021BYIyKYrQzyp07tzE1bgjPEEY3btxYtRPBdykCMA0DzOKgL9olISDXsIyoerU1hgPae+A2CJvjguVGb2mc8YLKUFS0mjVp0kRtx2IZly1bZkylpKCrdQHhrg5HdZVuTMxtMnTVMiqpsZ9hDfeD+0P7RX0mAB4LrTcA7Rh1YG0LwmS0swAM4qnhfhH64hLTAQ1AWI3lxPtXH6y21c85Nnh8LDsOzMQGrW50EI5lxePGVEmu25X88ssvajDU2AJsvN6YT7+WRPbSuYng+CHfOuSIjG4YjrzPhu0ZvXzoZUyOz9snp+r9jZYeOPswIWINpk+dOqU2YDHQFQc6jB89AAeDGnJF2MFAKw/AKc+UtuGUcOwQ4kAcKvGIiFILWmEgOEPAi/73sVm5cqWqkMZtdDjdt29f2bNnj5QqVUp+//13VS26cOFCVcWJiuqBAweq+RBso6IYwVWfPn1UNTQqUM1hni2oXsVGO7YT0a4Df5urohGkI6xGyIyBtREiIyyfO3euagOCNhzW9u/fr76Xy5cvr5YXp5GPGzfOuDa6jz/+WPWrRqA+depUNVDX0qVLZd++fSoMRCCOn842SJKr0SFvyZIlbbbJSCxUGSeGORzHKddYVrQSSSwd1CMctnc/Cp95VHrbug3+xsEqHAjCOiGu9iB47yMY1wE9kb0ig2nuGpGjQosZd3HofTZ8jhBOo4cxWkSQc0AvcIhcD8ZTrMG0rojEwH4UP0WLFlU/E/ofQ+TI9LrB29tb7YgQ4b0AXOcRUWpq0KCBGpgVp1Rv3rzZmGobQmGEzejj/OKLL6ppCHnxO1oeoBK5XLlyqicw2mggGMb1GqpXEUbjrBFUV6NK1Bwy24J1JEJhfHfisc2DHgJu/95776nKWhz0Q8uPMmXKqL/RQgvVodbQ6/f7779Xt0U4jSATFc8xwXzNmzeX0aNHq0rSYsWKqeeMgB7f7wjn33jjDWNuSg26zzKgwhmtOfB/r1txOBK8h/SyojobYTWWVbcCSQh7q6bNUEgF5kpyhPv4PODMXxzoiasCGiE2q6UpoSIPikRsEhM5JuP96aj7bHq5PDxjHweDHIun8f+V0PdVrME0ToEEBtPxpyumE1uNQOSIMJgUsFqaNP1e4DqPiFITKoVRiYxT9X/++Wdjqm3YeEYoi0ES0bpDQ0Wzbl2AlhcIkdHyAwGhOShDNfMTTzyh2mtgPoTXqKRG9TTCcVzwu7XOnTurx0QFpx700AzT6tSpo4IxPDZai6C9BoI1tM9CUG0NvbRxdiPmx+0++OADNf3tt99W0/DTDOF0r169VD9rLD/mQRBetmxZ+eabb4y5HkMIjwOQtnpv6+eLZTO3JaGo8P+CsWgAfabR1gUQ7Fq3oEAFPFpggB4E0NwKxJEgCNaDNOrPDZ4TQuGEwmuF+8L7zt770YG0Dqh1uI+AHG0/7IHPN6ulKaF0dsKKaXJoqJq20PvzjkYvl6dRgUvOwcMjIphO6Psqzh7TgI1nih9s3BO5OuzIEoHTvBdCL8ijq/t44YUXXO5EHzyNiJIPBvTTPZ7R3xvfnQhS9YCIGqrvceACEM5iPnPfZkeC5df90GN7TvGFcBg9rxEumwch1EG+eRoqVbt27aoGedStOtCSEm3n4hpEUWO1NCUZ7h6RI3Oa9yc/SM4lcf9fdgXTRERELiHsgrhd388LL7zgcpc94YlSEkLTefPmRRmAEOEr2sqYIRgdNGiQao2hoY2HI7byQIU0BhQ0Pyf0e05MKw/QVdMI49HjXdMDFyKoRwiOC9p1jB8/Xl577TV1nYY+qrhOz2e+oC+2GauliYiIUofbI1vN6gzYEEA/O2wUtGvXzphK9li7dq189dVXqtfh4MGDjalErgEDQeF9jdN29SmTlLahgunGjRvq1PA2bdoYUx3HyJEjZfbs2VKzZk11qjoRiRoIbO/evQ7/uUVrDQRMlHagNUjOnDkd9r2p95E6duyoguXEQkiKamNAqIvB/CiiHQfa1MCoUaOSrZIZ1dKtWrVS4TZfe8eFz9r27dvV569KlSrGVMeBAyOqz3Reyx9s50GOCifL3YhoAWZ9MM8RYF2P70Q//8Li4xvR/ooc3727wRJy64DUrVtXhg8fbky1H4PpZMJgmlwZg2my5izBtKMuH1FqcPTPBYPptMtVg2l8V2Kwyt69e0eGrOihXLt2bfU7KqSxQ66rgunx64Nq8eQIUVIq/KbEYzBNlAQYTFMySGwwzVYeREREREREKQBBq7kNhQ6l0QoDLTEYSkeFCmbUUSVXgIIgGgOL4sJQmoiIKOUxmCYiIiIiIkol6Me8a9euyIH7iIgobvNHzpd109dJozqNjClE5IySJZi+c+eO9O/fXxo3biynT582phKRMzhx4oTxW/IYMGCAGmCmU6dOxhTnhX6EOM0cp5tT6rh+/Xqyv2eJKGnxc0uOKrnfm6iGXr58uaoANl+wbUREjgnrBKwbkhMC1m3zt8nqH1bLC7VfMKbGbkjPIbJ13tYUC2b1MpovW+ZukeXfLZdP3v1EcmTNYcyZusb2G6uWa8SHI4wpKadcsXIy5uMxsnb6WvV/gwt+H913tBTOW9iY67EJAyZEe01x2TBrg6yYskL9H1cp43htaxIiJbb9hg3tLCuWj4p2+f234TJvzhfSv197qVC+qDE3ORJWTBNRFGvWrJE33niDoQE5hYCAABk9erR06NCB71kiJ8HPLTkqvjeJyFrBggWladOm8vnnnyd7QJ3BL4M8VeUp46+Y1apUS6qUrqLaAaWkh48eypmLZ+TIySPqcv3WdcmSKYs0qdckxvA1Len/bn+pVbGW3L13V46eOipBZ4LEzfKvduXaMqjHoBhfn4tXLka+prgNbh+QIUCeq/mcfNvvWxX8+/n6GXM7p5T8fr18+boEHT+nLidPXZC7d+9Lpkz+8nSdijLoq3el5/utxNfX25ibHEGyBNM+Pj4yaNAgWbJkieTLl8+Y6rjCw8Pll19+kffff1+uXr1qTCVKmxBKQ6FChbhjZtGkSRM1UFG/fv2MKeRosJFz/PhxvmeJnAg/t+So+N4kImu//vqrGpQN64XkCqiRSdx/cF/KFy+vKm9j83TVpyVT+kzqNikJj7d8/XJ59cNX1aVBxwYyaPIgCb4eLEXzFZVmzzYz5kw93Qd3l2qtq0nv4b2NKSnn8rXLMm72OPW64PVp9UEr6Tu6r1y6ckmK5CsS4+uzafemyNe0Za+WUrdDXen8ZWdZv2O9eLh7SOO6jaXPm32MuZ1XSn2/bt9xUDp1Hq4uHd8ZJs1b9JM+fSfK5i37xcPDXZ5vUE26dX3ZmDvtyRuYXYYO6SxzZg2UZ+tXNaamLlZMW9y/f18NRIJR34lI5Mcff1SD8OBnWt8xy507t2TLls3yJeZhTCFHhB2GAgUK8D1L5ET4uSVHxfcmEZmh2hNnlSKQHjhwoFovJHVAfff+XQm+FizZs2SXZ6o9Y0yNLn/u/FK1TFW5fee2XLl+xZiaehavXizrtq0TcRMpU6SMMTVtem/QezJ98XTjrwgbdm6QNdvWqNcH4bS9tu/bLu8PfV9mL5st4Q/DVSV9gycbGNc6r9T6ft3931EZ8OkUWbhorTx8+EhqVC8jzzxdybg2bcmWPUDy588pfn4+xpTUx2CaiGzCxlemTJnU79wxI0eHHQZs6PA9S+Q8+LklR8X3JhFZq1ixovzwww/q9+QIqL08veTE2Yj1S43yNWJs3VC/Rn3JnT23HDt1TELCQoypqevazWuqmjq9f3pjCpndDLmZ4Or2KQumqBYfGfwzqEp5Z5fa368zZ/0pQUHnJH16X6lZs6wxlVKb2yOMuBGD7777TqZMmSKvv/66tGvXzphqn+HDh8vmzZtl8uTJkiVLFjUNfzds2FD++OMPyZs3rzo9funSpRISEiKNGjVSrTSKFHl8FAmDKOrT57/66ivZunWrKv9fu3atahHyv//9T7p06SKBgYFqHjh69Ki8+eab8tJLL8mHH35oTH3Mernw95AhQ4xrH0M7g8GDB6u2JAmBZcQy58mTRypXrmxMJXIuFy5cUOsBa5UqVRJ3d3fJmDGjqiaODwzwU65cOVm9erVMmjTJmCpqAEEMCoQNvjJlykjVqlXFz89PHj58qM5mwICJWAdoGHgQbTYOHDig2ga1bt1a9YBDZTPOgsAXGwYm3Ldvn3GLiMfIlSuXLF68WObNm2dMjWC+vy+//DLyb09PT2OOx/Sy63nwOvXq1cu41jask5555hn1+F5eXmqwI2zELlu2TC0PdOzYUZ599lm17NjYDQsLU9M1/XgYVFZf7+vrKy1btpQnn3wy8gse6048j5kzZ0Y5E8T8GlevXl1Vxd+7d0++//57Wb9+vTFXwly5ckVu3Lih/u+wcZFadu3aFfl6mun3LP6f2rRpY0wlStuwTsB60tE/tzdv3lTbipR2YPsiffr0Dv/exPf2u+++a0wlouSEz9r27dulZs2aans2tSBU2717t/FXBGQG2L/BfovktUxIFzHdXhhYMF+ufDLvj3kqeM6UIZN8O+tb+fnPn405IiCsnvTpJCmav6gKLBs+1VByZc0lQ6cOlWXrlhlzibR9qa00fqax5M2VV9J5pVP7HWi3MXfZ3MiKXvSpHtBpgOpljGmT5j3eL2vdsLV0bdNVQkJD5MtJX6qqX72M1vNCl9Zd5PXGr8ux08ekbZ+2ahqWtVPLTtKgVgPVhxrrTISz6Kf8y8pfolUWQ3xvg2Wyfv54Tuh5jUpuLDs8UfYJ+bzb5+r34dOGq+srl64sfj5+cu/+Pdl3dJ+MnTlW9hzZo+bRMKBjtzbdVI9o9P+GC8EXZO4fc9V92Hrtbfm086fy0jMvyT/b/5FeXz/eZ8Tgh9XKVYuyrLa8//r78mqjV+XIqSORr2+Cocj+hkjp0qWlcOHU6wke1/ern39h8fF9nPPZA4MfVqpYXJb/uUlGjoq6r2/2Tscm0qxpHTl+/Jx06faNmtarZyt54fka6rboUY3r/f195Y8/NsnosfPVPKVKFpDXXnteypYppHpUo8f73bv3JOj4efnpp+WybftBNZ82ZXIfyZE9s4yfsFCKFs0r9etVUYE4XLseIqtWbZMp3y9Rf5tVrVJSXn/9BSlcKLd4e0d8fsPC7srefcdl1qw/5cDBk8acIu3bNZRWLevL2XOXVdsSa3oZvh23QP7C41n+LpA/l3HtY8FXbsjXw2dZ/l+OGFPi597dYAm5dUBlHchx4itVgulvvvlGhUwIRsqXLy///fef5T/yJylevLh6zPz586v5dTCNFTzeoAhZEO4glP7nn3/UGxm3GT9+fOSHKr7B9IoVK9Tjr1q1Sq5duybNmjVTXywIznEf6dLF81vFoINp3GdQUJAxlcg1IIzGKThJHUzjvs6fP68+fwhfEbzicbBzeunSJRkzZowcORKxstQhLfpU4bPs7e2tQlh8QWAdgVD78uXLMnHiRNm7d6+6TXyC6QYNGki9evVU2IuNXwQj+DzDli1b5Oeff7Y7mK5Tp4689dZbKpC+ePGiuuTMmVMtCza2FixYoDZysZ7DwTasdxAeo2rdDBUZWOchzMY6E6F0jx49VAUH1pd4zRA0Yycer9nJkyfVc8ZrCjqY3r9/f+SXPl7jqVOnyrp169Q8CaWDafwf4Pk5Gryn8JozmCZ6TAfTjv65pbTLUd+baPOF4hMG00QpRwfThw8fllu3bhlTHUepUqXU/kdigmkEr7my5ZJGdRqpMBitHMxeef4Vee+19+Ty1cvSc1hPGfHhiGjhKG7b962+ar/j7MWzgsEKA3MGSv5c+eVB+AMVaP/4649q3p7tekqrhq3k3KVzqiczBt5Dq5ChvYZKocBCMvO3mTJ+zng1b0zBNMJkDNCH3ti/rflNvpj4hRrk77Mun0npIqXVQH7Hzx5Xy1wobyEJzBERNv7xzx/y2fjP1O+QkNvEN5j29PBUYXu2gGxqcEJAyI/nsP/Yfun0RScJDQtV07E8GLCwWIFiatqJcyck9E6omh/7UA8ePBCfdD5xBtN4Pb/+4Gv1E6/9D4siqu7B3mBa/59i2fuP7S87D+w0rkkAI5h29G2/5Aym0Vf5vW4t5PbtMBk89CfZuzcoMphGH+oypQta9qUjzljQ9/X889XlrQ7/EwyiePNWqBw7dlZdX6RIoGTM4Ge5rzsy7YelsvT3DWo66FAY91+hQjG5dOmq5TW/ZtmGyCq5cmURJLEr/9oSZVlfb/u8tHi5rvj4pJMrV2/KsaNnJIPl/gsUyC3+/j4SHHxdRo1Bwd4BNX98g+nPPn1T9ZjOZVkGD8v7+Pz5K3Lf8l6+fj1Efvjhdzl0+JRxy/jRwTQK744dO2ZMtV+qBNNly5ZVAROCEcAiIOTp1KmTjB07Vtq2jTgKpIPp33//XRo3biyfffaZClsAt0E4/d5776lKyY8++khVSsY3mAb9OKdOnYoyPTFYMU2uIKaKaQSh+LwldTCNLyKEmzNmzFCfb8B6AusGPBbOsJg1a5aarkNhbBggaMUBKoSjUKxYMbXxioB6w4YNan0DeAx7g2kNj42Aes+ePVGmg73BdO3ataV+/frRKix69uwpNWrUUMG5vm+EzyVLllShNEJ1TYfWgLNNdu7cGfn4WPnj/wkbGIDXEYE1fppfMzx/fNEjjMbzxKlT+jVLLFZMEzkfHUw7+uc2c/h9yWC5UNpxzcNLblkujvre1NtBDKaJUo4jV0yjQAYFd4mtmEbo+9/h/2Rgl4Fq+sAJA1VArY3uO1pVOi/6a5EMmTLEZjD7Qu0XpGn9pjL91+mycfdGNQ2G9Bwiz9Z4Vrbu3SpdvozYp9AV2CULlZQFKxfI11O/jgyrUUX83uD3IoNa62Aat61XrZ60btRaShQsIZeuXpKB4weq+0egi6pnhLlDvx+q+iVr7Zq0kzebvam+381V4Qm5TXyD6RxZcsjJcydl8JTBkfffokELVRUd0/KgCnzQd4Miq6lRRf15189Vn++wO2GxBtN4jT5++2N5/snn5ejpo9J3ZF85df5x8BfvYDosRD4b95l6jROMFdOPg+nQO5FVwjqYvnLlhoTcDrPsWy+OrIBGkPvF529LnjzZ5N8Ne2TEN3NUBTOgcrr3B6/Kk7XKyblzwfLpZ9/LmbOX1XUIhfPnyykhIWHy08w/5dfFjwvB3n7rJWnapI4Kx0eMnKOC5ieeKCW9e72qKrXxHMaN/8WYW1SVc4/ur1i2iwrJvn3HpVfvb9X0+AbTULFiMfnow9fE388nyvTEcMqKaQS2nTt3VpWNGir9sHGH09EREmNjTwfGCJYQoCCsMbt79646nR2n6uNx8CI4WjCNqku0BCFyNjjahZ1Bc8+09u3bq8/cjh071Ps6qYNptOX566+/1HrHDAeesILDugDtfECHsrdv344Mas1w9kOLFi1UYIp2PagaTq1gOia47SuvvKKqwfXt9XKj2nvYsGGR1c6ouMb6BM9z6NChahquz5Ejh6p4tm7FgfU2WiQh9B40aJCahuePsPrQoUPq/8+6VUhi6GA6NYNfbODUrVvX5nt24cKFKoBjME30mA6mHf1zW/h+qATev2NcS2lBkJefnPXycdj35p9//qm2VRhME6UcHUwjo6hSpYoxNWUhk0AvXA1nVqIdKS5du3ZV29iJDaYR+iKAfrLSk7JiwwrpP6a/mgeBtHVgbSuYjQnC3XdfeVfOXjorLXu1NKaKNK7bWN5v977cuXtHxs0ep0JaVBYj+P57y9/GXBHLiCpia4iTTl84LWNmjpG1W9dKuWLlZPD7gyUgY4CMnz1etb2whueH9hgYNBGtLRJyG4hvMI22JdZVyzBz2Ewplr+YzFk2R0b/NFpVbaNqHPPbaqlSp0od+aTTJ7FWTCPA/uSdT6RGhRqqFcmQ74dEOcgAqRlMo0Dqtddei5iWwmL7fl20aJEqqkqtYBqVw2PGzlcBtNa61bPS9rXnLfvn12Tg59Pk5KkLxjUR0OKjX7/2EhCQXrX0mP/zajVdB9Nr1u6UIUN/UtM0BNrfjHhPChXMLYt+XSeTpyyW7u+9Ii82qin795+Qfp98Fxl+a/XqVpZuXV9WldZjxv4s6/7Z5XDBNP5fkbnGV6oMfoiwyxxKg7+/v6qGxqny6A9rhr6xCJOs4chkiRIl1BuavQeJkhb6IesvC3xRoGUGNsbweUwu+OwjpLWGNhqQIUNEby8zhKHWoTTgQFNoaKhqi5GaVRUalgFB9hdffKEquKdPny6vvvpqtHZBmzahr9VldYAMlReAlh1o4YGDcfq54swTbAxj3dm9e3fVHsl8wcE5HODDEWcznHaGg3lJGUo7ArxXEeqn9Hs2rcAGIioE1Q4XJRt8LnEwDBdX+4zaws8tOSq+N+OW3N8LaW19SI4PYZoOpbENjrO59bgwGNAtKf27818Juxum2mMgtAUMfIfgFi0nrANOawhFO7XqJN9/8b0sHLNQ1k5fK91e7Sbe6byNOR5b8vcSWbNljWTNlFX1Ms6cMbNqmWEOpbWHjx4KWoNgMD5ctuzZooLctn3bqlAa8uXOJ5nSZ5Lga8GyYZft5Tx84rDcf3Bf8uTIo/5OyG0SAuE7QnRrGJwQ+00YYBAKBhaUgPQBcv3WdVU5bm3d9nXquphUKVNFxvUbJzUq1pCDxw9Kv9H94vw/i016v/Ti5u6mqtf3HYu+PM7EEb5fUZGMPDIs9K7lOyxq64qTJy9ECaUhT56sln12Tzl69Ey0UBrQ8/nC+SuSzstT8uSOWrT34EG4nD4dPd9A6Hz2zCXL+85d0qePGNcuMDCbPHz4SN2fdSgNGzftk2vXQgRtPvLnd61Wd6kSTMe3IhntMGIahBChDBElLQz+iVPUUvqLAv2WdR9neyGYtgUhbkJHP05qzz33nDpy+PLLL6sBXtF/Dj29EBBbH4hDhTRecxx4Q686QFUIKqOvXr2qeuID1qMIrNFTGmecoJ+0rYt17zC8JnpDwJU0bdpU7Rwk9Xv233//VRsuuOiWKM4CVewvvPCCWvbE7NjjftDTHO9fHAym5IPPNM52QDUYzkxxdcn1uSVKLH6nxC4lvhfS2vqQHBu2nVEJmNyBtPb7ut/l9PnTkj1Ldnmm2jMqnK5VsZbcDr0dGQDH5OXnXpa5w+fK2y+/rSp/EWqi1/S2fdvUQH+2zF8+X1X1YsBB9Hb+7uforRwB+xHL1y+XVz98VV3QEmTW0lmR7T4AvZTR3xohsrlthRkCbtAFNAm5TULcuXdHbtyyve9ohp7WGAAfQTYOBMQHWoMMeX+ICtuXrlmq+lZbD6oYX2i1gupsvDbm19oZOcK2X9EigZZ9bS85c/ZStAD4+vXo/etz5ozIL8PuRA+LNbw/8d3u7hG1ABfB9IULtltnWt9fliwZ1RkIGFDRFiyrfhwE2q7EKZ4NdqZR5WcL3tRYadizgsKKFG07iChm+HIAZwkJYhqgVAe3WLnbE1DjfrCST2oYIOnFF19UB9dWrlwpb7/9tjr1F+1J0H7D1rLhNEVUe6PvF26PYBrPBUG2bu2BDWSszxBMY/BEtC6ydUF7IjP0vsN9uxKcPon3KYOt5LF8+XLVrqZly8enfQKq5FAtp0MWXJIiaEmu+7WG1jwIiRIrPsuLx4xrPrQ0w5kVCH1cuUqQn1tyVHxvxi0pvhe4PiRngjAN47ckdyCtIXzc9N8m9XuN8jWkbvW6KqTGgH2LVi1S021BwNvmxTbi6+MrC1culGffflYadGwgbT5qowJlDH5oS8OnGqr7R5V2wTwFpe3/Isb8SggMpIiA2cvTSy1PbHRQnpDbJKcbITck/GG4uLu5qz7R1hD4+3hHL5zEQYGur3aVdF7pZOK8iWogyMQGyTgogX7WeH0SG3CnNkf4fkXbjQoVisr9++Fy4MBJY+pjtsLn4MsRBzN8faKfcWCG3OHevaifMXy/oULbFgTeuM3D8Ijuytevhaj5vb1j7wUUbtmft1VRbQ29sb08PY2/HJtTBNM4JV+fym+GYAZ9X3GkHtWEgDAKv6MdAComzTB675EjR4y/iMgWtPBwph0xbBiib7I1rBcQBgcHB6u+0YBqbJymhWoHa+hvjeuSGgZizJw5s1qHbdy4McqOFZYb1QHWEFhjvYf1Wa1atVT7I6y/tm173P8J7T6wjkNgnZoDV6Q2fA9gI4fhQfKIrSru4MGDqlc7NqhwwfsWgxcnNkROrvvVdCX5p59+akxJHHuXV/eot+d5IexBWx9XrRLk55YclTO/N7GOwboN67jklBTfC1wfkjNBGI0BD1MikDZDe41LVy5J3lx5pXal2qq4JKY2F1rZYmUle+bscu3mNVm5cWWUUBT9ob29ogdrDZ5sIC8985JqTfHTkp9U8IsezejLnBDnL5+XkNAQyRqQVaqXr25MjQoVwOhjjYEIISG3SU5Xb1xVZ7VmCcii+klbK1O0jOo/baYPCiBYRK/uGYtnGNckHELxzq07S+7sudVBiXnLY+6b7Ogc4fsVfZ3bt2+kAuETJ87L4iX/GNfE7tLla6ryuUiRQBX2WkPYnSdPdrlz556gFYiZl5enatFhTd/m7t37ctyyLIDKand3NylZwvbBGfSYzpolo4TevhN5m7NnL1veqw9Uv+iyZaNmAsWL55OMGaMfWHFEThFMI8zBRo45aEYF9ZIlS2Tp0qVqYDL0pwacIp8/f375559/1ECIGjZ6MKjamjVrjCmPodoa4Q76VGMgNaK0zNl2xLJnz676VOEzrD311FNSrVo1VY2Mwf80hNSAUf7NYTZabcR0Kio2SrD+0OuY+MJGJG6P1hzmjVmMOIzQOaYw/PDhw+o6DPqI/tQIqs29tFE5jcokrL9q164tTzwRdeMRf/fv31/1onZleE0ZbCWfmKriAIN3mj83urIN37+JqWxLrvvFbdHSBAO2YuCypGLv8mJbBYO/arE9L9wfQh9XrRLk55YclTO+N/W6LakOtsUlKb4XuD4kZ4J1QkoG0hqqYzfu3qiqnwvnK6zC21WbVhnX2ob9Dpzqj2pehLwaBk5sUKtBtP0OhKlvNH1DBaAr/l0hk3+eLDsO7FDV0+2btDfmih8MzIe+yr7evtLyhZaq37JZ64atpUKJCnLr9i1Zuy2iLUlCbpOc/tr4lxw7fUwy+meUV55/Jcqgj6hgbv5s82gV02i5kitbLgk6HSQLViwwpiZcs/rNZMbgGeoAweWrl2XS/ElO3cYjtb9fGzWsKePG9pJKFYvJlSs3ZPpPf1i+U+KuOoYtW/ZLcPB1yZMnm3To8KIKuDX83qTxU5I9WybVS9p6IEG03Kj9ZHmpVfPxPjlu07JlfcmRPUDOX7gi27cfVNO37zgkISFhUrx4fjXIoVm2bAFqcEZUX6Mv9tatEYV3wZbngkEcAwIyyJO1IvrRAx6jQYPqNqu10Vs7/EG4uFuWDe1DHIFTBNPYyEEAg763OMIyc+ZMdSo8jrhgQwynyWuokMTGCzZcMDjB119/rUb2xLw4Gm9r5FGcwo9erlu2bFEbdQjBJ06cyLYfRE4AYXP16tVl1KhRKohFL2esFzJmzKhaX+AAloaKG/RpRnsM7AChR9zQoUNVjyucZWGrZdCZM2fUQTEc8MJ9Y53y1ltvGddGQHCM66wv2OnC4yFERj98rLdQbTFkyBC1TkIVdUzrGayPcFtUQ+PIuzlg1xYvXqwCazw+7g+P2bdvX/VaYKRlhO/2tDEhsgXfowgJbFXFxSS5qveT4n7RwgZVT9gWwHrj+eefN65JeraWF8GLNcyHZbLVXkdXCS5cuNCYQkSUupLqe4HrQyL7IIS9fvO6CpvRIzqm/ssaBuXDPAhU+3XsJ5MHTpYZQ2aonsdXb16V0DtRP19vNX9LiuYrqgYW1H2l5/w+RwWhlUtXlndeeUdNi69xs8apCt9CgYVkTN8xMmf4HBndd7QsGrtIerXvpVpd/PznzyoM1xJym+T025rfVD9qBOIYRHLCgAky7ctp8m3/b9VAjRcuR62MzZszr1pG9JbGstu6/DT0J9WD2lqNCjUi51n87WJZ/9N66fdOPymQp4D6vxkwbkCiBk9Ma6pULimTJn6oLtN/+ER+WzxMenR/xbJvnF2OBZ2TYV/Pigx27YHBCOf/vNry/XRXhcwzpg+Qkd+8J0OHdFa/161bWS4H2w670S86/OEj+bjv6zL+214yfFhX+WFqPxVUI4T+7bf1cubsZTXvmrU7ZenvEf/PL/3vSZk9a6B6jNEju8uU7/qoFiTHj5+XqdOWqnlg164jsnPnYVVp3bRJHfl+cl8ZMqiTeowC+XPKpcvRx5Y6dPiUXLZM907nJa1a1lfLhGWrWLGYMUfKc4pgGqfBI8hBi4EJEyZI9+7d1akA06dPV8ESqqTNUIX47bffSoECBWTcuHEqCEJ7D8wb08CLLVq0kMGDB6vTxPr166cCo8Q01ieilIHB/ebOnavC2/Lly6sAGWc+LFu2TEaOHKl2ojRUHM+ePVvOnTunKqxROY3BVTdv3hzjKaKorFy1apUKkLFOQcsP6wELcV+4zvqCebEemTZtmmongn74pUuXVoEx/sZZHKimtgVth3DB80KIhh0yawjNEaxjJxG9pvHcK1eurCpCMfDhnDlzItuYUNKx7qFp7lNs3TNTn64MeC/ioAmm43RrHFjQv+PUaJzCrG+H+zTfFx4Pj2umW1LoefTtkgo+E3jf2aqKi0lQUJB635vPYNDPGxfz5zGm6bYkxf3iAA4q/WwFImbxvV9bbC1vfJmrBJP71HwiSh3m9X5M63DreczrIMyP/SAMEAjYZsE2gP5esdXzGRdbLTPskVTfC/HF9SGlVQgjMfgewml7KoVRUTt82nDZeWCn2u9AuIxqX/y96K9FIqbdDvRDrlO1joSEhagKX12Ni+plVAxjHyahLT2CzgRJj6E9ZNk/y1RrkKL5i0rtyrUlZ9acqjJ60ORBqgezWUJuk5yW/L1EPhn7iXr9/X39pVq5alKycEk1OOTnEz+P1uvaw91DrV8zZ8wsxQoUs3nBc8qWOXpbBzxHPU+eHHnUgYgjp47ImJlj5LU+r8n2fduNOcke2bMHSOFCedQlV64s8vDhIxXoTvl+iXTpOkJ2//e4s4K9EBgPHjJDDh46JT7eXlK2TGFVfe3h7ib/rN8tgwdPtxl247HnzftL9u49LgUK5Fbhcvr0fup+hgz9KTKI1n748XcZN/4XOXHygmTK6C+VKxWXUqUKyt1792X5n5vlk0+nyMlTUQ+KYP41a3aqEDxfvhxSqVIxy+f5rnw/danciWHAxukz/pDDh0+Lv7+PlC9fRPW1RiV1anF7FFMqYoGNnClTpqgRkdu1a2dMTTkIghASA0JjVEM7i7Vr18pXX30lDRo0UMtO5EpQsYL3NaqSsQOUGlq1aqXOpkDwag7/XAmqn9HyAwE21sWODDuKN27ckF69ekmbNm2MqY4DBylwUCK+y4edfrRKAZyt07x5c1WNrkMAVN8i6MTzxxk5tlpEvPvuu6qKHcy31VC5i5AAoSl6bMZE3w927s3LZQ3LiWUxL5P5tvZA6IFlRZhgPt06NngOCA3wEyGwmb4/ML8WENdyJcf96tcGz81WUJ1cy2tmz2uMUAnrOgxkauuMr8RK6OcipejlK3w/VALv8yy2tCTIy0/Oevk47HtT7yPhTCisX+0V27pb098reh1h/Z0B+nsDPZ1t3V9c14P+rrCXPessa860PiTHh88aBgjHZwIDgzsavC9VEQG6BcY+dhk5OfTB/rzr56pCevCUwSrIdxo4tncjYrvWEdel2M7Gd4aff2Hx8Q00pjqnKZP7SI7smeXbcQuitfhwNffuBkvIrQNSt25ddRZ3fLEkmIjIASGQLlKkiDqllVXPjgMHZXRIgJ16HWribB4EwAgDUOGOY74IBCpUqKDmt1WRj3YymA+BtPUOO3a+8H9vbjmBKjW0bkGoqg/G6PvABcsDSVFRZm9VnLmqG1Vxtp4LIMjVAe+bb76pLhBTyJtc92uv5FpesxEjRqjT1rt06WJMiQ5VgghhkuL/lIgci/n7AmG0hs87glr9fYPvEXyfYD79nYDvG6xn8B2E7wodjuv71OsgXK+/I3Axz2urn3Nskvp7wYzrQyJyJpVKVZJMGTLJjZAbqtUGESUOg2kiIgeE1kWoSMdOnXmHlVIP+pBjhxiwY4/qacAOsj79Wp9GjR3ykiVLyu7du9V07HCbIWiIbeceZyohAMXOPH4H3BcCBwQUujIb4yLoAEBXW2NQKsyXGGgJU6NGDZk/f74xxTZUtunAA4NZYTl0aG5Nh72ZMmVSl9jC4+S63/hIruXF+wWn2f/yyy8yZsyYWAMbzIv3HN4DcQU7RORczJ9rrHN1YIzvC4wxgeAYsO7H9wnWK+bBW7F9YC98R+H25rYfMfVzjklyfC9wfUhEjuqjtz6Srz/4WnJkzWFMifD0E09L42caq9YdaJESV99vIoqbXcE0B8+KP1uDqBG5Gux0UNJBr3uEX+iNj50/7JguXfp4cANHlhbeCzilXAcCTz31VLzCT+sAIVeuXMnWBkcH2ImB54adf4QF1r2tY4LKPBxEiek2+lRttHzBBb/bU62XXPcbl+RYXvxdv359NSr5xo0b4xw8DJWGgOCGiMjs7Nmzca6TcDo0guG42ofYI6m/F7g+JJfF3SOX4O3lLfWq15OFoxfK/JHz1cCEC8cslKE9h0r2LNnlQNABmflbxNmKTsVp3p/8IDmXxP1/xRpMFy1aVP08duyY+kn206+ZrZGoiZydfl9jwD1KOgh3s2fPrgJLDNCIQRMxYKMz0O8FV17nocpMV7Shd5atHXNcjwo0XS2mLzH1zEwstO+wfixcEAYklr3VcWY6bLcOxnXIC3hf4wL2hr3Jdb8xSY7lRcUiqh4xgNekSZPiPLDB6kCitAPfG/rMGgS15vWDueWH+RLXekSvQ8B8H2gBlVBJ9b3A9SG5Ip2dSOqNH0ZJCIMwrt+xXg1yWCiwkBqYMDBHoARfC5Y5y+ZI5y87qwEbnY4xhr+j7rOhlSU8eBCifpJzCA+/rX7q/7/4ijWYLl68uPqZWsE0BjvEwDe4ONPAh3D0aMRIn/o1JHIl+n199+5dtZOTGubNm6cGRIrp9FBnhIoitGNo3bq1CsC2bt1qXOP48F4AV17n+fv7q/8XtOFAVTKq2xFSYidZB8EIr9EXVMP1kydPTlRIag078wgZwDogx++LFy82/kocXR2HdiG6VUlcdPCggwgwh7y6HQYu+B3sCXuT635tSY7lxfwIVRAI2XuQgtWBRK4N6wQEroDPuz4jBwMAZsmSRZ2ZA5iOcQzMMPCivq2ZuZUTfuJv0IEubmPv+twWrAsT+73A9SG5qshtYNbtuITt+7bL+0Pfl3pv1pMnWj0hVVtWleqvVpeXur4kI6ePlNAw+1shORTjwElcZ6mkFv05Cn8QEXQ6s47vDJMmzfq6/MCH8OB+xIGEhGYBsQbT+fLlkwwZMqgNCpxSTvbTp2076geeKDHQo7BQoULqd1ZN0/3799UBipw5c6qdaVeGdToqvAAhNAZsAvSLRmANOLiAU6d1P09bAx8mBsIFBANg7j2KC34PCUm6CgPd9xQhgjmMRbiBg0LmaQjFu3btqganMn/3IchARZx1VZyt6cl1v/ERn/u1d3kxaOXx48fjHDRMw/2yOpDItSFwRliLdbceIwAHHfUAgAhh9UFI83gCuOBAtob1EcJs0N8JuK27u7tqGwX6ewmPpwPwhErs9wLXh+SqGEyTw0O19ENx6H02fI7w/RUejjNQ2VLYWeiK6WQJpkHfsXkDiGKHnrDoR4mNP3zoiVxRsWLF1M+bN2+qn5R2YX0H5tDQlSE0MIcF6OGJ544embrVhxl2ps0BZ1J47bXX1CCIOgzXsFxJWVGG5cbyI4Q3B+w6HEDwroMShCHjx49Xy5ZQyXW/ySU+y3vx4kV1nZ7PfMF7yIzVgYnXedpMGbU/KNpl2I598v6cX6Rk7TrGnAmj77/Vl0ONKbb1+e1PGbp1j1Rt3MyYEh2uwzwD/94gxarXNKaSqzO3hwKsv7Eu0OsV/MS6wFbrDeuQtnfv3tG+fxA6YEBB8/cE+j0nppUHJMX3AteH5Ioit4PvWC6Pj88QOY6IXTaH3mdDKK2X707YGfWTHNvdOxfl4cN7arD4vHnzGlPjx+1RHOfhY4PjnXfeUb8PGTJEqlatqn4n2zAQSceOHVUF4WeffSYvvfSScQ2Ra0G1S6tWrSwroYeSI0cOSZ8+vXENpSW3b99WO5igA1pHhJZQs2fPVgMYogUM2Q/Vb9atLSj5oDoQIQ6Cn+QO4x39c6GXr/D9UAm8jz19+yE4Ll6jlly/cF5CjYNnXt7ekjl3HvG0/LwVfFl+/uJT2fNXwqpH9f1v+mW+zBvQ15gaHYLpzLnyyIIvP5VtSxYZU6NCMN1iwBdyJ+SWzOr7gRzZvNG4Ju0K8vKTs14+DvveRCiLdhrY5rd1QNLVpdT3QkquD8nx4bO2fft29fmrUqWKMdWxoH0bLuJl+QP5jJuaTJT6UNAascumxqjBwUFHtWHDBunevbv6PWNABfH0zKh+J8cTHn5Hbl7foarb+/fvL82axVyIEZs4K6ZxuhY2umDixIkqhKKY4TVCKN2oUSOG0uTS0Mrjgw8+UL9jxyE8nKfapDX4PsD/PWDjwZGPvlPCmavjzP2zKXnoXrKsDkwaB//9R4Y3a6QugxvVl3FvtJHzhw9JhmzZ5Zn2bxpzEVF8pNT3AteH5GxQ0FepUqWIlgnR28ATpQ5EeMb7EftsjhxKQ61atSIPRoaGOOEAk2lI2O0gFUo3aNAgwaE0xBlMA45Oli9fXvUEQ0iNI5UUFQaIxGl0mzdvVqeyocKDyNWhYvrpp59WoTTOFkD1LKUNoaGhcubMGXnw4IHUrFlT2rVrZ1xDrgiDO+IEK1asJT8MBoZT182n6VPSObl7p2z8eY7cCwuVgFy5JX/Z8sY1RBQfKfG9wPUhOaPIHADdDlGh+kD9RZQ6MEYjOmJY3oc1atRwmn02nJWDtsIPHtySG9d3yoP7Rh8ScgjoAX7r5h65d++KBAQEJDr/tCuYhn79+kWG03379lWnr3FARJFbt27JggULpFOnTmrAEfRUQc9R/OcQpQV9+vRRRzURUKKlAwZLxe/kmnAQQo/0j//natWqqfcAEZGzCLNsuz16+Eg8PD3F29/fmEpERJR4pUqVUnkA+q2r9gkIBTEudawNVImSGE5mDrZcLlgull3zJ554QuV4zgQZJKq7wx+EyM0b/0lY6EnVy5hSz6NHD+RO2Fm5cW273L93XfLkyaPWdxhfLzHi7DFtTfdU07AARYoUURcPDw9jqutDf92goCA5d+6cMUWkefPmqrWBt7e3MYUo7UCvqtGjRxt/iVofpEuXTl0wmI0rw/PTq1J7fnd0tpb77t27cu/evSgtWzDSfocOHYy/HBt7TBNFlxZ6TNvqAd3wvZ5S/+1Ocv7IIfmmRWNjqqiQumG3nlL5xZckfdaIDey7t29L0Pat8tuIoXLh2BE1DdhjOnmxxzQRWXOGHtNmKOLA99jq1auNKRbpIi6PPJ1jn4Ccixuamt+1/ILs1tRl05n22WwZO3aszJgxw/gLAyR6i4env3h6prfspxoTKVk9DA+V8PDblsvjkV2bNm2qttPUQbhEincwDRgQEV8Ihw8fVhXDaRlCN/RVxWlszz77rDGVKG3COmHcuHGyf/9+uX79ujGVXEnGjBlVJQg2cEqXLm1MdXwMpomiS4vBdNl6z8nLAz6X9AGZZdX3k2T5+DFqOkLpdiPGSsnadeReaKicP3pE7t8Jk7yly4hfpgA5d+iA/Nizm1w+cVzNz2A6eTGYJiJrzhZMazi7etGiRWo/yVmKVMj56X22Ll26SJkyZYypzmvTpk0ydepUOXjwoBqAl1KHl5eXyj+xbYa+0kklQcG0GVp7HDlyRI4ePWpMSRvy5cun/kNQKU5E0eFsAmyAYf3AQVOdG6qmixUrpvp8BQYGGlOdC4NpoujSQjB9/cJ5Cb0R0ZfQLyBAMmbLLuH378umX+bJwkGfq+mgq6hP7flP5n/WL7I6OleRYvL6iDGSs0hRWfPj97J05NdqOoPp5MVgmoisOWswrWF/6NChQ2r/CNXUREnNFfbZ7HHy5En1WUIXA0oZyD/xvipatKgxJWklOpgmIiJydAymiaJLC8G0teBTJ+WXrz6Tg+vXGVMifLBgiWTJm09dt2PpEmNqhCYf9pM67TrIkU0bZFLH9moag+nkxWCaiKw5ezBNRES22T34IRERERGRM0Fw3LN0YZnWvbOcPbhfsubLLy990FdVQmvFqteUDFmziV/GTPL616Nl1P6gKJdnOrwt7h4e4paGxlIhIiIiIkoJDKZJQeH85s2b5e2335aCBQuq00DQM/u3335LdBsGDJo2d+5cadiwoep1pO/7l19+UdeZYTk2btyoqmOyZs2q5sft/vrrryRpB4GB23BfLVu2VPePZalRo4ZMnDhRbt/GsMlRoR1F//791WiwmLdy5coyZswYm/MmFp77v//+K61bt5YrV64YU4mIiCix9vz1p8z8sKdcPHZUchUtpsJmLVPOXOKTPoPcv3NHLhw9IucOHbR5uXLqpHGL+PFMl06yFyho/BUzDLR4au9/xl9ERERERK6PwTQpdyw7Y/PmzVM9idBUfsWKFaovEQZ1nD9/vjFXwoSEhKjAFWHzkiVL1H2jET9GhsUIqwiLNYTjL7/8suTIkUOF2QivCxUqJM2bN1d/J7bzzL1792TNmjVSt25ddd8IqRs1aiSffPKJ9O3bN0oj/WvXrsk777wj//33n3z11Vfy999/y+uvvy6jRo2Sjz76KEnD6fPnz8vHH3+sQngOGkhERJT00Dd622+LVI/pcvWfk0qNXlLTbwVflruht+X+3Tvy5/gxMrxZI5uX+QP7q/njIyQ4WFVbYwDFmOQoVFiF1/fuhKlwmoiIiIgorWAwTYqPj48MGzZM+vTpI/Xr15fnnntOhcaNGzdWQW5iRj5FZfK3336rQt1nnnlG3TfC3ffee0+WLVsmFy9eNOYUyZw5s6xevVpGjx6t5tPzIiD+6aefEl1J7Ovrq0Lmzp07q2XBcx0wYIAMHTpU/vzzTzVQn+Zh2ZHs3bu3LF68WFq0aKHm79mzp6qYxujKu3btMuZMOIT2eB0wkOa+ffukXr16xjVERESU1NbP/knO7N+nguIaLVqpaVfPnZV7lu0cb//0krdMWTUtqVw6EaR+FqlaTbIXLKR+N/P295eiT9QQd09POXvwgDGViIiIiChtYDBNCtpUeHl5GX9FSJ8+veTPn9/4K2l5WnbASpcuraqSb926ZUwVFdCibYaZt7e3VKpUSVUVJ0eLCzx3LAtCafOyoI0Iwmh396gfEyxf7ty55cSJE8aUhEMrE4TTP/zwgwq7OZAHERFR8kFF8tbFv0jYrZtSqGJlqd+xk1w+cVyO79imvu+rvNRUytZ7zpg7Av7uNGW66kUdXwf/XS+3r1+TnEWKyku9PpKAnLmMayJC6WYffyr5y5WX29euyr41q41riIiIiIjSBgbTFKPDhw+rthsIZ1FprCG8XblypTx48MCY8tj+/fvVJS5oyYFKabQOyZXr8U5abBBmo4rZLCmWBbAstWrVkrx58xpT4oblMUPIjGWx1eLj9OnTqk2JdSsSVJMjlEb7EgTwRERJ5dChQ1KxYkWZNWuWMSXp4b7xGHgsImex8ee5ErRtq3havnervNhEVTKvnjpZzh85rILj9t+MlQ8XLZOOE6fKx0tXyhujxknOosUk3Ma2Rsknn1LzWl9aDhykrkdv600L5slDy23LPfu8fPzHKum3bJX0+e1PGfj3RqnWrIU8DA+XDfPnqHmJKO1I7u9pnPHaqVMndUnM2a9ERETJicE02XTy5En58MMP5aWXXpImTZoYUyMcO3ZMPv30U5k0aVKUQHj79u3y1ltvydq1a6P0jbaGKmmEsegZjTYWmTJlMq6xDYHvli1bpFy5cqpS2Syxy4IQGQM8opUHlsWeCnG03ECv6rJlo57ue/nyZdXmY/DgwVHCabyWaB2C/tro5U1EzgP98XFWBS5x7TjqHUzMi9ulNowPgAN/L7zwgjEl6eG+8RiJHYuAKKWtnTFNbl66qCqZ67R9Q/WfntLpTdn2269y7+4dyV28hJR+uq4E5MkjZw8dkN9HDZeg7VuNWz8WkCu35ClRMtola/4Cxhwiv48eIb989ZmcP3xILGsTFYTnKlJM3D095PS+Pap39R9jR0bMTJTCdHiJ764vv/zSmEopIbm/p1FYhFaK3333nezYscOYSkRE5FgYTFM0aGmBns5PPvmkGhDQXC0NCF7GjRunQhodCCMI7tatmxossWPHjtEqm9GCAxtd2OjNkiWLqsT++eefpU6dOsYctqHCGIMU/vHHH/LGG2+Iv7+/cU2EhCyLeQMc7Uq++eYbmTx5srRu3VpNi82BAwfk66+/lvbt26u2I2aoth4/frzs3r07MpxGKN21a1epUKGC9OvXL9prSUSuY9u2berzD+iVn5oQkmPdiR1SnJmhmdd/+hJTJRXWq+b5bAUWuG/06cdjsWqaHMnEN9tKz9KFZd6AvsaUqI5s3igD69aSD8oVU6ExXL94QWb16SX9a1SSXmWKqNv3qVxGRrVsKtuWLFLzaPr+Y7rgerNNv8yXr5s2lI8ql46cJ6b7JkpJp06dkk2bNqnfcVA1OdrmUXRJ8T2N72XzfLYOoGN/7osvvlBj9di6DyIiotTGYJqiQHUyjqoXLVpUunfvHmN7CfRC1oHwBx98EBkEY8PJusUFIAAeOHCg/P3337Jw4ULJkCGD1KxZU6ZPn26zDQdgWaZNm6YGIMQGVUwhdnyXJV26dOo6LMvSpUulevXq0qhRIzUoYkwbbAjIt27dKh06dJAaNWqox7B13wUKFIgMp3v16qUCfh1KW4fqRORaqlatqj7vkNoDmcZUhYUAomHDhmqdhktwcLDql4+BXc3rP6xP//nnHwkNDVXzHTx4UO1A2wqnK1eurNaLrJomInI+OFsQ63BAiGkOSSn5JPZ7Wn8f6/nWr18vbdu2tRlOt2zZUh18YNU0ERE5IgbTFAUG4tu7d6/qtxxXkIpAGO0+0JIDgxOidYatsBYQcGOjF/2qmzVrpiqUR4wYIZ999pls2LDBmOuxCxcuSJcuXVTLD7TAaNWqlaoEiEl8lgUV1Ki0xrK8+OKLMmzYMJkzZ458//33KjS3hoB8woQJqg/0u+++q+aP7bVBOI3n9ddff6kQHBuSDKWJXB/Ooti1a5faQcTOfWqJqQoLsIzm9ky64hk7rNgZ1sqUKSOjRo2KPMsDt8M61lY1nT5VmFXTRETOB+twnHWI7y58H1DyS4rvaRwAN/9/6cpoHFS2LrTBfWI/hlXTRETkiBhMUxQIc1HNjIA6LmiZMXz4cNUCY+fOnTJ16tQYq5+tIWR+7rnn1OCH1r1Y0cO5RYsWquUHQmlUIcYWSkNilgWeeOIJtTwIyc19oDG4IsIYLAcuqJiOa5BCtO/4/PPP5dlnn1W9qBHu2BoQkYgoOaClSHx6VmbLlk1y5sxp/BUBB++sWw8VLFhQHTRE9ZY1XTWN9R13eimpPYo6bjClAQ+Nn0SuKCm+p20dAC9cuLCqrsbZTtZ01bStIhwiIqLUxGCaosBAhOj9jMrg2Jj7OKNHs3Wf5/jw8fExfhO1MYWezAiYhwwZosLpuCTlsiB0dneP+FigUhoB8/Xr12XmzJkqqImLuaf0yJEjVWW4uec0ETk3rFt0L0dczAfW8Luebj6V1roHJC7YGbWuPLa+b1zM92MP3CcqomxVYcUEQTMeCzu+CaWrpjnAEiWlIkWKqJ+33W2fAUWuK9Qj4v8cQZsrsf6eMK/3sZ2JSlrzuCy42GqhZD0PLubvFRwgRNs6TNf3q5mXAfdtvi/cBre1noazgXA/5ttZs/4OW7x4cbT7jYv5PrCc5u9P/fzwXMzLYut70noe69fA1uuHi/Xzim15rO/TXnjs1PieNldNYxmIiIgcBYNpijdsnFr3cTb3eZ4yZYqEh4cbc9uG0wVXrlypBlrUR/wxDUfxMYggNtZiasVhlhTLAugfjeWpXbu2ar8BCJTRjgOtOLJnz66mxebMmTNRBjpE+w5zz2mE06wkJHJe6N2IixnWGdhZjQk+82fPnjX+euzPP/9U6y29c4idXev7Tojly5ern9jhtgd2qrHewunAce0gY0BHVEWjH6ktqJrGQU2eKkxJpXjx4upniNUgxuT6Qtwi/s/1e8AVWX+nYFsR47vUr19ffUdon376aZTvGfyOgNI8D+BvTMf1+mAh4H5RoavpwXmxvYoq2rjggCPa5OF+NOtlsvUd1rRp02jLGB/4fsXjaLivNm3aqPZ+5mXBGZPmgBjb/yVLlowyD37HNL3MCHpxBpA1PJ51OK1ZLw/uMyFnCSXX9zSWA208YusTjv9vPG+9DERERI6AwTRFgY2a9957T21cXrt2zZgaFSqY0MNMB8EaAmG00Hj++edVH2cNFdgff/yx/P7777JmzRr1E/2jEfhiQwthBuCxDxw4IH5+fqodB+a1vuB6s/guC05hw7yLFi1S94cwun///tK8eXO1AY35NQz2hWpuBM7Wy4EL7gtV1RrC6x49ekQb6BDh9MSJE9XGoLk6nIicC9YP2JnVgwxpsQWx5t6d+qJvi51srGcQTuudZQS75gEHMXCsveytwsJj6YovrLNWrVoVZ09s7OijHybW29YtPjRMx/VYN7JqmpICQkmcxRTq5iEPJfaWXuQ6Qt09JNyyfkLrAnvOnHNW+jsFF739uWLFClXVav09o8NkrOd1cIpgGd8TmNd8H7ge8yGI1dN032Fc9MHS2A40WsOy4HFwBqGmlwnBKb4fwPw9aZ43IfT3IZ6jHlgYrw9a7JnvHwGxDt6xLAiqAddjPlywrwD6+xrVw3pMCOt58B2pDxqb6eUxv9b4vjP3fY5Lcn5PY+wenHmKfayY6PEisAy2niMREVFqYDBN8YYe1OjHbKuiuXTp0tFOuyxbtqxcvnxZhdB169aVdu3aqUD3119/lQ8++CDyfrChePr0aVXljPlsXRYsWKDm1eK7LNgAR2iMoBz3h43//fv3q9DFelBDtOXYvHmzNG7cONpy4DJw4MAovbjRBgTLYmugw3z58qmNamxgEpFzMu9I6upgiKmfoxnWbzgohnUAqq403BYH49C/GVCZhr+xU2o9AFJcsGxYxrh2OLFzq3fEse5D5bY+RdqaXm4crMTZH1im2MyfP1+FHfqAI1Fi4MCyrpg948UDu2nFOc+I/+u41jfOTn+n4KJDR3MVszlY1hDS6ipkBIz6NdLrf9AHPc33q7+nEKIiTIWnnnoqxgONZviu0+t0fFfoZULAje8IhMK6Otlc1WueNyHwfLB82HbH9wrg/nSlMcag0YG1Zl4WfG/pcFdXOlt/XyPI1i0/9DwxjaWgl8f8WuOxbM0bE33bpPyexjRch4MDY8aMiXz9bcG89gTjREREKYnBNEWBDa5vv/1WVRlkzpzZmJo4pUqVku+//15tDGIDCxtF06ZNk5o1a0b2cwZsIOHUMr0hZutiHn06IfLkyaP6UOsKk5s3b6rqaWzQWQ9qiMeyfnzzBcua1Bt1eMzkuF8iSh16hxFhM0JnW3SlsXkHG+E1dpR1JbW99A67vafpYl2DnV6wvg2WvVmzZmrdjR3vuKq1dNWc3nknSgqdO3dWP096+coto+8wua4rnunkvGfE9pg++EePQ+D4qlevnvqpw2od3JoDXlcQFBRk/BY7HTrrimTrlh8pISm/p/G9i9YvOLi9cePGOA/m6Nu70v89ERE5PwbTRERE8YSKKwS2gB1CBM+2YCdQV7fp04rNpyVr2JnEacXmU4RBn5JtL+zA2lONZaYrts079uadXRy8s+dg2XxWS1MywAER9JWFo162P2fkGh64uckx4/8YvZZdvWI6JZirrvGdpdfz+Fy5ehGEbj9ivuB7FhXY+I4EfBfrYpXEth6xV1J9TyNcx/8vzv5Ey7C4DgjjsVgtTUREjojBNBERkR3MO5HmwDkwMDDGHUK9E2muTjOfagy4TwTQqIbDziLuW/e6jOmU4tjox5kwYYL6GRcdsptbH+mQGQM72VP9zGppSk69evWSYsWKSYi7p+z0ySg3LD/JtVzxSCc7vDPKXTd3dUYd2r5RdOag2fydpENHwPWYD/Cdos92mTFjRmQvaF1JnRQQmGpYBl3Zje8g/T2ZUsztPawP7CLIxcV8YBmhLg6AYJnRhzulJPZ7GsuL1xrbCvaeTcpqaSIiclQMpomIiOyAHexs2bKp03/RuxIQAMQ20JDeibR1WzPsLKMiCtfjontdxmdwKk1XYyGAQGBshqDZPA07txgAFsECBoEF7MhjeeITMusgm9XSlFwwsDDCNoTT//lkVK097nFARKd3z81dVcLv904vd909pFq1atKnTx/jWrKG9bsOIs3fK/ipQ2Bcb66I1SE0Bg7UbTx0cJ0UzGMu6HESzN9jKQkhM8JmML8+uOjxHXT1MWAZcR2mxdRuKzkk9nsavcKPHz8e2Y88LvrABauliYjIETGYJiIisgN2Ws09T7Fzj76Pse3kYcAiXf0MuP3OnTujtfKwBacV23N6ri2oiMqVK5cKjM0Q+iCQ0Dvq2BlHxbetx9F9rq0vqEIzY7U0pYRy5cqpz4SupD3l5Sub/TLLFt8A2eedXgXVJz19eHGCywkvP9lr+T/bbPm/w+W8MbAlBslGBWnevHnV32QbKqCt2z4B/rY1HoC5yhqSuo0H1vsIU83fj/iOQysN62VMCQjm8djWsHwI0bG8gwYNirJsWLekVCsPLbHf0xcvXowyn/mie1JrrJYmIiJH5vYITbWIiIhc2MiRI2X27NmqJYDuV+vqsGM6fPhwmTdvXrL2akVQjYG57G37QY7DWT8XmzZtkqlTp6resLptADmnjBkzqkGyEUqXLl3amOr4cKByypQp0rFjxyiBLD2Gg5atWrVSVdrxaTmRlqTE9zSqpXGQHAeP8dOZ4bO2fft29fmrUqWKMZWIiJwdg2kiInJ5OoDDgFpppXep3hnF6b/JFRqj5Qcqq1GdZl2lR47v66+/VtV6znzA5uTJkyoAw2nt5BxQ0Yme4cWLF1eVoM6IwXRU+I5p1KhRZLiqv390exF+R9iWEt/TOHiM7+q4zvByBgymiYhcE4NpIiJyeYsXL1Y7ZziN9auvvjKmEqVtCNXQWmbcuHGqRzgR2YfBdFT4fo2ppzRaZCB8NVdQ28LwmuLCYJqIyDWxxzQREbk8VObB4cOH1U8iijjVHvTng4goqeie17p9BKqpd+3aJaiJsnVhKE1ERJQ2MZgmIiKXh+DN3d1dgoKC5M6dO8ZUorQLLTBCQ0PV4FtZsmQxphIRxR/6R1sHzRhwz9lbRxAREVHyYzBNREQuz8PDI7Iq9KefflI/idKyOXPmqJ+sliYiIiIiotTCYJqIiNKEzp07q5/oTfjff/+p34nSotWrV8uCBQvU7+yPS0REREREqYXBNBERpQnoX9mmTRv1+4gRI9RPorQmJCREvvnmG/V79+7dVd9XIiIiIiKi1MBgmoiI0oxevXpJsWLFZP/+/WpAph07dhjXELm+tWvXqoMzFy9elJo1a0q7du2Ma4iIiIiIiFIeg2kiIkpT+vXrJyVLlpRDhw7JO++8I5MmTZKrV68a1xK5nkuXLsnXX38tH3zwgZw7d06qVasmffr0Ma4lIiIiIiJKHW6PMGwyERFRGjN27FiZMWOG8ZdIrly51EBwbG1AruD+/fty+PBhdQkODjaminTt2lU6dOhg/EVECYGxCqZMmSIdO3Zkn3aiFILP2vbt29Xnr0qVKsZUIiJydgymiYgozdq0aZNMnTpVVU+HhoYaU4lcS6ZMmdRZAgilS5cubUwlooRiME2U8hhMExG5JgbTREREFidPnlQB9fHjx40pRM7Lzc1N9VPHWQCBgYHGVCJKCgymiVIeg2kiItfEYJqIiIiIiMhODKbJGXz55Zfy77//yqxZsyRr1qzG1KRz5coVNZD0k08+KQMGDDCmJh8G00REromDHxIREREREaVBYWFh0qlTJ3WWBYLMtCAtPGecAfbLL7/I66+/niyhNOB+cf94HDweERFRQjCYJiIiIiIiSoNOnTqlxlsAVNeiCtbVpYXnPH/+fDWo8wsvvGBMiYDni0DefME0a3hNcFs9T8WKFW2Gz82bN5caNWqoxyMiIkoIBtNERERERERpUP78+VWwCGjJkFzVtY7E1Z9zbNXS+/fvl+DgYEE3T1xmzpwptWvXjhJO6xYdaM+h53v55ZelVatW0cJpX19fVk0TEVGiMJgmIiIiIiJKgxAsTpo0SYWPKdEn2BG4+nOOqVoa0BfdHFaj4hm9m1evXm1MiTB27FgV2mtdunRR97lt2zZjymOVK1dm1TQRESUYg2kiIiIiIiIiJ4dqZ1Q/29tbGiF9YGCg8VcE3K548eLGXxH8/PykYMGCEhQUZEx5TFdNf/rppzbbghAREcWGwTQREREREVEyM/f3nTVrlrpY9/C17u1ra3A+63lwwd+YDubB/ax7A5uXAfdtvi/cBre1nrZr1y51P+bbWTM/F1wWL14c7X5jY749ftfMy6KfIx5fz6sv+jrN/DwnT54c+Xrgvm09Z4jv/eK+rJ+3rWDWfBt9iek56out+7HH8uXL1U/cnz3w3M+ePSuFCxc2piQMqqZRef3TTz/F+X9NRERkxmCaiIiIiIgoBbVt21ZdtN27d0v37t2lfv368ueffxpTJVoVKn7Pli1blHkAf2M6rtcVrID7Nbdf0C0bKlSoIC1btlS/x+a7776TSpUqqfvRrJcJga75uUDTpk2jLWNsEKQ+//zz6vd//vknMtw8ePBg5P3gOaFyF0GqNcyDvsjmEFlDYIrnERsd0FqL7X6t/w9Bh/0a/kYP55jE9P+J25jDa3vgcREM21stDSNGjFA/0dIjNnrAyHr16hlTotLvObzOO3bsMKYSERHFjcE0ERERERFRCkIIi0HocNGB7IoVK9Qgc+h9vH79ejUNdJiM4BFBJyBYRmiLec33oYPRkiVLRgt6zeEregJjEEB7YFnwOBgoT9PLpAfaA/2crOe1B4JU3dMYASiCUDhx4oT6iedbtWrVKP2h9UW/Vgh38ZpYM79WCJltScj96ucbGhqqwm8wz4tgGSE+4HrMh/vFbXLkyBHl//OLL76IfFz92iFkNofccbGnWhrvAV09jgsqpfG88fxjgmXo0aOHem+a+05bw3V4HqyaJiKi+GAwTURERERElIJ0Vas5kDVXMZuDZQ2Bp66s/fDDD6VEiRLqd9yHrpDWwaj5fhHuIhTVVa/w1FNPxRpGaghU0aYBzFXNCLgRPqIaW1dTYyBBPC6Y57WXrsbF/SG8xf0jVAfrIN0csJorknWQbYZAVb9WcYnP/er/Q10trGFe87Lj/7Vnz56Rrzdu89xzz0X5/0SArcNiXYV94cIF9TrYSwfSOqC2xTqABzxmTNXZuqIb/aV79+5tTLVNH6TAa2HPe4uIiAgYTBMRERERETkoHQLHlw56dVitQ2QExrFV1aYWcxiPimxzkK7DTlTvYtnR0iOu9hyaPf2TE3K/9sqVK5cKd+NLB/T20gco4lNpjQpyVGjbug3CaoTzuD6uqmqYP3++OoCgD2QQERHZg8E0ERERERGRizEHvajiDQoKUr+jklpXNjsSLJOu8kYYj2BaB+l4LoBqYF1ljMAUVb8I3VGVnBjJdb/20o9pfdGvh73sqZq2hmpo6+pstBhB5TbamcTU/sSM1dJERJRQDKaJiIiIiIgcnDloNle44if+BnOIaw56Z8yYEdkLOqYB7BICoaZm7i08YcKEyKA3PvSyoVJaD8xnDtJ1uI7nqUNYczuRhErq+0U4i3YpgNehf//+ka8NQtzFixdH+f8cPny4mq7peeJLV01b319scNDCXNWtQ2aE0vYG46yWJiKihGIwTURERERE5OAQOqKPMyDsRJCI/sD4qUNgc59n0EEvBla0rj5OCggi9cB/aIGBVhhYJj3oX3zpsBbLimUGc5Cu23KYn7/uyZwYyXG/zZs3t/na4DmGhIREhsiA54vpuN48T0IgWEfQjLDYDIHzqFGjjL8ioIc0nqf5fYNAPj4hsw6yWS1NREQJwWCaiIiIiIjICaCCFS0XdKWthr8x3brCVQe9mrn6OCkgiETYqQNYQPsLVNtaL6M9sGzm54D7wHPQ0Fbiiy++MP6KGJxx586diW65kRz3i9cGvZnRpsOarjTH49pqGYLnrSu340sH3giLzVXTGDwSf+vwG5euXbuqx7d+35iDdPOlYsWKUe4TWC1NRESJ4fYIzauIiIiIiIgoTgjtpkyZIh07dowSyNJjCC9btWqlKoER+OpKb0oZaO+C0BuBc3K+9vr/efz48dHC7aSGz9r27dvV569KlSrGVCIicnasmCYiIiIiIqIEQcW0uYoWoWiPHj0i+zMnZU9rso+umkZLFbTrSA7omY3/e1ZLExFRYjCYJiIiIiIislOJEiXUz3PnzqmfaR16IZv7I5t7XqONBSppEVyjDYS5LYT5klzhaVqGimmcHJ1clcy6VQkuKdFb+sCBA+qn7gdORESugcE0ERERERGRnQoVKqR+nj17Vv2k6HTPa4SjgDB/165dKii1dUnuNhDk3Pbt2yehoaGSM2dOyZw5szGViIhcAYNpIiIiIiIiOxUoUEAyZMjAYNqAHsbWQfPy5cuTdJBFStswQCMUKVJE/SQiItfBYJqIiIiIiCge0E7g8uXLMmfOHGMKESWXv/76S/0sWrSo+klERK6DwTQREREREVE86BYV33zzjZw5c0b9TkRJ74cffpCtW7eqaul27doZU4mIyFUwmCYiIiIiIoqHevXqSfPmzdXv7777rvpJRElr06ZNMn78ePV7v379JCAgQP1ORESug8E0ERERERFRPCEoCwwMlIsXL6qgev/+/cY1RJRYAwcOlG7duqnfu3TpIhUqVFC/ExGRa3F7hNEpiIiIiIiIKN7eeOMN2bt3r/q9ffv28sILL0ixYsXU30Rkv/DwcNm3b5+MGzdOduzYoaY1aNBABg8erH4nIiLXw2CaiIiIiIgoERYsWCBDhw41/hLJkiWLFC9eXMqVK2dMIaKYhIWFyYEDB9QlNDRUTfPx8ZHu3btLy5Yt1d9EROSaGEwTEREREREl0rZt22TChAkSFBQkISEhxlQiio8cOXJIqVKlpFOnTjzzgIgoDWAwTURERERElIQQTuNy7NgxYwoRxcTPz0+dYVCwYEHJmTOnMZWIiNICBtNERERERERERERElKLcjZ9ERERERERERERERCmCwTQRERERERERERERpSgG00RERERERERERESUohhMExEREREREREREVGKYjBNRERERERERERERCmKwTQRERERERERERERpSCR/wPoKpjjDvgk9QAAAABJRU5ErkJggg==;" vertex="1" parent="1">
          <mxGeometry x="-270" y="10" width="1446" height="187" as="geometry" />
        </mxCell>
        <mxCell id="Z_0YeXmDCLqOWmuJR8lk-7" style="edgeStyle=orthogonalEdgeStyle;rounded=0;orthogonalLoop=1;jettySize=auto;html=1;endArrow=baseDash;endFill=0;strokeColor=#2A2A2A;strokeWidth=2;entryX=0;entryY=0.5;entryDx=0;entryDy=0;" edge="1" parent="1">
          <mxGeometry relative="1" as="geometry">
            <mxPoint x="-357" y="623" as="targetPoint" />
            <mxPoint x="1238.5" y="374" as="sourcePoint" />
            <Array as="points">
              <mxPoint x="1270" y="374" />
              <mxPoint x="1270" y="499" />
              <mxPoint x="-390" y="499" />
              <mxPoint x="-390" y="623" />
            </Array>
          </mxGeometry>
        </mxCell>
        <mxCell id="Z_0YeXmDCLqOWmuJR8lk-2" value="" style="shape=image;verticalLabelPosition=bottom;labelBackgroundColor=default;verticalAlign=top;aspect=fixed;imageAspect=0;image=data:image/png,iVBORw0KGgoAAAANSUhEUgAABiUAAAC8CAYAAAAXQq3LAAAAAXNSR0IArs4c6QAAAARnQU1BAACxjwv8YQUAAAAJcEhZcwAADsMAAA7DAcdvqGQAAAAhdEVYdENyZWF0aW9uIFRpbWUAMjAyMjowNzozMSAxMToxMDowML5RJhsAAJ9+SURBVHhe7Z0HmBPV18bPLgu79N57r4IUEREsoKCoIKiAgmBDEVCKgIIfiqiI0hWQYkVAWTp/REVBpav03nvvZenty3szd5mdTbJJNtlNeX/PM08mdybTMjP3nHtaxC0bQgghhBBCCCGEEEIIIYQQ4mcijU9CCCGEEEIIIYQQQgghhBC/QqMEIYQQQgghhBBCCCGEEEJSBBolCCGEEEIIIYQQQgghhBCSItAoQQghhBBCCCGEEEIIIYSQFIFGCUIIIYQQQgghhBBCCCGEpAg0ShBCCCGEEEIIIYQQQgghJEWIuGXDmCeEEEKIwa5du9S0c+dOo4UQ4owMGTJImTJlpFixYpI3b16jlRBCCCHJ4fjx47Jjxw41Xbx40WglhDijbNmyUrx4cSlatKjRQggJVGiUIIQQQgxWrFgho0aNUsaIuLg4o5UQ4gl58uSR8uXLS/v27aV06dJGKyGEEELc4ebNm/L555/LX3/9JQcOHDBaCSGekDlzZilRooS0aNFCGjRoYLQSQgIJGiUIIYQQG1OnTpUBAwYY32ykiRBJFyW3otMYDYQQZ9gESpErN2zTdRFDsoyJiZE333xTmjdvbm8ghBBCiEs2bdokH330kWzbts1osQFZNCat3LKJpoQQ10Rcu2mXR6/bPg1glOjfv7/xjRASKNAoQQghJOx54YUXZMOGDfYv2WJEMqUTSUdjBCEec9MmVl66JnLqkgiUQhtUBAkhhJCkGTJkiEyaNMn+JTpKJLtNJo2xfUbSGkGIx1y9IXLuin2yAWeZMWPGSMWKFdV3QkjqQ6MEIYSQsKZJkyZy8OBBu8KXP7PdG40QknyOXhC5cFXN9urVS5566ik1TwghhJCEIF3T+PHj7V9gjMie3j5PCEkecTZZ9MRFu+OMDaTrJYQEBpHGJyGEEBJ2wHtbGSSibN1hsWw0SBDiS/JmFMmfSc1+8skn9meNEEIIIQlAyqZ4g0Q+W79JgwQhvgMR8NDzjCh4REsQQgIDGiUIIYSEJQsWLJDp06fbvyBCghDie9KnFclhH1wZOXKk+iSEEELIbYYPH26fweBpBlu/SQjxPYajzLhx42TJkiVqnhCSutAoQQghJCyZOHGifSZnepG07A4J8Ruo05I+rcybN0/++OMPo5EQQgghcJJZuXKlvYZEnoxGKyHE56Sx6Xu5M6jZr7/+Wn0SQlIXjsIQQggJS3bt2iVp0qUVyRpjtBBC/EZGu+fnunXr1CchhBBCRDZv3myfyZzO/kkI8R+ZoyUybZTSAwkhqQ+NEoQQQsKOvXv3yvnz5+VGpL3gGSHEz8AD1MaGDRvUJyGEEEJMxvoYez9JCPEvN9OIxMXF0TBBSABAowQhhJCwY/fu3fYZFLgmhPgfFJGPjFCDL1evXjUaCSGEkPDl2rVr9tRNtv5RF+ElhPiZNLbnzQaNEoSkPhyNIYQQEnZs3bpVfd6iUYKQlMMYcFm/fr36JIQQQsKZ+CgJGiQISTFupbU/bzt37lSfhJDUg6MxhBBCCCGEEEIIIYQQQghJEWiUIIQQQgghhBBCCCGEEEJIikCjBCGEEEIIIYQQQgghhBBCUgQaJQghhBBCCCGEEEIIIYQQkiLQKEEIIYQQQgghhBBCCCGEkBSBRglCCCEkxOjTvpusiP1dfRLPiR3ylSz8fpY0uu8ho4UQQgghhHjCXZXulLmjf1QT5olntG/RVpZN+kVG9fnMaCGEkNCCRglCCCHEA6AYYMDfPP03eZ78NnaydGvbXjKkz2CsGVxgIB7nsuCb6dLg3geN1sRgoB4D9lg/nPi8d3/596ffZFCPvkZL6hAox0EIIYSQ1EMPWFtl0oXjZ8vwXh/LHaXLG2sGF/q8IFsPeftDo9UxkMmxLn4TLjR+8BGZ//U0+f2rqS7ldX8TKMdBCAluaJQghBBCvODoyeOyfe8uNZ0+d1ZyZM0uzzZqJv069TTWCE6yZMosLR5pErTGFUIIIYSQcOHCpYvx8ujBo4clOm06ubdqTen3xjtBa5gAERERKrqi5aNNjRZCCCGhBo0ShBBCiBcsX7tCnu3xmpoatHtGvp35k1y7fk2qla8sD91zn7GW57Rp0kLmjJqoPOJTmqvXrsq5C3FSoWRZefHJlkYrAW/27y01WzaU7gP9H6Hg6h5IyeMghBBCSGADJxktjzZ5o410/ew9OWZrK5g3vzyajDSURfIXklF9PpVfxvyUKuksT509I9HpoqXZQ42kRKGiRiuZ/eevUv/lp+ThV56WeUv+NFr9g6t7ICWPgxASutAoQQghhPiA72b+JIeOHZX0MemlVJHiRqvnFM1fUPLlyiNRaaKMlpQkQrbu3iFpIiOV8sH8v6lD6t4DhBBCCAlWlq7+V/7dsFoiIyKkWIHCRqvn5M2ZS4oVLCIZbXJtanD+wnk5cvyoOobWTzxttJKUJLXvAUJI6EOjBCGEEOIDLl66KDdv3ZTrN64r765gBKHyG3dskR3790ieHLmk2cOPG0sIIYQQQkgwcOPGDfV55vxZ9RmM3Lh5U+b8/buSq+tUqyUP1rzXWEIIISRUiLhlw5gnhBBCwoIxY8bIuHHj5Fa2GInI4Zn3D4rq1byjqsxa8It8OHqI0SrySJ160vPlNyTuQpy8O7y/rN++2VgiysOr8QMNpVC+gpIubVpB13vizCn5ae4M+X7WZLUOivS1bdJS0kYl9o637qttkxby1MOPS96cuSVNmjRy06a4YXvfTJ8kU+f9T/q07yZN6j2qfrfrwD5p8eiTks+2LowO523HByVvyPdfGluzg8LVhW3H9/2sn+TE6VPS6bmXVfuISV+rbWoQQfGO7TyPnDwuzbu9YrTaQR2K9s3bSIPaD0qOrNkkMjJSKcZILTDt9znx56rBPnFcA78dKQ/eXVfuqVJDrly9IgO++lxO2s7ng05vq/WGfj9amj/SRCqWKmu7PmkTnAPOs22T5lIobwGX54dtP9/4Gds2ykmGmPRq3YuXL8nilctl2IRxKtWBRh/XgK+/kLkL/1Bt5muK/0JfB2e1N/Af//XfUukxyJ5myVf3gPU4zDi6L2Agm7f0TxkdO14ZzjR6X6s3r5c5f/2mUkYVL1hE/WfnL16QP5b9LcN+GJvgN8nm0HmRy9fV81e9enWjkRBCCAlPVq5cKa+99ppIjK3fL5DZaHUP3Y/vP3IwgTwGuWRc38FSrGBhGTd1gork1aDGRKvHn1ZybOaMmZQshNSda7ZskC9/+i5edoUc5Chl0rFTJ+T9EZ/KfxvWqO/Y3itPt5Y7y1WKl60uX7kiq7eslzc+7qUibrUsN/CbEUp+qVahsloX8uHWPTtl+ISxsnLjWrUOMJ/XC+++KYN7fKC2g32+NfD9BHIJZPKq5e9Qsuvoyd8brXYg971qk0lLFykhMdHRSu6C3Idz/cp2Xcxyulkm+nXxAnm95QuSK1sO+WfdKun08TsJZK+jJ0/YZK3HVC05yFn6HPYfOSRdWreTOtVruTw//D9Ikdrw3gcTyGsHjh6ynUes2ofGfFwdPrTXrDNfU/1faN3EGWfPn5OPxgyRP/9d4rN7AFiPQ+Psvti+b5eMtcmjy9auMNZMeD7WewTHtXHHVvncJqeb/6/kcuvUJYk4c1natWtnf/4IIakGIyUIIYSQZADlAkX4Xm/xgkSnTSu/LJqfQHDG4PWrTz8vhfMXkkPHjsjiVf/InkP7JUeWbPLqM8/LC0btBhgCduzbrQbwAYpn68KFug37GvHuAGUwyJ0jl1KAsL1te3eq5VCQzJQoXEw62BSrmzdvyL/rV8vBY4eVAvJ0g8dt+25jrJUYGCGgMGS07Q/REsgpmxRQXL7s86kq9p0pQ0aliC1csUwOHT+qUhF1fPYl+aCj4yLg9e6uK3Wq1lSD8Ug3gIFxTZRNWYNSBoPJum2bEpxD3449pPPzr9oUlwyyavM6m0J3WO3b0fl1bdvepvhUVQUh/9uwWtZt3QjLgTxc+wF555U3jbXc51zcedl5YG/8f6QnKGtgt23Zlz99q+Z9eQ84AvfFsHc+UtcY98XewweU4ol9ZM2cRf0ng7q/r9azkj1LVun+UifJljmrUijxG4TpP2lTCrVhihBCCCGBT22bLIVBfKQRXb15g8T+NttYYuf1li9K/Vp1VWTvWpsc9O/6VWqwuOYd1aSHTRbQcsLeQwdk1/49ylEEkQp7Du5Xssieg/tsctQltQ6cIIb3+lhq33mXqqmmt3fs1HEl35iBLPdGq1ekWvk7ZIdtO5DBsO0KJcvIWy90cCpnwgAR++tM5WBRpWwFaf24e2mcIFt92q2PVCpVTs5dOC+LVi6X9TYZEoYJFAHHMlwrKzHp0slrzdtI7uw51UC6WR4FkKufbdTUdo4n1WC5+Rw+7PS2PFDzXnXtNmzfIpeuXHZ4fm0aPyOtn3hGyey7bLIiZMJDx48oObdz63bS4N4HjTXdBwYNLS/qCdvGoP6169dl+h8/K7kQ+PIecETjBx+RwT37xd8XkLnVPq5eVv9H/y7vqnvHiqN75Lrt2GF0Mh8XISS0oFGCEEII8QJ48qyI/V0Wfj9Lur/YQbJkyqw83r+c/J2xhh14P23atU26fdpHnu76knQZ8H/yTNeXZcG/iyVd2nRKCQAwBDz/TgdVQBtA8NeFC8dO+UG1YZAYnk3HT52Qd4Z+GL+91m93kEbtn7WtN16tp6lYsqz8sWyhPPlGW+Xp9VzP12XFxrVqv7Uq2/frjElzpsnh40ellE0Ba2lTwJLi5adaqQLZGNTuPOBddS7dPntPmr7ZVkb8+I3yTnvw7jryTMPGxi/sREVFSaXS5VVUQaPXn5P72jaJj04AUNquXrumPMTaf9BDncsfyxeqiIlG9z0sR08ci1+Gfc3/Z5FaZj2/E6dPqqgPXKcOH74tL/XpIqN++s6mJF2RcsVLKU8tT4AS+eK7b8b/R5i+sG0fhg5Ea0z+dZZSCIEv7wFHvNzsOalVpbqcPHtaPvxykPKYRIQGPvEdERnwOsN6VkoWKa48+Jp1eVHdIziueUv/Qi4vudt2r7ljkCKEEEJI6gCnEMijmD7v9bEa1F24crl88tXwRNGOSOcUa5NPGndqI6+811XJQx+OHqwG/YsWKCT1bXIagAyBKNazcefl6tWr8s2MSUoWwfqbdm5VnvCIzoQjCCILzNtr1vlFafX262o7GshyMemi5Z1hHyv5C9PnE7+SuIsXpHC+AkqGcQYG0yH3oc7W4/c/rPbtChgbnm7whJIvp9jkKsh9XW3yl9rv/3VWUQdw4EC0ghVEs0JmQyRqjeYPK/nSTNliJdU2Iau98O4b8v7Iz9S1K22TpSqVLicTbLKzXvbBqIFqmfX8cD0h573er4e6ppAJIZ/D8QZON0nJ547oP3ZYvLyop807t0mayDS2810n35qiZXx1DzgCMiOil7NlzmL73xarfWB9TJhHGxyennusWSL5EvcIjEYo1G69RxD189h9KV9snRDif2iUIIQQQrwAnuvaGwmpfxBm3O7p5+Xbjz9PEO4MZQ0D5uZQZbB513blwZQrew6jxTUQ3hGKDm8lKER//7fUWOIceDN9+s0I45vd4wzHAa+n7Dbh39WAM6I9dC7fh2rd5zKXLxTEymUqqAH+afPmJAhTB+NnTVZh4bhGOAczGJTfd/iA9LUpb+YUShpcIwyS6wF+sGzNCuWBhvOYMX9ugmXx19WmcMJIooFCZE0fBQUQ0QiZbAoSFNTkAA+u9s3b2v7PnErpQroqja/uAUdgv7Uq25XdeUv+lLmL5qt5Db4jYiXSppje7UDRhVEH/4954OLvFUtVGrLMGTNLMZuCSgghhJDABBGgWh6FPAXPeMhs33w4THmtm+k97GM10Gzu8zHoj+gGyGMF8+Y3Wl1T3yYXIvUQ9vnJV58nMn5YwTHN/us3VYRbA0cMePini0orBXLnM1odg1SXqHeWP3deee7xp4xWx9xf4x7JliWbkrHgjGIG8iLkM6SpLFm4mDx0z33GEjvpY2Jk4pxpCVIomdl9YF+CdFi4drsO7FFRFVt375BRP35jLLl9XaPTRati0ZpvZvyojCTmqGpcP0QYI696vlx57Y3JABG4ODc4pXxr25/5//HVPeAIRGDgP0LkMtJpmfeB+R9mT1H6EyKoEVViBvIw9A6zDqHvkWgcVx7vj4sQErjQKEEIIYR4AbyctDcSPPzhbbTTpjAhNLlTq4S1FvLYFDekIPqq31CZPvxb+fv7WdLp2ZeUouIu8MDKmTWbTcE4rXLcugPCy80KAUDEAPLcRqdLZ1MoXQ/ET5gzVdZu3SSoD9H8kSedhk4Xzl9QsmbKrNIPLV3zn9GakG02ZQtKaYE8CRVPtEEBsR6nBiHlyCtsBoYSRCRcuHhRhZeb0eeHMPCM6RPWC2lav5EM6dlPJg8eJ398PVX9HwVsypMvePulTiriYuWmdTLou4T1LIAv7gFHVCxZRrLb/p9zcXGJjEEapBi4fOWySqeAMHgzZ+POJcrTi9zDMDAhjUGmjJmMVkIIIYQEGhjk1fIoohQavNpcpRLNbuvzX3mqVaLIAhgsPun6fzLps9Eyb1ysLJkwxya/lDaWukeZYiUlIjJS1m7b5FR+MwMnEqT/sQLZBTUVMmfMaLQ4BsaW6b/PUQYYOLcgEsIZSIN06+ZNWb9ts8NjQxTJKZssHRMdo2ppmTl64rgynjgD19q6zZs37SVa91lkVYDzQ1pSpHc1A+elHi92lO8+/kJmfTFeFv3wP3nGdk5YN7kgUqR5w8ZKvoZBwlzrQeOLe8ARhfLmV4aNLbu3J3AY0kDeRBpWrIN1zTiS94G79wghJDgJikLXhw4dkt27d8vOnTvlkov8dYSEGmXLlpXixYtL0aKJi0wRQrzHH4WuwRMPNJDuNiXjwsUL8u7nn6gQceRNRa5/pHdCGqK4i3Fq8B7h0ygAB28ic4FCXUwPNSDMYePtnm4tLzZ9TnkMWQtMW3FVDFkXaI6zKVXmwnTmQtfmYoFQXHq16yKZMmSQ72ZOVvu3FrrWhfisxRbNOFoH+4RH1RcTv1Kh5GYcFfLTODsH4GgZlL+POvdW4fUQe6DUHj99UhkwituWoYaCuai1O4WuzeA/RmqtS5cvyUdjhyXwBAS+ugeA9ThcXQuNo3X0/2EunqjR1x4RJOZrkGyCvNA1ZFAtj0I2JSRcKFy4sJQsWVLJozExMUYrISS5+KPQNYATyXcfDVfpiL6dMUkVvEbbZ93ei4+ahMwCT3qk7UFdKXjIm2VAV7LAT4PGStEChRPJjFZcyXLAkUzt6rwwkI7o3e37dss7Qz5UNcGsha6dybNmrOvofW7euVWlDbLiSgZ0pRc4WoYadK2feFo5pcBYA0eQU+fOyMXLl6VKmQrKuUXLZY5kNVfXFP8xaohVr1BFRekivZQZX94Djo7D1bXQWNfx5h5JLix0TUjgELBGiaNHj8rgwYNl3br1cuKE8+KOhIQDmTJltimDJaRVq1ZSr149o5UQ4i3+MkpYBeujJ0/I0Lf7SYE8+eV/f/4qwyaMi/ewQkg9alEcOXHMrQFpvf7JM6el8yfvKq8xZ7hSnjw1SoCetvWffvhxNXg+cc5UVYjPbJRw59i0YrVz/25VAwM4GvzXuFJSPDVKfNy5tzSo/YAqcjh0/Jj4yAAoZ+P7j5A8OXImOAZPjBLwQMT2kYIJRhtrXQ+kyPLVPQCsx3F35eqqgDiKMX40erDyALSir8mZuPNKiUcuYEeKrsaVEposgtQoMWPGDJkyZYrs2LlTbt64YbQSEn5EpkkjpUuVkoYNG0qbNm2MVkKIt/jLKAEgr5oH7FFEuNXjT8mhY0dl4DcjEqSUHP3+QKlStpLbA9JYv2q5O+THuTNk2A9jjNbEeDPg7Oq8tMyVJ2cumfzLTCldtGQio4Q7xwY5r2CefDJmyg8qhaUrmQi4kqtd6QXWZYhi6Nuhu6qv8cP/pihjkaZDyxfl+cbNExyDo+NydU21vI5UV5D3rPK4L+8BR8fRt2MPefz+BirtKtJEOQLXpIbtt0jN9Jltm97cI8mFRglCAoeATN/0zz//SIsWLWXBggV2g0SkrZOOzimStbTcylaBE6ewmSR9Ptv9n07i4s7L2rVrpWfPntK/f3/jSSGEBBrwukeRuus3bsiFS5dUyqXc2XPK6XNn5PdlfycI+Yb3PnKkugs8mZCCJ2e27A5rA/gTncu3UL4C8mBNewE8M4ePH1GF6FwdG8LCkVLJmm4pJShdtIT6T/7dsDpBqqIaFSqr6AVvgVHj9ZYvSL7ceeXvFcsSGSSAL+8BR+B8zsWds51HJqlSrpLRmpAqZStKTEx6VT/CWXFC4pihQ4fKxx9/LNu2bbMbJNJmEslY0GGfzYlTqE6SqbC69/EMbN26VT7//HN5+eWXlRMZISTwgEMEIlFv3ryhPPBB+RJlVLFoFD42D0Zj3bw58xjf3ANOKHCGqFjqdu2ulAAyD+oOoBh1g3sfVDUgrBw6dsTlsT1Sp56q/4Wo2R37dhutKUPlMuVVvS449pgNEgAydtqoKOOb5yAq91HbuZ05f07G2eRRRw5CvrwHHAEnG6SNQkFwR3XrYFRC4W/oM7sdpHcihIQfAWeUGDBggHTs2FENwkqmIiIF64kUbWL/zHmnROSoyIlT2EySv65IMdv9X8B2/6e35z2fPn26NGliayOEBBQQtJs99JjyfoKSg8FfKE03b91SeWtzZrtdzBieUg1q369ypFq5cu2a+g0Gmc0gJdCGHVslvW1bzR9pItUrVjGW+B+dyxcD6tgvzscMvJq27N7h9NhaPtpUDYyfvxCnBu9TGvwPuNbIr6yBQaFlo6a2tqxGi+e8+GRLqVq+suy0/d/jpvxgtCbEl/eAI/CfrNi0TiIjIlVERKO69Y0ldu6/q7bUrXa3XLt2VZZY0koR52zZskXuuecemThxor0hZ1Wb1t5IpPCjInlrO+yzOXEK1Uny1LLf+3gGclRWjwScZR577DGJjY1V3wkhgQHkG6T8RCQAjAerbTICgDwCzLIIeLnZc2pdK3CugUMH5BQM4puBLAeZDgP/8M5PSXS9s1y28yhTtITRepvl61Y5PTbU90LEQ6YMGZVMbU236W9Q8wyJSiAvm2t9wKCAWhneAieXFjb5G/XiZi74RRWudoQv7wFHLFn1rxw/dUJFXnd67iV1L2owDx0BBdJRX+RnX0XhEkKCmoAySsADfOrUqfYvee+x9Rp32yMkbIo2IWFNjO05yH+fSDa78HLw4EHp1KmTmieEpA61bMrDjwPHqGnul5NUAeNSRYrL7oP75Nvpk9Q6SKWz7/BByZIxk/Ru11nG9h0s4z8ZIZ90edfIH5u4ThI8h+BBVLpICbVtFKHTStWIiV8pgwcK8w1/52O1fGD3vjLx0y/lt7GT5dVn/JdOA2HW8KpCtAM80Kw4OrZh73wkMz7/Xrq1bS/p0qaVKb/NlnlL/jR+kXKs2rxeFcZ+0qaI4rgQoj592LcqH/Lh4955+sJDD0okFDV46iGdALZtnl595nmf3wOOGDHpa1mxcY1S0Pu83l2mDv1GXXukJxjQtY9SPhGl8d3Mn4xfEFdcvnxZWrduLdeuXbNHLBZ9QiRrKZEoFlkkYQ6egWxlRQo/IpLObuT97LPPZM+ePWqeEJLyYJBXyx3Th38r88bGyqN16yv54qdfZsZHiEJOQA2De6vWtK33nYx4d4DMHvGD1K1xj+zcn/gZhnMNIixR++CFJi2U7PTDgFEq3Q5kuam/z1HroUDz3NE/yqg+n6oJhZsn2Y7FX8AZI/bXmXL63Fl1bFacHds3Hw6T2MHjpEbFKkpehdya0ixfu1LVM0MUy/BeH6v/AP9b1zbtVSQxogy8oVOrV1S0Nn4PRxR9P+gJ51+hZFmf3gOOwL32/azJKgoFkdWzR4xX+hH2j3lEqaBY+OjY7xNEDhNCwpeAGe2fO3eu8gBXlHhGJGPicC9Cwp4clezPh43ly5fLn3+m/OAeIcQOlECkBcKUO0cuuWBT/uYumi+dPu4VrwBC4EbOVuSCjYqKkmoVKkuJQsXU9xl/zFUD5VYwcD9z/i9qe9h2sYKFlZc72HVgr3Qe8H9qP1dtbTCCoBA1FBEUqfN3KPSkOdOcDuI7OrY6NsUob85csmX3dvl47DD5cvJ3xtopCwbt4TmGa4rjqla+spyNOycjbe2XbcqZN7R+/CmV+ikyIkIK5S0Qfy+YJ9wjvr4HHIF9dB/0gfw4d7oqmFgkf0F17YvmLyT7Dx+QLyZ9JX1HDjTWJknRvn17+0zm4vaIxTQs7EtIAtJmFin0sEjWMuprr1691CchJOXJmD5DvNyBlDmRkRFKDu019COZ9PM0Yy1Rjgnfz4q1yYunVQodpNuMsMkwX0+bqAb4HYHB4007t6nIAhRPjomOVt7zYNSP38inX49Qg9koklzzjmpyV6WqKo3p1t071Dr+ApEAfyxfGO/5b8XRsd1RpoIakJ+14FfpYpNXIbemNPhfBn//pWzbu0v9b7WqVFcGivm2c/ln3UpjLc9A0eyatuuO/9J8L5inYgWL2Jal9/k94Ihpv89R9SQ27NgiMeli5M5yldR9ERmZxnaei9SylI5QIYQELgFR6Prw4cPy4ksvyYnjx1WKJtSOIIS44NJR24OzULJmyyY/TpokefIkPwckIeFEcgpdE0K8JAgKXX/55Zfy9ddfi6TLIlKoodFKCHHKob9sz/VxlX73xRdfNBoJIe6QnELXhBDvYKFrQgKHgIiUmDJlit0gAY80GiQISRrUl8haRs6eOSMTJiQskkUIIYQQzzlj61OVQQJpQ1FDghCSNLmq2Z6ZKBk5cqScPn3aaCSEEEIIIcQ1AWGUiM9DmqWk/ZMQkjSZi6qPDRs2qE9CCCGEeM/evUYqh4wFRdIzApEQt0BUUQZ7gdRdu3apT0IIIYQQQpIiIIwSW7Zus88gPykhxD1QYDBNtKxbt04uXLhgNBJCCCHEG+KNElGZ7J+EEPdIay8CT6MEIYQQQghxl1Q3SiBU/tjRIzYFMIPtaKKMVkKIW8AwYQOGCUIIIYR4z44dRmHOtDRKEOIRxjNDowQhhBBCCHGXVC90fbu4U26RAg8YrYQQd7h1aqNEnNkU1EWadu/eLdu2bbudxo0EPJGRkVK6dGkpU6aMFChQwGgNLljompBUIMALXaMfhVyq5FHIpYQQ97h8XBW8xnON5zsYOXv2rJJHMcXFxRmtJNDJnTu3lC1bVsml6dKlM1qDBxa6JiTlYaFrQgIHGiUICWKC1SixePFi+fbbb2Xr1q1y+fJlo5UEI9myZZMKFSpIp06dlJEiWKBRgpBUgEYJQkKTIDVKXL16VQYPHizLly+XgwcPGq0kWIFh4rHHHpPWrVsbLYEPjRKEpDw0ShASONAoQUgQE4xGiSFDhsikSZOMb3aF8OLFi2oiwQEiJTJkyCDp06eXtGnTGq0iXbp0CRpFkEYJQlIBGiUICU2C0CixaNEiGTRoULwx4ubNm0oWvXTpkly7dk21kcAnOjo6XibV1K5dW9566y0pWrSo0RK40ChBSMpDowQhgQONEoQEMcFklFi1apV8+umnsnPnTvX90KFDcvz4cbl+/br6ToIThMrny5dPhc8DKIL/93//J3ny5FHfAxUaJQhJBWiUICQ0CTKjBKIjfvzxRzV//vx5OXDgAJ1jgpyIiAgVvVu4cGHlMJMmTRplmGjevLmxRmBCowQhKQ+NEoQEDqle6JoQEvogGuKjjz5SBokLFy7Ili1b5PDhwzRIhAD4b/ft26eKW8KzcOnSpcr4RAghhBASaHz//ffxBgk4yKCGBA0SwQ/8LE+fPi0bN26UkydPyo0bN+Szzz6zG5oJIYQQEpDQKEEI8TtI2YSBaxQOhEEChgkSWkAR3Lx5szI0/f333zJ58mRjCSGEEEJI6gM55YsvvlDzcJSBgwwJLWCM2LNnjxw5ckR9R1QMIYQQQgITGiUIIX5lwYIFMnXqVDW/f/9+9UlCE0RK6P8YSuDu3bvVPCGEEEJIagMnGYD0oWfOnFHzJDRBrRBEwCASZtiwYUYrIYQQQgKJkKkpUaJQLmn1+F1yb9USkj1LBkmTJlJwZucvXJbFq3fKiEl/y7GT5421A4t7qhSXV5vXkdJFcktMdNr44160cod8+s3vcvHSVWNNkUb3VZR3Xm4gGdKnM1rs4DeXLl+VA8fOyG+LN8uUeasS/I6EJsFQU+Lpp59WHktQDrTXEgltihUrJjlz5pQGDRpI//79jdbAIr6mRHQakfS3i3UTQvxHRJxNLrl+M+RrSjStX0WaPlRFihXMKemj00lEhMjVazdk3+FT8uPcFTJrwTpjzcACsmV7mzzaoHZ5yZE1o0RGRsQf9/hZ/8jcRRuNNe2M6tNSat6RuJAsfhN38bKs3LRfps5bLSs37jOWkJAlCGpKzJ49W/r16yeXL1+WTZs2qXQ/JLTJlCmTlC1bVs3PmjVLChYsqOYDifixkKhIuZUpoX5PCPETl65JxJUbrClBSAAQEkaJNk3ulheerCVZMsbIjRs35eSZC3I27rJkzRQjObNlVAYKKIAfjv7F+EXgULV8Ifn4zcaSK3smOXE6Th13mjQRUihvNkkbFSX/bdgj3QfNiDcwaKMEzung0TNy46b978O5Zs2cXqLTRSkDxf4jp2X4hD/l7/+2q+UkNAl0owQ8lO677z6l+KHQNQkPMmTIIOXLl1fGCR0lE2jEGyVs9yaKIxJCUo5QNUrAQeadVxrYZLvC6vvFy1fkqOEQkzdnZskQEy3HT5+X90f8bJPv9qr2QKL3qw2laf075dKVq3LkxDmbTH1LsmdJb5OlM0ncxSvKwWfa76uNtW8bJY6ePCfn4q6oNsiwubNnlozp0xlGjesyd+FGGTJ+AZ1lQpkgMEoMHDhQpZakk0x4UapUKcmaNauqL1GvXj2jNXCIHwshhKQYWv+jUYKQ1CfojRKvt6grrZ+oqRSfv/7bLuOmLJFdB04YS+0KYrtn7lUD/oO/m2+0Bg4wSrzy1L0yb+nmBJ5zTz1cVTo9d7+kjYqU0bGLZcL//lXt2igRd+lKIqUWHm7PNKgmLRtVtymEmVRkyEdjf5Wlq3cZa5BQI9CNEmvWrJFXXnlFGSeQx5eED9WqVVPC3sKFC5WRItDQRgkcZ40aNYzWxOgu0teGC2ddb3L2Y92mp9vyxzGZMW8/udt0dqwksJkzZ47K4R6KRgnImx91fkJKF8kjh46dkQlz/pUpv90ewAfPNKwqD9YsK9/OWBaQRomubeop+XHYhD/jo4shWw7q3lTuqlRMNu86LG16jVftQBslHDn+VK9YRJ63yeeIBsbz/suijfL+yJ+NpSTkCAKjxKuvvqocZLZv3y7nzp0zWkmog+iIfPnyKX2kffv2RmvgoMdC8ufPL0888YTR6hwt//hKNtM4kqt8Jat5ux1nsp6vzt28fV8fIwls8NyhP6BRgpDUJ6iNEg/WLCO92jWUTBnS2ZS//2TUjwuNJaHBkJ5PyX01SiVQ9lwZJTR3lC4gfV5/VIoXzCWLVu2Qbp9OM5aQUCPQjRKxsbHKM+nEiROyd2/gDcAQ/4FICRgjvvrqK7nzzjuN1sBBGyUojBKScuBZg9wXikaJT7o2kYdqlZMd+47Lu8NnJ3CQCXYeuqec9LbJ25evXksge7oySmg6P/+gtHy0uly6fE0GfD1P5i2hg0JIEgRGCUTuwklm7dq1cv36daOVhDrZs2eXEiVKqP9f1xQJJPRYSCA/O4SEGtQDCQkcgrrQ9RMP3qHqR6zZcjDkDBLg9LmLxpxnrN9+SIXKI2S+Uqn8UrtqCWMJISnLjh071OelS5fUJwkfoPiDXbsYqUUICW0a3Fte7r6jmEpxFPvrypAySICz5y8pg4Q3jJu6RLbvPS6ZM8bI/TVKGa2EpCyHDh1ScsnVq1dpkAgztA6idRJCCCGEBA5Ba5SoUDK/lCqSW+W9/fPfrUar+yCc/NuPn5fFP3STFbFvy3+T35a/v+8iw3s9rSINzNxVqajMHd1BTYjOGPbO07JwfFf1u6UT35JxH7SK/w0+/zfyddX+YtNaqs1Mkfw5ZNqwdk6Xm8mfO6vcvHVLrlzzXHhe8M82OXbqvGRMH62uEyGpCUNbww/+54SQcOHOcoUkU8ZoFSUxY/5ao9U9kB6pW9t68uuYjvLvTz2VbPnPjz1k9oj20rZJYjmxT/tH1Tr4bPX4XTJ7ZHv1O8ixv43tJK8+U0eth+1O/PQF+XdyT+nVroFqswL51dVyTb5cWVSNiOs3bsoFD+tCoI7Eqk375ObNm1K0QE6jlZDUgbJJ+MH/nBBCCAlcgtYoUaxgDsmWKb0qav3POs/Swrz6zL3yabcnpVKpAnLuwmVZtHKnrN920Ca0iNxbtaRa5ii6ICpNpLzR6n6pVr6w7Nh7XNZtPSjXr99UdSF6vPSwUgARpbB++0FJlzZKqpQtZPzyNrWqFJM8OTPL4ePnZP7ybUZrYmAIwTnC6w778ZR9h0+pfeA4UDSbEEIIIYT4nmIFcsqtm7dk445DRot7oA7Fl31ayrON7pJMGaJl656jsnDFDjl0/KwyBHR89j75oONjxtoJKVE4l3RoeZ/ctO333/V75OCxM5Ija0Zp2+RueeHJWsoYgDRLOC7Iu5BRzdxXvZQULZBDzpy7KH/b9ukK1IdIH5NOdu0/IZt2HjZa3Wfb3mNy5ep1yZElg5KZCSGEEEIIISRojRKIOEibNo1cu35DDcC7C4wNTzeoKlFRkTJl3ipp1H6UdP10qrzUZ4K89H8TZPXmA5I7R2Z58cl7jF/cBsoeDBddP5tmX982fT7xL2U4gAHhsfsqqvVWb94vFy9flTLF8ijjgpnad5aQmHRpZe3WA06PG0aLl5rdI7myZ5JNOw7Lr4s3GUs8BzWb0kQGdZYuQgghhJCAJVf2jCqy9fJVzyJbX37qHhX5u+fQSek8YKo8/8730s0mYzZ9c6yM+PFvJUs+eHcZVSDbSrnieWX2n+vlyTfGSKePY+W5nt/Kio17JTpdlHKwAf9u2Ctn4y5JoXzZpP7dZVWb5t5qJSRblvSyY98JWbraeZo91IO4v0ZpJesiCjdZ2GTSqDRpjC+EEEIIIYSQcCbsRquRzzZblgyyedcRGTHpb6PVDnIAT/t9tZy/eFlKFs6lCvuZQY2GOX+vl5Ub9xktIlPnrZYDR89IdNooKZjHHpHw88KNsv/waVXvAt5lGqR2Klk4t9r+v+sdR3dgnUHdm6rfIQ3AkO8XGEsIIYQQQkgoAHmvcplCqlbDNJssaZYtwfhZ/8iaLQckQ0w6uadK4uhdRC18Mekv45s9TdKytbtVRAKMJHDegbFh084jtm1EJ4hQQNQEoieuX78h/23YY7QmBpEYmNKlTSNTfl0ls/9cZywhhBBCCCGEkOQRtEYJeI8hZD0yIiJRSLorCufLoULZ1287pBQ4KwtX7pBTZy5ITHRaKV4wYe7by1euy/4jZ4xvtzkXd1nSpIlURfwAtrthxyHVVr3CbaPEvdVKKkVx574TDqMfGtWtqFJHlSueT5av2S1dBkxNVrHEmHRRKpIEKa4IIYQQQojvuXrthvqETOouhfNnl6yZYuTE6ThZapP5HLFtzzElxxXIk9Vouc3Rk+cTybHY1o0bN1W0RN6cmVUbInOvXb+uUorCUAEQNYHoCWepRCFXD+jaRKWCQvTH0PEL5MvJi4ylnoPUVBGREep4N3qR/okQQgghhBASegStUeLQsbP2/LRZM6qUSO6SVIg9FCYsV2mP0iS8PPBmO3v+kvHNNcjPizy9RQtkj69PAQMFim0tXbNTfTcDT7R3XmmgFLfvZi6XNz+ZIsdsCqe3IG1UvtxZ5NLlayqXLyGEEEII8T2Q19JGpZFSRXIbLUnjThpSyKMgMjKxseO0TcZ0BxgdYHzInSOT3F3ZnlIU9c3SR6dT6Z6s+0YEx+j3Wkq9WmVVjYu3PpumooKTA1JNIXXpvsOnHToEEUIIIYQQQsKPoDVKLF2zy6ZknZVMGaOlTjV77lx3OHX2ovJkQxSBKxCFgWgMb0HIPPL0Zs2UXmpWKhpfUNCRV1qHZ++T1k/cJRds+xvw1TwZ9dNCY4n3IAdxrmyZ1DXCtSIk2Fm4cKEy6m3ZskXKlCljtPqHl156SU6cOCHHjh2Tli1bGq2pwy+//CLXr1+XGTNmGC2EEEICifXbD6oUn+VK5E1US8wZcK6BQQLGDB3B4AwdieENMDogWgJGiKrlC6t9oY7FmfOJC1yj8HbvVx9REbt//btN2vf7yXZunhXvtgIjR42KRVW0Bq4TIcHOgAED5OrVq3L+/Hnp0KGD0eo/AkUODCTZmBBCCCGhQfCmb7p0VRat2qnC1FGA76mHExcBdMShY2ckMjJSKpYqYLQk5JE6FVSB6QuXrqiaDskBeXpv3LwplcsUlFp3FpdsmdPLlt1HEnilIYriyXqV5WzcZflw9C8yd9FGY4n34Fo8WqeiUnZ/X7aFXmkk6Hn00UeVIeLgwYNSqFAhadCggbGEEEIISV3gbIIogNzZM8uLTWu5lVYUTiMoHp0zW8b4CAYriDBAYei9h04aLd6BOmaoZ1a+RD55uHY5yZMjs22bpxMVuEbhbdRU+23JZuk5eGay5Udch9db1pX8ubMqR53Jv64ylhASvNSuXVsZJNLYns377rvPaCWEEEIIIZ4StEYJMH72P7J6836V8uiNVvdLjxcfSqQIwkNrYPem8tYL9dX35ev2yPkLl6ViqXzS8+WHVZsmT87M0qReZbW9DTsOJ1LWPAVKKnL+FiuYU2pVLi5xl67IopUJUzchygOFt3Eeyd0fPNz6dXpcurWtJxlt1+GPZVtUKihCgp3HHntMsmTJIn/9ZS/q+cgjj6jP5AAjx++//64MHc8//7zRauebb76RXLlySZ48eeSnn34yWv1Hz549Ze/evcobzgoMMlFRUdK0aVOjhRBCSCABZ5Mpv61WRoa7KhWTsX2fk3uqFDeW3qb1EzVl9PvPqmiK/zbslS27j6oIhuaPVJfqFW/XIAMtH62u6kBAZrVGNHgK6pjtOXBSGSPq1SyjUpRaU4kieuKOMgXlzPlL8vvSzUar9zStX0XG92+jrsfxU+dldOwiOsmQoOeZZ56RihUryrp165T8WKtWLTUll0CRAwNJNiaEEEJI6BPURgkoN4O+na8G9DOmj5YWNgVu3thOMn14O/lx4Esyb1wn+frD1vLAXWVU0T8wb8lmmfq7PTfuMw2qydzRHWRUnxbyjW292MEvqxBzREiMmPi3Wic5QEndtPOwSjFVKG82hwWui+TLrtJJVSlbUB2zo+nbj59PlKIKaaFghMHyyYNfkj++ftM2/6I0uq+iih756ZeV8v7In421CQleMmfOrLzSTp06JZMnT5bDhw9LpUqVkq0EIuKifPnyavupDZTAIkWKSNq0aY0WQgghwcQ0m2z57cxlKiIBEQ7Dez2j5FDIaZBLF//QTbo8/6CS+67fsKdjgqwJmbN4wZwy/J2n1brDbJ8zPn9VurWtL+nSppEpv61SsmtyWb1lv6pNgboXjlKJFsmfXbJkjFFOLZ2eu18di6Op96sNjV/cBjUq9PJZX7ymzhVpoIoWyCnb9hyVPiPmJNvxhpBAoF69epI+fXpZtGiRrFy5UvLmzSsPPvigsdR7AkUODCTZmBBCCCGhT1AbJcCuAyfk1b6TZPiEP+MLOiNfbumiuSVThhjZf+S0ihYY9sOfahkY9eNC+fTr32Xn/uOSLXMGqXlHMeUdhsLZsxaslS4Dpqrt+gJERsBzDgqoowLXSCUF8ubMoo7Z0VSyUC7JkilGraeBkaVE4Vz25YVzS+YM0XI27pJSXDt+NFmGfD/fWJOQ4Oapp56SkiVLqloS//vf/5QSWKBAAXnyySeNNQghgczEiRPlzjvvlK1btxotvuXkyZMqeurDDz80WghJHcbP+kc695+iZDHUbICMCTmtcL4cqi7E8rW7VarO1ZsPqPUha3YeMEWl7sRyGAzghJI3Z2aV7vPjsb/Kl5MXqXWTy1//bpcTpy9IRGSEwwLXMFjAScYsXzqaCuXNbvziNmYZtkCebKpA9/Z9x5Rs3urt72Tlxn3GmoQELxior1u3rnKSQeTu4sWL5YZNv0MkAyEk8IEcCnkUcqm/8LfMSwghoUbELVSOTUUwwPjaa6+JxOQWKfCA0UoIcYdbpzZKxJlN0q5dO/tzFGD0799fpk+fLvv27ZPjx72r0TJp0iRlmBg6dKi888470qlTJ1VkcNWqVU5z+cLT65NPPpFGjRpJ9uzZJSIiQq5cuSJr1qyRN954Q7777jupUKGCsfZtEK7epk0bNT9+/Hj1ie933323vPfee3L06FFV3G/58oRp0VDo8NNPP1WDo3r5W2+9JS+++KKUKlVKoqOjVZFuRHl8/vnnal3Qr18/efvttyVdusT5x7/++mt55ZVX5KuvvpKXX345/rsZ/Bb/e+HChVVoP5RjFCBEWP3777+vch5r9L7g3YfzR6oAeMMhJ/KZM2dkypQp0r179wS/SQ7w+MudO7f07t1bmjVrZrQGDmPGjJFx48YF7LMTKuCZaNWqldx7773Sp08fo9X3QAkcOHCgiqYqW7as0UoCDTxrkPvw/FWvXt1oDRz08Sl5FHIpIcQ9LttkvEN/qecaz3egcejQIWncuLGSBTds2GC0eoaW9VavXq3kT0Q3/Pzzz8pYAXnPUeolABmuc+fOan0tD54+fVpGjhyplnsiB3bt2lX+/vtvqVKliowdO1Zef/11Y+3bLFy4UPW5ejkii7t16yb169ePl4kvX76sjCrol7VMu3HjRo9k4wULFqh5gH1gW3Xq1FHXA/u4ePGiSnPVt29f+e2334w17WBfkF3ffPNNFWnyxBNPSLZs2ZQci2WQYWfNmmWsnTxwzRFhDYem2bNnG62Bgx4LCdRnJ5SA88qSJUuUzJgzZ06j1beklNxLkkco6IEYV9i+fbts27ZNvTsJ8TUYy4FeXbp0aYdyiq+gUYKQICbUjRKOFD7dliNHDmnfvr0aTDcDj7Uvv/xSihYtKmfPnlUd9YkTJ9R3DNxDQYNhA9spUaKEatu5c6dcvXpVDehjEB37MyteBw4cUPuEsQOD+zB4mIERoHnz5urzueeeU3l4oWxCEdq1a5faPvaFF/q1a9fUNmBYwbFA0UR+XihnuEYQMACu2wcffODQKIHj+/HHH5V3OISQHTt2KI8cdBowgiD8f/78+coYoI0M2iiBiBPsCwrp+vXr1TyOCwrk6NGj1bXxBTRKEJCUsUArb3rAAgMtzta9dOmSGpDZs2dPIoVSLytYsCCVwAAGzxqNEoSEIGFglICMB3lmyJAhyklGt6HOBOROR/ITnEDQx0HGQs0IyGqQXyFPzp07Vxk4PJUDBw0apIwckOHuv//+BM4kGNzH+lDvtdz8xx9/qLRT6G8hA0L+q1atmjqOFStWqGXYBvbniWysjRIvvfSSkosh82EfcAAC8BZHPw1ZvFevXkrG1MDwADkRMjoMIfh+7tw5JQPguHbv3q3kaasTkDfQKEEAnr0WLVpIjx491DPpCBgt4ISmmTBhgtN1YdyAEc7ROljWsWNHOsoEMMGqB+K9/MUXX6h3JozbhKQUGC9CndfWrVsbLb4j6NM3EUJCF0RIQHGD0qI90DC/adMm5VEFRcoMFCYMvkPRgbIEJaRmzZoqYgKFCSEYoh1KJbyzEIIP5QzGEyhCDz/8sPz333/G1m6DfaIdig08zczoIodQ6ObNm6faYCiAogcFGNEIjz/+uFK6oPDFxMTIQw89pNaDElujRo3438GjDMeBCYqoM959911p0KCBityAoopzwznhE9+h0EJRxXpWcE2QdgDXomHDhuq4IDRDYcZxQSElxBdgcOKHH35Qz7EjpQwKIp4nGPEwgIIJgxnOFDhERzlT2JHjG9uZNm0aQ+YJIYT4FC3rQW5EpIIG/RIMHah9BhnUDAwXcFiJi4tTkQpIRQp5FNuBbPvqq696JQfC6QT9K7aH/tUMto9i1DC8aLkZjjkjRoxQxgakn4KsC+MGjA2Q+fQ2PJWNAX6PyFsYHyDjYh9YHxPm0Ybr0qVLl0TyZaZMmZQjAQYFcQ0g02OwAwYkXB+maSW+JDY2VvLly6ccuqzAsQWObogKQoSPlkmdGSSwPuRbZ8Doh+cc+yTEVyB7BAxriHJTBok0tsb0timbyK1stnuWk0eTZLdfN/3pbD6p5eYpucv1lNztOFuu591ZrqZMtskIkEBUzrBhw5ScAAdBX0KjBCEkYEHoK7y1/v33X6PFDjxQoARCuTIrgW3btlVGAERmYEAeEQ6+Ys6cOSrNUbly5RIYQxB2jkKH8FzAgCiA0IB1rOHq8IaCopc/f36jxXNwvjBIAHjowUPHDL7DEwxpmaAUWtm/f7989tlnCTzrECKPc0NYPz16iK/49ddf5ciRI2pQxgoGVODp6cpjzUxSCiCgEkgIIcQfmGU9c5qmP//8UzmIODIQIGoBziyQ1ZC601dg/3B8gTwIOViD70g3iugGGC40SCuKQQSz3DdjxgwlI8NRBsYDb8E5IxIZUcHwMDfvA/OI6sB+4CxkNTLcvHlTHYdZjtXnhojfYsWKGa2EJA84q0BHg/OKo7RNuE8BUgXDySUpXDnJADrKEF8CQzGiwRGlp8DQRxHbVNQ2YUghh0hEjghOHk4YdDd/OptParl5Su5yPSV3O86W63l3lqspj20qZJuK26a8tilKZOnSpUqu8KW+TaMEISQgQRomeE5ZvdKAVgKhCEHo0yBUPGPGjLJ27VqfhHybQZFtWIURYq+NAgCe3jAAwMvNrIzpVE+o4QCBFOHr8DpzR9h1xV133aWOAR4SiHhwBDza4OmD9cwKK8BgsPXaoA2Dvjg2RKAQklxwP+HedxYlgRQSwJHHmiOgAAJ3lEAMjMBwSQghhPgCyKRwklm2bJnRYgfyFqIbzA4jAI4pkFHh8GGuveArtHMOnHd0BAL6WxhHkCZKO8lomjZtqqJikS4KzgKQEWHITy7YHwwb6KMRxWwF8iYMFlgH65rB8SNNkxWd7hURH4T4Ahi6nEVJQAfC8wT50R0dTTvJzJw5U0WcO0M7ysDQgd8Q4i2oZQSdSkVGYGAY2UWjsISQFCLCNmW0TQVtU2aR69evKydXvFt9AY0ShJCABOmHkFcWA+vw/NehtJgQOQEPKoR+m4tdIx8v8LaotitgcNDh9QjTB1BSkQ4JoeYQTjUIAYZhBLntYUTImjWrUspgTEGkRHJAqHuWLFlUbYoLFy4YrQnBMlwnpGSCt5kZ5p9MPlAu8B/j+mKCkoNoE/0d9Q4AFB0s0+16Qs5aM1hfL4NihOX6O36P7cCwBaObbtf7AOb94LiQAsnRuo62q7FuX0/m/XgCBigwGOEoSgJgkAaDKe4UGsRx4tihMMLo6AoogcgNC4WRSiAhhJDkAlkPA/8wSrz11lsJ5FFMSNWJ/hLynjYQYAAUMir6IXNf6ytgdIDxATKhTgkKowj6SMiaSDsKYCxB1C7WR+0LGAbgJIPIXe0ckBx0NANSVDkDERG4PnDgMYNBDV0/g3iPWYbEBHnULBNqWci6HibIfWZPfl/Ik+b9eCPTAvNv9GTdj7vgN5AJIUM6kjn1c4BIeHdASjKQVF0s7SgDZxrtWEOIp+DdrSLfMGqLAWHXahAh/gXdOIxihg9rfPROMqFRghASkCD1EBQYhMrDC806QYjE4Du8UDABrdxAEfQHMEogBy88vxGWjygJGE4QxqajD6CQIncujgGCKAr/QTmtWrWqKk4NJSw5wMMNyh+MDUkN0OL6mKM3SPKBcgOPQ7PHPhR+R7mPkccZ/5cVePJD4XIEiuaZi+xh2yj2iByiMHRpUDzarEhqcFy416zrwpvLut1Ro0YZ3+zHav6NBvmdrcpiUkABhgLoLEoCy5G3FykjrEqyowgHHCcMGJiSgkogIYQQX4LCjpDl4PDiSB7FhCLNiJDVKZywLqIR3JHVvAFGB/SX2DaccyB7wiiCvtxczBmpTJF6aseOHcq4AqcW9MuIovWFQUCnSU1K7oZhIrlOOSQxkCWtRUchj1rTxwI4R1mB3Af50pfypBlvZFotI1rBb5Hu01PDBFKJAhg1HIEoeBjXkN7WbChxJKfjGFHsHal03ImqoKMMSQ64J3VqMYE9jdERJFDIYZui7bIIosGSC40ShJCAAwJr8eLFlXIFwU8X/TNPbdq0UUIrcvxC4QIYAMZAPIRK7a3mS+DdDa8hGCIQyYH9IvwcBac0yOdboEABpZDGxsYmMAqgqDRC2JMDjB9IaYX6D84GaRHJAUUVwoyz4oTEO6DcaGUP6bngJYmBBygdVqD4434xe1TiNwCDCY4UK2wH24PRDfc5gDEMtRfwe517Gcqcs5BJ3I/mfWFdKFh4njDpcHPzMeBeMh+n+ZwQMuyJMpVUlAS2DSVQK9J6nzg3KLBmwwTmMXXo0MFoSRqcC86dSiAhhJDkgEgDyFQYVMdgpFUW1RPSaUK+03IZohhgqHAlqyUXeM8iPRQ8ttHfImoCAwTmmhdIgwrDyMKFCxMMVENG1tHFyQE13FDDwpncDaehUqVKqX7fUXon4j0YINdpuiDXQb7TspQjEL2t5S1MWs70tTxpxhuZFoP9o0ePTnCsWs/CPawjG9wBxwRZ0FmUBICxBgYY7BPp2bA/7APX1myYgDyJwTfon44cbhyBc4EeC5mYjjLEU7766is1rqGKDd8uoUlIYGC8UuFgmNw6rjRKEEICDkQgoLYBPLtQy8EROo8vlEB4fwGkUMJLEQoQ6jdAmXQGjAXo6BGO70nhaQxKwxCBcH141mzfvl0JvJobN24o5TVDhgwqQkKDY4RnEPZnBd5j+A2U16TAcUP5jYyMVEK21UOqSZMm8vjjj6tjnDt3rtFKfAEUEpXT0wYUMT1Qrr3znQHFUXtfaY8xGNCg0FnBdrA9FIXUEUDYl/bwwgCDVuwcAQVQ54k2F2TXChkmVwMkUCxxnLh/dTQIDAhQKt1F59GFUc4VONZmzZoZ30TNo00bE3DdOnbsqBRpd9I8abSirq8lIYQQ4g26ToOj+mZm0Hei30IfDXkPxoE//vjDqaxmxRM5UDNp0iTZvHmzMkag/0TfbTZIAMikwCyPAkRQwPnHiqeyMeRMOAg5krsx36lTJxVBgkFes6xMkg8G8TGYD8xyEuRFbSxwhE6NhHRF+veOoiiSK0+C5Mi0eJ6QQgrHCocVDWRSd8Ex4hhw77mKsMAxmKMfYHSA4QSyJGRKoD3WzXKrO0AWxrnra0mIu2CMQZHV/kFIQAE/2wz2WZ0y0ltolCCEBBTwtIKQC0XKWlDQyu+//67qKuA3UALhiYKiO1CqIDRCyMYgMgwbECrRuWvBGkYNRBJAAH377bdVFAQEfLPg7Qh4+MDwgdQzCFfHd3M0BPaF/UCxhNcNDAiogfHTTz+p1E+O8u7CewyDvpUrV1YKAgoRjhgxwliamF69eqmcwVAYv/76a6WUzpkzRzZu3KiEXyif+BwwYIDxC5Ia6AF+s+LnSxwpkZ5gNozoNEpmxc9b8ExBCTQrc45A+giz0QDzaIPCiQEgeKRhQMhTL1MqgIQQQnwB6jRgcN2VkwyAUwwG53UkLXAkqyHfP2TVo0ePytixY9V6wFM5UAMZF6lO77jjDocFrrF/DO42atRIDRrA0xyyA1KQQma04qls7EzuhnyOeUQ+Q2aGQ4ZZViYpi3mA35xOyVc4c7TxBC3TwngAo4XZOSY5aAOITuPkCMiMMJyYgcEE4Lwgz+PZcjdtk4ZOMsRbYByOH+hNZ/8gJOCItn/QKEEICSmgAMKrCmHv//zzj9HqGBgEkBMXuX6R8xfAENCyZUv1Wwi0GGTFMgzUQyE0h5dBMIeyhULUDzzwgFo/KaUJL10oeRDssW9zgWuA37/xxhtKKUPIPJTTihUrqu/jxo1TYcFWkIsVIZr4LRRSDGIj0sEZWvkbNmyYEt5Lly6tzhHGGRhE3nnnHXnhhReMtUlqAAVQewXCAwtegvjvnYXVpyY6vB3Agw0KGI5Vh+t7g6toCTxniDJyZlTBMihyUEbxjOJZ0xO8TTGokitXLqf5fqkAEkIISS6QqVCnAf0hjASugGyI4tGQ+1ATDTiS1RBli3RLcKhBtK/GUzlQAxkUsigiMswFrjVwToHRAEYQRDPg2LDuRx99pNKMOsJT2diR3I2IZxhLpk6dqpZZIzhIyoLUQXqAH7Id7mnIeq4iKlILc5pUyMw4VnP6J09JKloCTmbOIoKRIhgOaPgtjIV4LrU8CjkUxwm5FNHQjpxwIAPTSYZ4QwKDRIR9lpCAI639g0YJQkhIAc8wCIAQIqdMmWK0OgYvQCh5UHwQIq6BkHjPPfeougoQHKGAQbmCMmh+aSKKAQonwtSxDmo+wEsMnmEwjGDCvJXXX39d7RODp/ASs4I2FB7EoCj2j+NASiUobigyCCOFFXjfwMMO6+N3b731lmp/5ZVXVBs+zUBB7Natm6pfgePHOlCGK1WqJIMHDzbWug2UzOjoaHnooYeMltvo88Wx6cFpkhj8L0iTAHCPaa8rKDnWAXIoNzrEXBd8hqECxqlAA4qpLsgNxQ3PHs4JnmHegmuFbeG+s24HyxARgXazgqivD64xvDKhiFonKKjacIJ0BVaoABJCCPEFzmRMZ2DwHbIYjA4aZ7IaBkKtkRCeyoEA8iZkURwjZFNH9O3bV0VrQM7FhPWHDBmi5EHIheinzXgjGzuSu3EuqHXhSE6GHOxM5tTn60heJbfB/6jBdYQMBWDg0oP6Gi2PYmBf1/vCQL91vUBAO6yY0zyZU1V5g96Oo4LciIiADIzrYQb7xH2I+x36m1Ue1UYdyKWoH2etM0EnGZIcdu7caZ9hlAQJZIxICUSTJofAMUpcvyC3Tm3kxImTB5NcOmY8QISQlADKnPbWgncUFBbtLWVGRwMA7e2PNl+EovsaHL/ON+3qnDwFhgFzjQgz8B7F9TEriNOnT1eDF84KZCcFFUDiK26d2+Owz+XEiZOTyfbMEEJSDi1jAciWkDEhv1mNTEDLo2Zvf1+k6/QHMNgByKCQRXGsSdVkSQodLQEZ0RrRoOtHwLlIO8pgnYEDB8Y76ngDnWSIT2CUBAkDAsgocVEizmzixImTB5Ncdhx6TQjxD1BeJk+enCCMHEohUomZwaD4xx9/nCA0Ht5UgZi+CQrX8OHDE5zT4sWLk5W+CeAaQKGDsozUAWawDDUjkIMbCicmGC/mz5+fyNvMXagAEl8REbfHYZ/LiRMnJ5PtmSGEpBxajtKGCQA5DvKbNS0TanOZ5U8sx8C7db1AoFWrVgnkT5wf0qeZZVRvQLSErrlnBfuEvKqNIDDcjBw5UrV7A51kCCHEfSJuIf4sFUH+TXQ2CCtFehNCiPvg+cFgX7t27RIIpYFC//79lffzvn37nOauJaEJCsah1kfv3r2VV3yggYFy1Pjw1bODQtHakwsKoafFmUMVREggJQWA8uwv5QwKYIsWLZQSyWsfuOBZQ7+F58+c4iRQ0McHeRRyKSHEPVDXYM6cOeq5DsSIwEOHDqkUnqjTsGHDBqOVhANIUYXUpkihNXv2bKM1cNBjIb56drQ8hKgIDO47SnUZrkBWRwQEnIu8dYBxB0RdwOnGn3IvSR6+1gN9Dd5VyjiX2fYlt72NkIDjmm3aL8nuXwPGKBGoQiwhgUygd6g0SoQvoWqUQGg3Ug517949XtFAbQQdBg+vMyg93oZ7hyL6+sBLz1uvM1eklOGDJB88a8FglAjU4yMkUAl0fY5GifAllI0SkHkaNWoUP8AOGRVylk6/SSeZhOjrg3RW/pIXtczLax/YeKsHphQ0SpCgwEdGCRa6JoQQQjwACofO3YtJGyQQWo40SDRIJARKGfwf/GGQAFAqUYQQEw0ShBBCCAkH4uLi4mtEYDLXA4MjCAfFEwL5/Ndff/WrvKhlXl57QghxDxolCCGEkGQCb5Y1a9b4NRycEEIIIYQQZyBi98SJE35zBCGEkFCkfYv2smzSMhnVZ5TRQlIKvxolMEBDCAlNzpw5Y8wRElj4897UXlbwgjJPzNlLSODC/oqQ0GXPHhbZJoGJv+9NyJ5WeRQyKiN2CQlc/P1ewKD6itgVsnTiUnmx6YtGq2u6tukqy39crgblMTjvb7QBAMdpnhb/sFjGfzJeGt3XyFgzdWn8YGOZ//V8+f2r36XBvQ2M1pSjbZO2MnvEbPnnx3/U9cEnvrd6PLHRGdds4fcLE13T/yb/p9onDZyktpchfQbjF4GDX40SeOAeeOAB+euvv4wWQkio0LdvX/nggw842EMCDt6bhBArTz75pHz//ffGN0JIqIC+Hs839U0SaPDeJIRYwfvghRde8LtxIl3adFL7ztrGN+cUyV9E6lSrI1FpooyWlOPCpQuyfe92Ne07vE+1VShZQd599V15vcXr6nu40u7pdvJa89ckV/ZccvDYQXWNjp48Kvlz55eOz3aUDs92MNZMyJWrV2TX/l3x1/X4qeOSJk0aKVO0jHR6rpNMGDBB7r/rfmPtwMCvRgl0wjBKPPjgg2pih0xI6DBs2DCZMWOGFC9enAPAJKDgvUkIMZMtWzb1XujcubN6L9A4QUjocOeddyqdk/omCTR4bxJCrMAgASCPvvjii34xTty4cUOuXrsqJYuUlEfqPGK0OqZ+rfpqoBvrpzQYZH+2x7Nqata5mTTr0kz+/PdPSRuVVhrWaagMFKnJ7D9nS/2X68vDrzws85bMM1pTBvwfy9ctl9f6vqauDa5R406NZe7CucqA1KB2A4fX52zcWRn47cD469ro9UbycLuH5YuJX8iJMyeUEertl96W2lWTNlilFH6vKQGP1SZNmqhOmB0yIaEFnmWECuM55wAwCSR4bxJCzBQrVkxmzpyplD8ohDROEBI64JmG0ZH6Jgk0eG8SQqx89913UqVKFfXpD+PEzVs3lXd95gyZpW71ukarY3Q0xZETR9RnanLs5DEZP2u8MlbkzJZTKpWuZCwJP76f9b10+7SbrN++3mixM/nXyXLk5BHJkSWHFCtYzGh1zcVLF9X2eg7qKbsO7JLcOXLL0w2eNpamPilS6Fo/dIAdMiGhA7xP9XOMAV8OAJNAgfcmIcQKoneHDh2q5mmcICS0QDTU/ffbUxJQ3ySBBO9NQogVPP9Zs2ZV8742TiDSAEaGS1cuSeUyleWO0ncYSxKCKApEUxw+flil+QkEMAiP40Y0QI6sOYxWotm0c5NcvnLZ+OYZuLaItEAURqVSlQImWiLi/fffv2XM+5UjR46oh+3KlStGi53SpUtLlixZpHr16jJmzBijlRDiDnhmxo0bp56jsmXLGq0pD4raz5o1y/hmJyYmRoUtX7t2Tc6ePSsXLlwwlpBwAEJWxowZpXLlylKkSBGjNeVxdm9WrVpVrl69Ku3atZPXXnvNWEII8Sd41lauXCn33HNPqhbiRMTE2rVrjW92YMisUKGCklPRt0IuJYS4B55rPN94rvF8pxaXL1+W0aNHK7nTTMmSJdUzfv36dTl27JjRSsKBqKgoyZMnj6RPn17q169vtKY8zu5NjoUQkvIEyhgKxkgdPffQUyMjI0Uy277ktre5Cwpd17yjpko9VLZYWWV0mDhnokrfY2XI20OkTtU6MmP+DCmcr7BULV9VedSPnjzaWEOUQQOFlbHNzBkzS0REhBrUXrNljXz505dqoLtEoRIyoOsAKVaomBr07juyr/FrkQdrPii92vVSNS5GTBohU+dNVYWuUXR5/5H90rxbc2NNOyjEPL7/eJVSasyUMSpyAtxT5R55tfmrUrpIaYmJjlEZES5evqiO46upXyWKKADYx1MPPyV5c+ZVdRVu3rwpp86eknlL58no2NEqgkCjj2n15tXS4UN7vYa7Kt0lH3T6QM2/P+J9+W/Df2o+dkis5MuZT6VJqlGxhtStUVdFpWD7Ow/slDGxY+Tv//5W62pwXu2bt5eG9zaMN7acPndafl74s/qfHF17R+hjikkXI/3H9Zc/lv2h2lHo+p2X35G4S3EJjtUK0jcN7zVc8uTIk+D6esU127Tfdm4ZMki9evXsbV4QYZtSxCjhjMyZM0uZMmXYERPiBbpDPXTokBw+fNhoDRwwGJ07t4c9KQkp9u3bJ8ePB4bnhZn8+fNLgQIFaJQgJAXRRolt27bJ+fPnjdbAAfIo5FL0rTRKEOI+2iiB5xrPd6ARHR0tlSqFbxoIIsrgvGHDBuNb4MCxEEJSnkAfQ4GBH2lHk2OUmLVglhw/fVwNtKPwcbu+7RIMwsNLvm8Hu/Gg76i+0vrx1g4HxrE9DISjVsGeg3uUQaJc8XKSJVMW5bXfvl97td2Wj7aUjs91lEuXL8kn4z5RtSHAiHdHqOP5bclv0ueLPqrNlVFCb+f8hfPxg+uvPvOqOr70MenVOW3dvVWyZsoqJQqXkEwZMqm0Tx+N/UiWrl6qtgEDQP/O/VVqqhs3b6j97D20V4oWKKqML4jCwHa7D+oef008NkrkyqeKc8Mgs3P/TlW0G8WkcV0OHTsk7w5/N95QguMZ1H2Q2t6169fUsZw8c1IdP84D80ip5I5RQh+n9T911ygB9H8KY1T/sf2NVi8wjBJw9Fy/PrFRyF1SNFIC4fHwEjBTqlQp5VHLjpgQz9EdaiBGSkABRKQEvNJy3LgmmW5eN5Z4yK1kvqIiYHtNJZJ77EHMqTTpJM7W4QdipATuTXigIIqHRglCUg5tlAjESAnIohUrVmSkBCFeEEiREnh+rWkaS5QoIdmzZ5c0t25KwWvepT0gwcmNiEg5mDYmICIlHN2bHAshJOUJlDEUZ5ESGEOBZ39yjRIY5B769lA14I1IiSm/TTHWEhW90PShpmogv8uALup3jowS/bv0l9NnT8vIn0bGD4Dr6IfodNEy6NtB8r+//qfaVeRFtTqyeNViVQ9BGxiQGqr7wO6qngFwZJRA0eYm9ZqoSIIMMRlkzt9zpN+X/eKNJzA+zFwwUz77+jO1PoBBAMdxZ7k7VcREu/fbqfY3Wr2hojsQifDFhC9k7qK5qh00qttI3mj9hmTPkj1BBImnRgnsG1EXw8YPi98+jrVP+z6Jtq2P59SZU/LpN5/GR1HAWNHrlV7qnGE8Scoocf9d96si1dmyZJPvZn4nY6eMNZZ4bpTQ98iHoz80Wr3AV5EStxD34mfQ+SJvIgaHNMiriBzf8A6AEMuOmBDP0R1qag6s4rnGAK8GgnWXLl3UNGrUKJk+fbqUvnpR8l2nEhhObE+XQY5ExUjv3r2lWbNmRmvK4urenDx5cqo/O4SEG9oogb4rtQb9kdu7a9euxjeRokWLKnkU9SUC4fgICUa0USK19TnUjfn779spE7S+CU/0xo0bS7RN6a95OWH6HBLaXIlMI//GZFXRsbNnzzZaUx5n9ybHQghJeQJhDAVjpKgjYTZUtm3bVr0X1q1bJ/369Uu2UQIDztr4sHbL2vhBe6TwsRornBklnDHh0wlSsnDJBOtjEL9vx77KqPDl5C+l2UPNpGDegjJy0kj56Zef1DpAGwBQ+8IKIjGQAmrI+CHKCKKPf/229fJG/zfiDSMa1MXo+XJPlf8H6YyWrlkq4/qOU2mrJv8yWYaOt9eSM6O3uW3PNmn9dmvV5qlRAkWmZ/wxQ0WFmBnSc4jcV+M+lSKq97Deqg3XqlSRUg7TaOl0Soi8cHXtUZgaESOIrPhl8S8JUmSB1DRKJLd/TZFC11D0tEECHfCff/6pCrugcybJY+vWrcqSOnHiRKOFpCaXLl2S9u3bqwnzoY42OAIM+L7//vuqOBM6U+TuJSS14L2ZNOg30H+gH/EH4fY+JIEPZE9tkIAx4ttvv40veE2Sz4cffiiPPPKInDx50mghqYm/3/GBBhwO9KAv9U0SSPDedA36DPQd6EP8Rbi9D0ngg+dfGyRgjNi9e7eqwavSNvmQv1f8LWfOnVGD9BjAB/Vr1Vc1G/Yf3q9qGiQFIiM+6fqJTPpskswbN0+WTFiiUjhZwUA4BroRQdHu6XZSvGBxFTVhNkiYQcqj7Xu3q2nL7i3qtzA8fDTmo3jjA9It3bp5SxklrAYJsHDlQhWBgDoT2F/FkhUle9bsci7unKzcuNJYKyEbd2xUxaJzZMmhDDHegIwLB48dNL7dBtEZIFtm+3gDDBuoIYFj37xrs2ozgxRQKDTuih4v9pCubbqqOhIwXFgNEp6C7SCNFNJGBQJ+N0pgAAipM3zdAevOC4VWgm3AQw/U4NiTq7zFxsZKvnz51HZI6oPQ4Oeff15Z31etWmW0hi54lhFsxQFfEmj4695csmSJendjCmZjMPqdH374QZ566im/hS2H2/uQBDZ4DzRt2tQvxgi8C/R7Ae+IYMJX7zQM9EybNk0986mZmovcBroBdAToCqEOBnKGDx/OAV8ScPjr3gzmsRArv/76q0pj07x5wtzyviSc3ock8IH8iTSi/jRGaJCeCbUfUIi5bvW6KmXQQ7UeUu+ORasWORzo12Bd1IT47K3P1G8K5S0kcRfj1OA66ks4YsKcCbJj3w6VwujEmRPy01zHBglw9ORRebbHs2pCxAK89q2GhFzZc8nNWzfl8lXHWTdw/FiO80HKK0R/ZEqfSa7fuC6Xrjh+L2KZqqwcIaq+hDfcuHFDTpw+YXxzTs5sOVXkCI7/7HnPIjXz5Mwjn/f6XJ5p+IwcO3VM+ozoI6N+GmUs9Q4YSfLlzqdqf2zbGxg1wPxqlEDOXnS8FA79gzMF0Gz00JMvhJVA2K5Z8cfkS48Ks3CHKSlvCn0s1gGIe++9V4XbYcAvudcmkIHXz5NPPkljBAk4eG8mTVIKIN+HJJSAJxreC0OHDvWpMYLcBgM9jpxkzEYPPfnCcOOv7WrwvsN7T28b5+XMiUjLsa7W8RRP5F39vrbKztAN+vTpo3QFV+/vYAfR+NA5qW+SQIP3ZtLg/ZWUkwzfhySUgAEC+NsYYWbJ6iVqgL5ymcryTINnpHD+wqoYM9IkueLlZi9LjUo1VO2HN/u/Kfe1vU+adW4mr7z3ijI4OKLxA42leKHian+5suVSdSKSA+o2REZEKu9+V9y8eVMuXr6ovP/xCWND+uj0xlLHwDiBaA1/AqMJUlLhHCIjHQ+/ozi2FRiEUEuj1p21ZO3WtfLWZ2/F16JIDg/e/aD6XxCdgVRXgYBfjRJ4wNgB+49YJwrgvn375NFHH1VewphOnDihlHCkLEjOoFBqbxcCyaJFi+TixYtqvS1btijBwheGCQgnKH4GA48+DgiSzoQjLUA5AwN9y5cvD2nvYAz2csCXBCLBem/iXebLQS1nJKUA8n1IQhEMDNEY4R/wznAWJbFp0yYl1+l3yYQJE6ROnTrJNiD4a7sA2yhXrpyMHDkyfvsw5DqLAMG7zZe54NEX4J1qPj8MpjkDx/bbb78Z3xJSrVo1qVWrVkh7B6Ovx/NNfZMEGsF6b+KdDqMsdG9/k5STDN+HJNTA+yCljBEapGhCZAOiDh665yE1wL9i4wqVOsgV5UuUV4P7qLOwbO0yo9VeByFvzrzGt9vcUfoOee6x51QUwQ+zf5BT507JAzUfkMYPNjbW8BwYTzCYX7FURaMlIUhJhfOCcQERGuu3r1epmzDQX6VcFWOthFQpW0ViYmLk6ImjKorEn8B4gygJHA+KeVtBcew8OfIY324Dg1C1CtVU5EjnAZ3ji4Qnh6cefkoerfOoSt30+7LfXUbJpCR+NUqgMyP+wZUCiIGjJk1uWyS1ZwAGhWAA8JbU3m7FihWVlyNSggD8rkePHkp5TM4gHn7buXNnta1WrVoZra5xJfAAHBsG/CBEJcdgE8jQGEEClWC7N/GOgEfXe++9Z7T4F1cKIN+HJBRhf+VfMMDjLJUoikia5dRmzZqpopILFiwwWrzDX9uFfN2xY0dZvHixivRKCrzTXBllPQWDgJBr8Wk+P2ckZRTWafRC2Ts4JQd2CPGEYLw3tVEWqWX8jX5/OXOS4fuQhCKp8V7A4POf//6pjHowNJw5f0bVmkgKRB8ApCAygwHzgnkKGt9u81rz11RqIBgwxk4Zq/aJVEotG7VUhgxvWL5uuZy/cF4ZJVRBaxNIb4RIjEwZMsmGHRtUqiqc64pNK1RkAoo/N6rbyFjbzv133S91q9VVNSEQQeJvYPRAPQwU9X78/selesXqxhL78T//xPPx9SfM3F35bmU8wDVMrvGgRKES0q9TP+nWtptkTJ9R/lj2h3w30x6xEwj4vaYE8Q8rVqxwqgA6IleuXJI3b2JrZnJJye3CyKUNEhq81DG4Bu8Jb0HEBXD3WkLgmTNnjvJ8qVLFsfUVaO/g6dOnGy2EEJK6YAANEWfOFEC+DwkhnoB3AAaNHDnJOAJyXMGCiRXZ5OKr7UK+hictPGrdQUeA+SJSQr+f3b2WAEZhnSbPGdo7GI49NAwTQgIFyJzOnGT4PiTEt8xfPj++oDIGyjGAnxSIprhy9YrcW/VemT58uqovMXvEbKlbo67s3L/TWMtOh2c7KM/+I8ePyKQ5k1Qb6kns2L9DShUuJS886V208rwl82Tq71PVPFJPzR09V0b1GSXffPiNxA6OlRoVa6gIiRETR6h1wIhJI9SxI01Rn9f7yNShU2XYO8MkdkisDOg6QBlZECmQUgPzM+fPlMMnDkvRAkVlaM+h6thxDigcXrZ42UTXEsW3UYQbhozmDZvLjwN/dDgN7D7Q+MVtsmbKqgpjY/nkwZPlj6//UPMw0CCCBUXH3x/5vrF2YBBSRgl0LPA2dZRvEBZ2cy5Ca55B83IU5saADOahaGHSy7CedVtYbgX7Nq9jPpbkor0APOmkMWiP48BgvxkcF84V2zTjrN1KSm/XHfR9YP2PnbXDqw4CjLvXctSoUVKhQgXlReIKs3dwUudLCAlO3OkPXPU/WD9DhgzxA1qIOMB7T78ndQi9+feYsE1vwAAajAPOwuT5PiTEN5hlRzzD2isT9z+eb/PzbH5vmJfjXTF27Nj4+VOnTqlPfMc627ZtS7Atq3wDrO8Q87H4AgwCARyHO+D4Dh48KCVKlDBa7OjjtL7bnLVb8cV2sQ0MgtWtWzeRE4wj8F9BroU8njFjRqM1IZ7Iw4gORo7pGjVqGC2uwTmMHz/e6ftco72D0c8wjR4hoYl+p+l3Pd4xVlz1P3j/oQ9BGjxN69at1Tr6PYltmn+LydH7zR2wP1dREnwfEuJbkKoJA/UoVO1uhAAG7b+f9b2q61A4X2HlvY/n/utpX8vpc6eNtewpiB6/73E1P+fvOSqFEsA+Zy+YLVeuXUlWGqdRP46ST7/+VA3eI6qg5h015Y4ydyiDyawFs6TLgC4J0hshsqD7oO7y49wfVXFpRGnUqVZHiuYvKvsP75cvJn0hfUf2Ndb2P/9t+E/eHfau/Lv+X4mKipLKZStL9QrVVaHsQd8MkrNxCQtgq+LbRhHuYgWLSemipR1OMHJYiU4XLSUKl1DLSxYuqQqcY/sw7nT8qKMM+X6IsWbgEFJGCXhg6oEdWMiRAkh3sOhUzWC9pk2bOuxEUSDVWSoKbMe6LXTQeju6s7em4cB3R8qiN3iqAKKTRig6rod1oAltGIBCmg59DjgfCCgQQFwNTKXGdq1gAA3eDkWK3A4Hg7AB7weg61Jgwjwwp4BCu1ZicVxmIcs8SKBBG6YOHToYLa6BYAQPEP2fEUJCB0f9gTmnuTf9jxUYaB2F0GOb5sE0d8DxuFIA+T4kxDfg2dYDQoggmjx5snrm8LzA6GiVMfHecPQ8412BlESOwDawTfO2sL45GgnbtKbhwDzaHD3TnoLz9NRJZtCgQeoT6ZbM4FxwnQYOHBh/LSAPtmjRwq10cr7YLmqWoaYZonDNg28Y6MNvrMAoC1kXkzM8kYe1Qw4m88ChI/0B3yHPtmnTxuH73Aq8g3Ev4f+ybosQEtzg3V+1atUE73qMPeh+CHja/1jRMqIVbM/8fnOXpJxk+D4kxDs6fNhBajSvIR+OTmyY/GTcJ/LACw/IlN+mGC23we/uee4eGT15tNFiB2mYGr7aUO5qcZeanuj4hEycMzHB+oi6aPR6I6ndqrZa3ww88+s+X1fqvVhPZv85W7XhN/ht826ujYhmYHxo2b2l2gfOD8eC4/pozEdy7OQxY63bwDCBAfhHXntEarasqX5z97N3S/O3msuE/00w1rqNPiaclwbGhEbtG6kJ8xocN4p+OyoUjuuOfZm3A2CoQZs+fhwLzuevFX+piA5dqBvo/WI9V5P5+uFYcEzWdbCfBu0aSO/hveONRYFGyBgloCxA4QDoZLp3767mtaECSiFCBJFHDZ1cw4YNVSfqaHAEy7AO1rUqGnoZFBetKGI7OuUFFBR8N28Dy7B/HEdyLfLuKoAQPHTnjfzg8+fPd6o0mRUmdPSOFCVNIGxXg20hJySMDVaPNrNh4qWXXlITMBskgFZA9aAh/i9Mjgom6kEGd4wlGghGUHrxn3kqrBFCAhvzex75xzVayXGn/8F7ztyf6G1iGd4zWK7fS5jM68Kj1xNlKikFkO9DQnyDlgUBiiXj3tfPDIDjjPn5As6eCyzHeqNHj04k6+hl5vePfi+Y5WK9Hiad1kK/p5KDlqFdOclgH5ABtYwHo6ejcwG4TtqA0LNnT5cGCX9sF+9eGE7xvqtXr178NYMhF78xGybwPsTkjlHWXXkY71/cN2+++aZajn3jmNCunWw02vhkNcI4A9cF20AfQO9gQkIP9AP6nQFZEujaCe70P5AB8Q419ye678C7C+8QLNe/xaTXNY+FuAPeZdinMycZwPchISQcaFi7oUonhULdew7sMVrDi5AxSkyaNEl5B2DwRw9So7OCcga0ZxgUF7OXwK5diauYuxrw18uwfcxr0EGiw9eDNtg+9oP9mb3UsF5ywL6x36QGdcwDWejIIUxAaXT2G60w4fgcKUqaQNiuVkQxcKaVfUfgP4IRImvWrGqyGiTMYJDPLMhgHm1aacf07rvvquPE5C44fmwjKSMSIST4MD/X2usK4H2HNCve9D/OQN+C35tTPWE/UCLdRefRjY2NNVocw/chId6zceNGNRAEMPijnxEM2OhnHx6seJ4xaSOgo/pYGFhyNuBvXmZ9/+C9gNoIWvbEPvT+dCSvp+8PR+j9u4p+gtxlHsgCOA7Ieo7QBoR58+Y5NUgAf20XmP83AMMD6rjpdycG+dyN6NW4Kw8D83bxie9mxyb0BzCwaH3HXXD8ntTLIIQEB3j/6+ca7ww9RoE+AP2KN/2PM7Qejt/DgKvBu81d8N7CMbpTcJrvQ0JIsNPu6XbyxbtfyB2l7zBa7OB7i0dbqELd2/Zsk4UrFxpLwouQMEqgY9LeYNZUPkmBMER0rmb8WRHfk0EoZ7ijBJpBB66VNGe/gfcEOnWcOxQ1Z0YGM6mxXfweaU8g+EB4cjUghv8VAsrZs2fVhHnrf62x5g/GPNq00g4PDMy7m6ZEo4/f2aACISR8cdT/WMG70Kr4eYu7SiDfh4R4DwaHtDEA3vbuogePzEB2giHSH3gyCOUMyGt4pyTlKGMGsiC8b539Bu8mRCU0aNBAyfZaHkwKX27X+r/hPCFv4p0NgzOcXODh60oGteKuPAxjE4zYZvAd7Xjv4nfYFgwrzpxyHIHzx7sf/5f5/U4IIY76Hyt490B+MzvHJAd3HGX4PiRhj93nggQ5adKkUQW5x34wVhUMR+FpFN3+8r0vpVSRUrL/yH6ZNNdeHDwcCQmjBBRA3TniU4fwmUHnhc5We1TpyVmod3LBMWHwxro/WPeTizdKIAQIKEKOjCJaUYKChusBJctdA0JKbhcCRP369VX7jBkz1HVwhjZIgG+++UZNwGqYcHX8AMsuX76srrU5+gUThCIIcRgshJBmPS98x+/wX7k6VkJI8IP3PRQkgPeGuV/xtv/R7xBg3oZOv+INrpRAvg8JST4zZ85UzyuAHGR9FoA5nZJ58mSQ2xN0Wg/ztGbNGo8GcZyhjYzOnFMcgXeJI6OINhxggOmzzz5LVAsiKZK7XbzTEBGh3+VWChYsKJs3b1a6htnbGBM8jvV7Ef+7GXflYWfHr8FyXGfsxxz9ggnHg+PCe9zR9cI7n17BhIQHWo5DBgm8k8x42//odw/Q29Apqr0B8i9kQmeOMnwfknCmZMmS9pmr9g8S3KDI9O9Lf5fzF85LobyFVBHqYgWKqRoSP//9s7Tv117V5Qg6rtg/SpUqZZ/xkpBJ3wSPJR26DkUDnRs6O3h3AnRYyPFrZty4cQ6VRW/RnlTAahzBQPjYsWOT9Ip1F60EWs/JGXrADDl3zZgVJT1QBMOJuwaElNyuFiBcpWECZoOEXhcT5oHZMKHvERyr+ZiwHKlXoIBigtBjFd60IAZlH8utA21oA/q/IoSEFhhk1+8Ns7KGd0aOHDm86n/MChg+8R3owXz8Bu8rb8E7D9uCwmbdDt+HhCQfDABpBxTzs6+9O4GWUzWYnzVrlvHNN9SoUSN+sMhqHMEznpz3iBk863inWM/JFZDvMPhvHizDb7XhAHIi0CmX3DVMJHe7OBfIqbouh0a/dyGTYrn1/YcJg3TaeGx2QPJEHsY9guNH6i0zeL+iL8B54TeO9g9jtXaI0uepwTWgVzAhoQvGHXQ6I/28A/0+9Lb/MTup6HlsR8ty5jSB3qAdZaCjm9+5gO9DEs6UKVPGPnNV5NZNhksEO7sO7JL3RrynCk7rotv4xPf3R77vsFB3UGAYzUqXLm2f8ZKQMUrAEo7OBaBzRLFkCProNHUnbPVq0h22L0EBUa0Emq32OD5fFlLSSqAj7wJ07OY2dPLI/w2PAmsBKChGjgaQHLWn5na1QuiOAIHl8ESzeiE7a8c+sC/zoCEMSq4KwiYFjpdewYSENhhwhFKEd7zOy4v+Rqc1crf/wfsIg/0A/RcUMfw2MjJSKWRA9yfYnzZ+eAuUQChreEdZlUC+DwlJPvoZA3j29YC0WU7Fc67fB5iPi4tTy3wFBt7hsAPM7ypMvkgHZwbvK7yrYi0RWJDttEOIBrIc3meQB83vAxwvojesA0iO2v21XYD3N4wbZsci/T7UA3Ge4Ik8jHm0mwcN8f6EYcNVQdikwP9Cr2BCQhu813V/og0F+n2Iyd3+B32FHsvQsiv6MO0o6Ej29RbIvzgus1FFw/chCWfSpk0bP9AbcS1CfRIScBhGCW/fx5qQMUoAeB3ptBboMDGwDWMAhH5H6S78MUCCP2TZsmXxyqgZ7M88GJ5cnCmBNWvWTCBs4BpgwMs6GO8pgbBdLXBZJwgo3oJ9QLlFrmC9PQygzZ8/3+sHDPcc8EaBJXZe/2aCDN20K9H06aqN0uXHaVKuzn3Gmt6ht9/iwwFGS2JK332P9P1zqZow74xH3+gqg9Zulbf/l7zBYhJcQIkyv+thgDB7w+LT3f6ne/fuifoNRFsMHz48XjkEiERwtD1PwDvPmRLI9yEhyQfPEaIyzU4qGDTHALijdBdmz1NfggEdvDOs4F3jywEZvMvwTrE6yqDGG77rdwkmFIjGNYDM7i3+2i7AueA9jvee3jbeh0mlDfUVOP6RI0fGy8UY/MO1xX/pDbhO9ApOHlrGs8qjg9dvl/+b97fUf6W9saZ31GjcVAb8tz5JWRPyalJyK4AsiuPFcZPwAO90yHRm8O43vw/d7X8g6+EdZAW/N8uf2Ofq1asTbc9TXDnK8H1Iwpn4aImz9g9CAorLtumifTb+XvWSiFuIcUtFVq5cqTqi6tWrJ+pMSdJAcYIHAcLQk2uhIr4BXhwQ3CDwWD3wfA2eGaSBadeunXqOAo3+/fsrb8PSVy9Kvut4c7kPjAZlatWWM0cOy8Wz9t44bXS0ZM9fQKJsn+dPHJcp/d6T9X94ZwjQ218+LVYm93nHaE0IlMNWAwar+YnvvCXb/1mm5q1A8YNSenzfHvn0CbtnfLizPV0GORIVI717904USRUIBPqz42+g+FnT3PmDlHwfksAHzxrkPjx/kPsCjUA/vkBGP+sYRPJ2wIj4HjjtwKjiz/c8CHR97tChQ9K4cWOJvnlDal72bIRHy3jXrlyRUwcPqLaIyEjJmjevpM+cRW5evy6LJnwvswb2V8s8BUaJp/v0k8tx513KmjBG1HqquUu5FcAokbtIMZn/1Wj55YuEEUXhyJXINPJvTFYpUKCAzJ4922gNHDgWYo90g+Oh1ZDia1LqfUgCn2DQA/fv36+i1K9duyaS29aQ2d5OSEBw0DZdsRus9ZiCt4RUpEQ4oqMl0LlavQtI6pCcMH+SmC1LFsnApo3U1L9RfRnxwnNyeNtWyZwrtzzQ9iVjLUKIJ0AZg6EAQrk5TYmv4fuQkPBAR0s4qldDUgf8D/g/6BXsG84cPRwvj37W5BHpV7+OrPp5tjJQVG/8pJSv+4CxJiHEE3S0BIwGMHD7A74PSbBRuHBhFUmvwGNx3T5LSKpzyjZdsUdIJNcgAWiUCHKgBCI1RnJTKBHfAQ9B/CcpEeYfjuxdu1qWTflRrl66KNny5ZcilSobSwghngBvNARL+jOCge9DQsIHvEvwTvGnpytxH/2O5//hH65cuCC/jfpcRU/EZMwk+cswYp0Qb8AYBsYy/Ckv8n1IghHUT6lfv77ITdsXeKZfUM2EpA43bNNx23RGfZNu3brZZ5IJjRKEkKDj0vnzcuvmLUkTFSXRGTMarYQQQgghhKQMx/fsluvXrkpkmjQSnSGD0UoIIYT4hrffflvq1q1rHxA+apswKMyoCZKSoOADDGIwjJ0XiYqKkp49e0qNGjWwNNnQKEEICTpyFy0mUenSyfmTJxLk3oWB4sm3/0/6LfxHhmzcqaZP/l0n7b78WvKVLG2sRQghhBBCSPJA7bH0mTLLlYsXVGpRM+Xq3CddfpwmA1dvTlAY+4EXXjbWIIQQQlyTI0cOlao93iv9vG3aZ5v22qbDtumUyK1Ttzhx8vkkx2z3F0pp7bZNMIhdF6ldu7b89NNPqt6Jr6BRghASVFSq97DUbPaM3Lp5Uzb+Od9otRsk2gz6XOq2bitpo2Nkz5rVsn35Url547pUuP9BeX7QMMldrLixNiGEEEIIId6RLW8+ebh9J8mSO4/s37Be1vw211gicrdNTm01YLAUrlRZzhw9Ipv+/lOO790t2fMXkMc6d5dHOnY21iSEEEKS5rnnnpPJkyerovDZs2e3R06gpOwZkYgzEZw4+XySONv9dRV3n0jp0qWlS5cu8vnnn0uxYsXsjT4i4haS66UiK1euVIWNqlevrgpuEkLcB8/MuHHjpF27duo5CjT69++viuiWvnpR8l2/bLS6x+vfTJAytWrLmSOH5eLZs6otQ7ZskiVXbrlx7ZosnzZZpn/8gWoHj77RVeq/0l72rV8nse/3liM7t6t2REg8P2i45C1ZSv767iuZM+Qz1a63v3xarEzu845qswIPOCiVYOI7byWIyjCj93183x759ImGRmt4sz1dBjkSFSO9e/eWZs2aGa2BQ6A/O4SEInjWIPfh+YPcF2gE+vEREqgEuj536NAhady4sUTfvCE1L9tlSnfRMt61K1dU/QiQNjpaGRjSpEsnu1b8K1P7vRcvd8IB5sVhoyRHwULy+9iRMn/caNUOHuvSXR5o+7KcOnRQvurYTqV/qtG4qTzdp59cjjvvUtZs8eEAqfVUc5dyK3j7f79J7iLFZP5Xo+WXL4YareHLlcg08m9MVilQoIDMnj3baA0cOBZCSMoTCnrg4cOHZfv27bJt2za5cQMWCkJ8S+7cuaVs2bLKIJHOJu/4CxolCAliAr1D9YVRwsqJfXtl2kfvy5bFC40WO29NnS05ChVWy1bNSah0NOnRW+5r86KKnBjdrq1qo1HCv9AoQQixgmeNRglCQo9wMEqkSZvWaLFz5eJF+fObsarYtZl6L7+mIiEgM457PWGqJhgsXh39jWTKnkOmfNhHyas0SvgXGiUIIVaoBxISODB9EyEkoIHy1bVCCfnmzdfl4JZNkrNwEXnirXcS1IiA8SBzzlySIUtWef6zYSp3r3l64MVXVBHCCNtECCGEEEKIJyASAvIonE/W/PqzRKVNK/e3fUlqt2hlrGEHhoe0MTEqdahVHu09d77kKlJUIiIjJTKSMikhhBBCwhsaJQghQcH6P36TCT26ytGdOyRfqdLK0KDJmjefxGTKLNcuX5YjO7bLoa1bHE4n96EilOdg29hHUsSdOGHMEUIIIYSQUAPGie+7vaFqSMRkzCT3tnwuQc0ypG0CSD/qSBbFdGTHNrl49oxaz1P09l1x/dq1+FRThBBCCCGBCo0ShJCgAYrgiv/NUDUl7qj/sFRt9IRqP3/iuFy5eEGuXbksv40cLgObNnI4xfZ9V63vLvs2rJMrFy6oKAsUMnSGyiucNq1cth0DIYQQQggJbRZNHK9qQ+QrVUbua/2C0Spy9shh9Xlg80aHsiimYc8+pYpfewJkXci/GbJkMVoSU7Z2HRU1fOPaVSW/EkIIIYQEMjRKEEKCisWTfpADmzZKhqzZpNbTLVQblMKrly5JdMZMUqhiJdXmC6DQndi/T4Xhl723rtGaEKSRKla1ulIUD23ZbLQSQgghhJBQZe/a1bL+j3mC8oxwlEEqUXDh9Gm5eeOG5ClWIkEERXKBY86VSxdVGtN7nmlptCakXJ37JWP2HHLu+HHZvPhvo5UQQgghJDChUYIQElTAUPDfrGly6fw5KX5nNanfrr0c37Nbdq9aIZGRkVL9iSelUr2HjbXt4Hv7cd/HK4yesHXJIrlqUwJLVK0uT7/3oURnzGgsEcmWN5807tlLchYqrAwjq+fOMZYQQgghhJBQZmnsJDm2a6dkyZNX7m/zkmrbtPBPFdWA2hENO7yZQG7EfMuPPpWmvfoYLe6z8c/5cnTHDkmfOYs80PZlKVfnPmOJnXtbtpIajZ9U81sWL2SkBCGEEEICHholUoGTJ0/KI488Ih9++KHR4nuWLFkiERER6pOQUGPZlJ9k14r/JCo6Wqo/1kR5oi34eqwc3r5NGQraDv5cesyYK+2+/Fp6zfldXhg6QvKWKi03rl83tnCbcvfWVetap+Z9P1bLF074TtbO+1Uio6KkdovnpO+fy+Tt//2mihX2+mW+lK/7gFyOOy9/ffe18mIjhIQPEydOlDvvvFO2bt1qtPiWS5cuSfv27dWEeUJ8De9hQrwHTjErf54l169ckRI17lIRDNv/WSb/zZouN20yZ7XHGit58fWvf5A3JsRKn3kLpeaTT0na6BhjC7dBBHCzd/smkke7/DhNFc2GkeH3MSPlzNEjkqdESSXjvv/nUrVOv0X/qt8iSmKHbf+/jhxmbJUQEg5wfIkQEqwErVFCv3jxYkxK0dEKEdb154vaXX799Vc5cuSING/e3GjxPdWqVZPXXntNfvjhByqBJCT5e/w3cu7YUclbspTK5QuDwLj2L8mK/82Uq1cuS/4yZZUSl61AATm4dbP8PHSg7Fr5n/Hr22TLl18KlC2XaMpZpKixhsikXt1l7vDBqmhgVLp0KmVTrqLFbArnDdm2bIn80KOLLJ080VibkJQl0Pq4cAFyCPrYp556SsqWLWu0+pb06dPL888/L2PGjJFVq1YZrSTQwMA+nj93lHWt1PvTEOAuvIcJST7zx42W3WtWqQiGe555VkVD/DxskEz76H05sn2bZMqRU8rcc68Uq1JVbly/Jv9MnyLzvvzC+PVtkCo0X6nSieRR1KyAwQJsXvSXfNelo2xe+JdcvXhRsubJq9bJmC27nD58SB3Lt106MEqCpBqQQ9HH0RCdsnB8iRASrIRFpMS+fftk+fLlah7KIJSw1MIdBdCs3GJyNcikjTPWjh9KYNeuXdV5UwkkwciXL7WWrhVKyOQ+7xgtCYEnWt8Ha8tbd5RWih+A99jEt7vJu7WqSreKJdXv365WUYY2f1JWzJ6h1tHo7TubsNzM/K9Gy0cN7pced5ZTy7H9XjUry5cvP6/C5AlJLQKpjwsnklIAdf+s+/KkBqF1328d1L733nulX79+VAJDhAULFqjPtWvXyooVK9R8asF7mJCk+eWLodK9Sln59ImGRktitEw5pHmTeIPA8mmx8tmTjyo5Fcvw+f79tWTye72UvKqBfPrOXXfEy5/WCcvMMixqWYxt/5L0urtKvKyLbUNG/XnYQBokSKqBPkO//yGXQj4l/gfXneNLhJBgJSyMEkWKFJFatWqpeShGOXPmVPOpQVIKIDoIdConTpxQhdMw9enjPO8otvfbb78Z3xKCTgmdE5VAQggJXQKpjwsXklIAMXBbv3595SGu+/I1a9Y4VRb19pwBmYFKYGhQr1499VmlShWpUaOGmk8NeA8TQgjxJZA/IYcCyKWQT4n/4fgSISSYCQujBKy6o0ePTvIF7G+SUgBhwYZ3AT7dGVRKSgEEVAIJISS0CZQ+LpxwpQCib+7cubP06NFDWrVqZbS6xpUCCKgEhg4YsElqgD8l4D1MCCHE10AORR8HuRTyKfEvHF8ihAQ7LHSdgmzZssWpAggFbdGiRcojzV0vVyiAOiTeGVoJhIUcnQwhqcGtCGOGhA23hH86CU10f+1MAURfDxD67g7om+fMmSMzZ85U3vPO0Erg9OnTjRZCvIP3MAlbIiibhBs3jU9CQhGOLxFCgp2QMUogzBy5bh3lycPLUufENefGs+bWw+QoX65125g8Ld6EdV1ZsZFzcffu3W6H8uOYxo8f77ADsoJ10FmhkyEkJSlVqpT6jItIoz5J+HAhMkp9lihRQn2GCvA20v0A+hBzP6L7D3Ofg8ncH2ms62DCdy3co89AP4N2a79kPgatEFj7OGsbvLKd9ZEaa584a9asRNtNCvM2cJzYj/6uz8/ap+I3VqzrWK+Bo+uHyXpero7Huk13gWcYBlad9b+oGeBJGq1Ro0ZJhQoVpFy5ckaLY7QSCFlC3yckMHF1n1nvSeDu/exoPf1ceQLvYRJuFChQQDJkyCBXIiLlKp0mwgqtg2idJFQw9weO5DwtWzmSw6yY19GT7p+Aud8yy2zmY8DnwYMH42VX8748lcXM28WEbY4dOzb+u/nYnOHP64PvZsznpyfreSV1PNZtugPHlwghoUBIGCXGjBkjVatWVUUDNe+9916SL/ddu3YZc7fBNlq0aBHfiaDTg5Jl3rY3JKUAIsef7pSsnbB1IAjfhw4dKm3atHHYAVmhEkhSi9KlS6tPPUBNwoNbtinOpviDMmXKqM9QpHXr1mrSoJ948803VR52cxoT9EdmBQrzuXLlSpTqBN/RjuUIeYdnE7AWxNWFcuGR7I7i4KyPNB8T+kvzuYAnn3zSZTqWpKhTp47ajwbbeu6551Qfaz6WgQMHJhq0tfa7mEebPmb0mVCGrLjq+63Hg22iL3XH2KJJSgHEcijlMMZZlVTz9dagDVOHDh2MFtdQCQx8HN1nZrnSEe7cz/i99d3iDbyHSbii7/cLaSiThhNaBwlledSRnAfZqmHDhonkMBiRNXqg3LyOBn2Z7n+wDrYF4Hmv5SZ46es+CTJrjhw51LwrkpLFHPV1OL/XXnvN+OY5vr4++G4eo3FnTMmMO3K5O3B8iRASCoRMpMTixYtV/kK8fHWnOW3aNJdKoM55qCd0rBjkQQehB4DMgz9YjvUuXrwo1apVU+3ugJe8KwUQ7NmzR3WEGNCCEqjPBe1du3ZN0HHosPdmzZqpT3fQyiKVQJKS6Ps9LpKREuGEUgBtQm+xYsWUZ2Kogr4G72lzvzNv3jz1rsc7HP2SRvclENy1kmfuV8zbwHKsh0F43aaVQEwYMASeFBHUfeSECROMltvHhH4S/SXQ52Rd1xugQKK/1H0rwPVBnnrz9s19Lo4FiiLAcqyHSYeRoy/FNcC7BV5merl5HSh1jhQkfTzmaw1lDp5k7pKUAojto9/WBh59bDgXKOJmhVPfC5BF3PVIx3nj+lEJDFz0fab/d4B7PDY2Vs07wp37Gc+IHsDQzzMmvG88gfcwCVf0oDQdZcKLuMjQd5IBul/QfQf6CwxAW+VUs4yEAXg9+O9I5tID5Xi/I3oOmOUm9BUAMp673vhJyWLoK3Vfp4/JvK63JOf6YBnWwe+1TAvDAvpT4M6YkhVXcrk7cHyJEBIqhIRRAp2bNhKg0zR7l+LFmxRQqNApmT0ztcVbpx5BO5ZjXXiwvvrqq24Xb9Ier0kZSYBZscMnvps7PXSUGLBBR+JJ8SjdWcBKTkhKgQFpDEzDc/5AWhY7CxcORUWrz1BXAHWOVrOyBiVED/aZjQoaKCpaAcTAnFYkzH0XlmM983ahQECJg9IG5Q3UrVvXrX7A3Eeavd1g3IBCYh7sNPdB5nW9AeeD44PhBAYUgO3pfggKrDZWaMzHgkFR7dWlvdT0ddCgT9Xh73odeGE76vv18ZivtbtyggbXEecCpdkVuOZmxQ7zaNNGFUzvvvuu+n/1f+wOUJSxDX3vkcBD32fA0fPmClf3M/pSDYwD2tOxXbt2Ht0LvIdJuKL72yNp0rHOQJhwLjJKTtv+b+Bs4DYUMMt59erVU59Av2cxWd/TeBdrI7P1fQ85VstneqBcb1fLTegD4DADPHGS0X0kjgnzQG/T2TGZ1/WG5F4fyOWIZLaOF2mjjMbVmJIZ8/F4KidocA1x/BxfIoQEOyETKeEpeOFDoTMrfo7QSpgG6+I36HQ8wR0lEB0SOjEzelALnR46R+zXPJDlDlQASWqivSh2p00vcfROC3mO2ZS/o1HREhkZqQbLiB1PFA0zWnnShgo9aG8e3A8FHCltjtADtFCgrIpfSuCuEmg1GGEebdqoAo80zLub8kZDBTA0ced+xoCJ9vAEGFCA4d9RGgZX8B4m4Urjxo1VypRLkWlkd7qMRisJZXYZ/zOcHAoWLKjmwx1njhtJocckAAwVZicZ9Cnm/iKY8eT6QHZ1d0zJH3B8iRASCoSkUUIPbsDCD6u2I2AZhkIHoOTpcDbd2WrQwY4ePVotNyuD6HS09dwdklIC4QHnqhPEcihyGJgye4/qDlArpwjNs0IFkKQmGFR9+umn1fyudKGbyoeIXIuIjFcA33rrLSlevLiaJ95jVgKhPOj+DQOUoa4EmFPU6AkpbuCNB0UIoJ+HsQbLzCHw/sSVEqijw5wZWbDs8uXL6vjNnneY9IA0vODRX0PhM0MFMPiATAfZDmBAzNGgDQY03L2f4d1oXQb5T6ddcBfewyRc6datm/pEROcJw4OehCZwhjofmUZF7Xbp0sVoJd6Cd7aOJoCjDYwS2knGOugdasBBFcZ4LYvqCX2yu2NK/oDjS4SQUCAkjBJ4YerwM7yQ8WIG+fLlc2qUwOAOgAKoU22Y02poUPBHv+TR8WCQRKO34S5aCXRUWBOdOY7XmncQx4TOBOfRqlWrRJ0hJnSAurPEOmaoAJJAAEogBhLPRkbJmpgsKpyahBZQ7lfb/ttrNkH2/vvvV8XdSGLMRga8m/WgnX5XA7OCZ1YCx48fH9+/mcPPkwuUEg2OQfdP5lzDKYU5pRM8t8yDmnAEwIS+Tve/OpcujlmnEfA3Wgl05JyAZfAmR7v52PXxYWAaE5Q5a1+O/h7nDjkDy619NhXA4MD8DMXG3s6NrdOBWnH3fsaggL7fIOvp+wU4MyA4g/cwCVfKly8vb7zxhprfHJ1J9jO1aMhxXSJka7qM8Wlj4SRDEmOWL81jKcDcd5nlTT2PCIlBgwapeV86yWijOLCO7+h6YymF9fqYjf/oD8eOHas+3R1T8hccXyKEBDshEykBryyzlxYw58+zojs8rIvf4LfYhpW4uLj45eZ10PG4W9BJo5VAa8cPcJw4XnS42giCFz4GZVwVMEoKKoAkEEiXLp383//9n5QsWVLOR0bJ2pgsShHEADYJbq5ERMr2dBmUco/52rVry9tvv20sJVb0ux6YvYzxqRUYa9+llUAUifaHVxoUGp2mEP0TlEIcEwYsUxr0dbpwr/n6mPtfs9KKY8QytOHYUwp9zcwD0BqkfcTxwaijgTILJd5ZceGkoAIYPDh6hnCvmPN1m/HkftayLiazvOuNkZL3MAlX2rZtK88++6ya32OTRddFZ2bx6xAAdULgILMqfVY5FhUtUVFppGfPnlK9enX7CiQRSL+nHWXM/YvuuzAwrQfmAfodrI++BzIp8KWTjB4r0ehjMvd3KYm5toY5kgB9tB7LcXdMyV9wfIkQEuyETKFrq/IGLy1zJ2oFy8zh7+hg8bLWHbMrsL9ly5Z59SJ3pQTimEaOHBnfoWEwBp2MHsDyFCqAJJDAvT958mR57rnn1HcogsvTZ5f/0meTTdGZZG9UDKcgmRASv8GmxC+3/Xf/2qYjtjaA8PjPP/9c8uTJo74Tx+Bd7yi0G9/Rbu27tBKowXJfvtOh0MDDCn2TRns7u9Mn+hr0eeaoRA2OD+8RHO/HH3+c4NjQn6dU+ibgSgnU1xPpDbQCi754/vz5VADDgJkzZya4N3Hf4n7AfeGI5NzP+I2jd4Y78B4m4Qy853GPFypUSM6mSSurYrLIkgzZZU10FtmRLqND2YdTYE6IilgVk9X2/+VI4CAzeXKs10bUcAGyJN7N5hTVGshh1jEIrG/ub9AHQUb1Jdi+VQbE8aWkjKdBf4cxH7N8rEH/ib4Sx2s+NlwTd8eUfAXHlwghwUzELcRnpSIrV65UL1F4MTjyCgtFEBIPC3pShpPkglB/dBr4ZKcRmuCZGTdunCoo7EhgClRw73/77bdKaENuahK8ZMuWTSpUqCCdOnVSeXuDhWB9dlISPJ9IwwXvLyiE3iowoQoUv65du6p5V4POyQUKIELnoQBaQ+iDDTxrkPvw/AWi92qgH5+v4T1MfEWw6nNXr16VwYMHqyggGOFIcFO6dGl57LHHlFd7sBCOYyHeAO9+RHDAaQZObt4ayEMVji95BvVAQgIHGiVSAa0EIgehv17oejCpR48eVABDmFDoUHfv3i3btm3zuEYLST0iIyOVAQLKX4ECBYzW4ILCaEIwINmoUaN4JU8PIuqUUv5WcoIVrQTCS85ffS0UcewnFBwM8KzRKBFY8B4mviAU9LmzZ88q/Wn79u0qfS8JDnLnzq1kF8ikSBcbbNAokRA8g3Pnzo03mAP0HdrQhGvlTyN6sMLxJc+gHkhI4JDqRokzZ87IQw89pIrwzJkzx2glhLgDvNPh3fXFF1/IPffcY7QSQpKCwmhCtAeaI/RgpTlywhE0XJCkwLMWyIP+Q4YMkUmTJqlnoXHjxkYrISQpUHOkf//+8swzz7CuFCEeQKNEQlzJmkiJpAfcXcmtNFyQpKAeSEjgkOo1JZD6A562R44ckQsXLhithBB3QIQBqFy5svokhBBfofPVa28oeCKuWbNG4MvgaKJBggQ7pUqVUp8HDhxQn4QQ99i/f7/6LFGihPokhBBfAgcZ1L/QEQBIKepIFsU0evRoGiQIISRICIhC11oJ1AItISRpEF5+6tQpZZDImDGj0UoIIZ7jSLkzK3+EhANFixZVnzRKEOIZhw4dUp80ShBCkoMzB5hgTxdECCHEMQFhlChWrJj6nDJlivokhCSNTndWqVIl9UkIIYQQ79FGib/++kv+++8/NU8Icc3OnTtl2bJlap5GCUIIIYQQ4i4BYZRA/tE8efLIrFmzVC5fQohrUEcCOTVz5MgRX/iLEEIIId6DlKIvv/yyXL16VT777DOjlRDiCjwrFy9elI4dO0r27NmNVkIIIYQQQlwTEEaJ/Pnzq4K9AEUGCSGu0c9Lr169lEGPEEIIIcnn9ddfVxGIu3fvVoU0CSHOGTZsmCrUW7p0aXnxxReNVkIIIYQQQpImIIwSoFGjRtKsWTM1X6NGDVmwYIGaJ4TcZuTIker5ALVq1ZIHH3xQzRNCCCHEN6BIJkAE75tvvqkKvhNCbrNnzx559tlnVfFZ8Mknn6hPQgghhBBC3CVgjBKgd+/e8vTTT6v5nj17yv/93//JunXr5Pr166qNkHAFzwGiI7799lv1vWDBgjJixAg1TwghhBDfERMTowZb06ZNK0uXLpVHHnlEYmNj5eDBg8YahIQnhw8flh9++EHpa9u3b1dt0Nl0fUBCCCGEEELcJeKWDWM+YPjnn39UWppz586p7xkyZJBSpUqpcPqMGTOqNkLCgY0bN8qGDRvinwWAiCIY8Agh3jNmzBgZN26ctGvXTl577TWjlRDiT/CsIdULnr/q1asbrYHN0KFDVQ0nTaFChaRMmTJSsmRJo4WQ0Gffvn2yefNm9ampUqWK9O/fX/LmzWu0EEI8BX0i+kb0iegbCSH+h3ogIYFDQBolwNGjR2Xw4MGyfv16OX78uNFKSHiSOXNmKVGihLRq1Urq1atntBJCvIXCKCEpTzAaJcCMGTNkypQpsnPnTrlx44bRSkj4kSZNGuUo1rBhQ2nTpo3RSgjxFholCEl5qAcSEjgErFHCzKFDh1TBQSiDly5dMloJCX3Kli0rxYsXl6JFixothBBfQGGUkJQnWI0SGsigWh6FbEpIuFC4cGEVHQR5FOnNCCG+gUYJQlIe6oGEBA5BYZQghBBCfAmFURIMfPjhh7JkyRKVPihnzpxGq+84efKkisC79957pU+fPkar/wh2owQhhBDiS2iUIMHA1q1bpUWLFtKjRw8lN/oaOH107dpVzSNtZvr06dW8v6AeSEjgEFCFrgkhhBDiGRDk27dvLxEREWoQOxwIh3OGAjht2jR5/vnn/WKQANguto/9YH+EEEIIId4CmQyyGWS0cMlwAecRnPOdd94ZsrJUbGys5MuXTx555BGjxbfACAF5FMaCVatWGa2EkHCARglCCCEkiEHh0eXLl6t5KEbwfg91wuGck1IAofhCAYYijAnrObsO2ojjaJ1mzZpJrVq11P4IIYQQQrwB8gVkMgAZzVwYP5RZsGCB+ly7dq2sWLFCzYcS7jjJaGOUnhDh6wxtxLGug6jdfv36yQ8//BA2Bi1CCI0ShBBCSFBTpEgRNagMIND7y6s+kAj1c05KAYRCV65cORk5cqQgCyemX3/91el1gNeZs7QQ2juN0RKEEEII8RbIIJDJAGQ0yGrhQL169dRnlSpVpEaNGmo+lHDlJKOdXg4ePCgXL16Ml0mdpXjC+jA6OKN58+bKoMVoCULCBxolCCGEkCAGg8qjR49WSkBK1AUIBEL9nF0pgDAcdOzYURYvXhyv/LsiKQUQVKtWjdEShBBCCEkWkMkgm0FG83ddgEABshjOec2aNVK2bFmjNTRIyklm0KBB6tPdOhCunGQArt9TTz3FaAlCwggaJQghhBBCAgSd/sCZAojUADAgwJDgDtrbzJUSqKMl3nvvvfjUC4QQQgghJHyBzOnMScYsr7pjkNBOMjNnzpSGDRsarYnR0RLTp083WgghoQyNEoQQQoib6DyoOhcqJv1dF7iDkA7hXbc7KsRsXQcTvqMd6HBotFsL55mPAds2b0sXFrS2wXvLXH/A0TGZzwXTrFmzEm3XFebfm/PEmo9Fn6M196x5mcZ8nmPHjo2/Hti2o3MGnm4X27KeN5Zbsa5jXc98PI6WewLSMAFszwrOc9GiRVK3bl23FEB9raEwZsyY0Wh1DIwcr732Gr3TCCGEkADHKgdZ5Twth5nlIqs8pHEkO5llGLMMpLcLzMeAT6TwwbHo73pf5t9ju+b9WWVcYN4uJmwTcqD+npR8ZT0u8zlbzwX7Nl838zINZCLzeUE+1vPYtvX8gDfb3bZtW/xxY8IyqzxmvTaO1jMfj6Pl7oJ9QSZ05iSzZcsW9Yl0ou6gjQzVq1dXn84wR0uY/ztCSGhCowQhhBDiBa1bt1aTBgXu3nzzTalfv7789ttvRqsk8j7HfK5cuRKsA/Ad7ViuPdeBtXCeLqiH3LXwJkoKeMhXrVpVbUdjPSYoiOZzAU8++WSiY3QFlCTt+YSBc60AQWnR28E5ZciQQSmuVrAOctA6UkAwWO7K0x9gf55u1/ofAlwLvS62CWXOuo4ZZ/9nnTp1Eiif7pCUAoh8vXv27JFixYolqdSDUaNGqbQC7qR50vccrjNz+RJCCCHBgSM5b+DAgUomg7yngZwCuUADmQOym3kdDWQYyBnAXfkuR44cat4V2K55fzhmpP7R24QsY5WjcX6QA90F8pOWobEdPXiOfeD4Ac4H53XixIkE100Duc+RDIftQT5OCm+2i8F463mbowWcyZsaZzIrttO0aVOHcrArXDnJAC2P7t+/P4EBRt83ZvC/jh8/Xrp27eqWUw30myNHjsQfAyEkdKFRghBCCPECKDRQOjBpZW3evHnKuwe5ZZHzX6MNCVAItLAOowIUJaxr3oYeFIfnkVUJxKQH3j0pIohjwX4mTJhgtNw+JigKyBcL9DlZ13UHKIF68Bth1/v27VPzUFqALgAIZUTXg9CTvlZm5dGM+Vo5K57nzXb1+WKwXyu85nWRKxfKHOjXr1/8drEckQfm/9O8XF87T728klIAcaxQ0qDUo7Ci3h/uuRYtWiQwTEB5xdShQwejJWnw/+E8GC1BCCGEBA9azkMfDjAgjgFiyA1mGRNygZZLYKDQA9yQW7RMobehHVjcle/cAbIWZC7zMZm3GRsbGz+Yr4/JvK674HhwXEDLu9qxA+B89Hnp88ZklgfNBhgzWt6DzObIgQR4s119vmb9Qa8L+Q71xIBZJsb06KOPqnYYMCCzmpfra4f/2ZMBftwjrpxkwK5du9T+IHsvW7ZM7Q/7hU5hNkzg+GF4atOmjds1N7Bejx49GC1BSBhAowQhhBDiBVpQNytrUAR09ILZqKCBsK4VQAjbWjjHNqxeXebtQomCQgOlDcobcDeFD5QgXX/A7O0G4wYUBURhaAUQBQq18mFe110wUA6wPShC2L72SrMaUbAMHl1QmjHIrtEKoxkMururyHiyXf0f6igBDdaFEgRlHOA6mAf3cSzwCjP/n1DetZeY9lKDAQHXwV20MSIpxREKsb43AI4NOX+hzAOtvJr/T3fQBipcC3fuLUIIIYSkLmY5T8thwJGcqjHLOPh9s2bN1DyAHGsd0PdEvnOFli9wTFru0tt0dkzmdd0Fx4PjAlreNcts5usEsF/Ib4jm1c4oWvY2Y5bz3cHd7ULO1DKgTqcJ9LpmWd2sP4AmTZqoT/1/YD3oINivObICRgR30dc8KaMAroc5+kEbEyBLakcZXQzbfI8lBfaZlFGEEBIa0ChBCCGE+BmtEHmKVpq0oUIrJWblJZAwG2KgyJqNKFoRhaKBYzcraElRokQJY8453mzXXRCeju16ila03cVdJdCqTON3GHDAfXbq1CnlkQZDjnUQIiliY2M9KqJNCCGEkODBU2cJjTvyXSCB44HzDtCRGNrAYjbi6PoLZicWV8ABBAP9SeHpdj0BMqk3eKqLuOMo48ggpaNmcJ/BKAMDhbtpmzRJRQ4TQkIHGiUIIYSQAMWsBMJbSns5YbA5ED2H9OA4gPIDJVAbUXAuAIqG9trSoeowuGivPG/x13bdxZz6wDx5ahhwpQRCEYZCjHvBEQULFpTNmzcro4w5cgMTojdwfbANZ/l+GSVBCCGEECvuyHeBhk7hhOPE8eK4gY401t74AOeBQXTIbTp9lbf4a7vuYt6neUKaJU/ku6QcZeAw5CjqA+TNm1cyZcqkfovrj3tEy6M6egNyqaOaaPr6Yd+BqOsQQnwLjRKEEEJICmE2MpiFfKsCoxU8sxKIAnEYNAZWT/nkYPa4wjFoLypzrmFP0McGzzQdsm02omjDCs5TD8Cbw9K9xdfbNV97DPLrcwHw/MJk/j9RVNKsWGF+1qxZxjf30UqgdXtAH5M1HzHuHxwPFEQstyqimGA0wbFCUUVaJyuxjJIghBBCwgKrjLNq1So1DyAPaNnJLG8mJd8lF0SkapnUfEyQhSATeYo5hROOF8cNI4XZkx+RI0APgGt5Kjn4Y7vmGhlIz6nlQ8iCY8eOVfM6MgSyu7mgORg3bpw6Bk/R8rR1ewDHhPOEA5AZyN4wPhQqVChRrTdMuD6QRyGXrlmzJlF6VkZJEBJe0ChBCCGEpBBQTPSAsPZaN3sNAWsdAK0Eoog2lEQI8r70SjPnroUSCKUQxwRPe2/QA/U4VhwzMCu1OhWT+fx1DYbk4I/tolaDNjqYIw90OD7+JyicAOeLc9frYD4uLk4t8xQoYuYaEWZwTPBMQ0FDjVYWvVXgoNwySoIQQggJH8wyDuQaLb9o+c9avyop+S65QP7QMhXQx4T9aiOJJ2B7eqBey9DmdEOQFSFrAciL2JdZHvcWf2xX12oAZnkTMrs23kAGdCSzYtJOTZ6i5Vz83uooo48J0bfa4KENSNoY4ynYDqMkCAkvaJQghBBCUhAoeNpLyAy+o92sAAKtBGp86ZUGoLShBoE2TAB4Yy1evDjRMboDjs18DtgGzkHTqlWrBCHs2O/q1auTnWbJH9vFucBjyxpyj21CwQTYr6M0UThvb40E2K8zJRDLkKsYSptWNpGSYMaMGV7fFzB+MEqCEEIICR+cyTgAMqA1qhLru5LvfAG2j32bwfHBq94bzBEGQKduAjif4cOHJ1iOfTu6Hp7gr+06kzeRuhPn5Or/TM4gvytHGRwTtg2ZGPIo7oeRI0eqdm9glAQh4UfELcRQEUIIIWEEIgIQytyuXbsEg/HkNhgMb9GihfLIgoLjKOUP8R/wFoNSBwXdn9de/89QIs2DDf4Az9rKlSvV81e9enWjlRBCCAlP0Ceib0SfiL6ROAbe+PD+x4D85MmTE6X8If4FzjCIgPDntddyL4wc3ho13IV6ICGBAyMlCCGEkDAHkRJmj3woBp07d44Pl/dleD5xD3i0QTGDEp7c/MbOQC5i/PeMkiCEEEJIagNZFHKJGQyI65RS5vRLJOXQ0RL4b8w1zXxJclOREkKCExolCCGEhB3ay+fQoUPqM9xB7QOdnxaTOfctQubhQQ9F8c4774xfxzr5a+A8nIGnGAJa/RXBgHB/FCHEpNMZ+JPNmzerzzvuuEN9EkIIIeFM5cqV1afuH4nI999/n0C+1PXBkC7q448/VvIKIifM65in9u3b+23gPFzRqaH8KS8iKhj78DbNlCfs3btXfZYsWVJ9EkJSDxolCCGEhB3FixdXn8jFTxwD5Q81LnQINQw5a9asUYPkjiZ/p/4hwc3GjRvl4sWLagAmXbp0RishhBASvqRNm1albkL/uG3bNqOVWIGDjHnAGgPYjmRRTCnlaEGCl8OHD6vPEiVKqE9CSOpBowQhhJCwo2jRopI5c2YaJQwcKXcp5a1EwgMUZwSVKlVSn4QQQgi5HS0B432448wBxt81Bkh4gUj5TJky0ShBSABAowQhhJCwBILo8ePH5ccffzRaCCH+4o8//lCfevCFEEIIISLly5dXnzNmzFCfhBD/MXfuXFU7jwYJQgIDGiUIIYSEJdrravDgwXLgwAE1TwjxPd9++638999/0qBBA3nooYeMVkIIIYTUq1dPpXDatGmT9OrVy2glhPiaU6dOxRdNf/nll9UnISR1oVGCEEJIWAIlsFmzZmr+tddeU5+EEN+yfPlyGTlypJrv2LGj+iSEEELIbTp37qw+f//9d1m4cKGaJ4T4lg4dOqjPdu3asRYeIQECjRKEEELClt69e0vBggXl6NGjykgBLzVCiG/o0aOHdOrUSc3D+xPPGiGEEEISUqFCBWnTpo2a79atm4wdO1bNE0KSz7x58+S+++6THTt2qO90RiMkcIi4hcpBhBBCSBjzwgsvyIYNG9R827Zt5ZFHHpHSpUur74QQ97lw4YL8+++/Mnz48Pi0aEjb1L9/fzVPCCGEEMcMGTJEJk2apOYrVaokL730klStWlUyZ86s2ggh7rNz506JjY2VadOmqe8xMTEyZswYqVixovpOCEl9aJQghBBCbEydOlUGDBhgfBPJkSOHlClTRu644w6jhRDijIsXLyrD3saNG+X69euqDcrfm2++Kc2bN1ffCSGEEOIaRO1+9NFHsm3bNvU9TZo0UrZsWbnzzjslY8aMqo0Q4pytW7fK5s2b5fjx40YLHWQICVRolCCEEEIMVqxYIaNGjZJdu3ZJXFyc0UoI8YQ8efJI+fLlpX379ow4IoQQQjzk5s2b8vnnn8tff/0VH3VICPEMRBiVKFFCWrRooYwShJDAg0YJQgghxAEwTGBC6C8hxDUZMmRQkUXFihWTvHnzGq2EEEIISQ7w9kYufEyISiSEuAaRRcWLF5eiRYsaLYSQQIVGCUIIIYQQQgghhBBCCCGEpAiRxichhBBCCCGEEEIIIYQQQohfoVGCEEIIIYQQQgghhBBCCCEpAo0ShBBCCCGEEEIIIYQQQghJEWiUIIQQQgghhBBCCCGEEEJIikCjBCGEEEIIIYQQQgghhBBCUgQaJQghhBBCCCGEEEIIIYQQkiLQKEEIIYQQQgghhBBCCCGEkBRA5P8BAaRFI45MYZcAAAAASUVORK5CYII=;" vertex="1" parent="1">
          <mxGeometry x="-334.5" y="281" width="1573" height="188" as="geometry" />
        </mxCell>
        <mxCell id="Z_0YeXmDCLqOWmuJR8lk-9" style="edgeStyle=orthogonalEdgeStyle;rounded=0;orthogonalLoop=1;jettySize=auto;html=1;endArrow=baseDash;endFill=0;strokeColor=#2A2A2A;strokeWidth=2;exitX=1;exitY=0.5;exitDx=0;exitDy=0;" edge="1" parent="1">
          <mxGeometry relative="1" as="geometry">
            <mxPoint x="1206" y="623" as="sourcePoint" />
            <mxPoint x="-330" y="873" as="targetPoint" />
            <Array as="points">
              <mxPoint x="1240" y="623" />
              <mxPoint x="1240" y="748" />
              <mxPoint x="-390" y="748" />
              <mxPoint x="-390" y="873" />
            </Array>
          </mxGeometry>
        </mxCell>
        <mxCell id="Z_0YeXmDCLqOWmuJR8lk-3" value="" style="shape=image;verticalLabelPosition=bottom;labelBackgroundColor=default;verticalAlign=top;aspect=fixed;imageAspect=0;image=data:image/png,iVBORw0KGgoAAAANSUhEUgAABh0AAAC8CAYAAABsZm8HAAAAAXNSR0IArs4c6QAAAARnQU1BAACxjwv8YQUAAAAJcEhZcwAADsMAAA7DAcdvqGQAAAAhdEVYdENyZWF0aW9uIFRpbWUAMjAyMjowNzozMSAxMToxMDowML5RJhsAAJl3SURBVHhe7d0HeBRVFwbgkwQIoYbee1WkIyKIBeyoIEoRVBRFEfxFEBALFhQLYEPpgoqIEkRFBRFFpQnSEem9995b+Pe7mRsmk9nN7mbLZPO9PPPsZnZ2drYwc+49t0RdchEiIiIiIiIiIiIiIqJ0ijZuiYiIiIiIiIiIiIiI0oVJByIiIiIiIiIiIiIiCggmHYiIiIiIiIiIiIiIKCCYdCAiIiIiIiIiIiIiooBg0oGIiIiIiIiIiIiIiAKCSQciIiIiIiIiIiIiIgqIqEsuxn0iIiIiCoMdO3bIunXrZMOGDcLQjCgw8uXLJ5UrV1ZLjhw5jLVERETkFOfOnVMxMJb9+/cba4kovcqVK6di4LJlyxprQo9JByIiIqIw+Pfff2XYsGGyZs0aOX78uLGWiIIBBa4mTZpIly5djDVEREQULmPHjpWpU6eqBjdEFDxxcXFSpUoV6dixozRs2NBYGxpMOhARERGF2KhRo2TEiBHGXy5ZokWyxYjEZmFPB6IAibqYKHLOtZy9YKwRqV69uvTo0UPdEhERUWht3rxZ3nvvPZk/f76xxgUxsGu5hHiYiNItKioqKf49d1HkgisWNrRv3166d+9u/BV8TDoQERERhcimTZvk7bfflqVLlyatyBvrWrInJR2IKDhQ3DnjKnQdPJVU+HJBjwe0+CIiIqLQmDBhgko4JCYmJsW+BXKI5MiCGlJjCyIKODTCOXZW5PAZ9SeGXOrdu7fUqlVL/R1MTDoQERERhcgTTzwhS5YsEcmqC1pZjUeIKCQOnhY5mlTo6t+/v9x2223qPhEREQXPggULLg9xmDvWFQfHiUQz2UAUMmcuJDXAOXtRzfeAJGB0dHAbvrFZHREREVEIfPrpp0bCIUakZB4mHIjCAZUcWFwGDhwohw8fVveJiIgoeAYNGpR0J5/rGlwoBxMORKGWPYtICVcZNDZGDXOW/H8yiJh0ICIiIgoyTBo9fPjwpD9Q4clu5EThgyHNcmSVI0eOqGEeiIiIKHjef/99NcQo5i6TfK5rMBGFT8Gc6iYhIUFmzpyp7gcLkw5EREREQZY8aTTmcGAPB6Lww/BmUSLTpk2TxYsXGyuJiIgokLZt2ybjx49P+sPoaUhEYRQbI5I/6f/ikCFD1G2wMOlAREREFGRr165NuoMW1kQUfphXBWNKu6xbt07dEhERUWAlX2PR6AbDuxBR+MUnlUnRA+ns2bPqfjAw6UBEREQURLt371bDuEhMlEgWhl5EjpEtRt0w6UBERBQcyddY45pLRA5h/J9MbhwXBCz5EhEREQXR5cIWW3cROUoICltERESZWXIcjPkciMg5jP+TwWx8w6QDERERURBt3Lgx6U42hl1EjoIxbV02bNigbomIiCiw1q9fn3SHPR2InMUom6pJ3oOEpV8iIiKiUIiKMu4QkSPw/yQREVFo8JJLlOkw6UBERERERERERERERAHBpAMREREREREREREREQUEkw5ERERERERERERERBQQTDoQEREREREREREREVFAMOlARERERH7r3KaDzBv/iwztO8BYQ75IeP9TmfXFZLnz+puNNURERESUETCO89/VV9WSqcO/VgvuU+Rh0oGIiIjIoVCRvyjhtxTLwgnT5deRE6RHh86SIy6HsWXGot/X3HE/yyMt2hprU8ushZHBL74lC775VQb1es1YEx5OOQ4iIiLKXFCJj8p8axz891dT5LP+g+XamvWMLTMW8/sa+/YQj7F838491Ha4zSwQ7/84ZJzM/vInebh5G2Nt6DnlODI6Jh2IiIiIHG7vwf2yfusmtRw+dlTy580nD9zZUvo93dvYImOKzRYr99x0u5QvWcZYQ0RERESU5Oy5s7Jp+xYVA2/bvUOtq17pCun3vz5ya6Ob1N8ZVeWy5eXJVg8ZfxFFHiYdiIiIiBxu/vJF8kCvJ9Vya6dW8tkP38j5C+elzhU15OZrrze28h1a7vw89CvVoj3Uzl+4IEePH5OSRYvLo/c+YKwleOatF6V+29uk58Dg9zDw9BsI5XEQERERWR09cVwGfjZExcAtuz0qDz7fRSUg8uXJK7enM+nw1rMvqd7DT7R62FgTOsdOnpDExESVOGlYu76xlhb+t0zu6fqgNH7obhk7eYKxNnjc/QZCfRyRikkHIiIiogzm8x++kV379kpc9jipWLqcsdZ3ZYqVkKIFC0uWmCzGmtDJEhMj61yFxvPnz0mjOteoHg8UeuH8DRARERH5YtOOrTJ78XzVeAUNV9IDMXSeXHkkOjrKWBM6Z86ekW27d0rB+PzS7s6WxloKtXD+BjIDJh2IiIiIMphTp09J4qVEuXDxghw6esRYm7FERUXJrn27Zenq/yR3jpzSvMntGXaOCiIiIiIKDcTAcOLkCXWbUU2dPUOOnzopNatWk7Z33GusJYocUZdcjPtEREREFGBjxoyRoUOHisRnF8kfZ6z1DiZcrl+9tkz+4xd5Y/j7xlqR269rIr0f+58qbL300VuyYv1q4xFRE+s9dE8rqVaxquTIHqcq90+dOS1zFs+XD8eNkn0H90vnNh2kQ/O2kjVL6tbt1tfq0LyN3HfLXVKkQCGJiYlRXcEPHDkkY74bL99O/yl5X0tXr5Cf//pVDddTrkRptS1ed+bCv+XtTwerRIlmfl8z/pmjJsiLz51Xxv00UYZ8PcbYKmkSt9effl7df/WTd1VXZw0Jis6tH5ZbG94k+fPGS3R0tFy8eFHNfzHpt5/lC0tXaLxG8yZ3qNfENm3vbKmSHd/PmCpvjfxQEt7/VIq63uOgz4fJ9fUauI6vjvr8zO+hZuUr5am2j0qVshU8vj9vvgNNv+47oz+WqbN+V+vMx6q/C2znae6LHXt3yYsfviWrNq4N2G/A7jg0u98FEmDT//5ThieMTfF5uPuN4DtDYfv3eTPlwy9HpnhOyGw6rI5jwYIFxgoiIiIKlGbNmsnevXtFSucVyeJ9u2dMuNwHsa4rNrDGgB/2eVMa1rpavnXFewNc8ZOG2PDRFm3ltkY3pYhPECN9MTlBxTOg41ArxCHmeAxzRzx+/4NSq+pVyfHUmbNnZemaFfK//i+obXQchyGg6lWrJY3rXaviS1S14nU//XacSi5o1veFnr63ueL6LTu2Sp8P3lQ9OTRPcZi7Y1u/bZOMdMVh85YvMrZMGU8PHPOJK0ZsLVe5YsQDhw/KS4Pflmtq1EmO0/74Z7Y8dHcrKVaoiNpev4e/Fs2Trq4Y+I7GTSV3zlxu3x88ePf9cs+Nt0nJoiUkW9asaluUHb6Z+n2K+NxdnG+NjT3FrIDveMK0yfLe50MD+huwi9HB1zKIu98Ijmuj6/sekfCFKk+E3NEzIgdPS+vWraV37+DMExht3BIRERGRwyHIRUuop9o8IrGuIP4XV5BvTjhA9w6dXUF8bTnpCpoX/rdU/l27UlzRvtzS8Ebp8/gzapsDhw/Jhm2bVXAMmJwa4+Ni0evwWp+89I483e4xKZS/oGzfs0vmLPlH1m3dqB7HZNZmGFu3Z8enVfIAhYbNO7e5jjGbCvp7PvKUsVVqfy9dINPn/ukqLCUVxFAASQsq34f1fVdNpp3LFbSv3bJRZrkKQ7v271VDBXV9oKO83tU+eC4Qn18lHPK4CkwooMW4CgrJXH+3vv0eqV21uqzZtD7Fe3j1qedU4a9kkWKy3PWZolCYNUtW2/fnzXfgq627diR/R3rZumu7KuScOHVSxv30rUo4QKB+A3bwu0BhH58xfhdbd++QPxfMlS2uY8mbO4/6Tgb1fFVtZ2X9jeA5OV0F5RauAjV+Z0RERETuXFmhirzTva9qGLJh+xb59tcfjUeSPHxPK3nw7lYqRkWchrh11/49UqpoCen2YKfkiadRAY14B3FSolF5jr9RAXzsxHG1DRpWfPRCf5XcwDxqiP0WrFgi+w7tl/x54tU2yVzxY5s7WrjirBtk597dsnjVchWblS5WUrq64htPse1n338tO1wxdtkSpVVlvTeQqHivd7/kY0Osh2M7c+6MSiZgngIcv512ze5TCQtUlOO4MdyphjjtydYd5Jxrn8vW/JfiPbzWpZfce/OdcvDoYZWcOHbyuPpcre8PsfwT9z8kpVzP27Vvj/oOEO/hM3ui1UPySIu2xpbe0zGrjlP1grnhYPGqf2XYhM/V/UD+Buz4XQax+Y3gtSuXKS/PdXhKfSeRyPUrIyIiIiInQyunRQm/yawvJkvPR7tInly5VSsaHWCbodXSJ+NHy52dH5AubzwvHfs+K0O/+dxVEDkrVctVVAUD9FB4qE8XNUE1IMjGBH1YRk78Uq1DJTBaAO0/dED6fPCG3N+9ozz7zstqAj/se+TEsWo7DWOirtm0Tlo++6g83b+PtOr+mEz/+y8VZNe+ooYqtLgzwvWa67ZsksL5C8oDrsJQWh67r70qeKIQ0+2dl9R76THgFbn3mQ7yyddjVKv+m665Tlrddo/xjMuquD4DfEZooVav9S0pWo6hpRgKRX0/eVeeeO059R6++eV71Y3/pmsaC7oHv/zxO+qx1j0el4RpP6jHrO/Pm+/AV70GvZb8HWF57JXuyckBtI7Cd6oF6jdg57GW7aRBzbqq0PnGsEHqc8Cx4RZ/oyVbnStrqO2sKrh+I4tXLrf9jVzj+q15+o0QERFR5oPYcNgrA1UcPPbtT6RJg8Yq3nzTFb+ZewXAuXPnVFzzVL9eKp5B3Nqu91Py77pVqnV+gxp11Hbo4YrHEUeh8ca0OX+ovx996RlVSY0KYPToRKUyHrvn6YflcVfchZgKk1m3fz5lYxPEjyUKF5P3Ph+mYqvOr/dS8eJ+VzyGORsa1b7G2DI1vIcf/5ymkgc3Xt0ouVLcHcRKHZq3lvjceeTPBXPUseG4sOA+1uWMyyHtmrVMFVdhfbmSpWWiKwa8vkNzFSeae5BUKFVWNQZCfIZYF+8Z807gO7ih3rXy298zkx974tXnVIMk6/tD6/1Vru+nx7t9k8sOeM4fruPKljWbShj5SsesOk7FgnVInKD37pc/TUzuLRuo34A7/pZB8BvB54jfrfU3UrhAQbmxfiNjy8jCpAMRERGRwyEgRqUwFgTXCFw73f+QfNZ/cKohd1DosHbrRaCNluy5XIUNtE5PCwopGKIHc0agYOJNl18EzWitZR4iZ+aiv9UQUCjklC3uvkIZz0HhAUPtoELc07i2KAjWqHylqkCfNP1nVYltNtb13tE6C58R3oNVTHSMDPvmsxTdzjW0dJrtKmigwKX9vWyRHDl2TC65ClEobJkfQy+TU6dPS95cuaVy2fLG2sB8B2lBUghdtNEia/R34421SYL1+ui90KBGXXUfvVOs3enxN1p7Rbs+Y3TVt9p7YJ/6fux+I7lz5vb4GyEiIqLM56wr3tu0fYuKgVFBf/rMaanuigOH9n1XtZw3G+OKQ7u/2zdFL2DEHGiNjoYjRQsmDRmUlqYNrldD8+A1rUNo2sHwQajsx9A6GuLF1RvXqeF9UKnsyec/fJM0x1nOXNLm9ua2vUW1pg0aq6GPduzdLcMnfJHi2HD/yx8nqnIDWt1bK7IRGyPJgCGp7N4TnmduxILP+991KwU9g9GS3xxv4rEtO7ep91e6WAljrajKe1SoW+Ps1ZvWy7nz56RgvvzGGv/ppFBstmzywx/TUsTmgfoN2ElPGQRlDPQMNsfO+jeSJSZL8nBWkYZJByIiIiKHQ4sd3bLnzqfaqZZHG10FMHShfrr948ZWl93b9E55v3c/mfDeKPl99Lfyab8PpLgPwexVlapKgbzxcuDIYfnn3yXGWs/QFdncWgrQ7RmBeXZXoSCXqyDlCVp5zV3yj6sAESstb77T7fwFpVwFG1Tyo6v138sWGmtTWucqWJy/cEGKFy5qrLls044tKui3c95VGNq5b4/xV5LExIuqN8NZ12PWFnX6/aFrOlpvmaX3O/AEXebvuK6J6m2AHg3bdu8wHrksGK9frUJlyef6XRw7cSJVQUtbuWGtnDl7RvUYqX1FdWNtkqMnjqUaDsyX3wgRERFlLkdd8SXGwkcMjF6VN3RoLl/+mKDmCkAjFWvPAMSPvR7tKp/3/1gmfzxWZn/5k7S69W6Jjooytkhb5bIVJCo6WpavW5VmwgEQc+7ev9f467LDx46oWwwrmZbxU79TvUXRih5zEriDYT4Rc67ZvD5VXAqIs3bu2622wbZmp13x2bxlqRvdaHZxGnoBwN6D+1LFm/r9ZY/Nrm61wgUKqXkYEHt+99FnMvOLyfL0Ax1VjJ9eSMg81fYRlVSZMX92qp7XEIjfgJ30lEHsyhjgy28kI+JE0pRpnHAVkDds2KCWgwcPGmuJSKtSpYqUK1dOypRxP1EpEfkuGBNJw9033io9XQH1yVMn1SRwGF8VQfab3V6USqXLqVZXGCsUPRAw3E4512MYP99uwuIFK5ZKlzcujz/a6f4H5dF726nxTVHA88Q8SbB5H4BeC5ggDq3rza/r7n3h+Af1el0Vkn6eOV3NWWGdYE6/3vY9O90em902+r1iOJ8XP+yv1pm5myzO3XsAu8d8/Q7sXtfTxIHYf3/X/ssULynjfp4kQ00Tb0OgfgNgPQ5Pkzpqdtv48xsJmQw+kfThw4dl06ZNajl06JCxloh8UbBgQalYsaKKgePjLWO1E1G6BGMiaUAsiRji+xlT1VA5gDnPMC8CKrfRQwINGw4dOyKnzpyRmpWvVGP/m+MQxGAY6/+Lyd+oXgPaN4NGuuKsUqnW23EXP4JdjOXpfXV/+Ek17v/BI4fltSED5PbrmqSKBz2VDTTrNjrWQov6N4e/J7MWzze2TOIpTvMmTjQ/hoYxmNcAQ8GeO39eTpw6oSrpjxw/qia9Rg8NHZvr4wLzZ+HpM+3i2veDd92n5jp76aO3UiVeAvUbAOtx+FsG8fU3EjIhmEiaSQeKeBMnTpTvvvtO1q9fb6whIk9y5colFSpUkPbt20uTJk2MtUTkr2AlHewCdVRG39rwRlmxbpV8MHZEcmsltAoa+9YnUjh/gRQBr7tAFxPUYe4IFHq6vf2SbUt6zZ8KZU/vCxPMIelx8vRpGZHwhRo7FfR79ObY9DFt3L5ZzUEB+r26K6S5KxC4ew9g95iv34Hd63o61veff0Ouq3ONLPh3iZoXwSpQvwGwHsc1NeqqyfFQSW9XaAVdmD5y4rj0ef8NNbm1P7+RkMmgSYfBgwfLn3/+Kdu3bzfWEFEgIPFwzTXXSI8ePSRLlizGWiLyV7CSDtYYpWHt+vJal56SPVusGuN/1LfjjC1FurR9VB66p3WqOMRdhfPwVwdK7arV5eup38uHX44w1trztULZ0/tCrDb8lYFyRflK8vv8WaqXhTUefK1rL7nrhlvdNqIBxNn1XPEVhkrCUEp2ZQYzT3GaN3GifgzDs37wfD8pXriY/PTnNPlw3KjkniI6ft9zYJ/fSQf0asFnh7nAPnTFuOglbRbI3wBYj8PfMoivv5GQCUHSgcMrUcQ6evSovP766/Luu+9eTjhkyyOSu6xcir+SCxculkVyFncFgnGqV9Dy5cvVheett95K+r9DRI6DVusY+/XCxYuqgh4qlSmv/l7w39IU3aPrXVlDtTjyFrp3Y4icAvH5bMfmDyY9rm2+PHnlrhtvVePImu3ev0dOnDrp8diqlqukhjxCK6hQC9R3YAetuzAB3o49u+T9L4YZa1MK5utjf8dOHHPtJ5fUrHqVsTalmlWqSfbscWr+BiQcKLB27dolXbp0kbFjx15OOGSLZ3zLhUs6FslTXiQ2n/rvtHXrVklISJB77mkuf/zxh1pHRM5TrkRpNU7+2fPn1d81Kl+h5ofac3B/ispmKFm0uGT1IYmISmU0SKhWsYqxJjRQQa/nOMOcAHZzcKHSHsP3VClbIdVE0YB5B0q53i/i+M02wy8FE4ZnLZSvgBoy6Ld5M1MMTYWeuLGWoUh9gedj2KkccXEqoWFNOEAgfwN2nF4GcSImHSgi/fTTT9K0aVN1qxSoLVLqTteZ5jaRQldLVP5qXLhwsSxSpJFI6buS/p+g8OWCXkLNmzdX94nIOVCgaHlzM9WSZ8O2zcmVu4mJiWpCt3x5Lg8PgVZTbe+8V1XiW6GghgIbKpHNMLHZfxvWSlxsdml9e3OpW62m8UhoJI9rW75yquNGK6g1mze4PTaM74uK7+MnT8jMRfOMtaHj63fgLbTewpBaZ8+dk69+/tZ2HF8I1G/ADgqPi1b9K9FR0aql3p2NmxqPJLnh6obSuM41atzauaZJ/SgwfvjhB7nnnnuSemVkdX1fRV3X7TL3uK7btzC+5cIlHYsUrCtS4maRsq6Yt0hD9f9r3769qgHOK6+8YvwPJCKneKb941K1fCU54Yr1MHEvYO4BDOSC+BBxsobhfqyT+mqY2BgxU55ceYw1SRA/Io5E0qE3WtaHkJ7jDLFb3StrGGsvm7tkgew/dEC1zn+6XUe1nYb7iI0xCfaWndtlSoh7jyIGRUyJOR4KxF+eMBox7K0Nb1Cftb8evfcBqVCqrCxxxaEjJn5prE0pkL8BO04vgzgRkw4UcRYvXqx6OChxRV2FsbtF8lZ0BY85k9YRkWfoEYTCV+EGrqtEFtm5c6c88sgjxoNEFA4NXIHy1wNHqGXqsPFqYraKpcvJ5p3b5LPvxhtbiSxZvUJc0ba0aHKH2hbdw7/78DM1Lq3dBHdoAYWWUJVKl1fbjx8wPLlw9clXn6qEBlqSfdSnv3p8YM/X5Kt3h8mvIyfIE60eVtsFA5Ie0+f+KZdc/zD+rJXdsX3Y5035fvAX0qNDZzW54MRff1T7CDVfvwNvoBDZuXUH1XoMvRjuv/VutW/zgu8GAvkbsPPJ+NGyaOUyKegqTPZ9qqd8+8EY9dmj6/g73fuqQiZat6HHCgUOWly/+eabSX/kKiVS8lbXD6O4SEz6J2UkIkN0NpGcJURK3ZF06zJ16lSZNGmSuk9EoYeJezEpMGIUxBqYlBjD5MDPM39LjvXmL1+s5q8qVqiIfPRCf/nkpXfUc7o/3Fm1OkfvACusR3/au66/WcXWmMsB8yhgn9/+9rPaBhMQTx3+tQzt+65aMDHxeNd+g+mz779WvVrtJl5Gr9MvJk9Qc3bdVP86+fGTserYcWy4j+Pfe3C/DE/4IkVPg1DAsJvbdu+UPDlzyYudusnI196TsW9/Im8/+5Ixr0JSz2xfYejVJtdcJ4mXEqVw/kIy2vV+8d3q5ct3hqrYOJC/AXecXAZxIiYdKOL07ds36U7uciLFGrsKYyln0iciL6FSo+y9Illyyn///Sfffvut8QARhRpaLGHYHCzoan3SFbRPnT1Dnu7/QoohdFAh/MMfv6jHkZSoc0UNOXrimAxxrT9z7qyx1WUIin+YkbQ99l22RCnVSh3Qkr7bOy+r10ErIOzvpvqN1LBOh44eCXqXbbRiWrdlk/FXSnbHhnkOihQoKGs2r5f+Iz+UYRM+N7YOLV+/A29gUryq5Sqq++itoH8L5gUTS0MgfwN2UIDtOeh1+Xrqd2pyvtLFSqjPvkyxkrJ99w75ePyn8tqQgcbWFAhHjhyRl156OekPxLdoFBDlf2tBIvICejwUu17dffvtt1UjHCIKPVS8ly9VVsUoGGIHvXw3bt8i747+JMVQk4iH33P9vW7rJskZl0Ma1KyrKp9nzJ8l//y72NgqpdGTvnI9tkSyZs2mWqjnzZ1HTT4MQ78eo14DrxWfO6/Ur15Hrr6qthradO3mDWqbYEGcix4P+lisJv32s5rP4b8Na1yfR3Y1QTOOLTo6xvV+Z6vH0IAn1BAjDhzziZo3AXPi1Lmyhus7K6v+/v73qapRjK+urFBFWjS9Q/0O0BAJcao5/sWCeLdgvvwB/w3YcXIZxIk4kTRFlPfff1/Gjx+f1FIbQ8QQUfqdOyay41d1d/jw4VKvnn3XRCKyl56JpIkoyDLARNLdu3eX2bNnM74lCocjq0UO/Se33nor5zoj8oO/E0kTUZBxImki7x04cCAp4RDl+lljDgciCgxUcsQnjYmoKk6JiIgoJGbNmpWUcGB8SxQeiIHjCsv06dPlr7/+MlYSERFRWph0oIixerUxvESuMiowJKIAypU0bMfGjRvVLREREQXfli1bku4wviUKnxzF1A3jYCIiIu8x6UARY9WqVUl3YuOTbokocLK5/l/FxMrJkydl0yb7MdaJiIgosDZv3px0h/EtUfhkzaVumHQgIiLyHpMOFDGWLFmSdCe2QNItEQUWEg8uTDoQERGFxtq1a5PuML4lCp+sudXN+vXBnTyWiIgoknAiaYoYyZPblm+VdEtEAXXp0EqJOrJKOnXqJE8++aSxNmPZsWOHrFu3TjZs2CC8/GUcFSpUkMqVK0vp0qWNNRkLJ5ImcjCHTyTN+JbIITZNVDeLFi1StxnNuXPnVAyMZf/+/cZacrpcuXKpGLhKlSqSJ08eY23GwomkiRwqBBNJM+lAEYOFMqLgyqhJh3///VeGDRsma9askePHjxtrKSPKmTOnKnTh91e3bl1jrfMx6UDkYEw6EJE3MmjSYezYsTJ16lTV4IYythIlSkjDhg2lR48ekjVrVmOt8zHpQORQTDoQeY+FMqLgyohJh1GjRsmIESOMv0TOnz8vp06dktOnT0tiYqKxlpwsKipKcuTIIXFxcZItWzZjrUjHjh2lS5cuxl/OxqQDkYMx6UBE3shgSQfMB/P+++/LvHnzjDWi4l/EwWfPnjXWkNMhuaDjYFyroFSpUtKzZ09p1KiR+tvpmHQgcigmHYi8x0IZUXBlpKQD5p14++23ZenSpepvBLpYkHSgjAsFr8KFC0vRokXV39WrV5c+ffqo3g9OxqQDkYMx6UBE3shASYcJEybIe++9pxrYYFglDC965MgRDi2awSH5gIQDhlyC9u3bS/fu3dV9J2PSgcihQpB04P94IiKKOO+8845KOJw5c0Z1J0dhiwmHjA/f4c6dO2X9+vWqtd6KFSvkrbfeMh4lIiIiytyQQB04cKBKOBw8eFBWrVolhw8fZsIhAqCXytq1a2XXrl3q76+++krGjRun7hMRORGTDkREFFE+/fRTWbJkieo6joLW0aNHjUcoUhw7dkx9t0g8rFy5MqkXAREREVEmN2jQIHW7Z88e2bJli1y8eFH9TZFj9+7dqlc3fPjhh2pycCIiJ2LSgYiIIgYmjR4+fLi6v337drbqinD4jgHDFy1cuFDdJyIiIsqMMIcDKqNPnjypeoZS5ELvlf3796v7GEqLiMiJOKcDRYxAjHlbuEBuaXtHXbm5QVUpmC+XZMsaI/gfcurMWVm2Zod8+u3fsmJ9UndGp6leqbg8fn9DqVW1pOTIHqvW4biXrt4hg8f9JZt2HFDrtKF920r96mWMvy47d/6inDh1Rhav2i7fTl8qi1duMx6hzC4jzOnQtWtX+eeff9S4oRhSiSJfiRIl1BwPNWvWlNGjRxtrnUXP6XApNkYkLquxloicIOrImYif0yEzxbcJ7z8m5UsWNP667Oy5C3Lo6ClZsGKLfPXzwlTPI0qTw+d02LZtm7Rs2VLdX7NmjUo8UGTDtevKK6+U2NhYee211+Suu+4yHnEWPafDpTyuc3h0lLGWiMLu7AWJOn2BE0kTeSO9hbI7G1eTp9vdoApmiYmX5MjxU3LwyClXASerFMqfWxXQFqzYKl3e+MZ4hrN8M6ijVChVSA4fw3GfdAUhIsUK5pUccdlk/db98tJHP6YoYOmkw96Dx+TYibNqXUxMlBTKl1tyup4T7QoIzp2/IFNnrZT3x/4hp06fU9tQ5pURkg4333yzmigPY/1j4jyKfFmyZFEJBxS45s6da6x1luSJpInIkSI56ZDZ4lskHcqWKCC79h2V02eS5nKKzRYjBeNzSVz2bBIVJXLi1FlJmLZEhn4zSz1O5BWHJx1+//136dOnjxpWFPOZUeaAhjdogNOuXTvp0aOHsdZZkieSJiJHYtKByAvpKZTdd0tt6frA9ZIrR6wsXrVNPp30d4oW/iioPdKigcTnjpMXP/zRWOssH7/UWhb9t02+mDzfWCPSsHZ5efmJ21WrtgnTFst7n88wHrmcdJj8x7/yxvBfjLVJ6lYrLQ/dXV+urVnOVTiLkl9mr5RXh0wxHqXMyulJB4xvevfdd6vJhjHMEmUe1atXl2zZssnEiROlXLlyxlrn0EmHWrVqydVXX22sJaJwQzEI8wBFatIhM8a3SDqUKprPtf0/MnzCbGNtkpvqV5aHm18jV1UsLucvXJBxPy+UoV8z8UBecnjSAXEG4g3Ew3qiYYp8efPmlYoVK6prhR5i1ml00gGJkZw5cxpriSjcMDfi33//zaQDkTf8LZShC/agXi2lZJH4iKxc7/3YLXL/rbVVgc3cis1T0kHr9tBNqjs+Woq9M3q6TJ+72niEMiOnJx1mzpwpzz33nJpkeP369cZaygwqVKgg8fHx0r9/f7ntttuMtc6hkw4dO3aULl26GGuJKNwSExOlfv36EZl0yKzxraekA6CHBBIWNzesKnv2H1M9JZw6tBQ5jMOTDs8++6zMmTNHzemA8f4pc8iaNavUqFFDcufOLX/++aex1ll00mHKlClSpEgRYy0RhVtCQoIMGDAgqEkHTiRNmd79t9VWBTJ0zR793TxjbeQ4duKMXLyYaPzlm1HfzlVd13PnzC431KtorCVypo0bN6rbU6dOqVvKPPR3rn8DRESZHeNbexgu9Oupi1TCAT09bqxfyXiEKGPTDW4YB2cu6OGN5fjx4xzCiIgch0kHyvRqVC4hiZcuydylG2Xb7kPGWu+gtVSPDk1k2oiusuCb3rIo4Xn55+te8uMnnaVD8wbGVpf17XyH2ga37e+6Wn4c0lk9b+GE5+XXkU/LE62uU9thv1+9+4gsmNBbXuh0q1pnNer19h4f1wrnzyVZYmLkzNmkcW19gYLZklXbVEvAMsULGGuJnI0d+IiIKLNLT3yLyZs/euF+mfnFsypGRew658se8ln/h9TQm1boXTDri+5y943V5fWuzeSPz7qp5yEmHj/wUbnh6qSKfafEt+jZ8N+GXa7nR0u5EqknnSbKyBgHZz78zonIqZh0oEzt6qvKSP68OVRrqeVrdhprvYNu68P6tpUH7rxajZW7dstembVog+zaf1SKFsyjxtBFwctO+VIFpUvb69WEfgtWbJGd+464jiOndGh+jRpbF5X9C//bKpdcj2PcWRTSzK6vW1HKFM8vR46dkpmu13SndLH8cmWFYmrc2hXrfXt/2rqt++TsuQuSP08OqX1FSWMtERERETlReuLbe26qIe/1vk8a1qrgih8TXfHoFhWrnnHFgohJ33q2uZorIpUokTZ31JVbGlaVnXuPqDkkTrri2cplCstzHZqqRIaT4tttuw+7nn9RihfOa6whIiIiokBi0oEytUL5c0muuFi5cPGinPaxpdRj912rCjxbdh2Ubu98Kw/1+UJ6DJgk9z4zUj75eqacOnNObrqmsrS6LXXBrGq5IvLjnyukxf9GyNP9E6Rd789k0cqtEpstizSqXUFts8BVKDt64rSULBovTa+potZpjeqUl/g8cbJh2wH5e+kmY21KKMh1ur+RSo5s2XVIZsxfZzziJ1dhEi3KiIiIiMi5/I1vUZmPBjCYWPrPBWvlnqeHS5c3JqgF97Eupyu+bNesntrWLEf2bKr3wZvDp6mYuPPrX8vLH/8k+w+fSDGMkdPi2+hoV4BLRERERAHHpAORH9Baq0blknLm3HmZNH2pLF65zXgkydjJ/8iyNTtUAezamuWNtZdt2n5APh7/l/FX0jBG85ZvVj0KCubLqQpyKGyt2rjHtY/YFD0MUNhC67ALFy6q1md2ULh759nmclujK2TvwePyyfiZPnetJyIiIqLMo2mDylKsUB7ZsfeIDJ8wR8WnGu5/+eMCFVeiR691LgQM5fTngnUydfZKY42oWHa1K5bFMEbFCiX1KGB8S0RERJQ5MOlAmdq58xflwsVEiY6K8qmlU6li+SRvruxy4PAJ+XvZZmNtSuu27HPbbRsFJXNBDrAvTIiH3g5FXIUqWL52h+o6XrNKyeQWZWgVhtZhu/cfs23dVbdaafnkxdbSoFY5WbN5j7z44WS3rcW8gaGjolyfDY535cbdxloiIiIiciJ/49uSRfJJtqxZVPyICaitMBcChgTFNpik2uy86zV37jtq/HXZ4WNJk9rG586hbsEJ8W12V7yNz+fQUU66S0RERBQMTDpQprbLVTg6cfqs5M6ZXaqUK2KsTRsKSFmzxqikgrsWVmjxBXaFPV0ASwsKXSh8oZv8NTXKqHUNapaVuNhsajgm62vff2ttefvZ5iop8vNfK6Rzv29UATE9MBRU9mxZ1di31kQJERERETmLv/Gt7o1w+oz7IZkwH1mUK7SNiU5ZjETDGTSg8YYT4tvKZYuoRjV2yRUiIiIiSj8mHShTW7VxtxrqCL0LGtQoZ6xNGwpzSDhkzRKTakxbK7Q28xcKXWgNhkJY7StKqdfCPBJHjqeeYA+T+nV94AbJljVGhk2YLf2G/ZLuJAGGkapXrYxqjebvRH1EGdGsWbPk0qVLsmbNGqlcubKxNjg6duwoBw4ckH379knbtm2NteHxyy+/yAXX//fvv//eWENERBmNv/HtvkPH1W1c9qzq1h00rDl7/oLxl+/CHd/e2ugK1ajmxKmz8u9axrdEZl26dJHjx4/LuXPn5J133jHWBs+nn36qXmvBggWSO3dSb/9waNKkiWzevFlOnDghvXv3NtYSEVF6MOlAmd7Mhevl+MmzUqtqCenywPXGWs927z+qCioF4nMmt9CyQmEGEy9v3XXQWOOfBSu2yvFTZ+SK8kXlloZVpXD+3K59Hk7RpRyFNUzqh5ZnGN8Wc0qkF8bWfaptY9XqDRP6TZi2xHiEKLLdcccdKtGwc+dOKVmypNx6663GI0RERBmDP/HtngPHVKOaKmWL2DaqQWOUUkXzyZmz52VzOnsIhCu+xQTUj7a4VvUCwfxr0+asMh4hIrjuuuvU7cmTJ6Vx48bqPhERkT+YdKBM7/sZy2XWovUqQfDgXVfLW93uURPVmeHvV566U9569h7198L/tsqazXtVC63Wt9dV48yatb2jrhqn9vjJM6labPkKhaEtOw6qwliT+pVVwevvZRuNR5NgMj9M6odWbd9OX2qs9d+9TWvK2LcelquvKiv7Dx2X4QmzObQSZRrNmjWTPHnyyF9/JU32fvvtt6vb9EAS47ffflOJjIceeshYm2TMmDFSsGBBKVy4sHzzzTfG2uDB669atUqWLVtmrLkMCZcsWbLIvffea6whIqKMyJ/4du6Sja6474RKLDzd7nrVAEXDfcS8mHdsy85DMmXW5Qmj/RHq+BbH36F5AxnSt41UKlNINmzbL598NdN4lIjg6quvlmuvvVa2bt0qq1evliuuuELatWtnPOo/T7Hn448/LtmyZZP69eurHhbBhlh79+7d8tprrxlrkvzxxx9Srlw5yZUrlwwYMMBYS0RE6cGkA5HLu2N+kz/+WavGp0WX6x8GPymTP35Svh7YUaYO6yI/fdJZ7rmpuuTJmd14hqiCCgos5UoUkI/63K+2/dB1+/3gJ6RHh6aqG/jEX5fI9LmrjWf4b+ma7WpuiIqlC9lOsIfJ/DCpH8a6xXHYLV++00GNiWuFMXT1NnjPc77sIS8+cbuUKV5A1m3ZK30/+TldE/URZSTo1t2wYUM5dOiQTJgwQRVKrrrqKmnQoIGxhX/QYwIFt3B2G9cqVaokFSpUkKxZPQ+fQUREGZuv8S3mSfhi8j9y8vQ5ual+FfnR9fin/drL0L5t1P3br7tS9h4MXGOUYMW3MTHR6lj1Nnivv436n/yv/Q1SIG9OWbBii7z00Y+cz4HI4uabb5YiRYrIP//8I3///bfkzJkzIL0dnBR7Vq9eXfLnz+8697AqjIgo2HimJXJBwanPB5Pl9WFT1diumMOgeOF41RIKQyjtO3RCfpixXPoN/8V4hqiCSrd3JsrU2SvVvA0oMF1Xp4JqAbZm8x7pP3KaGns2EP5asF4OHD6pJryzm2APhUm0EMuXJ4c6ZrsFx1cwXy7jGZcVKZAneRu8Z4zTu37bPvlo3J/S/vnPZfHKbcaWRJHvvvvuU4UizOXw008/yeLFi6V48eLSokULYwsicrKvvvpKatWqJWvXrjXWhMfBgwdVL6k33njDWEMUev7Et5N+WyovfjhZ/tuwS7JnyyK1qpZUPV+RHJgxf416LFCNUYIV30a7noSEhd6mUP7catgofAavDZ0iXd6YwIQDkY2mTZvK+fPnZfbs2TJz5kw5cuSI3HTTTUGf34yI0s9JsadT4nEKv6hLmCnTYY4ePSrr1q1TCybyoeBDN0IEE1WqVFHDimRE9erVS7pTvlXSLREF1KVDKyXqyCrp1KmTPPnkk8Za58AwRUOHDlW9E3bt2mWs9c348eNV4uGDDz6QPn36yNNPP60m0VuyZIlcf737MbGff/559ZmUKlVKDU908eJF2bNnj/Tv31/t48orrzS2vAxDLT388MPq/tixY9Ut/j516pTq+o2WZv369ZO3335bPabhXP3jjz9KmTJlkh+/7bbbpGfPnqprOnpTREVFqevnzz//LL169ZIdO3aoru1Dhgyx7W0xY8YM1boNk/k99thjMnr0aNXd3Qyvga7oNWrUkBw5cqiJttENfs6cOSq4nT9/vrGlqOPCZ4JC6+eff64m5ENPj5iYGFWAnThxojreQHWjL1asmEoOYVJuTIDoNPq36dTjixQobLVv314aNWokffv2NdaGDwpcAwcOVL2mEF+R8yQmJqrzJlq8YhJTJ2J8S+QQmyaqm0WLFqlbp8HwoHv37pUVK1aoiZl9hSE2P/vsMxWn3XPPPaouZu7cuSruQ0yHOMYOegPjmou5IHQMilgWMSCug2nFnuaYEX8PGzZMnnjiCVm+fLnccMMNqWJFxOU9evSQ//77Tz0OL7zwgrRt2zZFHL5x40Y1TBJiWvj9999VUsUK++/atat8+eWXsnLlSrUP/beG43/99dfVa2A4VMSzFy5ckO3bt8uIESPk3XffNbZMYo6nMazU//73P7VfXGvwHeE51uGd0gO9NzBE1ZQpU1T5wWn0b9OpxxcpnBR3Oi0mJ3sJCQnqPNm6deugTaDvmKQDLozvvfeeqrRARQyFT4kSJdTwIriYZ6ThN1goIwquSE86oDIfwTAKFo8++qj88ssvyevQDbtz586qstwM23777bdyyy23qJZhmzZtUoUcVIIjqEahA4U17Kd8+fKqIITHcc3bt2+fvPjii2of5qQDxpRF0qFNmzbqte+66y71mKYTIUgk6EIhCkmo1Mf7xhi8SAqgAIKEMhIP2A4B/8svvyyFChVSY9YiKbFlyxa1T1x78Z26Szq8+uqr8txzz6n94TWWLl2qPpNq1apJ3rx51bGggIjPDHQBEj1GUMg6c+aMKgTjPrrYo0A6fPhw9V4CgUkHAm8LW0iSNWnSRBWErPDYK6+8YvwlMm7cOFVossJrPfjgg+p+zZo1bV/z9OnT0r17dxVXscDlTEw6EJHXIjzpMGjQIHnmmWdUXKvnccC6bt26ydSpU6V58+ZqnRliYzSwyZcvn6pkRNyHmK906dJqImpc+9KKPa1Jh7vvvlvFo6iHQJyIBkFmSIRg7on3339fNRDSz0cSYMOGDSoRULVqVRV3Hz58WCUQEFejoh8JkrJly6p4dvPmzeoYkSB58803Vcxtl3RAwyEkY/CauK4jzkZ9FdbjPQFigg4dOqj7oONpvEfECIidEf+jNzWOC58RjhvxfCAw6UDeVvKj5wHKeUiixcXFGWuT4DGUP5HwAzQ4w2+7QIEC6m9Nv9avv/6q/sZv2e418X8V/5fY+Ma5QpF0cMTwSrjA4E1OmjRJncCjoqIlS9Y8Epu9mGSPK80lBAs+a3zm4vrs8R2gYg3fCU4URESZAXo4YO4FVOLrynPcRwul+Ph4VUlphV4GaDWF8ybOmaj4R5Kgbt26al9oxdSyZUtViMM8EShkvPXWW6oAgkTFwoULjT2lNGvWLFUwQ7dU6+ui2yySCjg/4/gAhRm08sJrYr8IOFHIQ0GqTp06ah8I9DE5IApvKJghUYDjwOIpiYSWb0899ZQq/KHiHK+BAiFeAwlqXMNRqYrXt8J8GJiQG4EmAlcU0BB4IumAgiWSMUSBgAIQKgjw/9hdwQbb4P+POalghoQDoD0OFvTiQWIBBS4zndxA5Qq2QytOVHBYYyYU5tDDCPEtu5cTEZFToQEMYsWzZ8+qa5+GuR2OHTumYkXr/Gb4G5VUaHyC2BKV6Zj/AXEorsOIP/2JPTG8Ka6ZiL2tPROQDEGsjYY706dPV+sQW+M+tsV+EYfXrl1bzUmBZAiOB/B6eBzHgGPBMeFvHB+O0x3E00g44JqPynMkgpGAQSMaNB5CvI5Y365RCT4DJCwqVqyo4mAc159//qnigzvvvNPYiij9pk2bpnrZozzqDuJXxKv4P22F/3Mor6KchtgWZUgk6JBcQPysmZMbejuUg5GARFLODL9/nCdQsU2ZV9iTDshQoxUYTv5ZsuaVvPG1JV+BRpInb03Jmaui5MhZhksIFnzW+Mzz47N3fQdZXd8FWgmgZQOGGSEiinQIntATwdraFRWJKIShIIVCmYYKcxQg0MMBlfGTJ082Hkk/VJ6uX79etQy78cYbjbVJBTxU5KPrO7qlayhQWbt2z5s3T/bv36+GzENSwF/oJYHjwPwW1sQCEjLosYDjQa+HVq1StsTFdQStJ8xd4/E5YXsUBNnqhQLFU2ELhSAUhgoWLJjcKssOKlzMLbVwTkDrLSTWdEFKJzcwbJn+/ertsJ4FLiIiymjQmAQVjLiOYhgiDQ0R0TMBPUqtleT333+/6hXw77//qsYpgRoyE9D4B7H3NddckyL2RiyOJMeyZctUz2BAYx4cv3mYTxwLtkGlKIYj9Reu32hgg4pVxLtoSGOGGBdJGvScQJnACj0n0BtDw3EhDkGsgM+UjW8oENJqeIOyLBp86R66djBpPHpA6OcjMYZ6WpwTkHDTEG+DTrLp7fD/D8MRm7HxDUFYkw4YTkJ3l4vLUVby5K0hMVlST3RLoZXF9R3kdn0XcTmSLtDIiGJ4ASKiSIXW/Gi5hN4ImDjPDC2S0CUYhRYEThoKQugibC2gBQIKJWhdhiSIOemAAh8KKRjHVl8/NQx7hQp9dKtHsgEVpShAphdacmEIEgSTdgVKtEjD54NgFa3PzBAEmwuBgHUobCEQRSs2ovTC7wm/d3eFLVQWoNIEFQMHDhywrRgAJA+s0HITz8U+AM/H/3nr/y1sZ0cXuNC7gr1HiYjIidA7ADEZGpjoXrQaGrFY41FAb1wMTYceBYFMOIBd7I3kA5IOuB5juCcz9KQdPHiwijkxjBF6H6BSFMeXHoiBMZwohm7Vla1WSG5gOCs91JIZGt9YPxvsCz0tEB+g9zBReiEp4K7hDSCORU8f/N9xV6+H36L194jGOkWLFk0eEg0wlDBiYPS61/R2dnTjGzRktjbMocwhbEkH/MfAhQFy5b5C4nKUUvfJOeJylJZceZIqkD788MNUAQgRUaTARHQoVGByOEzSjJZRekHPBwRXaMVknkwahQuMn4oAzt0wSemB40DyAK2gkBQBFPiQANDDPwEKWijwYKxadPtGwIhu56iE9WduCyskOfCautLVCoUpPI4WNCiUmmEsXUofBOhopY/PFwuGB0JySf9tHvoHwwPp9XrB9kj0aNheP4ZKcPNz9LZojYTKBL3e/Bp4HNthPY4Lvz27be32q1n3rxfz6/gCLatQ0eCusIWxaFFZYJdU8JVdAQxQCEOPIlQiWKHAhcKeXU8IIiKicEKciesUrsMYz90cA2PBmOyovEdSHz0KNMTMqDxHg51AwzUdyQxUbGKCakDyAUkI9ATG9VRDvIF5NjBZM+ZRQ2yOOANxMI4vPZB0iI2NVUkFd3UhiIEBk0tbIY6n9NGt9PUycuTI5LjYHF96E1uaY2o8F9+pjmmx6GE2zbEy9mlupW8+Hmxnt605Vsai96uZn6MX6+t4C+/JUy8HwHBI6KljF6P6ytoYB9AgB+cKxMhWuvENyqnWnhCUOYQt6YBhlSB7XHHJFpv6x0nOkC1bQYnNnpS1xETfRESRCMMTobCA1lHoJm5dkCjHMEpoqYEFMCwg1qFwE4zu0UgsoEcDKkwxTi0Keggmt27dqrqpahhrFoUstERDwQzDFmGoI4wvazdmp6/Q0gyFTXOLFjsXL15ULcsocFBouffee1WgrqFbfosWLYy/LkOhA2OqWmF763isGn4v5vkNsC3GSzZPIgeYv8CuIITjwvjE1m3Rk8C6XwxBpqFwYn6OZjd/Qlq8KWz5C/tGpQWSFXoSPdyi8GT+TFAAxf9Jd0kPFriIiMipEFNg4mfEjHYxMBZUnqNC0TzEEq7l3sSH/sI8DYgrMZ8C4mw0/EECAOt17wE0ykFPXyQXXn31VXUsGPIJc6vh+q0TAv5C5SoSDt7E+phbggILMaFOOmloxGGOizVfY0vEpogbcashdm3btm2KYYiwT3et9LGddVvMi4Bym3W/5t6uaKhiheci/vY18ZBWw5v00D0oMBqAhmQK6Lgenws+H3xP7uJwNr7J3MKSdEDrTfzniI6Jk7gcqbuhkbPkzFnB9V1lV90tf/75Z2MtEVFkQCUrei0gWMWYlHqCO/Py8MMPqwpdDKd00003qeehe/TJkydVq2dMihwMmLcBBSlMcoeKXFR44vppbm2F40PyA9uahzJCrwj03kivzZs3q4RM/fr1jTUp4fNDbwgUVjG0EwUOWufrQgvmDEArIrQsQuBuhYpttGIyt07Uk0FiH+bxWDXd1RqP4XcEKMxjvgI8X3fBRkEIrQjt4DWwLY4PsC1abOH/ExY9lBEKWzrxgUp883Ga3xMqCXwpkASzsDVo0CBV4WCdHBJJHHxGmIwP7xWtQDHxnqekh6d5H4iIiMIFlfmIIdDYxRz7mpcEY14i8xwLqIz0FB+mF5L5aAyEGBMNMPDa1mFQER+jsQ2GMdJxiIbJm5EsSA/EAEePHvUY66NCNWvWrH61Uif3EDPqHi34DSJWRcxonujczJ/YEnEutjUPOYTXwWJ+PuLMbdu2qftmiHGt8S7iaDSEsR6rnoMEMH+Y+Vh1HO4p3raD9xSshjf4PSO+Nc9hBiiLIomje3wg0YeevuY50axwfnE37wNFvrAkHXRlSfbsRV0/1LB1tiBvub6j2Ngi6i6HWCKiSIPWKBjHdsOGDWp+AjsYPgktvbJnz5481BEKZxh6CXMZPP3006nGujVDiywkBjD8EApP3kKBCz0qULl56623qop9a/IXPQywX0z2rKFAiJY25nUaWo3hOQgS0XosLb/99psaJgnbfvLJJ8baJBjK6bHHHlOT+uGzMA/7ROmDggQKSYCCjHnCNj2+sR08T3cdN7cOsw4HBNgP9ocWjroHD15Lt2JCyyYUgtxBYQyFbcAkzBr2i0IJFk9DGpkLLLrVmrXLdlrw+jh2XSESCLpbPP7/ffTRR+p9aPrzRSs1XVhEwq9bt26pus+bofCG/enPnIiIKNxw7cawLmhE464yF1DRf+TIETXckI5B0JDUXXxo5WvsCYidUVGL3g1oAY6GP6iQNceaaJiD6zBicR3HAK7TuhLYCj0SEDd70zAHr49KUnexPmJtxDn4HPB5UOCgIl43vDFXfOtW8+54G1u6i3d1BT5iNcwh4oldvIv96IYwKL+5+x2CHooU2yHhAHa9INzRZQLEl4FMeiGpgGPCZ4GGNmb4fFF2Rnys42AMuZTW8FCI0/F/VJcbKPMIa9IhJianuiXnw+TSwKQDEUUSdJVGkIiCEIYn8gSV7yiU4Tk68dCnTx/Vuh8TKE+ZMkUFjN99950qoKAnxGuvvaa2Q9ICrbAQHD7//POqEIOCk7mi1g7OuXgukiII6OwmkJ41a5YK+B5//HH1+tg3gj4EzHYVzTheJC8wLq5uqfLDDz8Yj6b2zTffqBb0gIpvJEHwWeB5OB70/MA+8VlQ+OiKcnMhK5B8KQTZQYtItAQD/O6sSRF/BbrAhX2gMIV5XHBOsLYcw/9v/L8y935AYRMtvDwdAwtbRETkNGjQgrkZELOihbY7EydOVJXAqHzX12538SEW9FDAnE+ar7GnhqQ+4pvq1aurBIN1AmkcM+Yvw34Rh6OSGrEwhoXG9RhDI1lhPWIQ9GJG4w40KkKvXXfsYn00AMLcEhgyHEkRDDWDz4PCJ5CxpRW+cx3D+gs95tFwxdw4yDwUqb8C3fgGiRAMGYUkpLX3Av4v4nFr7wcM6evpGPB/jg1vMq+wJB1wwYIsWZMqssn5Yoykg7vCNBFRRoTCFlrroyD0zz//GGvtoWCDQhl6D2DCZli1apW6j265aDmFQhG6gGNyZ0zmjMc1BJZINKBXAFpKoXJYj0nrCQo26NqNnhJ2PQleeOEFGT16tNoXXh/d5BEUvvjiiyqwtcI+BgwYoOZqQNdzdIu3K5SZvfTSS6qFF5IMGNMXXczRpR37x2vfddddKd4rhZ55KCbdXVx313YS/DZ1d3m0/kIhDsdqHRbBF4EqcKESRLfscjfhHpIvSEjg/68ZnofhF+wKpSxsERGRE6ElN4YGQgyXVuNCJOLRSAfxn+6tYBcf6h7ES5cuVduAP7En4HmIndEzAT2SdfygYbgWDNuCSuE8efKouB4JiG+//VYlP+y8+eab6jEkC9DwCA0H7OJlzS7Wx98oP6CREVrdexpahoIvGLFlsOA3oxsH4fhwnDheTz0iPAlU4xudDMF+UH6w66mM40QjIsTBZjgGnEt0YsUK8Tkb3mReIU86IBONrk3R0bESFZXVWEtOFx2dTS2o1EKwQEQUCdAdPFeuXKrAgVZcnqAwhm7lGL8WBSwNLbsQ7GEfmFAPLVcwDBMqe82VoH/99ZcqpKHghO2QmEAvBvRMQMEFC+5boWcDuoAjoHv77beNtZfhvIwCD7bBfrF/FIhQOMKE0iiEWQtpaJmFYZ6wPQqbuhswekvg+HFrheQCJqzGe8M2eC72gQn88BmYIcGCwpzd+Lf6/dodF12G7xtjpAKSCUgqgG5lZKV7Ipi7i6OgjoK4k+gCC+j/N3hPqPD3ly5wWSfq8wUKSfg9ogDoqfIAPY7suumjgIb3hUoXKxa2iIjIiVCxiJiuefPmxhr3evbsqWJGzIOG+FWziw9xbX/00UeNLZK4iz09xYyAhi3YL66hdo11Jk+erIZ2wT6xHRIeHTp0UNdyu/0iiYBYCY/hWBBrff/99+oxd3GzXayP2APJE7tY1lM8je3xGu7ifkqCeEo3nMFnhlgR0OPU2qM3GLFlsOhe6OZhmBBD6oZD/tCNb9xNeO0NJEOQxPM0Rxm+EzSwsfakx2ui1xD+L+H/hRkb3lDUJaTWQghJh3vuuUdiYrJL3nzejedHznDk0AJJTDyruhViTEWn0bPqX4q/Ut0SUYCd3idRZw+oSmZPY2mGy5gxY1T3ZvRGwLWGMg8UYosXLy4dO3ZMNemvE+jfpq/Hh0Ad4xh7ShwguYTxVtGtHN2h3bHbDl2nUeGAwgJaCqIQh4I4tkGBzfz6ujIehTjsB4UjnAdQwEEhAgU73aVdvxYgQYIKBRSuUJBBgUU/34759X2h3wPoY7Kjjx/vxdyKC+8VYzMPHjzYbWEL9PPxXJ2c0OvQ8sv62vozHDJkiG2rMQqvxMREVWmESiTMS+NEjG+JnCHqSFKPTiT0nQit79E4EEMBedOLgCIHGhth0myn1tPo36avx6djSHd0zAjexJbopeptvAt43BozexvvIpa0i5lRue9pCKi0Gr+4o49LH6c7eE9IEFjjVd2gKa3XxvMHDhyYIjmhPye718Z+0QPCU2xO4ZOQkKB6oSEB1rt3b2NtYHEWZ4o4CAi5cOES+EXO7Df+lxFRKCCYR1CvW3oBCi124y6jUIOCiobtMLSB+blOgMIdJp8zHxcKKeZj9wcKMmhFhYIkCnT+QIEYwyShdaJ1QYEKcPxoEYkClH4MiRS8tt2QTAjm2cuBAsHuusyFC5fQLUQUWqgAt8aHiIGtjd+CFVsGAyrlkazQkPxA0gO36YE4E58LeoX429sBSRNz7KsX9KBGAgVQ3kBDGnO8jNdEbxNrwgHvi70ciD0dyGsZpacDWmGnB06c3grFfx8cTzBfx2nvl5xr8eLFqjKPPR3IaSK1p4M7di2vyPveDqHCXg7Ol5F6OjzxxBPq1hqLmeM4uzhNP+7rY+ApBg30Y6F8LcBj4O5YwNNjYH3c02OU8Y0aNUrdsqcDOU2k9nSwY9d7gBXaSbzt7RAq7OXgfKHo6cCkA3ktoyQdnBoIEmV0aEGMAheTDuQ0kZp0QMEKz8M4yjpYN3frNncNpyT68zF3eQ8HpyVAyF5GSjowviUKL6f/X2TSIfOK1KQDYlwMXakr0M3DgUK4Yz2n0Z8P5lwId/nAaQkQsheKpAOHVyIiIiJyKATtGIMWLWix6IQDupCjKzkTDimhYIP2NOEuhCLJgOGW7IZcIiIiIqK0Ie7VMTDiYZ1wwNBJTDikpGPPadOmhb18oONxJhyISQciIiKiDAQFrWXLlnmc8JiIiIiIKJKg0c2aNWv8mmyZiEIvoEkHdOMJppub1pPJ378j06d9kGL59Zf31frhQ3tJm9ZNJS4u1ngGRYJg/66IyNmOHDnC8wA5UrB/m2ilhNZKaClkXljQIsr4kDgkIkoLY2ByqmD/NtGTwRoDs9ENUcYS0KQDCt8tWrSQv/76y1gTHGfPnZetW/fIps271HLw4FGJjomW8uWLS8dHm8nQT56ThtdeZWxNGV18fLz6XX3xxRfGGiLKTHAO+Pzzz+XRRx9lwYschb9NIvIXxqmuVasW41si8ohlYXIq/jaJKC0BTTogcMZJ56abblJLsJIPx4+fkiHDvpPOTw1US7sHX5fWbfrK6DE/y6FDx6REiULydNf75OqrrzCekfm89MLD8s3X/eShB2831mRcuJi99tpr0q1bNylXrhwvakSZEM4Bhw8fVucAVvCSk/C3SUT+0EnLRx55hPEtEbnFsjA5FX+bRJSWgM/pgMAZJx0kHIKdfDA7ffqsTEiYIf3e+Ey2btsjBQrklbubZd5JS8qWKyZ5cueQ6OgoY03GhoQWCmaozGHhjChzwjkA43jilhW85CT8bRKRPxDffvbZZ4xvicgjloXJqfjbJCJPgjKR9Icffig33HCDuh/q5MPqNVtlxoxFcu78BalSpXSm7u0QadCL5tVXX1X3eVEjynx0q9C8efOqv1nBS07B3yYR+QvxbIcOHdR9xrdE5A7LwuRU/G0SkTtRrpPDJeN+QJ05c0aGDx8uR48eNdYkKV++vOTLl09iYrJL3nxXG2u9g4mk//f0/XLy1BkZMPArWbZsvfFISiVLFJI333hCChTMK19+OU0SJv4htWpVkt692qvHhwyZJK1aNZGqVUqr4ZjeeudL+e+/TeoxTETd7M5rpVAhHGO0JCYmypEjJ+Svv5bKF1/+onpUaD26t5Hbb2sg036dL6tWbZXWrZtI8WIFJDo6Wm3374qN8umnP6meF2aY6LrDQ3fIjTfWlvj4XGr7ixcTZf/+wzJl6jzVY8Ns1MjnpUTxQmr9F2N/MdYm6fDwHeqYV/y3UZ7vM0zefecpqV2rsvHoZTiejz/5Vn6fschY47sjhxa4Po+zcvPNN0v27NmNtaH3zTffyNq1a42/kqDCp0KFCur+okX+v0cicm/EiBEyatQoqVSpUlgn8FqzZo1MmDDB+OuyOnXqSFRUlBw/flwtlHnkzp1bLRUrVpSqVasaa0Mvrd9mx44dpUuXLsZaIgo3xPn169dX9++66y51Gy4oN+3du9f4KwnjWyLnqFevnroN97nCXVm4cuXKcvHiRXUewS1lHkWKFJGYmBjH1tPo3+aUKVPUsRKRMyQkJMiAAQPUPGNXXRWceZEx9k5Qkg7uZMuWTapXrx7UpAOg8r1WzUryyy/z5cPBCSmSDnt2H5Rq1cqpCoADB4+qfa1du01efOFhubpeVVcB5JLs3LVfduzYLyVLFlIV/khALHW93uv9xiQnHnTSYeHC1XLFFWXk3LkLsn37PsmRI1ZKly7ieq9ZZeOmXfLWW1/Ijp371XPKlC4qPZ97wHXiLeXa/rxs27ZXHQPWFy2aX20z44/FMnDQeHUffEk6PPtMa6nqOpaiRfKr5MbuPQflzJlzcvbseRk/frr8s2CV8Uzf6aTDihUrXMd+zljrHHXr1lW3LJQRBYdOOuzatUt2795trHWOYsWKSfHixY2/KDPC7xK/T6fRv00mHYicRScdLl26JEuWLDHWOgvjWyJn0EmHxYsXq1unQR0L6loo83JqPY3+bTLpQOQsOumwf/9+2bZtm7E2sILa0wEVVEeOHDHWJEE3q/z584ck6YAW/+iF8P4HE5KTDjniYuX8hYsyc+ZSNfG0TiA81vEuua/ljXL06An5dPTPMuOPy4F90yb15PHH7pK8eXPJpO/+Us8DnXS44NrfrFnL5KOPJybvr+G1V6nJrOPjc6d4zgt9HpIbb6itkhPoebD83w1qPbRu1UQeaHuLmofh09E/yU8/z1XrfUk6aJ6e4y8n93TAkBZo4QoslBEFh9N7OtSuXVv1HMtz8bzEuxbKPI7FZJUjrsWpPR30b5NJByJncXpPB8a3RM7h5J4OOFcgNkdr8hIXzkjMpaBU8aQtPa8blc65KMP1nh1gZ9Y4uej6/JxaT6N/m0w6EDlLSHo6XELTniC48cYbZebMmcZfouZ4wMz26Fp1zz33hC3pUCB/Hpk1e7n0f+vy+HLoEfDeoP9J2TJFZfKPs2XEyMnGI5c9879WatiljRt3Spen31PrdNJhx4598sqrnyb3ZtD0c1av3iLP9hgsV1QtIy++2EHy5skpYz6bIj9MnmVsedkb/TrJNfWvlHnz/5NXXxut1jkt6RDOiwV+Q6+//rrxl0iZMmXUOowbqANBFsqIgkMnHTp16iRPPvmksTa0li1bpuYIMie0MRY2zgN//PGHDB06VEqdPy1lXQtlHttdha0triWclfre/DaZdCByFp10QFJwwYIFxtrQQxxrHvua8S2R8zjh/6KnsnCzZs1U4rL+6SMSeynR2IIygwVx8XI2Ktqx9TT6t8mkA5Gz6KRD69atpXfv3sbawArKRNLPPvtscsIByYY///xTTSKNRESoxGbLqnogHDqUclxvDDW0aPEa468kmHAacyucOHE6Rc8Ds7XrtqnnYrurripvrE2yd+/hVAkH2Lp1jxrWKGeuOPV3iRKFJE/uHGoeiUWLVqt1Vkhq4LiLFi1grCHthx9+SL6Q4SL22WefJU9UROn3xhtvyO233y4HDx401pDTnT59Wjp37qwW3I90qMzFxLy6UhcVups3b1aT9iI7TxQu/G2m7auvvpJatWqlagEXarjG4VqHax6RE+A8oRMOjG8Di//fI9vcuXPVcMm4zQxYFian4m8zbU6pa3FKPE6ZR8CTDgicP/roo7AlGwC9GgoXya+GOtq0KeXYzkgCYAgls4IF8krOHNnlwsWLKrFg5+IFYzImV2CTJUtM0n3D/gOHjXspnTx5Wo0RqyHpkDVrFjl/4YJtkgL09hhiiS5DC1JU6AT6IqYrbRGwZsQKdx1sY8EFxF+46EyaNEkeeughKVCACa+MIi4uTn1n6IHg1LGoAwn/53EuYIUuOU2wfpuBOseHG66tX375pdx3331hHZoNcI3DeRPXPBa4KNwY39oL1Llv2rRpsmfPHtWCjyJPnTp1VM9bXF8ivfFNsM4VROnF61janFTXgs+yaNGiqoU7USgENOmAEw6ynOFKNmjXNaoh+fPllr37DstCS48Cu8TCocPHVYIiS0yMZM/uefIlJB9On0qat0GLyx5r3EtJJxkwMTXs2XtIzp+/IFmzZJGSrsc8OX/ugnHPs9jYbOpEHMnQchRd8z744AMGWEGCiw4uPrgImZkLfXoJRGuiYO1Xw4UdGXy9b0+Big5oAh3M4BjQRc2uEIQCtPm9u2uBZ30fdgXvRo0aSb9+/SK+wIVzQHx8PJMN5Dj8babN24o/nAvdXQvwmPm86a4i0nx+ddeSq2XLltKgQQMWuCisEN8ipmUFYnB4SnZazyeBigGDtV8zT/Glt/Ev1uExvZ27ODQ9QnE+R+Ob7t27y/z58yO68Q3LwuRU/G16J8FNXYsZzuk4t9vFrdZztrv41ptzO5Ieffv2ZeMbCpmAJh1Q6EbSIVzJBrirWUNpclNdNVn0rFlLXf95UyYI7GDOhePHT0muXHFS7cpyxtqUrnStR0Ji//4jaqglM/SqwLwQVhUrllS9IrZt3aP+3rv3kJqPIl++3FK7dmW1zgrPiYmJlu079hlrRA3HhHX54nMbay4rVaqweiyS4WKG3xUvYsGBi427zPuqVavkwIEDqgcOlnHjxsl1112X7gRBsPYL2Acmkh0yZEjy/lHh5a5VAQop6CkQSCgk4RiOHTtmrLkMj82ePVtOnTqljg0Tz+LztwYF+F7atGkjvXr1Utvh80Lh2S54QEVeJBe4dMUMK3TJaTLybxPnIneFlkBCASitXg66kPTKK68Ya1LS5z19Tp8zZ448+OCDqSqq8PfAgQPVeRXb4TqAc7H12qJ7ibHAReGECho02GJ8Gxzukp0436DyR59PEI/h/N2+fXv1mL+CtV8zT/ElzmXPPPOMTJgwwePr4z7WodGK3m7nzp0BG6oT+w/l+RzXFVxfIrnxDcvC5FQZ9bepz1N25epA81TXomGba6+9VqZPn26suUyfs5Eo0OdNnPNQT2COYX05t6OXGBvfUKgEtLY6nAXuMqWLqomin3yyheTIESuzZi2TbybMMB71DIkJzOWAIY0wWXXTJkmTRGkNr71KGlxzpZw7f0EWLFxlrL2sQvkS0r7drcZfSdq2aSo1qldQ80QsNSa8xsTXG9bvUMmL5vc0lpo1Kqr1Wovm16ukB54zb95/xlqRfXuThm+qWbOiep8aEizukiToKYFkRO7cOYw1GVdGq8jJaHCxcZd5x4TB5osjWoeiGzMmRU2PYO0XF96uXbuqAgwuuGnBBRiFlEBBQQitClB4cqdatWqqNQgqvQCFJSQW8FwECxq+FwQD+GwAn5e7VgmRXuBCQpvnAXKijPrbRCHL03kqkDz1csD5CoWhggULyq+//mqsTa1Jkybq/KfpHl5I4OpzHs6fOAfifKqTG556grHAReGGpB8Fhz4f2CU7EU8hDtV0a3mcp1DB7a9g7Re8iS9z5swpo0ePTn6/7l4f52To0qWLutXbpbfxSjjP55He+IYxMDlVRvxtohzdtGlTj+epQEKc6a6uBec6rEdCdfny5cba1AYPHpyibgPnb+zTPKm9L+d2PMbGNxQqGbKJPCrSuz7VUoYP6yUjh/eWiQlvqvtIGCReTJQfJs+WgYPGG1t7Z/SYn2XZ8g2SP38eea5HWxk96gV5o18nGTXyeXn5pUckX748MmumfSJj375D0vLeG+TzMS/J2/07y5hPX5AOD98p2bJlVcmDqb/MM7ZMep3NW3ZL6dJF5M03OqnjxuvguZ2fbC5Zs2WRn36eI3/NXGo8Q2TWnOWuE9JRNVzT++/9Twa+21WGfNxDJVj27DmoJp620j0lbrn5avWcEa7PqclNddQ6Ig0XOhRkvB1fEBeoEiVKGH8FTqD2iwsvKpFQmeQNfQEOVE8HtFpE8gQtC9B7ww4qGfB+zRCwoVCI3gyAwhRaJuAzMW+LglyRIkWMv1LSBa7vvvvOWENEFF44l6EiyV0vB5wrcd5Eohjnv9tuu814JCVzQUsrX768ei72AXg+zqPWAjC2s6MLXGiNa205S0QZGyrZcT6wS3baQXyFCpxAC9R+vYkvS5YsqRYz/fp4vrZp0yZ1nsyR43LDtEAcZzjP57i+4DqDhDrKNkRETpBWXQvOdeiVgGsWFrtyPp5XuXLKUVJw/sb5Eedzzddzu258g8aQ1kQuUSBlyKRDbLasUqZMUSlfrrjrP1YxyZUzTo4dO6kq6vu8MEyGj/jB2NJ76O3wer8x8v33s9S+SpQoKNfUv1JKligsO3ful9FjfpKB79knMv5buUl+/GmOSobUqVNZihcv6DqBHJHPv5ia6jlbt+2Rl/uOkhl/LJJz5y5IOdfx43UKFoyX9Rt2yEcfJbie94uxdZKFC1e7Xn+K7Nixz3USya56PJQsWVjmzvnXtucFjB//myxZsk7NKYHeEHlcx4ZJtMk7CFr1WHjmLmk6G60fw2KurDA/jueNHDky+f6hQ4fULf7GNuvWrUuxL/PraMg8o5JabxPooTB0RhzH4Q1dGW4N+nULLGvFjbv1VoHYL/aByq3GjRunqtS3g+8K3zOCALQOs4PH8dlYCzDu1qNL4/Dhw716fU/wfCQc8JmYfxMITPC+EUBY6QIXWoBZj4uIIgOGm8A5QC9251ZP1w39mB72Aq2q0LpKb2O+hpkXnPP8gcQukqHuKv5QkMJ1yK4Syld2lWuAQpg1gatlpklIicBdfOvpvAE67sKC2FbHszgnmc8bWI8ho8z7sjt/pPV66YH35K6Xgzu64scaX9nFm+BuvVWg9huo+BKsFfxgd5z4HPF9mn8n4G59uM/nuM4gUaHLNkQUWawxqvUcpJmvc1jM1yDcN/cqQDxs3sYaZ2NJz/UprboWXKPQ48Lba5Un3p7bNZxHUQ+CxpeR2kuMnCFDJR1+n7FImt/bR269vXuK5Y5mz0mbB16Rt94eK6vXbDW2TglDG7Vr/5pacN8OEg/DR/4gbdu9Krff+Vzyvjs9+a58O+kvYyt7SHTc1+olue2OHuq5D3V4QyYk2A/vhITEuwO+St4er3PXPb3kf898oN6jHSQpOj7+tjoebI/P4Z0B41SC4s67esrzfYYZWyZBcuOFl4arx/AaD7je99y/VxiPkicI9HWFDCoj9FA4WI8TtrUrHuYisI5DCjiB4/l29MXFvC9sb26ljn1au9rpCiJrYcQfuHCjUOZtLwcYNGiQutVD/mgoYKBlk3leBtzib2+GOgrEfnULK2T4zcGGu0Bh6NCh6vmejg3dv/E4Cnu6Ih/7xjHg+/H2c0sLhpVCS4PSpUsba1L3XMDr47U9fV8scBFFLgyrYR1aw3xuhPReN1A4wTnECtdEXSDzFgqCvlb8eQv7RpIZ52d9PsQtzo8YA1yf8/Ge0XXcXdKDBS7KTPD/wS6+9fW8gee66yGK9bVr106xL7xmIM9TaUkr2WmF+Kpbt27y8MMPpzpX4Rzjb3wbrP36Qvf4qFfv8tDBuvILcTDgfIrfAl7bfJz4bWA9YIgObIcF90H/ftIrUOdzHDsb3xBFJnd1J/rcBPh/j/Obvs5p+NtdgsLK3HNAw/XJOn+CN3A8vta1eGvbtm3qOofh6jRvz+1mbHxDoRDZMxAT+QgXB12xgm7B/fv3VwG1eT3GE0XGGIvu4uwuwMXj2M6udZJ+DIULTY9niosaAm3Q22HBa0MgLgxpZd4Br4GLtK7ARwbdXUsrcwEKn5WnglMw9qsry/A4LsD6M0MBxBoooOCCRY956Ik58YBjxvMCmXDAvlCIQtBkfv8IDjAZIH4H+IyQ8ELQguNwB8/B+LcscBFFHlyTdIsl83VDXw+8uW4gsYlWyHpdzZo1VaUU1uH8gQX39XPNz8e5z5fziq8Vf75AohpJZus5HOdHnANReYnzJub4wXnUXWELcH7HewzEdZXIqdzFt/7Em/q8ge3sYhKcn/AY9qfpObuCHd/iudhHWslOHIfuaYGxvT/66CO38ZW3cSgEa7/+wLHgHGieFwEQvyL2xDkdx4mhONB7wDzPgobfiE48dOzYUS0QqIQDBPJ8rvfBxjdEkUdfM9DQUDfsNDcaQWU7khLmeBnXKlyz9HY4z+l1gGsPttPnP9zq65L5+Ug8mOdP8IY3dS3+wPUcCW1c58zXC1/O7RrO4+7mfSAKFCYdiEymTJmSnEHHCVpXLOOCo9cjW44TORbd6hSV3bi4meGC5+4iY35MZ5hBd4nDRU23AMNr6NfTmXtr1zl/6Nf3FJjjQoRkgL7wAo4DFzQ7ugCF4/RUcArWfgHBg/lxFEDQRTvBmCxUF8LM329asC32ic8dxxiIhAMKxkhi4PsdMmRIqkIUXgcBxYwZM5I/J7S+wPfmruIP61HYDkaLCiIKL/P/62BfN8wVZ/r5dtc5T/RYsfrcGwg4x+EciEQtKvPM5zl9TsV5Up8zcf7EeVRXttrBe8X+8PkGqhKNyGncxbf+nDc8VejjvIT/+4D/q4h3QQ8XGez4Fv+H8X8Z/6fxf9sdHL9OsM6bN09VonsaQsPbODRY+/UVYkhU1uO7siY9UCGlEyL6XInGP+6OE58p3kfevHnVEqiEQzDO58Gq5COi8DLXnejzvIbrBs4nOLcBrnVorIdri7lXHbbzFs4z1ufb9YLwRB9vIJOgeI94bxjZoWfPnsbaJL6e2zXE6YjX9bWbKNDClnTAfwLKaCL7O8MFqkePHuo+Lmy4yHgLFyNrZYx1Ip9A8rXyxw6Ce1ywUUntrhLbCgUXtDJw9xxc7NBSCxX/uNUX/7QEcr/mboaA94lCHAq8mFcDhSVry4C0IPDAa+I7xbF6+3m5g+ffe++9KvjB92g9FgQGaAloTYyk1YKLhS0icseb6wbOc9ZClr+8rfzzFvaBwhTOw6jMs1Z6Yig6nFPNrWVx/sR51NMxJLCwRREuPfGt3XkDlRjBEoj41teEp65U9/QcX+JQLVj7TQtiViR0kMTA+c8M8Scet/Z+wPCm7o4TCQC0hD169KhazMOZ+CsY53O8Nza8ISJ30koa6GSnORGeHjgP+VrX4gmSybhOoM7EOkKEP+d2wLkU51Qcp3l/RIEU8qRD8eLFVUVsYuJZuXSJExtnFImJ59SSO3du21n1IwEKYj/8kDQJOQpoejw8K3N3cPMSqNZJVig0WF9LD4WRXv5k4FFAsCsU6oKTLuTg1pcCVHr3i6y/3aRzGroXrl69WnWvRCCBgEIvKJzpVhG4YJvphAMu9LjA43tOT+LBXND6/vvvbQtG+jPA8ZhhW7y+XdDEwhZR5oGWwPpch3OJNcHtz3UDhS2cQ8A8fAquef4KVG8HnINRUYqEsbuh+HBetPss8DxcG+wqMlnYoszA2/jWn/NGegTr9fB/Gf+nfUl44jmIE3WPDDNv41A7wdqvHV1hhveN87dduQTnQcTaOFea4TgbN26c6jhxH0kGGDNmjFogPYmHYJ3P2fCGKPMwl/et5zP0uEOcbL2+4DzrCYYXQj0BIBGM5+Bcg2uovwLV28GcTLb2XgNfz+0a4nPE6Wx4Q8EUlp4OuoXNhfMn1G1G9f4HE9SkzriNdBcvJH1XwSp4OAWCfVxkABXTOvDHb1ZfcNAC3VyIwf3JkycbfwUGJnzTYw3iImOu4MYx+VsgsdIZeOt78gQXeQT85gpxHI8uOOlCDm59KUCld7+6Ql7Pi6Hhs8N2aJmHx60BCBZUquH7xQXbHJCYEw66Ih+PYz/+Jh70xd1T93T9GVgLVeb3YsXCFlFkM7eUwv93VB4CKrRwLvHnumHupWdOZOjhU3AuxTnVXzguXGPM11Nf4Rjw3nFt9lRgxHkRx28dmgWVbyiIWZO4oM/HLGxRpHMX34Yq3tRC9Xo64YlYy5vKcWyDShl9PtVwPOmJb4O1Xzt6Hh1P8x7gPGjXQEef683HiXU64aBjViy4D/4kHrB9MM7n+B2x4Q1R5ELMq8u6+v874HqC84GuBwAkDtBbSsN5Z+TIkbbnK3NlvD4vYp96PjLzENv+8KeuxQrPQzLZfL2w8uXcrun94visjxEFUliSDpUrV1a3Fy+eVLfkfBeMpIP+7iIZLjK6QISx/3FC1hcMQCUNkhC6lTzunzgR2AQaCguo9AHdAl+/HgojgYRKalykUPlihvetCxYaCkHIsqOgYA7qcQFE5b31Qmi3Plj7BXTDxsXWHGjoFn3+VMbjeBDgmI8J3K1PC4IkvNe0Lu76+7cWyPFeUNhCod2MhS2iyGe+FuB8CUiW6uEnfLlumBOXeAzjve7YsSO5hZTuDYZWprrVl79Q+YdWZzhH2RX40rJt2zbZvHlzmhNS63O8uRU3zo04j6LyEZNom7GwRZmNXXwbyngTQvV6+D+N/9t68lAzNCSxVuq7m8zYlzg0WPv1FibrxmeLz9gdxIj4XKwVYIib8VmZhyjFZ4ieCNbeCO7WeyNY53M2vCGKfIh9ca3AdQPXDzAPJ2S+xultsSCWNV8H8HzUfQDOe3gc5xYdA5vregJxXXJX1+ItzIWUVgMZX87tGo6HDW8oFMKadDhzZo8rsEpU98nBXN/RubP71N3MkHTAhQsXMMBFB5OWIdBFy3Zku/XFTEOlTzCCXFRsI6NtZZ6kLxD0RcraDR0BPf7WF2wsKKS667LtrWDtF/BeUOhD5ZbeN1owuBvGKFwQwJjfv14Q8Gj4/vG9mAvkeC92Y9+ysJV+T40ZJx+s2pRqeXfJSnn260lS9brrjS39o/ff5o13jDX2nv/pV3ln4Qqpd8+9xprU8Bi2ee3Pv6XSNdcaaynSodCgJ48GXHvMvbDA2+sGrme61bOWPXt26d+/f3KvPkAvsPQMrwSeKv+8tXfv3hTJfvOCzwDwOeBcj/OkfgznT7y2XeUYC1uU2biLb0MVb2qhej3sC/u0JjzRcANxp/k8EohYMVj79YV1+FC9ID7Edw04/w8ZMiTFORWfEXq9pTcO90agz+d4X2x4kz46rrTGwO+tWC+vz5wvLZ5/WWJz5jS29g/i20HL18od/0vqPWMHj2EbxMyeeBtTU+RAbKqHCdQQn5qHGsI1DuVkc6ys4fygzxs4T2CyZWudDs5/5pgXr4k6C3Nc7A+8Hl7fWtfiC50cMZ8vsZgnifbl3I7nsOENhUrUJTSnCIMnnnhCFT5jsxeTnLkqGmvJiU6eWC9nz+xRwTu6pjmVbv2NbDD5RidVcEFCYZAyDv3dIWgwB17BgIBn1KhR0qlTJ9uALtww1jBaxZU6f1rKuhZfoABTuUFDObJnt5w6elStyxobK/mKFZcsrtvjB/bLxH6vyIrf/etiq/c/f1KCTOjbx1ibGgpl+YoWl2/feEUW/fi9sTYlFA7v79tPzpw4Ll/1eU7W/zPPeCTz2p41Tra4lo4dO6ZqUeoE+rfp1OMLNlT4WYfpCCcUttq0aaMKZ6GoZCPnSkxMlPr160t0dLQsWLDAWOssjG/9h54HaOjhaVgKyth0YyNrEj4YnP5/sVmzZiqpU//0EYn1oWGnjiujY2Lk4I7tknjxolqfp1AhyZkvv1xynSf/dcW/X3R/Wq33B+LbQqXLyoxPh8svH6fs8a4h6dD08c6ycfFCGdYxqUenHW9j6sxkQVy8nI2KlilTpjhy/k3923Tq8QWb0+pa0NARSV0nxOQUXgkJCTJgwADVU6h3797G2sAKS08H6NGjh7o9e2a3nDubejIocoZz5w6ohAP07NlT3VLk0Rn49Iy7TeGhu56zl0NgrJk7Wwbee6da3rqzqXzySDvZvW6t5C5YSG7s0NHYioh8gQINrjFIXJqHvwsHJEBQyGIvB6LIp3s7oIJFt/SnyIEEMoYTwfWFvRzS79TRI/Jd/9eS4+C+110tf44ZKYkXLsgVjW+URg+4TwQQkXtOqmvB6+M4cDxMOFAohC3pgG4/zzzzjLp/4vhqOX1qu7pPznH61DY5cWy1uv/ss89miqGVMjNk3/0dR5bCB60l/JlfgryzdflSmTfxazl3+pTEFy0mpa+qYTxCRL7AtQXXmGD3yEoLClj+jkdORBmL/v/OOCkyYTiVZcuWhf26Esl+eu9d2b5qpWTLnl2KVqhkrCUiXzmlrkXH46zzoVAJW9IBHn74YWnXrp26f/rUFjl29F+5aExYTOGDSaOPu76L06e2qr9xgtSTVhIRZTanjx+XS4mXJCZLlnSPaUtERERElFGcP3tGoqKj1XCjREREvghr0gEwzBK6uZcsWVIunD8qR48slcMH58qxo8vl5IkNcurkVi4hWPBZ4zM/hM/e9R2cd30XpUqVUpPs6HGYiYgyo0JlykqWbNnk+MEDKeZPQAICk+v1m/WPvL9yo1reXvCvdBo2mq3BiIiIiChDQ6ybp2AhOX/mjOzfstlYmyS+SFFp/+770n/+0uQ4uP+8JdLu7UFspENERErYkw7QuHFjNYHFfffdJyVKlJBLlxLlwvljar6HM6e3cQnBgs8an7m4PnskgFq1aqW+E3a7IqLM7Komt0j9lq3UJHor/5xhrE0qhD08aLA0frCDZI3NLluWLZX18/+WxIsX5MobbpKHBn0ohcqWM7YmIiIiIso4EOu2evVNKVyuvOzfullWzJhuPCKqcc2jg4dJ3Wb3yKWLiSoGRiwckyWrmpj60Q+T5pwjIqLMLeoSBvRymKNHj8q6devUcuIEh1sKhVy5cqk5GzA2Zp48eYy1GUu9evXU7aJFi9QtEQUWJoEdNWqUdOrUSU3M6DRjxoxRE2uXOn9ayroWXzw1ZpxUbtBQjuzZLadc1yDIER+vWnddPH9e5k+aIN/1f12thzv+112aPt5Ztq34VxJefVH2bFyv1qMQ9tCgj6RIhYry1+efys/vD1Dr9f7nT0qQCX37qHV2nv/pV8lXtLh8+8YrsujH7421KaEwd3/ffnLmxHH5qs9zKXpfZFbbs8bJFtfSsWNH6dKli7HWOfRv06nHR5RZJSYmSv369SU6OloWLFhgrHUWxrdEzuD0/4vNmjWTvXv3Sv3TRyT2UqKxNm06royOiZGDO7ZL4sWLEp0lRvIVKyHZ4uJk78YNMunNV2XDgvnGM0TavTVQ6t7dQlb++bt89UJPOXvypFqPCadb93tL4nLnkZ/ee0fmfj1OrUd8W6h0WZnx6XD55eMP1DorHVtvXLxQhnV0P7SztzF1ZrIgLl7ORkXLlClTpEiRIsZa59C/TaceH1FmhYbmAwYMkNatW0vv3r2NtYHlyKQDkT9YKCMKrsyQdLA6sG2rKmitmTPLWJPkuW9/lPwlS6nHlvz8o7E2SfNeL8r1Dz+qWn0N79RBrWPSIbiYdCAifzDpQETeivSkg3VIpIsXLsiC7yZKwmsvJa0wlL6qhnT44BOJioqSL557RrYuX2o8kuTh9wZLrdubyfyJ3yQ/l0mH4GLSgYj8EYqkgyOGVyIiInICFGC6X1lexjzzlOxcs0oKlCotdz/XJ8UcDZWuuVZyFygoOfLklYcGfCgfrNqUYrnx0cdVa7Eo10JERERE5HRH9+6RoY+2l9dvaihzxn8pF86elaubt5Rmz/Y0tkhSuHwFyRmfT/IVLyHPfj0pVRxc+467VEKCcTARETHpQEREZLHi919lXK/uqkt50YqVVCJBy1ukqGTPlVtNqrdnw3rZtXaN7XJw21bjGb7Jki2bmrw6LejKvu2/f42/iIiIiIjS58jePaon7+yvxkpUdLTqCYEGNxpiVMSqZ06csI1/9YIhS/2Rp1Ah4557GPr0+IH9xl9ERORUTDoQERHZwDwNi376XhVsqje9RWrfebdaj0LO2VMn5fzZM/LrkI9k4L132i7W7ujeOHHggOolkSNvvLEmNUzoh8LeuTOnk8fQJSIiIiIKlN9HDVXJAzS2ueHhjsZakUM7d8gFV2x86ugRNbyRXQyMBTGyL/R+s2WPU0M42cEQUPGFi6h5J5D0ICIiZ2PSgYiIyA10L9+xaqVKAjS4v41ad2jXTjl3+rSr4JNLSla7Sq0LlH1bNqnbCvXqS6Gy5dR9MxS2Kl7dQKKzZJGda1Yba4mIiIiIAgcNWzC/2Pkzp6V8vavl2lZt1foThw+pdTnz5ZdS1e2TA/7Ys3GDnDpyWPIWLiLVbmpqrE3pmntbSXyxYirhsZ29fYmIHI9JByIiIjdQ4Fo4eZKcPn5MytWqI007dZb9WzbL5iWL1MSjde9uIVc1ucXYOgn+7jzqixRd0b21Zu4cOekqcBWpUFHu7tFb4osUNR5JSjjc+8IrUtpVwDvpKvCt/OsP4xEiIiIiosCaNe5z2bJ8mcTlziPXtnpAxaIr/5whu9atldgcOaRRm/ZSpmZtY+skjdq2V3GwrzAh9dZ/l6mGNdfc11oauBYzxNeNH+wgWbPHyeali2X9P/OMR4iIyKmYdCDKwL766iupVauWrF271lgTHgcPHpTbb79d3njjDWMNUeSYN/Eb2bRooWSJjZW6zZqrHgh/jB4pu9evU0mBDu8Nll7fT5VOw0bLCz//Jo988IkUqVhJLl64YOzhsqqNGqttrUvr1/qrxzGXxPxvJ0ii67nVb75NXvhlhrw4dYY8/9Ov8tqf86T+vferLuV/J3yttiWizAPXelzzce0PJ17zKdicEt/OnTtXTYiLW6LMCnEpehYUr1JVmnR8Qq3767NP1dwPxSpXkac+HSvdE36QJ0aMkZd//UtavvSa5ClUWG1nhuFD69zV3DYOvq1rN7XNr0MGy+51a1Vvh1au2Ljf7AXq8Vf//Fse/WioFChV2vX4GrUdEWUuiDsRfyIODSfGBr5h0oEytdOnT0vnzp3VScObE5g+wTilov/LL7+U++67T6pUqWKsDY8CBQrIQw89JJMmTQr750IUDDPHjpFj+/aqHgjXP/iImu9hVOeOsuinH+Tc2TOq0HXlDTdJfPHisnPtapnywUDZtHih8ezL4osWU4U261KgdBljC5EpHw5SE/ih0BXl+ockR9EKlSQ6S4xsX7lCzRXxy+D3kzYmCjHzdZOVzqGVkJAgRYsWVfFKOPGa73yMbwOjTp068uSTT6rjwWdKlBktnfqT6t2ApAF6+KJnw+rZf8nnz3aV1bP+EtfJQ83BUPW6G9SQSxsWzJcfB71tPPsyTEpdsFRp2zgY8TGY42v0Ms4Zn089nqdgITlx6KD8MynB9fhjajuicHDS9TIzwWeNuBPxJ+LQcGJs4BsmHYh88McfScOZLF++XBYtWqTuh8u0adNkz5490rp1yq6nVqgUcpeFxWO4aOrFXetJrNfbuLvAtmzZUho0aKAqRYgymmEdH5TuV5ZXE+LZQRfu125qKM9Vr6QSAoAWXl8930NealBbelSroJ7/fJ1q8kHrFmoMXDO9f3cLHjeb7ypUDWhxh/Suc2XyNu72TRRK27Ztk/nz56v7uLaEu7VRZuFtYQvfibtkkPlajsWb7XjNzxwiKb7FOQmJlrR+w2COg+2SM3FxcdK9e3d1zluyZImxliiyIK7sc3V1Fee6G7Jo/Iu9pMdVFeXNW29QwyABbkd27ih96l2l4lTEwi/UryHDHntI1syZpbbR3r37tuR41m4xx986vn65YV0Vd+Nx3L56QwOZ8MoL6nGicHHS9TIzQbyZVsMbJAB69+5te81nbBA+TDoQ+aBJkybqtmbNmlKvXj11Pxxw4kurFZg+sb7yyivGmpR0ZcOlS5fUMmfOHHnwwQdTJR7w98CBA2XNmjVquyFDhkjVqlVTFfRw8mXLRyKiyFa6dGlV2QyNGjUKe2ujzMKbwhau69ddd53xV0q4ls+ePVtOnTqlruW4puN6rWMBjdf8zClS4ls81r59e+nbt29yfIt9tWnTJtXvFL99/K4PHDigtsPvuWnTpqm2w3FgH2zRSERETrleZia4LqfV8AbbXHvttTJ9+nRjzWWMDcKLSQciH6CCBSefZcuWhbXLt6dWYDjpoUt9wYIF5ddf3Y/5jgsmTrwa3lu/fv1UpYQ+cerCX69evZLfr97O7gSLrmZs+UhEFLlQ2Tx8+HB1LTRfQyh40ips6Z4J7hoZQLVq1eSDDz5Q3x/gmo5rOwpWuNYDr/mZVyTFt4MHD1bvR+vSpYtK2JlbpOr/UziH6f9Tnnrv4HjYopGIiJxyvcxMcF121/AGsSvWo4EMep+4w9ggfJh0IMpgUOhCYsBdKzC0YtyyZYvquYAM7W233WY8kpL5pKuVL19ePRf7ADwfhb+yZcuqvzVsZ0e3fETFh7VVJFGoXDJuKfNING6JIhEKRJ56OWzatEklBlAIxq0ddCPXCQcN13Zc43GtB17zKZwCEd+ikqBy5crGX0ly5MihftP4f6Lp3zwSGBp+zyVKlDD+SgnHg+NCC0idpCNyKsbBmQ+/c4pUuOYixnTX8AbXc8S/6KGLpUiRIsYjlzE2CC8mHYhMdKZUj+GGFlXmln26NSEWXcC2Pkcv1iEL7LbD376eoJBJRUbV3Vi3OKmipZhdUsFXOOGiogOFPDOcnHHytVZgACfWoXCpUKGCuj0ZnUXdUuZxMjpG3erfQKTAdUZfL3D9MV+D9Fik1muL9doDaV1/dAtirLeOcWo+Bh1U633pa6T5+Xhs3bp1KV7Pei0F83vBMnny5FT7TUswPx99jQe7x7FY92V+fTwfj+u/PY0d6wleG9dTd4UtQIusQPQ64TU/cll/w9b/Y9bfLuD3it+tXq8XbGtm9/8Df2O9L0Id34KuYAB8Hjt37nSbZMNxISmHYyByoooVK6rbkzGMgzOTc1HRasmdO7dthWtGhXOyp9hSx2B2sZ+VeRu9mK9l1lhXMx+D3rfd9dL8fDxufT29nWZ3TR45cqTb7e0E8/OxxgjexANpHY91n97S11zsyw4q/tH70a6xgq8YGwQHkw5EBn2yMnfZHjFihJokxtMJEiclnGis0PJPn+xxosZYcJ66g3sDx4GCvbtWYOmBfaOFGQpzumIDt6jowPjO+gKFiyC6nbkrFOqWj/js2NWMQkm3YDhhVEBT5qETTdZWLJEEc+5g0dCF+Jlnnkl1bbG2Osd9BNHW6w/+xno8rs/bYJ0YT0+Yh7Fr3Z33zbBfu2vpd999Z/yVNF6q+b1AixYtUh2jLwL9+WBuBF2Y8uY6b4Xn43ENx4PhjXwtcKVV2EoPfLfoMo55OoDX/Mjk7v+kN/Gt3VAF+H+m/29khPhWT36vx+EGvIa1dSLOUUi4earYwHNwnL4mVIhCQf/fOR7FODgz0TFwoM+dTmJ3HUOM1bZt21SxnznWwi0qu60xJ2CdrgjXDSgAcY8+x+vrB3h7fcJ+ra9nvtbYXTdxTdav749Afz44nnvvvTf5mL2JB8zsjsdaFvAGXj+thjf+YmwQOkw6EJmMGzdOdc9CF2594k+rII0TDcb0w/P0ooc30BctVODoEzW6hevtcILyRVqtwNJj0KBB6oSK8e3MMOkOxnfGOHnIUnft2lUmTJig3rc7SFy4GwOaKFiKFSsm8fHxcj4qWs66FsoczrvOS2dc33dsbKyUK1fOWBt5MJQIgn4selgRTJaG6wiuJ7i2aDpRgOuPrhRH0kBPDmzehw6scY7X6/TcPljQugfMldNp0ddS8zHpfaKwhUps0O8J2+I56ZHez0cPT2Q+Fl2A8OY6b4UYArGE+Xhw/UYhx1vYb7AKWygk4ntAxbO5BwOv+ZHJn/gW36v5N29+rv7/7PT4Fv+HunXrpo7H2kMCvYOwDklH/Nbx+8X/C0//13SMzBaN5ESVKlVSt6fY4zdTORGdVOaJ5IY3oK9j5nhRD6ljvj6ZYy1UGONaB3Zxnq4IRxzUuHFjtQ4V5dgnIIbT1zhz5bQnOh41H5N5nwkJCcn71O/JHCv6Kz2fj10ZAcesr3XexANW+njsygLeClbDG8YGocVaGSIDTq76hGZu9QnWoQbsoCJFdzvTrRvRMhInbvP4yGj9qLPqnTp18qkiIRiTNuKki/eNyoePPvooxfHgGHGsGFpBX2RmzJihTtK6osaOrlTCZ2iuzCAKNl0xtjNLdnVLkW9nlqRzDCpJI5mueMaiA2Rz7wNz0kBDAUK3MjJPDox96GucLgiZ94trHgoU5hZeKIx5cz43X0vNLcf0Ps2VlOaJ2vCc9BS40vv54LqN6zcW3eJLX8M1T9d5K339M3/WeN9227qjn6uTH4Ggr+t4j0OGDEmRTOA1PzKlN75FYg2/eYx/rCtv9P9nJ8e3OG5UGuAYe/bsaaxNomNfDJegf+uIgdH61K7VphbMnkdE6aXP5wdjssoxJh4yhUTXuXmvUeaJ5KSD+TpWr149Fd8BKo3xu8e1TScNNFyLUMkNeL65YaU55tQV4eb96mujbqSCbb0tZ+Aai+uf3fUW1x5cmwDxMSYpBnOs6I/0fj6IT3VjE3PvX/N8B+ApHjAzH49dWcBbeh+BrMxnbBB6TDoQpZM++eJErStSrFABoltFAk7SOFnrwpm39MULhXsU8tML+8BJFCfdefPmpah8AN2dzHyRxkURFUWejgGFRhQecZEhCiUd1OzMml0OuQpdFNmOuArV213fNeB8SknQO8GXa4umW3HpRIROEJgLD5HA289HJwm8uc4HSyALXChMobs8rut4Xzo5o/GaT2YoYON3j2SCO06Nb3HsOG60tBw+fLjav9nQoUNV7KsrfAAxMJKz7pJ8WIfHdIUSkdOgN2K7du3U/U3Zcqhbimwbs8bJ6ahodf296667jLWZm47dfIX/P4hlAJXxO3bsSE4QRNJ535fPR8fL3sQDwaCTMYFqfMPYIDyYdCByAwVvDScfOzgJ4yQDyCjrbmnmbm0aCu3Wx1A4QyHfF4FqDYaLKCpQkAG3O+kCstt47yhAmuF5mGzS7oKFwiJbPFK41KhRI7nyeVO2nJKo7lGkwncMjz76qFx99dXqPvkP53bd8gvXQN3CCRWLkR5I627g1gXXXG+v88EQqAKXuZHB999/b/t98pqfOXgT3+pCNOCcgO8ev3tzgkFzWnyLXjnoyYMhHTBcmBVid1Sk2E2OjhaieC92v3W2ZKSMoEePHqqV7vHoLLIlK8/JkexATDbZY/RysLbYJt/heqB7A+A6uXXrVtWbFbEfrg2RzHydNy+oI0LPBG/jgWAIVOMbxgbhw6QDkQEtO/VJw1zYwoUGXbDs4CSsC2+6+xpOWLqrmoasqs6U4ySHSgvd7c3abS0tOAmicI+hHfQ+faWTJbhYoLDoDoJWvD9rNzgcPy7Cdp8LCots8Ujh9Pjjj6vfH1r+LMmeVw67gnKKLEdisspi13d7MjpGqlWrpsadp9TMSQRzpbW1QhHbASqidev3sWPHqspk8HYcW2+YKzlxDLgeAVoX6e7coWL+fMyTJwPuT5482evrfDDpggw+I3/pazMmEHSXHOA1PzL5E9+iYI3vHHTrPTzXGnc6Lb7VSTBUKlh78mh4HVQq2PV4Qu8utOa0fi76c9OfBZGT6Qro7VnjZH1sLrng+k1TZNnm+m5Xu75bePbZZyN+Pgd/4FxvnqfBXGmN+zrmNA8fqocmwmMff/yx6hWAGMfbOc3SgkYdOg5Gcl7Pq4RrF+LQULJ+PtYYc9SoUera5208ECx4PbyuNU73BWOD8GLSgcgE2U99QtEXIvM42FbmC4ceDxrrcBGxQlcuPI4FFR16iAZ/KnNQuMcwMuYKG19gnO7NmzenOWGfXUUHTq7IFNtdgPUJHSdeffEmCoc+ffpI7dq15XR0jPznCso3Zc0h5zi5dIaH73CL67tcEZtbTrm+2+rVq8uLL75oPEpWCIB1YhnXNFzbrNc4PG4OlPU1CZMw4zplTkoEgr5+gR6KBcek50gIJV2QAbxXvE/zdfrEiRM+XeeDRR8nrq/+FLh04TCtazOv+ZHL1/gW26F3C9g918xJ8S0qBrxJgiH+xXw15t4Y+D2jUsOuZxdbMlJGUr9+ffX/Ozo6WvbEZFMNcA5mycbevxHgRHQW+Td7Htlq9GJBshfnaLKHYXJ0zKmvZVj0Z4bHzEPpmIdYmjBhgro1JyXSC/vRcSfo66f52hlKuKbpxjc6xtUL4jvwJR4IFhwnjiHBz56QjA3CizUwRAaccH/44QfjryToKm7X/UrDhaN///7JJ2vAc7wZdgHPQebYXbbVE33BMmfIfbV3794UFSzmBS3XACdWDMOAjK9+DBcZvLbdkEy4EHhzQicKNrTYRQsNHWhijod/4uJlgWtZGZtbtmbLIVuzZOeSARYMD4DvDN8dvkM9h0PHjh3ls88+c1tpRklwjcG1xnydAnfXIFwXzNvaBdnpgesGWtvr/5uAVmVofWQ9xlCwts7WcCwoRKTnOh9I6S1wgbly2LzoSaJ5zY9M+O36Gt/it4DJE83/L/B/1JvhFPB64YxvzclM84JJ4HXSDtcNTJKO5IZ+HOc+TK5u7QHMloyUEbVp00ZVmuIcfTYqWlZlyyVzc+RXCYi12XLaxltcnLlscH1fy7Pnkblx+WSp6/ZodBYpVaqUOkd3797d+MbJDq4piF/sYjass8Y2uK9b/wOugYEeWgnXRlxPzXBtDXVcCbimoeLc7tqur3npiQcCBceA4/G38Q0wNgifqEsYnIooAugLAjKZmQFagOlAw9NwCaGCkzUCXJyU/SlokvPhYo2K/E6dOqWoMHQ6tBxBUImKxePHjxtrKSPKmTOnCgjx+6tbt66x1vnGjBmjWo8jUWKepJcu09cQ/H9Na+i/zAoNAtDaChVJ4U62Rco1PzExUbUKRovgBQsWGGudhfFteONb/L9DxQJuWbGQuWXU/4sYLnHq1KmyYcMGYw1lVCVLlpRrr71Wzd2RNWtWY63zNWvWTDV4nDJlihQpUsRYS2ZoAILeBqjcd0Kc5zSo5EdjCcScTigjREpsgAZEAwYMUL08evfubawNLCYdKGJktkIZYLgEPQO/pxZrwea0AiIFR0ZNOpht375d1q9frwpevPxlHBUqVFDj1QZqTNVQY9IhJVwn7rzzzuQClS5I6K7ansZczcz054ThnsJ5rY2kaz6TDs7klPhWJ9cwVE04j4OcIaP/Xzx37pysW7dOLfv37zfWktPlypVLxcCImfLkyWOszViYdLgM1xUkAc29VFBxbR7yifUp9vTnFO5yQiTFBkw6EPkAJ+jFixer1hxXXnmlsZaIAuXpp59W4xy+8847cvPNNxtriSgtTDqkpFtz2dGVjNZEhFW4KyMpMmSEpEO7du1UJSHjW6Lw2bp1q9x3332qEYQe652IvMOkw2Xmnr1WGJ5Qt5w3JyKszNsRpUcokg6c04Eihh5TeOXKleqWiAILlR6A+RKIiAJJjwOvEwkoSGGcWbSNsVuYcKDMQvcIYnxLFD5IOgCSDkREgYbGNIh7dSIBca5d/IvFvB2R0zHpQBFDt/5avXq1uiWiwMGQRIcOHVJdfJl0IKL0wFisLEAReadcuXLqlvEtUfjs2LFD3TLpQETpgYYEy5YtSxUHszENRSomHShiXHHFFeoWFRcLFy5U94koMH777Td1y4QDERFR6GAOD2B8SxQ+s2fPVrdMOhAREXmPSQeKGAULFlTj3mKSLIxLRkSBsXnzZjUmPXA8eiIiotC5/vrrpXHjxoxvicLks88+Uwm/W2+9VW688UZjLREREaWFSQeKKD169JDChQurSlJMVElE6ffss8+q2z59+ki9evXUfSIiIgqNV199VbJly8b4lijE5s+fL0OGDFH3u3btqm6JiIjIO0w6UMTRhbHJkyfLM888oyamJCLfTZ8+XbWw3Llzp1x11VVy//33G48QERFRqMTHx8ubb76p7iO+femll+Ts2bPqbyIKjl69esnTTz+t7r/wwgtSokQJdZ+IiIi8w6QDRZy6deuqFmHw999/y+233y4JCQmya9cutY6IPNu4caO8/fbb8uKLL8qpU6dUIevzzz83HiUiIqJQa9Kkibz88svq/q+//ioPPPCAzJw5U44cOaLWEVH6HTt2TP78809p0aKFuoU777xT7rvvPnWfiIiIvBd1CVOlE0Wgo0ePyocffig//fSTsUakXLlyqsV20aJFjTVEpK1du1ZWr14t+/fvN9aItGzZUiUfiMh/mBNl6NCh0rFjR86LQuQgiYmJUr9+fYmOjpYFCxYYa50NjWjQ68F8vJUqVZIrrrhCihQpYqwhIl8cPHhQxcBYNPx/eu6551TCj4j816xZM9m7d69MmTKF1ykiB0HjbMwX1rp1a+ndu7exNrCYdKCIN3HiRPnuu+9k/fr1xhoi8iR37txSvnx5ad++PQtaRAHApAORM2XEpIM2ePBg1RJ7+/btxhoiCoQyZcrINddco+YKzJIli7GWiPzFpAORMzHpQBRAJ06ckA0bNqgFrVmIKKUqVaqo3kAobBFR4DDpQORMGTnpoB0+fFg2bdqklkOHDhlricgXBQsWlIoVK6oYGHOoEFHgMOlA5ExMOhARERFlcEw6UEbwxhtvyNy5c+Wrr76SAgUKGGtDD8dw3XXXyZw5c6RRo0bG2uCIhKQDERGRkzHpQE6HRskY5QFxZ9++fY21oXf69Gnp3r27uv/BBx9IXFycuh8soUg6cCJpIiIiIvIKguHOnTtLVFSUqqTODDLDe8acPpMmTZKHHnoorAkHqFOnjjz55JPy5Zdfqs+eiIiIyAnQMALxYK1atVTslBngfeL94n3j/UeiadOmyZ49e1TlezghyYBYfMSIEbJkyRJjbcbGpAMREREReWXbtm0yf/58dR8Fj8wwXGFmeM9o6VS0aFG5/fbbjTWpIQGAVlB2hWx8JnguCqRpFcaRuNHb4TnWzxMFLrTywmceKQUuIiIiyvj++OMPdbt8+XJZtGiRuh/p8D7xfkG//0iCOBQNXe677z413LQ7iGsRB9s1iDEnZtzFt2DdDr2LrdDbol+/fhHT+IZJByIiIiLySunSpaVBgwbqPoLicLeKD4VIf88oAKXVywHbXHvttTJ9+nRjzWUoVKFLOrqjY9RWLCi4tWnTRj3PTA/hdODAAbUdXrNp06aptkOhD/tgbwciIiJyiiZNmqjbmjVrSr169dT9SIf3ifcL+v1HEm96OSA5ULVqVTl27Jix5jLEsM8884xMmDBBxbanTp2SsmXLqtjYnHjAdoiNe/XqpbZDLIw4164XNY4lUhrfMOlARERERF5BK/Thw4erYDmcY56GUqS/5wQPvRxQWMJ6FLR0Kzc7gwcPTjH/AuYuwT7NrQBR2EJyA5+hTm60bNlSJXRwDFaRVOAiIiKijA+xDuLBZcuWeWwVH0nwPvF+8b7NsV4kSKuXgx5O68EHHzTWpJYzZ04ZPXp08vN1j10kMtasWaPWAWJdxLyIfQGxMGJixMaR3PiGSQciIiIiokwIhS0UqNz1ctA9ElBowmI3ASSeV7lyZeOvJDly5FCtvDZt2mSsSdoXFCxYUN0CCmYlSpQw/kpJF7jQAszcUoyIiIiIKL0Q23rq5bBlyxY1zxh6L4wbN85Ym1LJkiXVYoZYF41v8HxA4mDnzp0q5kXsq2E7d5Or68Y33333nbEmY2LSgYiIiMiBdOsaPeYnFv23HjNft0TX6+266Fq3wWIeaxSBsJ4o2ToWv/kYdOWv3heeg+ean4/H1q1bl+L19HZm5veCZfLkyan264n1uDS794LH9bZ6Mb9/MO9v5MiRyfvAcdq9Z7C+ByyePj/rd4gFj1uZn6MXPE+z+z7t9uMNdCkH7M8OKv5//fVX29ZfvtLJBp18AHyWKISVL1/eWJMSClwoDOrjJCIioshnjucQo1hjSx37meMqawym2cVr5rjKHHelFVOa96VjL/Pz8bj19awxmjWOw2sg9nS3vZXdcWnW92IXM+rHzMzHbI7JsT/r+wN/9ov94HH9t933ZX5vesHr4PU0PAfP9bQfb+C1PPVyAAyRhN7O5kSBP3QjG8S8eF0NMTHeg7lBjmbu7WB+/xkNkw5EREREDoduveauvRjqBuOHYjx8VAprr7zySorCCu4jkDVvA/gb6/E4AmG0dAfrxHh6wjiM5equFZCZrqA2v96IESNStNJBgcPaTblFixapjtGTOnXqqJZHgPegg3HzpM8I1DEfAwJ8K7yWdaxVDfvFMafF3Ipfw+dnN5cBWL9D0AVCDX9fd911xl+pufs+8RxdEPQWXhcFGU9zOfhLfw/msX914cn8nvG7QCswFCjtREqBi4iIiPxjF1si3m3btm2q2PiDDz5IrtTVFdjW2AuwDo9hG29jShxDWtKK9RAfWmN3xJz69b3hS9yOSm003rDC54fjsuNNTO7PfhGr4nHN+n3hs8H8YZ5icMS61iE/cR/r8N35AsN34vv1pnzjK92Dwjzvh7XnAn4T+Kw8xeGR0PiGSQciIiIih7vttttUgI8F9wGT+qIQhOFv5syZo9aBLnDoYBZQ+EAAjG3N+9AFIQTret3s2bNVAQCLrrDHGKSowPcGuh9bj0nvEwUKjF0K+j1hW3ddlt1Bgatx48bqPgpGeG+A/emCCCq8sZ2ej0Ev+rjMzzMzf1ZITLhjnjgZC56D51oLgJp+v+iirQuX5mNAQUoXxvA4tsN+8ZzChQun+D779euX/Lr6s/O1Yj6tXg7+wjF069ZN/TatY//iM8M6JE7QsgvHjPftKemB+SGAvR2IiIgyJx1bmuNFxE9YzHEVKnWRLABU7uoKbLu4STeK8Tam9EZasV5CQkLyPvV7wvY6BveWt3E7EiV6Pga94LMAc4LFzByfu5vDwZ/96tjW/H7196VjR/3ZIFbX+33uuefUOpQhBg4cqO7rz878uogp8Rl4A9the2+TSb7AcXbt2lVNGG3eN+5jsmm8B927AQkHT2UNPAf7yciNb5h0ICIiInI43QoGiy4AmHsfmAsfGgo4KOiAOfDFPnQLKV0QMu8XLc9RKDC38EJhDIWytOAYdCW2ueWY3icq43WBwjyhMJ5jPf60oPUQPgPQY6bqhAv2hc9EQ+FCd9c29yTQzzPztQCCRAD2i9fT782uF4T+Ds0t1ADHgONDoRHwnjABnf688ZxbbrklxfeJ5AReE4tuUYeWUCjIeUt/T4GszNc9MTCfQ8+ePY21SVBYwmtiKCVdUPzoo49Uiz9PvTSClRwhIiIi5zPHlubYT8dr5qSBZo6r8HzdgAHMMaeusPclpvTEU6yHOEi3xkd8bJ5Q2LytN/AcX+J2VITrIYl0Axd3caN+D97wdb84JvP7RdyMbc0xLpII5mQHYmA8x1yGQOyr42D9uvpz8Ib+fuwmcU4P3RMDv01rMgGPIbEyY8aM5DgY5QX8Ht0lFLAeCQdfvhOnYdKBiIiIKIJYxwv1lm7FpRMROrg3F/acBC240JILUGjcsWNHcmFOB+e6ohsTG3szZBK4m1/AzJzE0IWdQMHEc6i495UuuHlLF/oC1XoKhSkkdND6zG7826FDh6pkhC5kQ1otuCKhsEVERESh4WsspHkTUzqNN3E73gNiVXPDmLQgVkuLP/v1ljdxuB1fG9+gcRS+84SEBGNN+qAREpIh6KWBhlVmupeGucEVpNWbNxIa3jDpQERERESq4KBbfqG1kG6tj9ZGTixsoVJbt2zD8W7dulUVONBSTY+himBdt5zSXbFRMNOt2fyFcWCtXfZR0NGfX7CZu5WbF3PLMG/oQkx6ezuYC1p23cSRpEEyDJPoWZMR+K5w7HYFRfZyICIiomDzJqZ0mrTidsReaLgBeB+IfxFvIYZMj2Dt1xfm4Zf0guGefOmpHKjeDrohEvaDz8IuFtcxrrVREb4nbG/XQzpSGt4w6UBEREQUgcyFEXNLch3EAh7HdqADXxg7dmzy3AvejmPrDXPrKRwDAnVAK3idHPCF7g6P53788ceqtZV5/gkdxON96oprc/dsf6FwB3htPcQVChr+vAcwF3axj5deein5s0FBaPLkySm+T7SWMheQ9Da+wneOwox1f77A8/BbQQHQXdID7w8JB7teOPg+0FrOWhBjLwciIiLyhzWuMjeuMDdIMQ9DlFZMmV7odavjYDRcQQMWQByl5yrwRVpxO4Ya0vGqHooKMZgedspfwdivOcZFIxbdywRGjRqlYkL9/YCek07D9ubneEv3djBPaO0rPSE15mtwl/TQMa61gQ3eA47brndHpDS8YdKBiIiIKAKhMKK796IAhYBXV+7qwpa1m68uqGCSahS2zEmJQDDP84ACFwpg6RmiyNwdHsE+mAuQOog3v389B0J66EIjPiN8Ptivea4If2DYIbvPBvs/ceJEcoIAzK9r3sYfKMxgSKcEP7uXI2mA7wDfrSdIzqBQhkkbNV3QRqHZmlhgLwciIiLylzmuMs8BoONA87wKkFZMmV7Yj47jAHGjjuH8bQzjKW43JzkQZ+O1fBlu1J1g7NdcZgH92WDRyRRU6CPJAea4Hou/Mbj+TsxJIF9h7g+dfHFHH7s1WYJGV+hRY+1NE0kNb5h0ICIiIopQqMy1G/YHf2O9tWU6Cirmbe0qg9MDwT1aE+lCIKDVElrJW4/RG9ifbskG2Jc5cMdQPxj+SMPrLl26NLmllL/wuZi7kePYUYHuz3vQ8F4wF4Jd93RduMP7sRseCq/rb+W8TmagUOdvbwdzksS8YHJBvU8UuDB5HgpR+nH83oYMGZJq7NtIKmwRERFR6HmKq7DOOv9UWjFlICB+RMxrhjjV36GJPMXteD/9+/dP8Thex9/X0oK1Xxy7XZkFMTBiTEC8aP38APF9Wo1f3NENosw9sH2lky/WBbG5TjLg2BHXmpMl6AE8b968VAmLSGp4E3UJg18RERERUVCMGTNGtWTp2LFj8oRhlBIqptu0aaNaaaHwZa2EpuBCgQgJDRT4nPDZY1JqFP5wG8ykQ2JiotSvX1+io6NlwYIFxloiIiIKlGbNmsnevXtlypQpUqRIEWMtmaEFPCqukejwNEwPBQeGOEJvCU9DhYaKjsmRoLCbJy2QEhISZMCAAao3cu/evY21gcWeDkREREQhcOHCBeNe5oaeDuYW9Qiuu3Xrlty1PJBzSJB3dG8HFHj9GRM3kPDbwJBLoejlcO7cOeMeERERBdP58+eNe5kXYhzEwWZoYIH4CwI5hwR5T/d2sA5/FA5oqAah6OVw8eJF417wMOlAREREFEQVKlRQt+vWrVO3mR3mHkB3cN212DzHBLpmo4URAn4E23ob64ICGgUWWlOhA3S4W3ihdd+yZcuC3roL9P/JihUrqlsiIiIKLH2NZRyc5IsvvkgR0+o5JjCsEIYtwvBFiHPN25gX85A9FBj4zDHcFoY1CvewnuhxHKrj0P8n7SayDhQmHYiIiIiCqHLlyuqWhS33UNDCOK66ohmBNgJuVILbLaGokKbIp/9PchgDIiKi4NDXWHMvV0oJjW7MFc26IYjd4oSKcYoM+v+kLqsGA5MOREREREFUrFgxyZcvnxw6dEj27NljrM280IKHBShyAp10CGZhi4iIKDNj45vLdG9OaxzMxjQUahhaKRSNb5h0ICIiIgoyXeAaP368uiWi8NqxY4ea1BKYdCAiIgoOfY2dPXu2/Pvvv+o+EYXX2LFj1S2GVoqNjVX3g4FJByIiIqIgw+RkgKTDnDlz1H0iCp/3339fzp49q8ZGrlu3rrGWiIiIAgkTI7dr107dx7WXiMJr1apVMmTIEHW/a9eu6jZYmHQgIiIiCrIaNWpI586d1X0UuM6dO6fuE1Hoff311zJr1izJnz+/PPfcc8ZaIiIiCoYePXpIhQoV5L///pOhQ4caa4koHAYNGqRuW7duLTfccIO6HyxMOhARERGFwOOPPy516tSRbdu2Sdu2beXvv/82HiGiUMC4ye+9955aAAkHzLdCREREwaWT/GPGjJF+/frJiRMn1N9EFBrLly+Xhx9+WA1zVq5cOenZs6fxSPDEvOZi3CciIiKiIKpWrZps2LBB1q5dK7/88oucPHlSKlasKDlz5jS2IKJAS0xMlIULF6oKD/RwgC5dukirVq3UfSIiIgquEiVKSN68eWX+/PmyZs0aFQcXK1ZMrY+JiTG2IqJAO3z4sIwbN05eeeUV2b9/v5pn5YUXXlD//4It6hKa/BARERFRyIwaNUpGjBhh/CVSuHBhqVSpklSpUoUFrwwgKipKtZr39ZbSx9vPWd/u27dP1q1bp5J8SDxA9erV1TAPuCUiIqLQ2rx5s+pxiOSDhhgYFaHFixc31pDT6VjLjjUes5Pe53vD1+eH4vU8baMf83cb82OA+Hf9+vWya9cu9Te0b99eunfvbvwVfEw6EBEREYUBurgOHz5cBYTHjh0z1hJRMJQtW1aaNGmiejgQERFReI0dO1amTp2qegATUfDkyJFDJfU6duwoDRs2NNaGBpMORERERGG2fft21RIFBS+GZkSBgfkaUMjCggIXEREROcu5c+dUr0QsGPqFiAID8zYgBkbDm3Bh0oGIiIiIiIiIiIiIiAIi2rglIiIiIiIiIiIiIiJKFyYdiIiIiIiIiIiIiIgoIJh0ICIiIiIiIiIiIiKigGDSgYiIiIiIiIiIiIiIAoJJByIiIiIiIiIiIiIiCggmHYiIiIiIiIiIiIiIKCCYdCAiIiIiIiIiIiIiogAQ+T+iWONwDR1NEQAAAABJRU5ErkJggg==;" vertex="1" parent="1">
          <mxGeometry x="-359" y="530" width="1565" height="188" as="geometry" />
        </mxCell>
        <mxCell id="Z_0YeXmDCLqOWmuJR8lk-4" value="" style="shape=image;verticalLabelPosition=bottom;labelBackgroundColor=default;verticalAlign=top;aspect=fixed;imageAspect=0;image=data:image/png,iVBORw0KGgoAAAANSUhEUgAABkQAAAC8CAYAAAApZ8KFAAAAAXNSR0IArs4c6QAAAARnQU1BAACxjwv8YQUAAAAJcEhZcwAADsMAAA7DAcdvqGQAAAAhdEVYdENyZWF0aW9uIFRpbWUAMjAyMjowNzozMSAxMToxMDowML5RJhsAAHtxSURBVHhe7d0HfFNlFwbwU1q6WGXvPUQQUEAQBAVRUUQRFXAgfoqCigOQIUumqEyVDQKKbJQtCggoW4ZsZJa9VxkddMCX5+Tekoa0dDfj+fuLSW5ukpv0kvve97zvOV63LYSIiIiIiIiIiIiIiMiNZTKuiYiIiIiIiIiIiIiI3BYDIkRERERERERERERE5PYYECEiIiIiIiIiIiIiIrfHgAgREREREREREREREbk9BkSIiIiIiIiIiIiIiMjtMSBCRERERERERERERERujwERIiIiIiIiIiIiIiJyewyIEBERERERERERERGR22NAhIiIiIiIiIiIiIiI3B4DIkRERERERERERERE5PYYECEiIiIiIiIiIiIiIrfHgAgREREREREREREREbk9BkSIiIiIiIiIiIiIiMjtMSBCRERERERERERERERujwERIiIiIiIiIiIiIiJyewyIEBERERERERERERGR22NAhIiIiIiIiIiIiIiI3B4DIkRERERERERERERE5PYYECEiIiIiIiIiIiIiIrfHgAgREREREREREREREbk9BkSIiIiIiIiIiIiIiMjtMSBCRERERERERERERERujwERIiIiIiIiIiIiIiJyewyIEBERERERERERERGR22NAhIiIiIiIiIiIiIiI3B4DIkRERERERERERERE5PYYECEiIiIiIiIiIiIiIrfHgAgREREREREREREREbk9BkSIiIiIiIiIiIiIiMjtMSBCRERERERERERERERujwERIiIiIiIiIiIiIiJyewyIEBERERERERERERGR22NAhIiIiIiIiIiIiIiI3B4DIkRERERERERERERE5Pa8blsYt4mIiIgSLTw8XI4cOSKHDx+W06dPG0uJXEOePHmkTJkyUrx4cQkKCjKWEhGRq2K7hNJbiRIlpHTp0lKqVCnJlInjjYmIXAUDIkRERJQk8+bNkzlz5sihw4flVkyMsZTIdSEoUqtWLenUqZOxhIiIXIXZLkEgJIbtEsoAAQEBUq5cOWnRooU8/fTTxlIiInJWDIgQERFRog0fPlymTZtm3LPInFXEN4fczpzDWEDkGrxuRYjcvGK9GEqWLCn9+vWT+++/31hCRETOjO0Sykhe0dct7YjLIlGhxhLRgMjAgQONe0RE5IwYECEiIqJ72rdvn7z99tsSFRVlXZD7IZEsBUV8sljvE7mqW5Ei4RdELu8Uibqhizp27Civv/663iYiIudzd7vkQUu7pBDbJZQxIq+JXDtouQTrXX9/fxk3bpxUrFhR7xMRkXNhQISIiIgSFBERIXXq1LHeCSggku9hEW9/630id3JuvUjoKb05ZcoUqVChgt4mIiLnEaddkjmLSIG6luts1vtEGenGCZGLW0RuRevdLVsst4mIyOmw6hMREREl6P3337feyFpMpGBdBkPIfeWvbe1Ys2jTpo2EhYXpbSIich6x7RKfAJGijRgMIeeRtahIiaaatg0wS4SIiJwPAyJEREQUrzFjxsju3btFvH1F8tU0lhK5scACItlL6QjkIUOGGAuJiMgZxLZLoGA96zWRsyn4mF5NmDBB1q1bp7eJiMh5MCBCREREDoWEhMjEiROtd3JWsl4TeYIc5UW8/WThwoXy119/GQuJiCgjxWmXoGYICqgTOSPMps5bQ2/G7rNEROQ0GBAhIiIih44dO2a9gQ6H7KWst4k8AXLSo16OxeHDh/WaiIgyVpx2SY6y1ttEzipbcd1Xd+7cKVeuXDEWEhGRM2BAhIiIiByK7Xjwy2m9JvIkRv5vBkSIiJwD2yXkcoy2xK5du/SaiIicAwMiRERE5NChQ4esN/xyWa+JPIl/Hr1iQISIyDmwXUIuxwjeYZYIERE5D6/bFsZtIiIiolht27aVrVu3ihSqJ+Kf11hK5EGC5+jVli1b9NrVhIWFyYEDB/TCdB2uIygoSMqVKyf33XefBAYGGkuJiO0ScjkRF0RO/yXVqlWTcePGGQtdy9mzZ2PbEjExMcZScnbFixfXtkSpUkx7TOQIAyJERETkEDseyOO5aEBkzJgxsmLFCjl69KixhFwVOjTq168vH330kbGEyHOxXUIux0UDIsHBwTJixAjZvXs3B1S4OD8/Px1g0apVK6lXz/LbSUSKAREiIiJyiB0P5PFcLCCCHOXDhg2LzVWOZn54eLjOFImMjNRl5Px8fX11ZkhAQIB4eXnpsgoVKshnn30mVapU0ftEnojtEnI5LhgQmTFjhrYlzK7C6OhobUegPcEZIq7DbEcgIGJq3ry5tiW8vb2NJUSeiwERIiIicogdD+TxXCggMmnSJBk9erTeRqfFyZMn5dq1a3qfXFe2bNmkaNGi2qkBbdq00QuRJ2K7hFyOCwVELl++LP3795c1a9bo/YsXL8qZM2c4oMLF+fj4SJ48eaRw4cJ6v0SJEtKlSxepUaOG3ifyVCyqTkRERETkwpYuXRobDDl//rzs3buXwRA3cf36df17njt3Tu+PHz9efvvtN71NRESUWgYNGqTBkKioKDly5IgcO3aMwRA3gBk+qAPz33//yY0bNzSd6oABA3TWD5EnY0CEiIiIiMhFIbf34MGD9faJEyf0Qu4HM36OHz+ut/H3vnDhgt4mIiJKqblz58qff/6pKbH27duns0XIvSAAsn//fh0wc/r0aRk6dKjxCJFnYkCEiIiIiMhF4YQ2JCRErl69qrNDyH0hCIK/NUZ4siODiIhSAwLuQ4YM0dsYVMFZIe4Nf29YsGCBzjAm8lSsIUJEREQOpSRX9+xhraVUkTzGvTtuRkbL5athsmnXUZm2eLMEn7xoPELkhJy8hsi///6r9SRu3bqlaZVu3rxpPELuCgXXUWAdBVFHjRolNWvWNB4hcn9sl5DLcYEaIn369JHFixfrrBCkyiL3ly9fPq1PVqhQIVm4cKGxlMizcIYIERERpYlbt2/LyXMhcvDYBb0cP3NZYmJuSYE82aXJE5Vl0oCW8uGrjxlrE1FSIfUBoBODwRDPgJG7ly5d0tvm35+IEoftEqK7HThwQK85y9Rz4G+NwTRInYWZp0SeiAERIiIiShPoZPhj7V55rfMkvbz06QR57K3h0mXoPNl18LRkCfCTls8/LB++xs4HouQ4ePCgXrMwpmcJDw/Xa7MTi4gSh+0SorhQcNs8lpjHFvIMZtuRbQnyVAyIEBERUbpatemAtBswS5av/098fLzlmUcrSKWyhYxHiSixzBkC7MTwLOzEIEpdbJeQp7INhmDGAHkOs+3I2abkqRgQISIionQXFh4pM5ZskbMXrkm+3NmkXo2yxiNElFicIeKZzE6M4OBgdmARpRK2S8gTHT58WK85sMLzmG1HtCWIPBEDIkRERJQhkJ5i96HT4uOdSUoWjlvoFJ0R/T5uLCsnfyqbZ3XVy8pJn0rfds9JYICvsZbIww8UlyVjP9RL/Rrl5NvPX5HVUzrIltldZf20z2RC3zfuGuVZq0pJmfzlm7L25466nvna77eoa6xhhffp+NYTsnT8R7Hb8PdP7fU9HBVmJcoot2/fNm6RJ8Dfm39zotSXUe2S2Ne2vB5eF+uijTKiR3NjDSu2Syit8Jjiefg3J0/HgAgRERFlmONnrkhUdIwUypfDWCJ6Uj/4s6byTJ0KcuvWbdm8+6jsOnBKOygaPfaADOr4orHmHXjs4zcel6r3F5VDxy7Izv2nJDr6ljx0fxHp/M5TsZ0VtR8qJb3ef1YeKFNILoaEysYdRyT45AXxzewteXNm1XUA6w/89AV59dnq4ufro++P7YiJuS11qpaWAZ8+L8UK5jLWJiIiIneQ3u0SXPf5sJE8W6ei3t+697jsPnhaIiKjJX+ubLoM2C4hIiJKPQyIEBERUYbLlMnLuCXSqklNKV8yv/y9+aC88NFY+bD/LHmn11T5/NsFcuHydal8X2Fp1vAhY22rXDmyCAY6dRj0q66Ly/fT/pIbYTelROFc8txj1o6Geg+Xlby5ssm6bYflxY/HyUdfzpYWn02SD/rNlGXr/9N1oNULNaVm5RKy6+Apeaen9fWwHe9+MU0OHrugnSNNnqhkrE1ERETuJL3aJY9VKyMVSheUsxevyadfzZH3+86Q//X4Wd9n/C/rdB1gu4SIiCj1MCBCRERETgOdAlUrFJXzl2/IlAX/aE5v0/ptwbJ9/0kJ8POVssXzGUutIqOiZfHfu2TrnuPGEpFflm2Tk+dCxC+zjxTOF6TLvDNlEi8vkWxZ/GJHZwLSZPyz86hxT3S0ZfjNKJmzdJsEn7xoLBW9/c/OI4JukvtK5LcuJCIiIreU1u0SBF4yWRommPWRx2amKt7nzw37jHtslxAREaUmBkSIiIgow/j7+mhHwOWr1sJ+GDUZlDVACubNrnU+kEfb9vJ07fs1oIHAhq2Im9Fy4myIce+OazcixNs7k2TL4q/3d+w/JddCI6RyuSLy08BW8laTR+IERgD5v3PlCJTslucM+OT5u7ah5fM19DUz2W0DERERubb0bpfsPnhGTp4P0XZHj7bPaFpP+3ogbJcQERGlLh4xiYiIKMOUK5FfvDJ5xY52RP7rzJm9JTT8pqaAiO9y7tI1Xd8UERklV6+HG/fit3DVThky6U/L+12Q4pb3Qn7vJWM+jFMUNW+urJI1wE9uRkZL8ImLDt8fl5Pnruj6RERE5B7Su11y/Mxl6fndIln772ENxjR5orJMG/Q/Db5Uq1hM12G7hIiIKHUxIEJEREQZ4ulH79ec3MinjWKjcPr8VS1mevVGhPQf+7u81nmSw8v4OXfyaifVkjV7rHVD+s+UVZsOaEF126Kol0JCJSwiUjsekL/b0fvjMnD8Ul2fyNV9+OGHcv36dYmMjJSvv/7aWJp2fv/9d4mOjpZ58+YZSzLGO++8IxcvXpTz58/Lq6++aiwlIk+VUe0SBF/af/2LvNR+gkxZ+I9cD70plcoWkn4fPaezQ9guIVeA9gPaEWhPoF2Rlp544gk5cuSI3LhxQ7p06WIszRg//PCDfu5NmzZJtmzZjKVE5OwYECEiIqJ0h3QQb79YS1NGbN93Uv5Yu1eXh1wL0zQTQdkCpGKZArosrSCvd+ch8+T7qX/pSM5SRfNox8OZC9c0TzdmjNxfivm4yf3VqVNHr0NDQ6Vu3bp6m4jIkzhDu+T8pevaJkFh9eNnrmhhdswSYbuEXEHt2rU1GOLt7S2PPfaYsZSIyDkxIEJERETpBifzqNsxqlcLKVs8rxw6fkFGTvvbeFRk9dZDuizQ31defuohHSFp65WnH5KRPZob95KuVpWSsSkoTCHXw3X0p9wWiY6J0fQVqDWCQqfP1qkojz9c1ljTCvexDQieELm6hx9+WGrVqiXHjh2T//77T+6//355/fXXjUeTDyM28ZqYDWLv2WefFR8fH2natKmxJG3NnDlTzpw5I3369DGWWE2aNEny5Mkj+fLl03WIyPNkdLsEgZgna5U37lmdvXRNwiMi5balXRITc4vtEnJ6zZo1k4oVK8rOnTvl1KlT8sgjj+glpeI7fq9cuVJKliwpWbNmlUGDBhlL086bb74pe/fule3btxtL7nj33XfF19dXatSooQEhInINDIgQERFRmkCBz2fqVJAZg9/RC2p1LJ/wsdbtyJ0ji2zadVR6fLcwNk+3aeriTTpKskyxvDKqZwuZ8lUr+b5bM1kwoq10eecpyZMzq7Fm0qHTYbTlNfFaw7u+Ij/0e0NfE7m5N+8+Jtv+O6nrTVnwjxw+flHy5c4mX7V/Qbf/289fkV+Gvytfd2iiHRgInhC5uieffFLy588v//zzj6xfv16yZMmSKrNEypUrJ8WKFZPMmTMbSzJOpUqVJFeuXCw4TOThnLFdUr5UfunZ9hlZZtkOtEnQNplp2TbUMjl2+rKs2Lhf12O7hJwZUlgFBATImjVrZOvWrdquqF+/vvFo8jnL8bts2bJSunRpp2jTEFHq4FkBERERpYlMXl5SJH+QjrjEJW+ubDoTA3m5+4z+TT7sP+uuTgdYvy1Yug6bL+u2HRbxEqlQuqDUerCUBGUPkC17jsl3P68y1ky6/UfPyblL16VAnuxSt1ppqVyusERGRcvM37fIN5OWG2tZ83l/+vUcrTcSERmtnSB1qpbW5x08dl5Gzvg7NnhC5MoaNGggUVFR2onx999/S0hIiHZiIKBBROROnLFdcuLMFS2UHuifWR4sX0TbGjmy+cv67Ydl4Pg/YreH7RJyVqibgYEUly9flr/++kvWrl0rMTExOhuUiMhZed22MG5nuNOnT8uBAwfk4MGDcuvWLWMpUerBSAWc4OOCVA3uCB0Z+He0f/9+CQsLM5ZSWkIj8L777tP9yl0LqWGfwnRl7FeUeIUKFdJL1apVjSWupW3btjrKSwrVE/HPaywl8iDBc/Rqy5Yteu1skJ4BbeZ///1XktOkR2fF5MmTte3wwgsv6G/9unXrpHLlytK1a1cZPXq0sWZcSIPRq1cvrT2C456Xl5e2ORBUQVFRPBfpI+xNnDhRU0ugAGnr1q1j748ZM0batGkjO3bskMcff/yulBMo1NqxY0fZvXu3Pg7dunXTQuhFixbVNh06Xw4fPqypM/C68Oeff2rAxx5ev127dprWY8qUKbqsVatWmoLDhM/Vt29ffQ+k1EJOdBSCP3HihIwbN06++eYbY02rPXv26LZ88sknGlB6/vnnJSgoSLcLj/Xu3VsWLFhgrJ1yOK7ge8f37YozX7C/YH/D5cqVK8ZSSkt+fn6x50FIFeeK2C4hlxNxQeT0X1KtWjU9djibRYsW6bHu0qVLcvToUWNp0qCAOo6J27Zt09oh+I357bff9Dj69ttvO0ydCWgr4N+07XH87Nmz8uWXX8rLL7+c4PH7559/jj3u4j76EJFeC/09/fr1k6+++sp4hhW2aeHChVK8ePHYxxs2bCidOnXStpTZlkGR9sWLF0vnzp3l5MmTmipr1KhRDs/xV6xYobNs8Xr4LGgD4b4tvAfSfaFdFRgYqG01fAYEjfr37y8bN2401rTOsjHbJB9//LG2k9DmQVqwiIgI2bx5s6YjtX1OSuTOnVtKlCih7RW0UVwR9hezLYH9hzwD+lfQ/4aZW/h3m1wZHhBB5xp+YPBjdvXqVWMpUdrDQREn/zjRdXUogjp06FDtsEFgkTIOGmXoIELHTUp+nJ0BGmszZszQRiH3q5RBI7pevXry3nvv6QHcVbDjgTyemwdEhgwZoh34v/zyS2zdECz79NNPZcmSJdKkSRNdZuv999/XzoqcOXNqB8q+ffv0RB3psdAemTBhgp7EI4iAY+KFCxc0oA5z587Vjhf7gAhOxrEMqSg++ugjmT59uq5vQpAGtU6GDRsmn3/+eWznAwIUhw4d0iBF+fLlpVSpUtq5js4RdIyg8wnBG5zwo0PhyJEjuo3ojB8wYICEh4c7DIhUqFBBA0V4T6yD2ioInmA5cpbDtGnT5K233tLbgHMZfAc4Kcd6uH/t2jWpUqWKpvvAe+M7Tq2ODFcNiCD4hU6k5Ha8UerAv88HH3xQOnToIHnzus7xne0ScjkeEBDB8fall16KPUaby1BXBL/5OK7bwnkR2h1PPfWUzlANDg7WAQ0FCxbUgAbaA7id0PEbARfbgAgCJHjPFi1a6GONGzc23s0K24DBFQhymANA8HzUTcN5Lo7zCFggRRfeD+e/WO+5556Tnj176u8kjv8ImJjfE47n+E2KLyCCIMNnn32mr4f3QMAI7QHUWsmRI4duCwaDmAEjMyCC4BD6RvEd7Nq1Sx/DduF7Q3sU69kPHEkOVw2IYH8ZMWKE/v0wK4k8FwYrITDyyiuv6L/XpMrQgAj+sX///ffGPQtvy8XPcvFFXVOnmbjiEnBCZP4pzduOltnfNt3rcVuJfTy1Xsf+tim+x83bDpdFe4lEWhbgYsAoBhyoChcubCxxLatWrdJgCKLj4OXlbflhyCI+mZHL1j1nwTib27cjJSY6VGJiQi23rbPbkGMU+xU6q1wRpjujcWzb2Mrul1n8vDOJvw9+rCkxrt6MktCoaIm5def3Cx1iCJi5AnY8kMdz44AITqyRIgujq3Aib84GQQfG2LFj9fcfg0ZsO/DROYFgBTr+0fHwwQcfxHtSbgY9zBGUtuwDIrB69WodUIBABB4z4Tdz5MiR2gliBi26d++uheARmDG3D58HnQq1a9e+6zVw0lymTBkdwfrFF18YS+OOxrQNiOAz4rMj2IORrzgmmjA6E++PkzDb7w3vgUDIuXPndMTp1KlTdTlm4eDzojPFtrMopVwtIIJOHXx+s3MHfHyyirdPFsvnwAkgpb0YiY6+oW3W27ejdQn+3WAkdKNGjfS+s2O7hFyOmwdE0C5Ae8Df3z/ObBAcKzEzAsdR+5mfOKZjcAUGSyBQkdDsyfiO34DHbAMi5kwVBBPsZ30iwIHfOdv2wfLly3Umqe2MTwwSGThwoM6ctX0NM+iBQRgIaNhyFBAxZ+Ai8IG2jm1QCG0FtLPQ5sFMEfRHgdkmQb8UBo7jOzLbH2hvYVaLfdsjJVwxIILBmmhLmG1eDM5BoAr7CGZBkmfAQCj8W0RQ0fTMM89oHwuCjomVIQERdNwiqht7gpXdcgmyXNh3S+kFe32o5XLJcomxTiFH5zVGNrgSHLznzLF21mTOHCSBWUtbDpKBep8yRnTUNQkLO6LXgNGjmPLqSsyGMfj5eEuZnFk1GELJFxEdI4ev3JBrN6P0PmaLoOGJjghnxo4H8nhuHBAxAw3oBMEISIyWNOHf/QMPPHBXB4Q5ewSd2o5SW9lKakAEKbDwXhglimCH+dpmOi10stiP+LSHz4NOAwwWsX3PpAREzM4dpBRC4CPO4C0DOlbwnSH9hjmLBu+BWSrjx4/XbbCFzh6MXJs1a1aqzUx2pYDIpEmTYjtv0E5Fe9XHJ4duP2WMmJhwCQ87KpE3rfUpsD+bbT9nxnYJuRw3D4iYx260Qx599FFjqegMy9mzZ2vnJNoNP/74oy4302kVKVJEAwn2qa3sJSUgYg70QMDCdn3zuJ49e3aHs1BtmduNYIH5upDUgIjZdtmwYYMGR+zbS2YbDG03BD7Qp2O2SfDejr4b/PYh9dZ3332nAy9SypUCIpgJghRj+I4Bnd8tW7bUGUXkuTCLG213tDEjIyP19wb/Np5++mljjYRlSOsZP04aDEEABPsvUpgyGELpCedfmEBRxHp98+ZNHQmwc+dOPOoSkJLCDIYEZikp2XJUYjDECfhkzi7Zc1SRgMCiev+nn37SRpWrsA2GFMwaIJXzBTEYkgowq6Zi3hxSIkcW8cmUSUf7YHQLEVFGQXABNS5wgm0bDAGcwCNlA4K3tpBiB53v69evTzAYkhwIYmB2BfJ7I2c3oHMDhVoxOwQpvGxhhCWCFTinQBAFaSwwOjSlwQHMmMEJFUau/vHHH8bSuLZv364nXmb6LBPak0jrYQ9pw8BV6zakxLJly2KDIf4BhSVHzmo6iIfBkIzl7R0gWbPdbzmHKG2556UdlJhxTkSUFOjsR3sB7QZbqHeBvhUcx207J2vWrKmd2BgkjdkZqQntkn/++eeu9gtmhiD9FOqQ2QdDkM4YgxYw0APHanS4I0iQUmhLYMAK2iiO2ks450abJ0uWLJq2yxbaPAi82ENKUHw2tN08DerD4W+Dz47BKhjMzGAIBQQE6IAO9I1iMBUCZwjuHTt2zFgjYekeEMEPkEb1kHEFGYqy6GKijIH9MJ/lkkPvuUwHJRoX5giTbNkrWk4wEdkhZxIQWMJyonmf3h46dFiif5QzEnKbmsEQdNyXCELnPTssUlPBbAEaGAE0hDGSmIgovWGEpjnDAPm2MULR9oJRkQgsIC8vRg6aUHcAdTvSImczOg0QaEEOb6SRAARGECBBsVRzlCZglCBm7WAGJkZLooA70kvgHAPblxLoxMDMYQQ87ANFJnRyAFJX2MJ7m/VSyNp5M2jQYL0dmKWUXsi5+AcUkuw5KuttpCJB6joiosRAMATtCXTSo4Pavi2BmZFoZ2DWBdYDDCTAMRud/giapDbM3ERgA++H7QMER3Dcti3ujkEVGNyAPhV0qGLGyvnz57UdkRq1MxGAwXviczqCIAkex/eD788WRr1jxg5Zof4cgmcIHqH+dP369Y1HiKxQoxWzqsy6RIkd4JGuARGM3ortcMYAKaahJ2eR23LxFR01kBr5GNMaUlYARtpl9k18jjxKX75++cTPL7/ExES7xKg7MxiCGSHouKe0EZjZW4pmt87mQudDao+yJiK6lxdffFHrgKDoNwZZOLqgQwEzGmxrC1y8eFEDJQhapAXMJsBMD7PzBHm1EZzAcvO3Eh0cGNGJ4ANGgWFbkDID6UjQkWEGK5ILKUMQDEGHjdmBEx8Uk6f44bwvJOSK5bvMpW1Wck6Y3RyYxToiGn8zzHQiIroXBBJQHwvtBUftCFzQzkCw4eWXX9bnIOc/OiwTc4xNDgQ90KeDdFANGjTQQR0Y3IHBib/++quxlmihdAyowMwWDMJALQqkwkIKdWxzSmH2R2LaSzExMdruIcewv5j9KEgthoE5RPFBylr828cAK7OWX0LSNSCCaSwKKdM5M4ScDYIiFshzjBN+Z4X0S3v37tUilBxp5/wCs5aSTN5++qOc2tOCUxNGwSJtCtI5lc6JfHKUlopkD5Qsvj7awYeZIkRE6QmBBkwzR8dBlSpVHF7MdI9Ib2HWO0KKC8yKQO2StIDOCgygwsjKpk2b6ntjNgpygpswJR4dFyioiNFgtpBnHJ0sKYGACAqyFihQ4K7aJybMrsmcObPOSiHHkE/eOho3k5GWiZyZf0BR8cmcQzufzFz/RETxQbugdu3aOggBdS8ctSNwQZpgFFw364tgFmVoaGiCx9iUQu0yDJpAe6Fhw4baQYpjku2sT2wbAjNYN7a2sQVmkySlKHN8kD4zofYSaoigrYPgC9J1kWOoOYcgPYJbqBtClBD8LiF9LowYMUIDjglJ14BI7A+QkZ6IyKlgQLy/9WZ8KRKcgblt/v4F9Jqcm5eXj/j5WUcyOPN+hcYq5PTPrPUuKO0VyWYdMYTivERE6QVFO1ELBB0Sa9euNZbeDUGIkJAQTSFl1vRAKgqkQcIMDhQDTQhmT6CjBMGLxEKQGMURMSsEqbyQHxqpsWzTXKCTA6k4kDoBhVJNGDmIjg9HsC1ISZGYTg68PzpO8PoovmpfR+WTTz7Rjh18D/g+yLE77dX8ksnbaGCTU/PzL6jXDPQR0b1gxkfp0qXvGrRgb926dZoCqnr16jrDE8fzTZs2xXuMtZeU47cJgysQ3C1fvrzWL0HQwf58Cx2leF3McDGhMxXHeNtlJsziwHMw4wNtoHtZvnx5vO0lzJhp3bq15MiRQ78L2zYOxWW2JZo0aaLXRPeCQV9It4t/r/dqz6RbQAQnOMePH7cWs07ZwC2itONnvXKFgEgmb06zchU+PtaRtc58gokOJ2AwJP2Y37Uz/94QkftB5wBSDmCUJlJRxWfOnDmyb98+7bQwa3rMnDlTxo4dq7cxAgsdDjjpxwUzO5CP24TZrMidjZQUO3bskG3btt0ziAIYrYnc2ZUqVdLgh30xdWwz8nvjZAeFoJcuXaqvj5QKOM4i3ZU9LEee7latWmlaLaTxwOjM+Hz++ec6YhOFTvEeeH10pqCWCVIKIWCDFKv4Psgx89iGGc3kGnx8rDOE9+1jQISIEoa2BAIIKP6d0Gz3+fPny6lTpzSg8fjjj+syR8dY1InAYAS0Tfr06aPrQVKP34DjD+qToAB3qVKlHBZTR70kDK5499139f0xGALvhfRamClqD9uLwAraHtOmTdNADz5bfOJrL+F52B7UwcBr4rsgx9AGNNsSmAFMlFgI1sK9+lnSLSASuyEMhpAzM/bPe/3DyUhmp7p50kLOL5O3dSbAgQMH9dqZoX4IpQ/UEjGlRvE+IqLEqFu3rqZ7QsDiXu0d5NbGCCuknTBHRPbo0UNHdeKEHjVGkPICqQzQ8YCghwkBA6Q6wKAoBEUwUjMxtQkwUhJBeozcREeLbTF1QGqLDh06aAdG9uzZtVMGHRS//PKLdjY4MmDAAH0MgQzM7kD6DIxYjQ++G+RGR/5hjE5FcMYsuooOm7Zt20qvXr2MtckRs73qzfaqy/D2DhAvL285f/6cjvomInIEtT/QJkBAwfa47wjaGUjLjHYHCh6Do2Ms0mSi0DkKm+NxU1KP3yYMYkD6S6TFcjQDo1u3bjJx4kRto+D9MaocgzG6d+/u8PXxGoMGDdLaIOicRyosRwMwbDlqL6E9hdfHezdu3DjOZ6W4zDZqiRIldP8hSqzEBkS8LD9it43baQp5iPEDItktd1BQncgZ4Zh2UnQkgZk725kEBwdL8+bN9YQlR87qxlJyBVcubbA0GqN15CumxzobTGOGhwvlFp9MmMpH6WHPhaty7WaUjBs3TgsCOxt0+uEkRgrVE/G/e/o4kdsLnqNX5iw6Z4MTcqSlQid9OjXpyUmgjglGzSLdBgq3Ohtz38yZ+1HLdjrf9pFj167ukOioa2yXEKWWiAsip//Sf0/4d+VsMLujb9++GgxwNDOC3BeCSwg2oPB87969jaXOw9w3EUjq2rWrsZTo3nBehH3mXr+76R8QQT+gUbyayOm4SkDEJ1ByBDnfSQrFz1UCIrWKMGKdnlwlIHI7awkRy+/OvXh5iWU/N+5Qsth/h/xOM5ZXiHXkHgMi5GxcJSCSK09dYwm5gmtXd0p01FXnD4hkKyG3jRnYJhwvwf6nMKnLIb5jb3zLIaHHIKmvmdT3wjKI77UgKc+hVBIdJl43jjIgQk7HVQIiqA/XqVMnYynRvWEWOfYZBkSIkoIBEUojDIiQIy4zQ4TIwzEgQs6GARFKCy4TECFyMQyIkLNhQITcFQMiRMnBgAilEQZEyBFXCYggx23BggWNpUSeY8KECXrNgAg5GwZEKC24SkCE7RJyFSgSjnoWDIiQs2FAhNwVAyJEycGACKURBkTIEVcJiDjr9hGlNfO3kQERcjYMiFBacJWACNsl5Cqwv2K/vVfHXEZhQMRzMSBC7iqxARFWuCMiIiIiIiIiIiIiIrfHgIgbe7/F+7Jh+gYZ3Wu0sYSIKOO8/lEHGTH/D70mIiIiIiIiIiJKb6kSEEnrqXXo0N8ye4usn7Ze3m76trE0YR1adZCNMzZqQACBgbRmBh+wnbaXtT+vlSlfTZFGjzUy1sxYL9R/QVZMXCHLf1guTz/6tLE0/bzV5C1ZOHKh/DPjH/1+cI37bzR+w1jjjvi+000zN8mqyatkUv9J0rRBU2Nt15fW/47eavWsLFk8RJb9MTzO5Y8lQ2XuLwPl22GfSKNnaxlrk7vYvn27cStt1KjXQIbMmKeBDkeX/hOnSbnKDxprk7PA701ISIhxj4icTVr/dhMlV1rvm082qC4L5n19V3t16e/DdPnY0Z2lRfMGEhDgZzyD3AHbJUSpjymwyFm5274ZEREhPXr0kBdeeEFOnDhhLM0Y//zzj9SuXVvrIDp7Ot3jx4/r91alShXJlSuXplsdNWqUREailkHaS5WAyF9//SX/+9//0nyn9s3sK7UfrG3ci1+xgsWkTtU64uPtYyxJP6HhoXLw2EG9HD9zXJdVKF1BerTpIR+0+EDve6r3XnlP2jZvK3ly5pFT50/pd3Tu0jkpmLegtHutnXz42ofGmnHZfqe4hFwPET9fP6l8X2Xp3qa7/Pjlj1KpbCVjbdeFk4AXX3xR/z2lpbCwCAk+cjr2cvVqqPj5ZZYKFUrKp580k++/bS/3ly9urE2uDnlB69WrJz/99JOxJG1EWQ5aZ44fk1NHj8S5nDt5XG6GhxlrkbPAfoHjNvKysgOCyPng3+iDDz6Y5r/dREmVXvvmzcgoOXbsbGx79dKlq5LJO5OUKlVI3nn7ORk98jOpXesBY21ydWyXEKW+9OqnI0oq7pueDYGauXPnSv369XWgTcuWLbWOTbNmzbQNgBp06SFVAiLYkaFkyZLy9ttvp8lOHRMTI5FRkVK6WGl5ps4zxlLHGjzSQDvZsX56Qwf/a51f08tLn74kL7V/SVZtWiWZfTJLwzoNNTiSkRauWigNWjeQp959SpatW2YsTR/4e2zcuVHa9mmr3w2+oxc+ekGWrF6iwaunaz/t8Pux/U5xefq9p+XFT16UaYunyfWw6/JA2Qc0MFKqSCnjGa4JJ5cIiOBHAZe0CoxcuBgi738wOPbS4rUv5K23v5Rf5/4loaHhUr58cfn00+ZSvFgB4xmep0e3VjJzRj95s2XCvzWuICgoSL799lvL3/RT/Y1Oqw6M0OvX5ZcfxsjX7T+IcxnZu5scO3jAWCvlnmzaTPpNmCIffDHAWHJHvkKF5aO+X8mASdN05gol7Mcff5TJkyfrfsEOCCLngt9u/BtFGzstf7uJkiq99s3r18Nk1Ji5se3V11v2leYtesnESYvl8uVrUrhwXvmo3cvy8MP3G8/wPM2bPSFTp3whXw5oayxxbWyXEKWu9OinI0oOV9030Uf38ccfy+HDh40lVv7+/vLll1/KwoULpWjRosbStHP58mUZNGiQjBgxwlhyR82aNWX9+vXy3nvviZeXl7HUuWzatEmP823atJFff/1VOnfurP1VuMaMEXyf6SHVaoigAYNpLrhOi5361u1bOqsgW2A2qVutrrHUMXMWydmLZ/U6I52/dF6mLJiinfq5g3Jr572n+mnBT9Lxm46y6+AuY4nVrD9mydlLZyVX9lxSonAJY2nC8L0OnzJc+o7uKxevXJTSRUvLKw1fMR51XTgw4IcAP7RpHRixdfFiiIwbv0CGDJ2hJ5kliheQ559/1HjU85QoWVCyZwuUTJmc8wCSVAi2ISiC32RX71zLV7iI5MybT7x97p4BGJQnr+QvUkz8AwKNJZQQdGrNnz9fR2j06dOHHRBETga/3egcdIffbnIvGbVvhofflFmzV0i//pPl2PGzkjt3Dnn+Oc9trxYpklfy5cspPj7uURaU7RKi1JfW/XREyeWK++bmzZtlx44dGZ6KCgGRxYsXa6ouVxMWFiY///yz9nUiuJRewQ9HUrX1hI7bHDly6O3U3qkxwwIBjvCb4VK5XOV4UyRh9ghmkZy5cEYuXL5gLM1YCABguzELIleOXMZSMu09vFcibibvH/Lfm/+WlZtW6u2alWpqujRXh47rxx9/XG+nd2Bk/YbdsnbdTr1d9aFyUqRwXr1Nrs8MtgE718hkBssAHQ7sgCByLvitfuutt/Q2f7vJmWTkvvnfvmOyYsUWiYyKlvvuK+bRs0TcDdslRKkvLfvpiFKC+6bn2bdvn6xZs0aaNm0qgYEZO5DVq3fv3qka2jp79qyMGzfOuHfHQw89JJkyZRLBvp7buiyxUFS9RqUamu7pvhL3acAD6ZJGTLt7etCwrsOkzkN1ZN6KeVK0QFF56P6HdGbC2FljjTVEalWpJW++8KZULFNRAv0DdRpRWESYrN26Vr6d+q3OPkD6pa87fC0lipTQlE59RvUxni1Sv0Z96fZeN61pMnL6SPll2S9aABwFw0+cPSHNOzY31rQKDAiUKQOnaBqvcXPG6YwRwHa0ad5GyhYrK/5+/hplxHZs37ddfvjlh7tmUgDe4+WnXpb8ufOLt7e35la7fPWyLFu/TMbOHithNrn6zW3a9t82+bC/tT7Hww88LH0/6qu3e4/sLZt3b9bbs4fNlgK5C8jgyYOlesXqUrd6XZ2Ng9c/fPKwjJs9ToMPtvC53m/+vjR8tGFsoOfKtSvy2+rf9O/k6Lt3xNwmf19/GThhoPy54U9dntB3auuxao9Jz/d7asDJ9vnJgixrJ0WyZcsWG5TICIj0jh07Vq5evWossSpdurSOnvL2CZQcQdWMpYmDouooQnnq9AV5r803xtK7PfJIRenY/lXL/pVJvvt+jqxes91yclJWunS2Fr4fNepXadbsCSlvOQHFbJKBX/8su3cH62N4/eca1ZK8eXPq87H/hITcsBzotslPP/+uI/tMHTu0kGcaPiJ/LN0oe/cek+bNn5BCBXPr7wTW27nrsPzwwyIdAWgLRTTfevNZqVfvIct3kVXXj4m5JRcuWPa9JRt05KCtCeO7SuFCeXX5T1N+N5Zamd/Jrt2HpevnY+Sbrz+Qhx4sZzx6B7ZnxMhf5E/LyXdyXbm0wfJvPFoaNmwomTNnNpamPzQ0jh07Ztyzwj6FfQtqFcmj14mF1FTN234k4Yj0fzdYDuyMv9jq6x91kFpPNpQNfy6V6SOHG0tF7n+omjR48RUpXvY+8QsI0N/kmxHhsnvzJpn/4wQJuXRRnnu9lTz1UnOHM0PweiXvu18KFL07IBpy6VKc7cL713u+qRQoUlQyWX5Do6Oi5PzpU/Ln3Nmy+W9rcBVst/XsiWPy+HNNdAYKtu265YR83dLfZMnMqcbaybfnwlW5djNKatWqJblzJ/HgmIr++OMPLcBmC6M1KleurCkrcVyvVi1pvzlE7qB69ep63bhxY73OKGgTnDt3zrhnZfvbfebMmQwfrUbpq2DBgnpMcvZ9M1eehGf220NR9Y8/ekVCwyJk0OBpsn37QeORuDBoZ0D/NpI7Tw75+ec/ZPYc6zEc7b58lnboqNFzpc6jlS3/hsvLTctxdsTIObJy1b+6TlLaq7ZtxTlzVsn/3mpk+WyF9XmRkdFyOPiUTJq0WHbsPGQ8446kvE9S2qvmfR8fb2ONO9CuHjZ8lnEv6a5d3WlpG11lu4QolWzdulXatm2r/57w7yqj3KufDqO2GXT0LOiMxvEaKZ4wUyOj3GvfRP9Jp06djKWJgzbxwYMHZcqUKbJs2TI5dOiQfs7mzZvrv8c8ee7u80CB7/Hjx8dZ/8knn5SuXbvK33//rc+z98QTT+hzUBB88ODBetzC/SxZsmhAf8uWLfLDDz9I8eJxa/TiOIaUVytXrox9HP8GlyxZIrNmzdLXuXHjhvZJtm/fXurWravfBWaGIM0UnmcP3yFqcGDb33nnHZ19gfu28B4zZ86UefPmybp16yRr1qyaYqtVq1by9NNPi5+fn7GmtU+ye/fuehuDEhC8mjRpkn4XOP5iIMwrr7wS5zmJMWbMGPn999/1eypQIG3S9GMWD/YZbKejfcuEfDDpcvaUN29eKVasWIoCIgtWLpALVy5oJ3nwiWB5r897cQIAtR+qLX0+tAYu+ozuIy0bt3TYKY/O/5KFS+prHT11VDviyxQrIwH+AbLm3zWa1gleffZVafd6OwmPCJevJnyltUBgZI+Ruj1L1y2VXiN66bKEOu/N17keej02CNGmWRvdPrwntmP/kf2SI2sOKVW0lGQNzKpBmQHjB8j6bev1NRB8GPjpQE0HFnMrRt/n2OljUrxQcQ38IBiA1+00pFPsd5LkgEieAloIHsGgwycOazHzcsXLSfas2eX0+dPS47sesUEabM+QTkP09aKio3RbLoVc0u3H58DtvLnyJiogYm6n/d80sQERwPYXyV9EJs+bLBN+mWAsTQYjIIJ//Hv27LEucyI4EahYsWKaBkQAJ2WFCuaRGTP/lKnTlsYJiJw9c8myDSX1JPzipat6srp//3Hp3q2VPGw56bx167a+x8mTF3QqP07ucBK4zXJC27ffpNiTPzMgsnnzf3L//cX1pPLEifOWA7Of5bciv/j6ZracZJ6WgQN/kpOnrLO9UNek02evSblyRS3rR1kOWud0G7C8QAFrUG7Fyq0yeMh0vQ1JOcFs/0lzKW/ZlgL5c2ng5czZS5Z9IVJPpKdPXyb/bNprPDPpzIAIfpyjo6ONpc7DPKnMiIBIjxHjJX+RonLVcoBHEXZfy0G1UPGS4mvZ3/ds+UfGfdlH6j7TWGo91VCy5giSnHnyyo1rV3V92LFxnRQuUUpriOQpUFCLrl48c0a/5xtXQ2TR1Mlax+TZV1tKgyYvi0/mzHLhzGm5dO6svm/u/AUkPDRU5v04QTZatg3MbT26f58ULlnK8l6X5OLZ05bXL6TrI5Dy+6xpsvzX5Hc6gBkQOXDggFy/ft1Y6jzKlSunAWJ2PJCnMgMi6NBwRlWrVtXjMXmuf//91ymDYea+mVYBEcBAlgerlLWcWG+Ub7+frcvMgMjOnYd05og50AYDW9at35Xk9qrZVjx46KTkzZPDcuLvq4N1Mlk+W/HiBSVLFn85d+6yDB0+M3Zb0YZM6vskpb36fONHLW3omhIUlM1yjh0kV6/ekEuXr+m669btlJ+nWtsyyWEGRNguIUodZkAE/57w78rZIFBTokTi0paTe7p06ZJTzsgw983kBETMoACOF3h+qVKlNDiBVE2PPfaYDB8+XINBgDYUAgSoX4HBJs8//7z2uZ04cUJf58MPP5QrV65oAAG1OXbu3CktWrSQnDlzSvbs2TXIggCIbUAEARIEEF566SWdOYvXtIUgEAIbCJJ26dLF0i7w1udjkEmTJk2kdu3aGhBBWizU28DyRo0aSWhoqMyePVsHuCJwgkECWBceffRRPW+JLyCCuid4LxQxx3sgmHPx4kVZunSpXlq3bq2BD3PWhhkQiYyM1O9l27ZtsYNwsF0IygwcOFB/3xJ7LnLz5k3p2bOnvia2Zc6cOTJ9+nTdZgR/sN32gZnkSHRAJL1miGD6K/7IKQ2IoIN9eNfh2tmOGSJzls4x1hKdtdH0yaYaRGj/dXt9nqOACJb/s/MfXW5yFLQAnXFStY6s/XetBkrM9ZCOq9PgThJ80joy3lHnPQqEN3miic6gwEyUxX8vln5j+sUGbhD4mL9yvgyaOEjXBwQj8DkeLP+gzhR5r/d7uvzjNz6WNxq/oTMwRkwdIUvWLNHl0KhuI/m45ceSM3vOODNnkhoQwXtjtsm3U76NfX1sa6/3e9312ub2XA65LN9M+iZ29ggCJd3e7aafGYGbewVEHn/4cen6TlcJyh4kP87/UcbPGW88kvSACAJDiQnAJMiJZojg35H9KA38kOOHNz0CIrYnZWZAJNByghcVHSN//71Ni1qaJ3Gt32ksL79UT0/Ifpi4WFasvDOTosET1eXd1o0lR46sWrgdzwMzIBJteb3Vq7fLdyPmxL5e7VoPaKFMnOjZPqfb529Kvccf0sAJTmxtR+OhsORrrz5lOfH1smzDIlm0eJ0uT8oJpimh5ySXM88QwTTVMmXK6O3kBkQws8OR/Tu3y8gvPtfb8QVEUAh9/45tsnyutTMDHm/cRF5o+baEWQ76toEW8zVsX9dUrvKD8uannSXAchCfPW6kbPrrzmwh8zF0QsybPCHObJA3P+0k1R9/Qo7s2yvfdrc2tsz3iYmOlvXL/9DXA3zONt166+sd3rs7dv3kcuYZImiIYLQQR2KSJ3PmGSK2v93FIsMt/0/VJj05ueO+OO465wwR230zrQMimNlrOysCbbiCBfJY2pQRlvZdsIweM09r5UFy2qtmWxHty507D8ugIdNjX+/+8sWlffsWWnvvL0vb+Kuvf9blyXmf5LRXzbb0tu0H4ixPCWeeIcJ2CbkiZ58hYvbTZbkVLbmj0RlCniI0k49c8vF12hki5r6ZnIAIAjy7d++Wp556KrZzHYEPBETQIY+OeMyMAHT0Y7YD1sWsDsyaiA+CFosWLdKZEmY7x2QfEEHb6P3339c0YAgc2NbKwGu0a9cuznaguPjDDz9snUhgwAxwvAZm3dq+hhn0QKAFgRxbjgIimBmCAMT+/ft1O/HdmjCIFLNGEPzAe7Rs2VKXmwER9B/h++/YsWPs+58/f14++eQTDXCgHZg/f35dfi/Xrl3T5yGAgr8LAjJmQAfBJgRZevfurd+Nj4PMIImV6ICIZadItbMndN7ij23biYvcstipENXClKCUBkT6j+0fG/jYsW9HbMAAtSPsAyXxBUQcQfDi645fS1DWIPl64teaJgsQQOjTro8GNMbMGiMvPfmSFM5fWEZNHyUzf5+p64DZeY9aJ/YioyL19YZNGaazH8zt33Vgl3w88OM4s1wAdVC6tO6i57VIAbV++3qZ0GeCpgqb9fssLSZuz3zNA0cPSMuu1h04qQERFDSf9+c8nQ1ja1iXYfJY9cc0LVf3b61TpqZ+M1Vn1ThKXYa/xXfdvtMZJwl99688/YrOlMGMkt/X/h4nLRlkZEAEgQdEXjNKvXr1dCqaCcEZ/DvCjyMi0BkVEMmdK7usXrNDvhx4J5iIUXBDh3ysJ4MLFq7R4uz2Pvm4maYMOHz4lHz40VBdZp7EnTx5Xr7o/UPsLBCT+Zz//jsq7Tt+ryed3bu/JTmyZ5FJk3+T+QtWG2ve0b/fe1KzRgXZsHG39O4zUZc5W0BkxYoV2lGQETDd8rvvvjPuiU7NxH6FBoDZ6ZfcgAjST108e0bTQdg6euA/mTn6e70dX0DEkeJly8k7nXtIlmzZ4wQ3khsQadamndRp2EiDG7PGxv3NeuDhRyyv216DHz8O/VoDHeb7nAw+LN/26CQ3w9HZaPVk02bS6LU3NZXX2P69NOVWcpkBkYw8sUcjB7laTdg/sa/gginCOJFjxwN5KvO3EaPKMgp+o23rMtj+dteoUUN/d+uGX8GZnrEGeYI1ATktZ3Jeeo6FWRAZITH7ZkYERDBzeM+eI9K957jYwTbJba+abcXr18NkyLAZOrPZ1qstnpSWbzTUIEnPXuN1pkZy3sfZAiJslxClDjMgcq+OubSUUD/drl27dFR4/uibUi4y1HiUPME5Hz854JtFO9XRCZ0RErNvJicgEh/MjnjttdekX79+GixAgB1BgNWrVztMbWUvKQERdLUjPRSCDbbrI4iAz3fq1Cn5/vvvY2eqOIKZFPgOEMgwXxeSGhDBbOI33nhDunXrJm+++eZdMzrw/SNQgfYktgkzX8yACP4Ojr4bfDZ8LhyzMaMmMWxTfvXq1Utn35gBK3wviBlgxsi0adN0pnFyJTYgkqqtZ3TimjsyduIjR47ol5PaU/D+3vK3hFwL0QABggfQ4JEGWqPjxJkTWsPiXpo2aKod/bOGzpI/J/4pP/T7QQrlLWQ8egcCBgjE+Pn6yXuvvKeptjBbxDYYYgtppg4eO6iXfUf26XMR9BgwbkBs4AMd97dv3daAiH0wBFZvXa0zL1BXBO9XsXRFyZkjp1y7cU227nGcsmHPoT1amDxX9lwaBEqOqKgoOXX+7o49zEqBoGzWf6gIqqBmCLb9v+C4JwWAtFsoap+Qzm93lg6tOmi6MgQx7IMhSYEADAJRSN2F1F6uDo19MxiCQMiqVat0uh3+faUH5GTO7ONj2R+i5ew5a0oiE9JHbdm6z7hnhWKWqOVx40a4w/zJsP/AcX0u1nvggVLGUqtz567cFQyBY8fOaqqqLFmtMw8KW7Yre7ZArVuyZcvd+x3gxBIzTgoUyLgRbc4Kv8VmMAQHs8mTJ8cWQU0Nodevyy8/jJGv238Q52IGQ+6l9tPPSpvufaT792Plqymzpf3AoZIrX+JGGiQGUmMhaFPnmedkxPw/4lza9ugj2XLg983rrholVy5eiBMMgWtXLsstS+Mps+W4gLoirgyNwg4dOuhtdDigMYz9Ao20hBpnlDj9+/eXZ555RqeiU+rAdHU04nHtCfDbbXY4p8VvN1FyOcO+6eebWdt9ly/HTe2EZWiTmsEQSGl7NeTqjbuCIXD02BkJC4sQX7/MkidvUIrfx9OxXZK22C5BbchwHXGNC257gvTqpyNKqrTcNzHzAR3jEydO1GMJ0kS9/PLLcWa1omYv1sEgDqSFSk04X3nkkUfkwoULsnHjRmOpaCounMcgNZT9cQ3ror7GsGHD5N1339V1EHhIKaTLwswXBAgcpbfC8RZBDdRRwawNW4ULF9YsNfZQhwWvi9ReSYXtQDoxMxgCuI1l2E7bweFpKdUCImj8YkdKjx9YpMTae3ivFv2uW62upml68pEn9Q+LGiCOggwmpIWaPni6dG/TXVNh5cuVT9NEIT0Vank4MnXxVDl0/JCmjboYclFmLnEcDIFzl87Ja51f0wtmamBGi30QI0/OPHLr9i2JiIwwlsSF7cfj+DyYIoZZL1kDskp0TLSE33R80MZjminBsm+jnkhyIDp68Urcnd+R3EG5dcYMtv/q9bhFv+8lX+588n2376VZw2Zy/vJ56TWyl4yeOdp4NHmq3FdFAzQh10P07+TK8O8GndYZEQgxVahQUk/Qrl0LlaNH4ga2EKDA9H9beXLnkCyB/pZ9MEZP7hyJsZyYKss+bV8A8sJFa8DNXmhouEbVTQiIZM7sI1GWA5ujAAqY6yOtAd1hnlw6Y2caCqF//u1oefWDT6Ri9RoSlDuP1v3ALA3U7UgtOXJaR2lgFsupo0ccXlC/5Kbd8QO1StwVGp9NmzbV7yW1OxwwqgPHMFxcrePa7HDHBZ8juTCSB1OfMQonI9OOuBuMFsJIS0x5d/eODPx2Y5Q0AyHkbJxh38Ts5Xz5c2nQIzg47oAoBESuXIkbJElpezUkxHE9DbwWXtOU0vfxZGyXOIbgBYIY2PaUdOKzXWIVEBCg3wFGDWPUtLtLz346oqRIy30TsyQwe6J+/fpaawMpo/A7ipkhSD9lwnEHsxZwnPH19TWWpp7y5ctLgwYNNCCCbQDcRuc/CqWbELwZMWKEBgo+//xznVl23333yUcffaQFz1MKx1P89tkGIGzh+ILZIdgO+4wfmJWSWt8NXgf1xStUqCD58uUzlt6BoBTalqdPn9YZI2ktVQIi2HEhPX9g121bp8GByuUqS7Onm0nRgkV1doCZ6io+rV9uLWWLldXZGa17tZb6b9fXdEwoRh4a5niK4Av1XpCSRUrq++UJyqN1QVICAZhMXpl0dkRCsCOGRYRpgXJcI9AR4Oc4T78JgRHMUklLCNggDRg+Q3xT9FGI3R4CV6id8siDj8iO/Tvks0GfxdYeSYn6NetrgAZF2REoc1U4uZw/f36GBUJMdR6trGkFjh47qyPYbDk6ubtsOeHEyaiPt7f4+yf8Q4kTwPCwuD9sAf6Of5TNAAiKUQJmq2DWCmavYBZLQqIiE1e0HIUx8ePvznCQx6wjFA5zxs60Z5q/rgXUj+7/T4Z36yhd3nhFvvy4jUz4up9EGI2G1HA9xBp42/vvlrtmsZiXkb27afF1T4F9AQ3Q1OxwoDuQdrFAgQLa+LaFDgnkbTU7ZsxLQp0ceA7yvjp63P710mLkJzqPMKrUEduOmvg+h/062F5sd0LM59i/HhrzCPDiZMKdOzLw241/owyEkLNxln0T7dVcObPJufNXZLPdzGF0qGNgja2UtlcxG8URMwBieVMNxKT0fRzxhPYqsF2StuJrl9jC8dbMM++IbWAJF0fBpeS0S8zBKCkZiGKy30ZH7RcUH0bHqLsPrsiIfjqixEjLfROBh2+//VYLnSPl7bJlyzSd1QcffKAzQWyDAkgNhdkRSA+FAeKpDQXKMdgZqbTwWTGbAr93KGhepEgRYy3rbyC2Eb9XSIWK3zGkwsKMltSYuYI6Mfitu1eQAdsbX9AkNeA8rlChQjpLJ6Ftwd8lJTVEEitVAiLouE3vH1ikxTp66qjOtniy1pMaXNiyZ4uma0pI2eJlNWiwafcm2XVwl7FUpHqF6g478SuVrSSvP/e6/uP4eeHPcvnaZalXo568UP8FY42kQ+AGgYSKZRznWUMaMHwuBDYw4wHbiXRZ2L4q5R0XO8IsCRS4OXfxXJoHBTBLBrNDsD2ovWIPhdgx88Ze65daS9UKVXXGzKdffxpbkD4lPnztQ3mk8iNaDN+20LwrQqMfAZGMCoTA2/97TqpWvU+n+a9Ykbh86ajxgbzKWbMGSMUKJY2lcWHWCU4KL1wIuSvIgtF9CMDYK1OmiI6aO37srN4/d+6y5pPOaTn5feihcrrMHp6DotknTp43liBP4TVdljMom7HkjqJF8+lj7gwnlQiwOWtnWuESpTT9FGqCHN1/Jx1b2QeqSGC2u/9myXX9aoieFBUu4Xgf9TTYL3DcZodD2kBnQEKjMFF4bt++fdppZ15QkA6NRHtoEGN0EYrQ2cP7IN8rRj7hNXACgLYYcsSmVlAEDfM6deoY9+LCe+C98DnN9wcELMwOBnMd5Ik1Pysa9y1atEgwKIKCukuXLjXuxYURU3gNd+7IwL9RDJRgIIScjTPsm42fqy1P1K8mUdExsnr1NsvvwL2DCiltrwZZ2p+oTWLPfM7581dk9+7gZL8P26tsl6Sle7VLAOug6Dc6Dx1BewTHXaRTwbF87dq12j6wDYokp12C4zheNzVgG9esWaPvi/dHWwuf21FQBHU53X1wRUb00xElRlrum5hdsHPnTi1WjtrAtlC3Y+/eO/2lCAAgJRR+B+xTRaUWBGFwXNu8ebPOXEHx8Nq1a1uO63dmiCIIgu8CwVrbgERoaKgeH1MKdVoQhEABeUcw2AW1QlDnJC1nEOIzI2COVFtIz2UPReSPHTum22v7/aSVVGlZZcQPLGYprNq0Sg9095e6X9MlobbIvWDWBb5YpL8yYebCq41ejbPM1LZ5WymQt4Bs2LFBxs8Zr++J9FVYH7UrkmPjzo3agY+AiBZPt4GUUpiBkjUwq+w+tFvTg+Gzbtm7RWdkNHqskTSq28hY2+rxhx+XulXrag0QzJxJawi4YIYN6nY0fryxVKt4p6Adtv/N59+MrTdiq2blmlrnA99hQmnNEgPv+e3n38pbL7yl939Z/ossW+e48eYqMrKhUqVyGS1I3rzZE3p/8W/r5a+/Hf9Y2sNJKHIkI00VCmE2eMJagNZUu9YD8kjNChIZFS2bNt8drCtdqrC88frTxj2rV1s0kMqVSmtgZptRTBNFNQ8dPKknkE1eqKvbbOvFJo/piSees2HDbmOpyPlz1pkBVaqUiXMii5Pp+E5UMcMEJ57ZsgUaS1wXDjjODL/JqO2RNfudQvN+AQFSr7Hld9BmmSkqMlJ/9wOzZDWW3IF0V7diovX1sue0FhwzIeASHnpDipUpJ03eam0stUKarne79pKnX3nVWOL+8HvDDoe0MzsRozDvxRwt2bJlS2PJ3TDyCXlxESAAc/bE2bNntRMgJcwRll988YWx5G4IWmBfQr5XiG/2BorzoYFvQgE9fD/xFSpHp8m9OkfcvSPD2X+7yXNl5L6JdlyXzm9I27YvSmCgn6xevV1mzlphPJqwlLZXC+TPJa+9+mScQTx4jUdrV5KYmFux7dXkvk9y2quRlvYq2kTZsrp+e5XtkrSVULsEx1wsx+ALpK9xxDwuY3CD2VnmaJZFctolOI6nVrFx5MDHrHhzgAm2A6Os0aayD8h4wuCKjOxfIEpIWu6bGHyO2QVIhWU7CwH1OVAc3BYCIo0aNdIUVQjQYKZIQlDfAq+TlLoZmAny2GOP6SDVxYsXW47zVfRiC9uL17UdAIfjO861fvvt7hrZCJpg2xHIQOH1e8HvHVJ3ofYbBrXYQn8MAuGYxYLvAq+blhAgwncyZcqUON8jAtn4G6A2Cb6v9ODSQ01WbFwRW7wbnfQIHtzLv/9ZTpxvi7z4xIsyY/AMGdt7rMz9dq4UL1T8rkLgmH2AGQ1nL5yV6Yun6zLUDzl04pCUKVpG/vdi8kZGoeMeHfiAdF9Lxi6R0b1Gy6T+k2T20NlSvWJ1nRkyctpIXQdGTh+pM2CQsqvXB73kl+G/aEBg9rDZ8nWHr7Wux/INy+XH+dapZ2lt/or5cubiGf3ehncZrtuOzzB90HS5r+R9cvjEYWNNq4fuf0gLviOI0rxhc/3uHV0GdxpsPOOO/Lnzxz6Oz7tq8ioZ02uM1oC5HnZdRs0YJaNnpKwOiSfJmydIxo7prJcJ47vK3F8GyjdffyA1a1SQG6HhMvnH3/SSFBMnLZbtOw5JrlzZ5bOOr8rECd00wILX79njf5IzZ3ZZ/bfjk9bz5y/LS00flx8n9ZCvvnxfJv3QTd5q1Uh8fTNrYGPJ7xuMNa3vc+ToGSlWLL8M6P+efga8D577ftsmktnXRxYtXhsnmLN67Q5LA/iqpuAaNvRjGfxNOxk1oqOeTJ89e0nTG9gzZ5g89eTD+pxxY7vIE/Wr6jJKXYf27NKDfe2nnpHPvx0jn/T/Rr4YPVHyFS4il8/fKXhmOnvimETejNCZHli/6/BR0qxNO30M6a5QBD2zr6889XJzfa0uQ0dIucoPyvplv8uuTRu1aHqDF1+RPuN+lA++6C+dBn8v3UeM0/ol6TEKgdwfTrhx4h3fKEyMPkKgAY29hGA0EGploHE4depUY2lcaEzaTrcGvC46PVI6mig4OFg7OvDvE9f20HmAUZjIf2s7s6VYsWJaQHDlypV6H99BuXJxZ/WhoY0TIbyHI2j8mx0t8TE7MjDq076Tg4hcHwaltPvgJW3rjbe0w+bMHqC3EWS4FXNL5i9YI4OHWM/PEitl7dUr8midyjLR0k5FexXb0qF9C0HdvR2W15w9x/qbB8l5n+S0V48dO6upbEuWLKTbM2ZUJ/mo3cvGo0RWiWmX4FiPgAUumMVqzwxmIGhiC2lfMDjBHOmb1HaJOTsEWRIaNmxoLE0+BGxt2ySA9gYCMo5Gf5uDK+bOnWssISJXhxkfOI9AoBWpd+fNm6eDs9555x2dmfLAAw8Ya1qhcPlnn30m33zzjZ5bYF0ECEaNGiUff/yxzmYwofYFZm0MGDBAz88QgEVQIiHoY0AHPwIOmD3nqJg6tgv1NbC9qCmM9ZD2HDNHHNUQwW85ZnPMnDlTBg0apIEOFGOPD96vW7duehufsWPHjvLLL79oAAIz+Dp1srQfPvpIty2t4RiD91u+fLlmDECqMBSRx+fE946Bc0jxlR5cOiCC9FgIEtwIu5HomREILMxfOV9CI0KlTLEyUvX+qnL1xlUZNX1UnCLnSPvU+LHGenvx34tj02vhPReuXCg3o26mKHUWOvC/mfiNBg4wm6JGpRpSqVwluRl5UxasXCDtv24fJ6UUZlSgzsmMJTO0kDlmpyAgULxgcTlx5oSMmD5C+ozqY6yd9jbv3iw9vu0hm3Zt0mhm5fsqS7UK1bQo+5BJQ/Q7taWF3o2C7yUKl9DUZY4uCLDYyxKQJfZxFMX38/XT4vUIyrze5XWZtjjluUY9SWCgv5SynDjhghFofn6Z5cLFq/L7Hxvlgw+HyK9z/zLWTDyMhuvbb5LlYLNai7EXLpxHAyxFCueTU6cuWE4MF8ngoY5PWnfvCZaFi9bqiW/VquWkUKE8lgZriPz405K7nnPs+Fnp2WuCrFi5RUfFlSxRUN8nT54gOXjopOXgMdvyvLgHgs2b/7O8/29y8uR5/ewYeVekSD5Zt3anwxGAMH36cvn33wNawwSj8rJbtg0F5Sn1Lfx5kmz48w+JsJwQFSpeQkpXrCSh16/Jop8n62wQe2t+Xyzrl1vXR1Akf+GiEh1152/z2/QpcvzQAfEPzCJlHqgsmf38Ygul//zdEFk89Ue5cuG85MybTypUfViKliotYdevy8oFc2XlQp4MpSVzxgMuOGE10yXhRB0jE83HcMG6JtvH0UgcP3587G2M/ME17mOdAwcOxHktPGY/6u9e75dS6MwHvEdKoHEaXxqtpMJ3gO/C/vuIbzlgFCgu8UHnBzoR7Ed4YXtxIoIp6favmRjYLzBiCJ0U94J10MlhfudE5D5Qs6N48QLaXi1hae9lzRKgbUwMevm82xgZO26+sWbipaS9eubsJfnxxyU4ndH2KtqgGEiE1+o3YLK+tik575Oc9uqixeu0/R4eHqHfU9Gi+bXeHiUO2yVWGGCAFJW4jg8GOeB4bz9y2BzckdxUM2YgAoWEHcHfBH8bzFq1Fd/ypLKdJYK/AxG5Psye6Nq1q6Zg3LNnj7Ru3Vo2bNigxcodpadHfyYCHwsWLNBC3whIvPrqqzJnzhwNOtgOYkOgBfVJcP7RvXt3Te+UmEGVmBHy8MMPa3DYtpi6Cb9n5uy6oUOHysCBA7W4OIIYqHFiD7/FeAwzOnAMQvDmXrU/MEBtxowZ+lkxM69NmzY6sAyfD6kF27Vrp99Feqhdu7b+fiOlGc53sf2olYJljRs31uNgevC6jeEA6WD27NkauRL8LdMuJRk5AaQgmzJwihTMW1DGzRknUxZMMR5xAeh/PSn6DxP7rLPBaFp0AHn7BEqOIMcNR1fRsUMLeabhI/LH0o0ybPgsY6n7unJpg9y+HS0rVqxweFDLaNWrW1M61CqS8Kh1Sl17LlyVazejdARLfCeDGQkzFDCFOKnbh8aMmeoJOaYxohAd/DjhRoMQo17Q4MMJf3z1KTDqxsw5bT7XFrYNjUU0RhNKtWC+DiTm/WzXsX1uYpjbilGY8T3P9rsx3et98BzMxrBNAxEfbD8atOZ3bEIHDNJWAF4HbO8n9Lpm7m3bAAk6I5AnHKOo7DtR7rW9eC5GBKHxa5tKy9xGnCjg+8D7IrCS0PZhHXxmvKejka8pZf42xpfeK6Nh2jmmutcNv6JFnclzrAnIaTmT89LRg0gP4WzMfTNXnrtP/F3JW62elRbNG8iu3Yel6+djjKXu69rVnRIddZXtEgcyql1i+354j8S0BUyJaZfYiu/Y7qgdAObrY7nt8dxWfO0S2/dCh1x822m2GZD6Co/Z37+Xe7Ulkvp6SYX9FX837K8J7RcZZdGiRdK3b1/JH31TykWGGkvJE5zz8ZMDvlnk+eefl969extLnYe5b2L2GGYUECUW0j9in7nX7657V2ejDNGwdkNN4YWi8EdPprwAEBERubbRo0fHdhygExwnxDiJNk+wzdRMuKADAOIbrYfHsZ6j2RPmY+jsMKFjHh3tyX2/pEjM7BCcbJvvbW4rOmnMbUsJnNSj0wEn9fZBCnxX6AwATBnHBZLSsZIUSI1hFlm3he/4008/1RGZ9p0n5khRsyZJYmBaNXCWCBERJRbbJakrvjSd8bVL8PnR/kCKFPv2ij08jmAK0qp06dIlScELBMIw8hmDLeJr6+D18Xqp8X0TEXki1F7BDMmELkg15mwYEKFkee+V92REjxFSqWwlY4kV7rd4toUWhT9w9ICs3rraeISIiDwRpirjZBRwwm92giMftdkZgcLdZpoIcwSno3zPGCEU30m97WNVq1bV0Xhgdswn5/2Synz/pHTO4/tARwm+I3QcJBdO+jHiFYGG+DoJzKAIZqnhklbBEHCUWgOjRDEKFI/Zj/TCY+jsSKjTwpH06uwhIiL3wHZJ6rNPnwkJtUuGDBmi14kdAGEGRZBfPjHBEARckJ4M36UZ8IoPgiAIhsRXY4WIiBKG2TxIL5bQBQMRnE36B0Q4m98tIE8eir+P7zte5n43N7bg+ZgvxmhtlhNnT8j0JUkrdEhJcJv/kChtRN/ivkWpCx0AmLYKKL6ZWHiOfUeAo0721OLo/ZIKJ9I4oU7qKMOU5uDGCFOc9COwklDdDzMl1dWrV/WC21iWXOfOnXO4zY6KpaNjBGlBMPLVfhStOUrW0cyWhLATg8j53b59y7hFrsH924FslySPo9pg2D4Ebuwl1C7BAIh7zdqwZ6a1QsFfDJ5AmyI++JxNmzbVwBO2L75UXiYOrCBybjExMcYtclbNmjVzOCvE9oLzvPSS2H0m3QIipUuXtt64U2+OXNiydctk+frlcj30uhTJX0QLnpcoVELCIsLkt79/k/f7vS/rt6031nYhxv4Zu786GdQ2QTAqJibccoLJA4OrsP69oiVv3nxOWT8EMHINwliMM12hfghky5ZNr93R/PnzdZQk4ATZ0Qm5mVLC/nKvk9jkSsv3S6/RmGCOgETHAkaaJrT9ZjAEJk2apBdIblAEQRwUBrRPk4HXQqcJCqubHR22HSOORnXiu8IoWaxjjpDFBSNmkfcVnU2OOj/YiUHkvMqWLavXMTHMSe9KYqKtf6+SJUvqtTtiuyTpcA5qzmyxZQZszIEd92qX4HEEZxDswewR83iP55vtANsC92AGQ9CZhpq0ZvosR+0CrNugQQMNVM2bN++egyU4sILIeZl9cocOHdJrosQy95l79eumW0AEFe0VilaTyws+GSxfjPxCnn7vaanxag2p3ry6XuN+71G95fyl88aaLsbYP2P3Vydkjp6Njr6h164KhdSffqaDRxRUvxVjPXkoV87aOeDMzA56SnthUXeCms78m5NSOMk1RwfiZNecLosTYbNDAie29ie/CxYsMO6ljvR6P3M0pv17JAQFuxFcwDYmxb///isbN268q1CpPdtgiJkmCxfchuQERfA50dFh5kI3HT9+XLfJHHWL7wAdIwiGxNexgyCJo44gpDLBSF50wNgHUtiJQeTcYturUdf12lX9NOV3adS4k0cUVDcHXOXLl19y5cplLHU/bJckXfXq1XUmCIIctlauXCmPPPKIFCtWTO/fq12Ctgdmidof7xFYwXeBwND27dtjn4vtta8ZgsfiC4rMnj1btyexKUE5sILIeZnnxwjGRkayI5kS7/Dhw3qd0PkxpFtABKNf9UCJWbjcl8lZGTNE7vUPJyOZB4ZbHHHnMqKjrZ0Bzrxf1atXT68jojnzKL2Y37U7B0NMtrmzMeofJ7DmCTrYjxTE7Rs3Ujfom57vhxNrBDhwYm5vwoQJcUajInUERkQmp2MfHRHIzX2v3xazA8I+VVV8yxOrefPm2vFhFkNHYASdELYF0xHsQeeEOQsttbATg8i5cYaI6zEHW5Uv77zt1dTCdknSoJ2BY7vtjBpHqa8S2y5JLLwOAiT2gyIcLcd2YZvwnSamTcOBFa6jQOmy8v6En2TIjv0ybM9haTPOOsuZ3JuPj0/sebLZwU2UGOb+YrZF45OuNURiO32uWq+InAoGuEZYbzpzB6W5bRERd+drJeeDVFk3b1pnTDnzfoWRXxByM5pBkXRy4pq1k6hx48Z67c5wYooT5ipVquh9BABw0ooTWYw2NJebMEowLTq60+v9zE4OdBTYj8bECEuMTjU7Pdq1a6fbZH+yn1i2hVhtL/g8toGXtIAOCXOUJt4Tqa2QKss+X7iZ9sp+G+3TYiQWOzFSrvoLTeXrzbtk+N7gOJehuw5K3783yotde4pflizG2klnvn6fVeulbM1axtK7PftxB+3g+GDSVGOJY3gc29ei/9fGEnJ2ZofozYjzcivGaGCTU7sZcUavU6sz25mxXZJ0OLZjsIPZhkH7xdFMkIxslwDqlTl6fwRzbHFgReoIyl9AXv9qiPRbs0nbEGZboueyv6XBu+8bayUf2iJNu38h5Wo9KqEhV+TsoYMSmcRZzeS6zP4TpDokSozVq1fLsWPHtNTAvdozXrcxRzGdIEqDKY8qv+WS/PMsotR30nKJFHnnnXfkww8/tC5zUq1atZK9e/eKv39hCcxaylhKzij0+gG5efOc1K5dW77//ntjqXNq06aNTnXP7pdZKuZ1zlon7uLktTA5YblkzZpVFi1a5LQ1RDB6cuvWrdqhXa1aNWMpJQZO+tHRgc4D+wABpQxG8iIgYo7oTUtmsBgzXZxRjRo15NatW1I3/Aoi8MbSe0PA4pVe/SST5WTh0skTcssoPpg9b17JkjOX3La85s4/l8pPHT7S5Ullvn7Ejesy7fPP5OA/G4xH4kJABB0mh7duljHvtDSW3g0BkXKP1JaNv86WWb0+N5Z6tjUBOS1ncl6yadMmyZQpXce4JVrPnj2109HXN5dkzV7RWErOKCL8hISFHpUiRYrIzJkzLecY/sYjzoXtkuRju+QO87tAkAjXaQn7K/Zb7K/Yb50NzkP69u0r+aNvSrnIpM3ou79uPWnWu7/kLFRYoiMj5eq5sxIZESE58uWTgOw55FzwIfnmeWtauOSq0fQVadrtCwm/dlV++uwTObZjm/EIpdQ5Hz854JtFnn/+eendu7ex1LmcPHlS+5Bv3rwpn332GQOYlKDr16/Le++9p7/x7du318EOCUnX1jMKmnTs2NF6B/W3OAiZnAUGq0SKPPDAA04fDIFOnTrpdUTEKYmKvKy3yflE3jyvwRBEp2N/+5xYnz59tIMedUTOXOfIm7SC2iEIhsDrr7/u1gXVPZk5GhMjJTHqlFIHRrZiRgpnh6SOsKshMvfLPjK4aSO99KrzsKyaNF5uRUdrR8ejryV8IkGUEHReBAXllEhLWzUi/JSxlJwNUrsiGAJorzprMIRShu2SO8y6MexcTZl6b78rQQUL6aCHLxvWkwGWy6Amz0iPWlVl9hfd5MLRI8aayZe7SFHJ7OcnIefO3RUMaTX0e+m3+h95pt2nxhJyNwjSoy0BSPF7/ryL1iqmdDFmzBgNhmAw8r2CIZDuw4nQ+VO3bl1rMATtYqaVpYyE/RC/qUYaN1fotIbKlSvH5r29fm2P5SQT01vImeDE8sZ165R0HMRLlCiht51ZoUKFYhscR6+G6iX6VrpNIvQIZ26Ey56L1h8cpMrCrBxyXxh1iIm48RUTp6TD1GdH+cQp9Swa+o2c2LtHfP39NW83UXLlzJlTOne2DuIJCw3WCzmXiPDTcv3qTr392muvyWOPPaa3yT2xXWKFGTKYvcaBFclXqtrDkq9kKbl544Zs/HWWhJyLm84bMzonfZzylFmmqJt3p14sWO4+CcwRJF5OOkuSUsdLL70kTz75pISGhmqqvlWrVhmPEFmdPn1ag/3Lly+XzJkzx/Zp3UuG/HJ07dpVC2xKtOXOOcsFs0Vwmyi9oI8XdeoQR7Bc+/n5Sffu3TXQ4CowFaxZs2Z6Oyz0iOVkZpfExFhHnVPGiY66Jteu7tDUA/DWW29p4WFXYTtlFrNEdp0P0RkjlDKoy7LnwlU5GhIq0TG35PHHH0/0gZqIKL2h4wEdDD6W9hFRSqAWgjn7GrNErl7ZamkrhWinLGWcmJhwuXH9P8s5xGHL3+KWPPfcc2yXEFGiefv4iBdueHmJT2ZfXUaUVrp06aID60NCQmTgwIEydOhQOXcOncnkycLDw+W3337TvtENGzZIrly5NOtJ8eLFjTUSlq41ROxNmTIlbk59b8sF512W39Pb2mNNSYWCYTzBuJv5vXhFWw7bkZYFuBgwEgonACgE64oQIccBAYV6wcvLW7y9s1gaJlkt93x0GaWt27cjJSY61HJyGaonlVCqVClNbYb87q7or7/+0oPJjRuIHFqhtoi/j7f4enMUTmIhmBQWFR1npg1GYLpKpwNzdZOnc/caIo5qfKCAafsZczVNxR+jvpOVE+/kPC9f5zFNTVG4fAUNlqD2yJUzp2Xt9Cny148TjbVYQyQ9uEINEVu7du2SYcOG6bXJxyerePtksXwMBt7SR4xER9/QNuvt29bRiEjbifYqAiKugO0ScjXuXEPks18WSuH7K8qhTRtluuVYbz9LxBGzHVHwvvLi6x+gfTQ3Q0PlyL9bZOmYEbFpscz2gXfmzHrfFBMVpbVKclnaKPbwOr/0/0K2LJwnXRctlZwFCsm8r/pJxfoNpFytOuIXGCg3w8Jk98rlMqdvTyn5UDVp9Mlnls9QQWuq2T6G1zIVr/KQ1Ptfa22HoDYK+paib96UYMs2L/l+WOw2txw0XKo2el4Lv09u/2FsyjC0q9qO+1FKPPiQ/LtkkUzt0kGXZzRXqCFib8aMGdqWMPs8g4KCtN+lTJkyOsiZPMOJEye0RjmuTUiBiIw/CIokVoYGRGDfvn2aw3HPnj1y9aqRt4goHZQrV05eeOEFefXVV40lrgvTBxEUQYcNpotRxilatKjUqVNHf4zRWHJlKEqFRgcaymfOnDGWUnKgNku9evU0RRZSk7kKdjyQp/O0gAhO2pv1HiAPPdvYckJ/QH7s8FHsCX3Nl5pJ445dND3F5VMn5fyRYMltOeblLV5Sa46s+GGsBlCAAZG052oBERPyO69YsUKOHrXWrKCMkS9fPnnwwQelQ4cOkjdvXmOp82O7hFyNOwdEard4w9Iu6Cz+WbPJ5ZMnZO3MqfLX5B+MR+/WsN2nUv9/74pvYKBcO39OTv63V9sUBcuUFf9s2TSgMvuL7vLfmr/k0VffkJovt5CA7Nkld+EiEhoSItcunJcYS3sDs1j9s2SVXJblCHJcsrRJIsPCJCoiXJaNHSl7/15lDYgULGxpwwRr0fezBw9I1ty5tc0Cu1Ys00AH0oOeObBfsuTKJXmLldDZsZsXzJWZPbvqeoA2SNmatSTMsg3njhzWYEiRChV120/s3iWj3n5dAyhIM/rOyHG6XWum/iQLBn2pz0cACG2diyeOy0+WdtXZwwd1eUZzxYAIBAcHy4gRI7QP+fJl1tP1ZKjVi3TKr7zyivbtJlWGB0RsoSP3wIEDcvDgQT25I0pt+fPn10AILj4+7jl74sqVK/pvCIVnwywNA0p7GF2HH2LsV+5aIBu/zeZvNCVewYIFNQDiqift7HggT+fuARGMiLx08oTO9Mjk462dB74BAXLu8CH5dUBvHfUJeUuUlLe/Ha0n+cvHj5IVE8bqcniufSep91ZruXz6lPzQ7j0NoDAgkvZcNSBiQhsVbQpc0HaltIfRs+Z5UJ48eYylroXtEnI17hwQgerPvygNP2qvs0rh4vFjsvKHsXq8tnV/3Xry2sBBEpA1mz6GNoYJgYRmfQZIyarVdabIiDdbGI8k3E5A0ANBDAzI+H3EcGOpFR7D69oGWaBJlx5St+Vbety8ev6czO7d467HrljaM+Pffyd2QAiKt9+4fEl++3ZI7MyRSk82lOaWbfbx9dNZKJvm/aLLG7z3vjT84BO5dvGC/Ny5vdZYQZAkR7588tvwIbJ66o+6njNw1YCILQzaRN8X2hIxlrYseQb0r6D/rWzZsikahOxUAREiIiJyHux4IE/n7gERzAixhZGXm+bOkdl9elgXGJ5o3VZHOCKwMeGD1sZSKwRL2oydJFlz5pI5/XvJv4sXMiCSDlw9IEKUHGyXkKtx94AIoC2BwRHVnn9RArPn0EEW+9ev0UCEmUarWe/+UqvZa3J0+zYZ1/Z/cVJSQdXGL8jLPftqW2ZOn56yfekSXZ6SgEj+kqVlw5wZMqdvL2OpyH2168jrXw2RrLlyy+opk2XB4IHGIyIPNmykgRmw3Yb4IGVYwbL33fX+70/4Scpa2ixbF83X+/hedi7/Q37q+LHedxbuEBAhSgm2nomIiIiIPBDycI9++w3pW7+2rJ3+s6aBeLjJS9qxYQtBj8z+/lLh8foyfG9wnEv3JSskT7HimmYiUyYUBCQiIiJPgeDG3C/7yuAmz+pMiaiICClf53F5beDg2IEXeYqX1LoPqLdhHwyBPatWyI2LF8U3IFDyly5jLE2Z6MhIuXTypHHPCsGa27duSZSlvWOfuio05Ipuu7dPZq2TZgszQt4aNkI6zV0s/dZskkH/7pUiFR4wHo0LARKk96r81DNSpeGzOhN36Sib2slE5BQYECEiIiIi8mAYwYn0FWumTdHABmZ4IF+2CamyIOTsGTm9f5/DC2qOhF0N0fWSKnsiahigkOr1ixeMe0RERORM0JaY0aOLLBzytc4QRdHyR1+1zurAcR6BiMiIcL1vD0GSW7dvafobpPNMDQh+IDDh0O3bOiv2XhDQwYyPt78bLVUaNpI8RYtLxPXrcmLvbjkffNhYKy7Mit21YrkOJMFAkS0L5jpN3RAiuoMBESIiIiIikj8njNbgRo78BeTxVu8YS0Wunj2j1yf/2yODmzZyePn2tZe1kGlSoDh7dFSU+PoHSLEHKhtL40JnRFC+/NqxEXHjhrGUiIiInNH6WdPkxJ7dGhDADFPA7A8MuMDxPiE41t90ojqoT7VtJ2Vq1tLaKOPbvi2fP1xJBjZqICNaNo832ILaJeXrPKafJZOPj84SMb8HInIeDIgQEREREZGO0NyycJ5ERYRLqeoPS61mr+ry0CtX9MQ+X4lSqXpSf/bwIQkLuSI58uWXivUbGEvjqtm0mQQVLKizT07s3mksJSIiImeGFFm3LW0HuHTqpAZEilWuovftoYZI9rz5JCL0hpw5sN9YmvGKPlBZvH185PCWTbJv7WpjqTWVaFDBQsa9uBp37KJF5ncu+0OfV6BMOa2DQkTOhQERIiIiIiJSq6f+KEd3bJeAbNm1ACpmaOxdvUrTVaFWSMMPP4nNCQ64/eqAb6RptztFSxMLucSP7dyuIyhrvtxcHrFcbD3wxFNSt+Vbktk/QI5s2xpvcXYiIiJKP0ir2W7yNO3ot20TwGMt/ydFKz4gkeHhcmr/f7ps//q1En7tqs4G1eLpNoLyF7Ac/1tIQNZscnznDvlvzV/GIwlD3TOk1wrMEWQsSX1mQCd7nripPTFzxEwnauuZdp9q4XbUDVk+bpRsmDNT04dVevJpqflSM2MtInIGDIgQERERGfbv3y8PPvigTJs2zVji3NatW6f5lnFNlFo2/jJLZ2QUuq+8PPFOGw1EbF4wV25FR0vV517QQuofTPxZPp46W3otWy01XnxZMvv5G8++A50UL/XoI53nLYlzaT/jVy3QDig0itGgmCXSrM+XWqwU6/RetV5zducuWszy+D4WJCUij5SSdgmeg+fiNYhSG2ZJYDZE/zWbpefSv/TYjWN4k649xC8wi+xc/oesmzFV1922ZJGsnzVdbz/6WkvpYznGox3xybRfpOvCpVKmxiNy5uB+WTxskK6TGOePHBFLI1gebvKStke6zP9dZ5qkpoObNmih9fsfqyfdf1+p9UR6LvtbZ7WePRS3Lsj9detJzVda6MyYf+bO1roh+NyoJ+KfJas89ub/mDqLyIkwIEJERESpCifg6KRPTEe9eaLvLJ36s2fPlgIFCsgzzzxjLHFuVatWlbZt28rPP/8s4eGOC1USJRVO4PesWqEjL6s9/6IUr/KQ/PbtEC28fvbgAcmaK7eUq/WolLAsj4mOspz4z5FlY0YYz74D+cMLlCmrgRXbC9JHmCM60WEw4f13ZMui+RJ+/ZpkCcqp62A05o3Ll+SfX2dbHm/NgqRElGye2i7Bc/BcvAZRajq+e6dsXjBPzh8JltuW/3IVKarHbnT8Y9miYd/I9G6djLWtbNsRWXLmsrYjHnxIom5GJOtYv3zsSDmwfq34+PpqAffAoCCJirhpPJo6VkwYKysnjpMbly7qLNlytetIpkyZ9L1vXLlsrGWdLVvvf60lR958Erx1sz7P9NfkH3TGCFNnETkXr9sIXxIRERHZQUf71q1bZdy4cVKtWjVj6b2h46Fly5Z6e+3atfLoo4/qbUds1+3Xr5/06pX0tDupBZ0gLVq0kM6dO8sbb7xhLL0bOkhWrlzpcFvN19ixY4fed/SZLl26pK+/dOlSvV+lShWZNWuW3HfffXrfEfM5JUqUkOHDh0tAwJ2ilOZ7jho1KsHvmpKuevXqer1lyxa9djY1atSQW7duSd3wK0jWbSwlT7AmIKeOjN20aZN2zhB5ArZL7rBvbzRs2FC3PXfu3HrfhDZLu3bt7tnOoLSB/RX7LfZX7LfOZtGiRdK3b1/JH31TykWGGkvJE5zz8ZMDvlnk+eefl969extLiTwHW89ERESUYdDhjIAAPPHEE3qdURIzCrN///5Sp04d415ctoEJjDe5ePGidkTgOSYzsIEOFi02abm8/PLL+jw8Pz5//PFHbADFHjo48BqcJUJERJQyrtAuQXvhk08+0SAH2hFhYWE6YALtC7QzbGEm6SOPPMJZIkRERDYYECEiIqIMg8787du36wl9Rs5uQOfCr7/+Km+++eZdoysBoy6RPuOLL74wltwNnQ0ITJifA6+DwAde1zbY8f3338f5rB9++KF2eMQ3CwGdGwh2JKR58+ayceNG+ffff40lRERElFSu0C7JkiWLTJw4MXbGB2aNdujQQc6ePSv79u3TZSY8htewb4sQERF5MgZEiIiIyOMhGJHQ7JDg4GBNnYEOElzbQ9ACs0HsR5OWL18+TrADnRrlypXT26bAwEAd2Yn3cASzQ9Ap4+h9TeYsEcxGsR8dSu7vFrNleRT9c3t56W0ick8JtUuKFCmiF1t58uTR9Y8ePWosucOcJYKUm5xJSo7c5jHF47DpSJ6OAREiIiJKU+ikN4uZolCp7QhFBBHMxzALA9Chjw4Ac7l5sU09ZbJ9bfOC10wKcwZGfLNDADM9EsojjhGZGJmJDglb9wp23Au+qylTpugMkHvBOtgGBFDIM5QtW1avQ7299Zo8Q2gm69+7VKlSrB9ClAzu0C5JCnOWCGpYcCYp2SpdurRe3/BiO8LThGby0Wu0JYg8EVvQRERElGZQb8M2zRSKf96rXgZqb6Bj3x5ex+x8wAjH999/P8EUVollBhDimx2SWBiZaR8QQSdE4cKFjXuOHT9+XNNd2c8uwWfEaM5WrVrFpsVIiDlLBJ0onCXiGcz94jo7MjyK2YlhP9uMiO7NXdsl5sAM1EBxBLNEUNyb9cbIlnkcCcvkLbe8OEvEk5hBsMScYxC5IwZEiIiIKM3g5BvFPpFqaurUqboMnQ+zEyjuiYa5mb/bvJjpojDKEp39ZhABzFRWuKxdu1aXJVZqj8KMz6lTpxx2QOD9P/300zi1R0xz587V65deekmvEwP1SICzRDxD7AwRo4OcPIMZAGNAhCjp3LFdgmBOu3btpHPnzvF2bpp1RlhvjGz5+PjEHks4S8SzmLOL2ZYgT8WACBEREaUZnNDjJBww0rFhw4Z6O74AgS2c4COVBdJNmCMuMfoRIzXNXNmAx8yUFwgqJKUIKjobsI1pPasCs0TM78GEThR8DqTU6tSpk7HUCo8NHjxYOy/sn5eQ1JrtQq7B7Pg67+0rEV5s1nuCm5a/83kfP73NUZ1ESedu7RKk9UK9MgyseOONN4yljiHog1oimC1CZDI7xM/4+Os1ub9Tlr91jHhJoUKFJCgoyFhK5Fl45kREREROBcEAdDbgBB+jNh1Bh4FtTQ+sh/Xtc4Enhhk8SOmsCrNTxBY6V9DJYg8dGEjbgdGpY8eOjRP0QAcIUnAkNNLTkeSMKiXXhk4t7L9Ic3HYN4uxlNxZsOXvHGP5ez/55JNSs2ZNYykRpSVnbZegrdCyZUudhZJQnTPANvz6669xAkJE8O6774qvr6+c9/GVs96+xlJyV0iPFuwbqLcxs4zIUzEgQkREROnCNge3oxkTgAACOvWhSpUqmhMbKSfMtBa2MOISj2EdrAvogEDdjXuN8rSVGrNEzNoh9gERpOU4evRonIKFth0YjkZzogNk6dKlug46YMwLRpyiICoKtZuFXm1xdohn+uyzzyRnUJBc9s6sI/7IfZ328ZOLlr9ztqxZ9e9ORCnjqu0SvBbqlSDAgfdKzAwUzg6h+BQpUiR2pvIR3yw6E5HclzmApkmTJrEz5Ig8EX/piIiIKM3gZN7sBMDJuDmy0jZAYMsMIADSP2CGBJ6/Zs0aXWbCSEd0MADW2bBhg+YFBzwfr5MUZhBh9OjRep1UxYoV046GlStXGkus0FGBzhazyKk5QhPBkPg6MBAkQYeK/QU5yc3c5/aBFM4O8Vw5c+aUTp07622M+DNH/ZF7Cc4cGNuJgb933rx59TYRJY07tEtQAwS1QGbNmpWomaScHUL3gnp1mHkY7eUl2/yzywUfzhRxNzcy+cgOv+wSYrlGqiwOrCBPx4AIERERpRlzRoM5wwHQQRBfoXCsi5oagPXxPCzD69j76aefYmdP2K6DQENSgwLmaEx0GKDjIKnQwYDnY5uRWgMcpb7asmVLmozQ5OwQz4YRfmZBfcwS2eqfQ0K8M8ttXUKuDH/HbQE55FRm6+yfNm3ayHPPPae3iSjp3KFdgsEXZnAmMTg7hBKjS5cuUrduXYnyyiT7fLPKAd8srE/mBqItf8MTljYEAl3XvH3096xnz576G0XkyfjrRkRERGlm/vz5caZjo9MBIyjjG6GI5V9++WWc5yAthaPUFI4kJo92fBBMQEFUdBwkBzo88P6oDYLOEKTRQmeG/WwO284Y20ty8owDZ4cQvPPOOzJ58mSpVKmS5ofe5ZdN1gbktJwA59BOjWM+/ry4yOWg5e+13fJ3WxuYS/+ON7y8pUKFCjJx4kQNiBBR8rlLu8QMzthf8BzbNFucHUKJlStXLv23gJkD2JfO+fjJ5oAg2WhpS+BYdMQ30OExixfnvPznl1U2W9oSGyx/w6OZrcGP5s2b68yyGjVq6H0iT+Z1GzkYiIiIiOygk2Dr1q3agV+tWjVjqXtDbY7BgwcnOg2FM8A2IyCCawZEUpeZ6gwze1zJmDFjZMWKFbFpXsh1FS9eXOrXry8fffSRsYTIc7FdkvR2CWaqnjp1KsGgD6Ud7K/Yb7G/OppV5KyCg4NlxIgRsnv3brly5YqxlFyRn5+f/na0atVK6tWrZywlIgZEiIiIyCFP7HjAqErM6MB0clfoPMDIzxYtWmhaLkcF2illXDUgYkLO+gMHDuiFHRquIygoSMqVK6cdGExpQXQH2yVJa5cghSdmrSZUt4zSlqsGRGydOXNGDh48qG2JmJgYYyk5OwyoQFsivvpIRJ6OAREiIiJyaNiwYTJ9+nRp3769tGzZ0lhK5BlQaLd169ZSunRpHZlLREQZi+0ScjWTJk3Swvj/+9//ONOPiMiJsIYIEREROVSmTBm9/u+///SayJPs3LlTrxEQISKijMd2Cbkac1+tXLmyXhMRkXNgQISIiIgcwlRrYMcDeSKkhwAGRIiInAPbJeRqzLZEpUqV9JqIiJwDAyJERETkkNnxcPz4cZk7d67eJvIEp0+flvXr1+ttBkSIiJyDbbtkxowZepvIWS1ZskROnjyps0Ny5sxpLCUiImfAgAgRERE5hMK+qKEAI0eO1GsiTzB58mQJCQmRF154QerVq2csJSKijGTbLhk6dKh2NhM5o8uXL8sXX3yht819loiInAcDIkRERBSvDz74QB544AG5du2a9OzZ01hK5L7WrVsn8+bNk4CAAOnUqZOxlIiInIHZLoG2bdvqNZGz+fDDD/X6vffek0cffVRvExGR8/C6bWHcJiIiIrpLRESE1KlTR2/Xrl1bR7zlyZNH7xO5k86dO8uqVav09pQpU6RChQp6m4iInIdtu6RQoULy/fffS4kSJfQ+UUZatmyZDBgwQMLCwvT+li1b9JqIiJwLZ4gQERFRgvz9/WXq1KmSOXNmravwzDPPyOzZs+XUqVPGGkSuC7OfEAR58cUXY4MhHTt2ZDCEiMhJ2bZLUPPplVdekZkzZ7JdQhkmODhYvvrqK+nevbsGQ7CP/vTTT8ajRETkbDhDhIiIiBJt+PDhMm3aNOOeSJEiRaRcuXIsPE0u59KlS/Lff//pxVSyZEnp16+f3H///cYSIiJyZmyXUEY6duyY7N69WwNzpqeffloGDhxo3CMiImfEgAgRERElCeorzJkzRw4fPiwxMTHGUiLXVbx4calVqxZrhhARuSC2SyijBQYGStmyZaVFixYaECEiIufGgAgRERElS3h4uBw5ckQ7IGxHxhG5AtTBKVOmjAZDgoKCjKVEROSq2C6h9IbaNZiNVKpUKcmUiRnpiYhcBQMiRERERERERERERETk9hjCJiIiIiIiIiIiIiIit8eACBERERERERERERERuT0GRIiIiIiIiIiIiIiIyO0xIEJERERERERERERERG6PAREiIiIiIiIiIiIiInJ7DIgQEREREREREREREZHbY0CEiIiIiIiIiIiIiIjcHgMiRERERERERERERETk9hgQISIiIiIiIiIiIiIit8eACBERERERERERERERuT0GRIiIiIiIiIiIiIiIyO0xIEJERERERERERERERG6PAREiIiIiIiIiIiIiInJ7DIgQEREREREREREREZHbY0CEiIiIiIiIiIiIiIjcHgMiRERERERERERERETk9hgQISIiIiIiIiIiIiIit8eACBERERERERERERERuT0GRIiIiIiIiIiIiIiIyO0xIEJERERERERERERERG6PAREiIiIiIiIiIiIiInJ7DIgQEREREREREREREZHbY0CEiIiIiIiIiIiIiIjcHgMiRERERERERERERETk9hgQISIiIiIiIiIiIiIit8eACBERERERERERERERuT0GRIiIiIiIiIiIiIiIyO0xIEJERERERERERERERG6PAREiIiIiIiIiIiIiInJ7DIgQEREREREREREREZHbY0CEiIiIiIiIiIiIiIjcHgMiRERERERERERERETk9hgQISIiIiIiIiIiIiIit8eACBERERERERERERERuT0GRIiIiIiIiIiIiIiIyM2J/B+4aspDKjX/dQAAAABJRU5ErkJggg==;" vertex="1" parent="1">
          <mxGeometry x="-350" y="780" width="1604" height="188" as="geometry" />
        </mxCell>
      </root>
    </mxGraphModel>
  </diagram>
</mxfile>
